<?xml version="1.0" encoding="utf-8"?>
<!-- Generator: Adobe Illustrator 16.0.0, SVG Export Plug-In . SVG Version: 6.00 Build 0)  -->
<!DOCTYPE svg PUBLIC "-//W3C//DTD SVG 1.1//EN" "http://www.w3.org/Graphics/SVG/1.1/DTD/svg11.dtd">
<svg version="1.1" id="レイヤー_1" xmlns="http://www.w3.org/2000/svg" xmlns:xlink="http://www.w3.org/1999/xlink" x="0px"
	 y="0px" width="460px" height="100px" viewBox="0 0 460 100" enable-background="new 0 0 460 100" xml:space="preserve">
<g>
	<g>
		<g>
			<path fill="#FFFFFF" d="M93.998,41.529c-1.188,0-1.279-0.138-6.259-4.203c-1.142-1.234-1.188-1.919-1.188-2.33
				c0-1.873,1.37-2.559,2.604-2.559c1.646,0,2.422,0.686,4.158,2.147c2.604,2.284,2.878,2.513,3.106,3.015
				c0.137,0.32,0.319,0.959,0.319,1.097C96.739,41.529,94.318,41.529,93.998,41.529z M97.288,47.103
				c0,3.106-3.93,11.604-5.209,13.568c-0.365,0.594-1.051,1.507-2.74,1.507c-2.285,0-2.696-2.283-2.696-2.924
				c0-0.913,0.138-1.096,1.097-3.061c2.833-5.848,3.152-6.486,4.203-9.959c0.183-0.686,0.548-1.873,2.284-2.147
				C96.237,43.812,97.288,45.777,97.288,47.103z M89.064,27.001c-0.776-0.594-1.233-1.69-1.233-2.376
				c0-1.599,1.37-2.467,2.467-2.467c1.143,0,1.736,0.184,4.066,1.919c3.335,2.513,3.791,2.97,3.929,4.249
				c0.229,1.781-1.097,2.969-2.513,2.969c-1.279,0-1.919-0.548-3.792-2.055L89.064,27.001z M98.475,47.148
				c0-2.285,1.645-4.295,4.111-4.295h19.051c3.7,0,4.843,2.559,4.843,3.838v9.776c1.188,0.091,2.284,0.685,2.284,2.376
				c0,2.604-1.554,2.604-3.655,2.604H99.48c-1.873,0-3.655,0-3.655-2.375c0-2.559,1.69-2.559,2.65-2.604V47.148z M121.272,22.342
				c2.878,0,4.659,1.324,4.659,3.928v9.914c0,3.792-2.695,4.432-3.746,4.432h-17.908c-3.152,0-5.025-1.371-5.025-3.609V26.316
				c0-1.098,0.457-2.33,1.325-3.062s2.102-0.913,3.243-0.913H121.272z M106.242,47.696h-1.554c-0.73,0-1.051,0.046-1.051,1.005
				v7.767h2.604V47.696z M120.495,27.823c0-0.685-0.137-1.005-0.959-1.005h-13.568c-0.776,0-1.279,0-1.279,1.096v0.96h15.807V27.823
				z M104.688,33.58v1.051c0,0.822,0.229,1.004,1.051,1.004h13.751c0.822,0,1.005-0.319,1.005-1.142V33.58H104.688z M113.551,47.696
				h-2.422v8.771h2.422V47.696z M121.272,56.468v-7.767c0-0.686-0.046-1.005-1.051-1.005h-1.417v8.771H121.272z"/>
			<path fill="#FFFFFF" d="M138.534,49.569c-1.873,0-3.655,0-3.655-2.376c0-2.375,1.782-2.375,3.655-2.375h9
				c0.594,0,2.878,1.005,2.878,3.243c0,1.599-2.284,6.351-6.396,9.274c-2.056,1.416-6.075,3.746-7.766,3.746
				c-2.65,0-2.696-2.787-2.696-2.832c0-0.32,0.138-1.463,1.143-1.965c5.025-2.513,5.573-2.787,6.533-3.563
				c1.233-1.005,2.786-2.559,2.786-2.878c0-0.274-0.137-0.274-0.685-0.274H138.534z M140.726,42.99
				c-1.736,0-2.513-0.822-2.878-1.324c-0.365-0.411-0.64-0.914-0.64-2.284V27.914c0-1.416,0.319-1.873,0.64-2.283
				c0.64-0.822,1.553-1.325,2.878-1.325h9.731c0.319-0.503,1.735-2.695,2.01-3.106c0.457-0.64,1.325-0.914,2.056-0.914
				c0.731,0,3.061,0.914,3.061,2.741c0,0.686-0.228,1.005-0.365,1.279h12.746c1.416,0,2.33,0.548,2.878,1.325
				c0.411,0.502,0.64,1.051,0.64,2.283v11.468c0,1.37-0.273,1.827-0.64,2.284c-0.73,1.005-1.781,1.324-2.878,1.324h-11.558v15.579
				c0,1.051-0.777,2.421-1.69,3.015c-0.822,0.549-1.69,0.731-4.249,0.731c-4.979,0-6.624-0.594-6.624-2.924
				c0-2.376,1.645-2.376,2.786-2.376c0.549,0,3.29,0.274,3.335,0.274c0.503,0,0.64-0.091,0.64-1.005V42.99H140.726z M167.955,31.342
				v-1.279c0-0.686-0.411-1.098-1.051-1.098h-23.3c-0.822,0-0.959,0.822-0.959,1.326v1.051H167.955z M142.645,35.727v1.463
				c0,0.273,0,1.188,0.959,1.188h23.025c0.686,0,1.325-0.32,1.325-1.188v-1.463H142.645z M175.31,56.787
				c1.188,0.641,1.188,1.6,1.188,1.965c0,1.6-1.143,3.016-2.513,3.016c-1.233,0-7.584-2.147-13.751-10.69
				c-0.64-0.868-1.097-1.69-1.097-2.787c0-2.238,2.102-2.786,2.741-2.786c1.051,0,1.279,0.273,2.604,2.055
				c1.233-0.639,7.995-3.562,9.046-3.562c1.736,0,2.33,1.736,2.33,2.74c0,1.371-0.959,2.057-4.111,3.29
				c-0.64,0.274-3.381,1.462-3.93,1.69c1.006,1.142,1.782,2.01,3.519,2.969L175.31,56.787z"/>
			<path fill="#FFFFFF" d="M219.675,40.859c4.472,1.055,7.437,4.07,7.437,8.291c0,6.934-8.994,12.361-21.204,12.361
				c-12.311,0-21.205-5.478-21.205-12.361c0-4.221,2.965-7.236,7.437-8.291l0.905,1.256c-3.065,1.006-5.126,3.016-5.126,5.93
				c0,5.377,7.789,9.396,17.989,9.396s17.988-4.02,17.988-9.396c0-2.914-2.061-4.924-5.125-5.93L219.675,40.859z M194.501,50.307
				c2.312-1.859,3.165-4.021,3.165-5.879c0-1.859-0.904-4.322-2.261-6.684s-2.061-4.824-2.061-6.582c0-3.016,0.805-5.98,4.673-8.441
				l1.357,0.854c-2.312,1.859-3.166,3.97-3.166,5.879c0,1.859,0.904,4.271,2.262,6.684c1.356,2.361,2.06,4.823,2.06,6.531
				c0,3.367-0.904,6.131-4.673,8.492L194.501,50.307z M202.892,52.366c2.362-2.161,3.468-4.724,3.468-6.984
				c0-2.211-0.854-4.823-2.211-7.537c-1.407-2.663-2.211-5.427-2.211-7.386c0-3.468,0.954-6.935,5.024-9.698l1.457,0.804
				c-2.361,2.11-3.467,4.673-3.467,6.934c0,2.211,0.854,4.824,2.211,7.537c1.407,2.714,2.211,5.428,2.211,7.438
				c0,3.818-1.206,7.034-5.024,9.646L202.892,52.366z M212.138,50.307c2.261-1.859,3.115-4.021,3.115-5.879
				c0-1.859-0.854-4.322-2.262-6.684c-1.356-2.361-2.06-4.824-2.06-6.582c0-3.016,0.804-5.98,4.723-8.441l1.307,0.804
				c-2.261,1.858-3.165,4.02-3.165,5.929c0,1.859,0.904,4.271,2.261,6.684c1.407,2.361,2.061,4.823,2.061,6.531
				c0,3.367-0.904,6.131-4.673,8.492L212.138,50.307z"/>
			<path fill="#FFFFFF" d="M273.47,30.701c1.873,0,3.654,0,3.654,2.422c0,2.604-1.553,2.604-3.654,2.604h-6.853
				c2.375,2.422,3.791,3.473,8.588,5.894c1.646,0.822,1.874,1.599,1.874,2.33c0,0.822-0.731,3.198-2.696,3.198
				c-0.685,0-1.233-0.184-2.056-0.641v12.518c0,3.152-2.832,3.152-4.157,3.152h-23.664c-1.325,0-4.112,0-4.112-3.152V46.143
				c-1.919,1.006-2.878,1.097-3.198,1.097c-1.05,0-2.421-1.188-2.421-2.924c0-1.827,1.233-2.421,2.467-2.97
				c3.701-1.645,5.985-3.015,8.954-5.619h-7.172c-1.873,0-3.655,0-3.655-2.421c0-2.604,1.554-2.604,3.655-2.604h4.614
				c-0.822-1.233-1.051-1.689-1.051-2.33c0-0.685,0.273-1.051,0.456-1.324c-1.005,0.045-2.467,0.092-2.924-0.046
				c-0.73-0.183-1.781-0.776-1.781-2.421c0-2.604,2.01-2.604,3.289-2.604c3.335,0,15.579-0.411,23.208-0.822l5.894-0.274
				c0.229-0.045,0.503-0.045,0.686-0.045c2.513,0,2.558,2.559,2.558,2.649c0,1.051-0.685,1.735-1.051,1.964
				c-0.64,0.32-2.192,0.457-3.151,0.549c0.319,0.365,0.594,0.867,0.594,1.462c0,0.594-0.274,1.051-0.594,1.645
				c-0.274,0.503-0.32,0.594-0.914,1.599H273.47z M253.689,47.285h-6.625c-0.73,0-1.051,0-1.051,1.051v1.462h7.676V47.285z
				 M246.013,54.32v1.6c0,0.959,0.183,1.051,1.051,1.051h6.625v-2.65H246.013z M253.049,35.727
				c-2.193,3.152-3.655,4.478-6.944,6.854h20.284c-1.736-1.188-2.147-1.508-3.106-2.422c-1.006-0.914-2.696-3.106-3.609-4.432h-0.64
				v2.513c0,1.965,0,3.655-2.513,3.655c-2.832,0-2.832-1.371-2.832-3.655v-2.513H253.049z M253.689,26.682
				c-5.117,0.229-5.665,0.229-6.259,0.229c0.319,0.594,1.735,3.243,2.01,3.791h4.249V26.682z M262.78,30.701
				c0.686-1.142,1.781-3.015,2.695-4.522c-1.051,0-5.527,0.229-6.441,0.274v4.248H262.78z M266.937,49.798v-1.462
				c0-0.914-0.183-1.051-1.051-1.051h-6.853v2.513H266.937z M259.034,56.971h6.853c0.731,0,1.051,0,1.051-1.051v-1.6h-7.903V56.971z
				"/>
			<path fill="#FFFFFF" d="M292.833,32.62c-0.64,1.325-3.198,6.396-4.751,8.04c-0.229,0.275-0.868,0.869-1.965,0.869
				c-1.508,0-3.016-1.325-3.016-2.742c0-0.775,0.183-1.051,1.828-3.562c3.015-4.66,3.608-6.441,5.527-12.381
				c0.594-1.919,1.782-2.375,2.649-2.375c0.229,0,3.152,0.182,3.152,2.695c0,0.775-0.273,1.553-1.233,4.248h6.03
				c0.595,0,2.513,0.183,3.381,1.965c0.503,1.005,0.411,3.609,0.32,5.482c0.411-1.006,1.416-1.645,2.513-1.645
				c0.64,0,0.867,0.137,1.096,0.273v-9.183c0-1.827,0-3.655,2.604-3.655c2.832,0,2.832,1.6,2.832,3.655v14.391
				c3.655,2.97,7.173,4.706,10.645,6.351c0.914,0.41,1.188,1.233,1.188,2.192c0,2.056-1.462,3.29-2.741,3.29
				c-1.554,0-5.482-2.239-9.092-4.797v13.385c0,1.828,0,3.655-2.604,3.655c-2.833,0-2.833-1.599-2.833-3.655v-17.68
				c-0.867-0.777-3.335-2.924-3.746-4.979c-0.73,9.091-4.02,15.853-9.411,21.426c-2.375,2.421-5.756,4.843-7.766,4.843
				c-1.828,0-2.833-1.462-2.833-2.924s0.594-1.873,1.462-2.467c4.522-3.152,7.355-5.117,10.143-10.279
				c-0.914-0.73-5.163-3.609-5.985-4.295c-0.365-0.273-0.868-0.73-0.868-1.735c0-1.142,0.914-2.924,2.604-2.924
				c1.37,0,4.705,2.421,6.305,3.655c0.685-2.879,1.051-5.254,1.051-7.63c0-1.37-0.138-1.508-1.188-1.508H292.833z"/>
			<path fill="#FFFFFF" d="M367.703,27.869c3.609,0,4.34,2.284,4.34,2.969v2.879c0,2.741-1.233,4.248-3.381,4.248h-15.853
				c-0.046,1.782-0.046,2.468-0.091,3.016c0.959-1.188,1.918-1.324,2.969-1.324h11.695c1.143,0,2.65,0.229,3.152,0.639
				c1.143,0.914,1.828,1.828,1.828,3.701v13.888c0,1.051,0,4.522-3.792,4.522c-0.183,0-1.965,0-3.427-0.959
				c-0.183,0.137-0.457,0.365-1.051,0.365c-0.274,0-1.188-0.091-1.599-0.822c-0.274-0.457-0.274-0.686-0.274-2.74v-5.072h-1.37
				v5.072v1.324c0,1.279-0.32,2.513-1.736,2.513c-1.736,0-1.736-1.507-1.736-3.837v-5.072h-1.69v6.076c0,1.508,0,2.148-0.319,2.65
				c-0.548,0.776-1.233,1.005-1.827,1.005c-0.914,0-1.508-0.548-1.828-1.005c-0.319-0.502-0.319-1.143-0.319-2.65v-7.949
				c-0.229,1.051-1.188,5.803-2.421,8.133c-0.64,1.233-1.508,1.37-2.057,1.37c-0.594,0-2.421-0.274-2.421-2.102
				c0-0.456,0-0.548,0.822-2.832c-0.686-0.183-1.188-0.776-1.279-1.005c-0.64-1.188-1.097-6.625-1.097-7.035
				c0-1.691,1.234-2.011,1.736-2.011c0.731,0,1.233,0.457,1.371,1.188c0.091,0.503,0.685,3.655,0.685,3.838
				c0.457-1.599,0.96-4.203,1.051-5.848c-0.548,1.005-1.416,1.005-1.553,1.005c-1.69,0-2.056-1.781-2.193-2.559
				c-0.365,0.137-0.594,0.229-2.238,0.274v15.532c0,1.873,0,2.376-0.64,3.016c-0.457,0.457-1.005,0.64-1.645,0.64
				c-0.96,0-1.554-0.503-1.919-1.005c-0.319-0.502-0.319-1.143-0.319-2.65v-15.35c-1.873,0.137-2.696,0.229-3.563,0.229
				c-1.554,0-2.376-1.005-2.376-2.604c0-2.514,1.599-2.559,3.016-2.604c0.502-0.686,1.005-1.462,1.964-2.878
				c-0.502-0.412-2.513-2.65-2.97-3.061c-0.319-0.32-1.735-1.6-2.01-1.92c-0.411-0.41-0.64-0.867-0.64-1.645
				c0-1.051,1.005-2.878,2.604-2.878c0.594,0,0.959,0.229,1.188,0.366c1.37-2.239,1.508-2.467,2.832-4.797
				c0.411-0.777,1.143-1.143,1.919-1.143c1.051,0,2.422,0.914,2.422,2.513c0,1.37-2.97,5.71-3.701,6.67
				c0.411,0.411,1.143,1.142,1.279,1.279c0.457-0.822,2.467-4.706,2.924-5.208c0.686-0.822,1.554-0.822,1.69-0.822
				c0.64,0,2.741,0.822,2.741,2.559c0,1.645-5.894,10.324-6.122,10.645c0.32-0.047,2.193-0.184,2.741-0.138
				c-0.091-0.685-0.319-2.01-0.319-2.421c0-0.503,0.091-1.828,1.735-1.828c1.279,0,1.554,0.914,1.736,1.371
				c0.274,0.959,1.188,5.802,1.416,7.127c0-1.69-0.183-9.183-0.183-10.736c0-1.508,0.046-2.421,1.233-3.335
				c0.138-0.137,1.097-0.776,2.239-0.776H367.703z M332.206,48.473c0.046-0.502,0.319-2.375,2.147-2.375
				c0.685,0,1.416,0.365,1.645,0.822c0.273,0.457,0.273,0.639,0.273,1.279c0,3.243-1.37,9.685-1.462,9.913
				c-0.091,0.319-0.776,1.051-1.781,1.051c-1.645,0-2.284-1.416-2.284-1.782C330.744,56.742,331.977,49.889,332.206,48.473z
				 M369.301,21.701c1.919,0,2.376,0,3.016,0.641c0.273,0.273,0.64,0.73,0.64,1.689c0,0.32,0,1.325-1.005,2.01
				c-0.503,0.32-1.143,0.32-2.65,0.32h-19.599c-1.919,0-2.376,0-3.015-0.64c-0.274-0.274-0.64-0.731-0.64-1.69
				c0-0.319,0-1.324,1.005-2.01c0.502-0.32,1.142-0.32,2.649-0.32H369.301z M365.373,33.717c1.599,0,1.599-0.32,1.599-1.233
				c0-0.503-0.365-0.503-1.278-0.503h-11.741c-0.914,0-1.097,0.137-1.143,0.365v1.371H365.373z M357.377,44.544h-0.64
				c-1.051,0-1.051,0.183-1.051,1.417v2.329h1.69V44.544z M362.22,44.544h-1.37v3.746h1.37V44.544z M367.657,48.29v-2.786
				c0-0.594,0-0.869-0.319-0.914c-0.229-0.046-0.32-0.046-1.325-0.046v3.746H367.657z M366.012,56.696
				c0.137-0.046,0.457-0.183,0.776-0.183c0.138,0,0.777,0.183,0.777,0.183c0.091,0,0.091-1.005,0.091-1.097v-2.422h-1.645V56.696z"
				/>
		</g>
	</g>
	<g>
		<path fill="#FDD240" d="M162.358,78.381c0.99-0.572,2.163-0.925,3.466-0.925c0.547,0,2.397,0.078,3.375,0.99
			c0.665,0.626,0.912,1.499,0.912,2.255c0,1.642-0.99,2.541-1.72,2.893c-0.86,0.404-2.021,0.729-4.066,0.729
			c-1.42,0-2.814-0.195-3.231-0.352c-0.104-0.052-0.442-0.183-0.442-0.651c0-0.156,0.064-0.678,0.625-0.678
			c0.183,0,1.004,0.17,1.173,0.182c0.573,0.092,1.368,0.145,2.098,0.145c0.834,0,4.027,0,4.027-2.294
			c0-1.759-1.968-1.942-2.854-1.942c-1.785,0-3.166,0.574-3.948,1.343c-0.273,0.274-0.417,0.404-0.743,0.404
			c-0.325,0-0.794-0.196-0.794-0.639c0-0.247,0.052-0.325,0.456-1.029c0.26-0.47,0.808-1.681,1.172-2.828
			c-1.459,0.013-1.615,0.013-1.915,0.013c-0.248,0-0.769-0.013-0.769-0.689c0-0.678,0.508-0.678,0.912-0.678h2.149
			c0.053-0.209,0.235-1.096,0.287-1.265c0.065-0.261,0.222-0.47,0.704-0.47c0.612,0,0.795,0.262,0.795,0.626
			c0,0.287-0.131,0.769-0.222,1.081c1.551-0.025,3.088-0.064,4.626-0.129c0.208,0,1.095-0.04,1.29-0.04
			c0.234,0,0.742,0.013,0.742,0.678c0,0.495-0.3,0.626-0.547,0.651c-0.183,0.026-3.936,0.144-6.542,0.195
			C162.775,77.6,162.631,77.887,162.358,78.381z"/>
		<path fill="#FDD240" d="M178.688,80.244c1.146,0.365,2.241,0.912,3.179,1.668c0.626,0.496,0.743,0.665,0.743,0.965
			c0,0.482-0.391,0.82-0.769,0.82c-0.274,0-0.353-0.064-0.978-0.689c-0.261-0.235-0.965-0.887-2.189-1.369
			c0.039,1.174,0.092,2.736-2.449,2.736c-1.512,0-2.906-0.625-2.906-2.188c0-1.485,1.329-2.268,3.166-2.268
			c0.353,0,0.561,0.013,0.821,0.052l-0.104-4.261c-0.013-0.392,0.156-0.717,0.704-0.717c0.521,0,0.703,0.286,0.703,0.717
			l0.014,1.095c0.521,0,1.159,0,2.15-0.053c0.13,0,0.742-0.039,0.859-0.039c0.612,0,0.639,0.509,0.639,0.665
			c0,0.509-0.3,0.626-0.508,0.665c-0.092,0.013-1.512,0.078-3.128,0.078L178.688,80.244z M176.433,81.131
			c-0.391,0-1.772,0.064-1.772,1.056c0,0.86,1.056,0.951,1.46,0.951c0.169,0,0.781-0.013,1.017-0.3
			c0.195-0.222,0.195-0.43,0.195-1.615C177.072,81.17,176.863,81.131,176.433,81.131z"/>
		<path fill="#FDD240" d="M188.293,82.59c0.104,0,0.482,0.039,0.612,0.053c0.353,0.052,0.704,0.052,0.965,0.052
			c1.368,0,2.137-0.222,2.71-0.495c0.99-0.482,1.512-1.264,1.512-2.437c0-1.812-1.212-2.424-2.749-2.424
			c-1.525,0-3.115,0.548-4.223,0.938c-0.286,0.091-0.403,0.104-0.482,0.104c-0.456,0-0.664-0.391-0.664-0.756
			c0-0.508,0.3-0.639,0.821-0.795c1.551-0.469,3.153-0.795,4.769-0.795c2.555,0,3.962,1.434,3.962,3.676
			c0,1.367-0.521,2.684-1.929,3.531c-1.225,0.729-3.075,0.795-3.961,0.795c-1.668,0-2.046-0.17-2.046-0.756
			C187.59,83.021,187.642,82.59,188.293,82.59z"/>
		<path fill="#FDD240" d="M208.442,75.279c0.742,0,0.756,0.613,0.756,0.756c0,0.613-0.443,0.691-1.121,0.809
			c-1.159,0.209-3.948,0.834-5.46,1.537c-0.847,0.391-2.397,1.225-2.397,2.646c0,1.095,0.678,1.851,3.818,1.851
			c1.459,0,2.358-0.131,3.974-0.378c0.092-0.013,0.196-0.013,0.287-0.013c0.612,0,0.729,0.43,0.729,0.729
			c0,0.56-0.339,0.678-0.729,0.756c-0.756,0.169-2.502,0.325-4.001,0.325c-2.41,0-5.629-0.299-5.629-3.152
			c0-2.451,2.319-3.48,3.857-4.158c-0.117-0.912-0.587-2.684-0.612-2.749c-0.065-0.222-0.183-0.612-0.183-0.821
			c0-0.547,0.534-0.639,0.808-0.639c0.678,0,0.743,0.313,0.925,1.226c0.104,0.534,0.392,1.98,0.443,2.437
			C205.21,75.971,207.881,75.279,208.442,75.279z"/>
		<path fill="#FDD240" d="M220.368,73.977c1.029,0,1.537,0.352,1.537,1.538v7.571c0,1.172-0.495,1.537-1.537,1.537h-6.803
			c-1.042,0-1.524-0.352-1.524-1.537v-7.571c0-1.173,0.482-1.538,1.524-1.538h2.111c0.065-0.156,0.3-0.873,0.352-1.016
			c0.039-0.105,0.131-0.365,0.626-0.365c0.339,0,0.808,0.143,0.808,0.547c0,0.234-0.195,0.652-0.287,0.834H220.368z M220.498,77.104
			v-1.367c0-0.365-0.156-0.521-0.508-0.521h-6.06c-0.352,0-0.509,0.156-0.509,0.521v1.367H220.498z M213.421,78.251v1.915h7.076
			v-1.915H213.421z M213.421,81.313v1.55c0,0.34,0.144,0.521,0.509,0.521h6.06c0.352,0,0.508-0.169,0.508-0.521v-1.55H213.421z"/>
		<path fill="#FDD240" d="M225.152,75.736c0,0.469-0.144,1.889-0.261,2.645c-0.078,0.496-0.13,0.782-0.561,0.782
			c-0.261,0-0.56-0.144-0.56-0.495c0-0.183,0.182-0.99,0.208-1.146c0.144-0.951,0.17-1.434,0.195-1.746
			c0.014-0.3,0.026-0.587,0.482-0.587C225.152,75.188,225.152,75.541,225.152,75.736z M226.768,84.323c0,0.169,0,0.612-0.587,0.612
			c-0.534,0-0.651-0.234-0.651-0.612V73.195c0-0.17,0-0.613,0.586-0.613c0.47,0,0.652,0.183,0.652,0.613V84.323z M227.927,75.893
			c0.065,0.208,0.261,0.964,0.261,1.121c0,0.221-0.195,0.416-0.482,0.416c-0.364,0-0.403-0.208-0.508-0.729
			c-0.052-0.247-0.352-1.407-0.352-1.551c0-0.117,0.078-0.364,0.481-0.364C227.615,74.785,227.654,74.928,227.927,75.893z
			 M233.948,80.244c0.222,0,1.017,0,1.017,0.77c0,0.742-1.043,1.537-1.863,2.059c0.651,0.209,1.315,0.365,2.332,0.469
			c0.339,0.026,0.678,0.065,0.678,0.561c0,0.131,0,0.678-0.6,0.678c-0.912,0-2.724-0.508-3.739-1.004
			c-1.824,0.795-3.571,1.043-3.988,1.043c-0.56,0-0.56-0.586-0.56-0.69c0-0.378,0.156-0.495,0.547-0.548
			c1.199-0.169,1.733-0.247,2.724-0.533c-0.547-0.392-1.095-0.873-1.107-0.887c-0.144-0.131-0.248-0.248-0.248-0.417
			c0-0.091,0-0.3,0.287-0.47h-1.004c-0.13,0-0.561,0-0.561-0.521c0-0.509,0.443-0.509,0.561-0.509H233.948z M235.837,78.682
			c0,0.781-0.144,1.094-1.056,1.094h-5.903c-0.898,0-1.056-0.312-1.056-1.094v-0.47c0-0.769,0.144-1.081,1.056-1.081h5.903
			c0.886,0,1.056,0.286,1.056,1.081V78.682z M235.277,75.332c0,1.068-0.261,1.342-1.342,1.342h-4.223
			c-1.068,0-1.342-0.26-1.342-1.342v-0.965c0-1.068,0.261-1.342,1.342-1.342h4.223c1.068,0,1.342,0.261,1.342,1.342V75.332z
			 M230.195,78.017h-0.964c-0.235,0-0.274,0.156-0.274,0.286v0.3c0,0.157,0.053,0.287,0.274,0.287h0.964V78.017z M229.634,74.498
			h4.353v-0.222c0-0.261-0.13-0.364-0.365-0.364H230c-0.222,0-0.365,0.091-0.365,0.364V74.498z M229.634,75.254v0.234
			c0,0.248,0.117,0.378,0.365,0.378h3.622c0.248,0,0.365-0.13,0.365-0.378v-0.234H229.634z M229.987,81.273
			c0.13,0.092,0.664,0.561,0.781,0.639c0.495,0.379,0.86,0.561,1.017,0.639c0.782-0.364,1.524-0.898,1.524-1.133
			c0-0.039-0.025-0.145-0.222-0.145H229.987z M232.41,78.017h-1.186v0.873h1.186V78.017z M233.44,78.017v0.873h0.951
			c0.183,0,0.286-0.091,0.286-0.287v-0.3c0-0.182-0.078-0.286-0.286-0.286H233.44z"/>
		<path fill="#FDD240" d="M240.101,75.357c-0.209,0.014-2.033,0.145-2.099,0.145c-0.195,0-0.756,0-0.756-0.77
			c0-0.469,0.183-0.703,0.782-0.756c0.612-0.052,8.079-0.326,9.474-0.326c0.703,0,1.225,0,1.225,0.678
			c0,0.782-0.482,0.782-1.238,0.782c-1.055,0-1.928,0.169-3.414,1.147c-0.586,0.377-2.605,1.824-2.605,3.947
			c0,1.824,1.394,2.528,4.209,2.528c0.912,0,1.016,0,1.212,0.026c0.403,0.078,0.547,0.339,0.547,0.651
			c0,0.847-0.69,0.847-1.303,0.847c-0.938,0-2.28-0.064-3.688-0.533c-0.521-0.17-2.488-0.822-2.488-3.389
			c0-0.912,0.208-2.254,1.876-3.844c0.756-0.73,1.304-1.029,1.89-1.369C242.407,75.201,242.186,75.215,240.101,75.357z
			 M245.522,77.092c-0.039-0.066-0.053-0.157-0.053-0.223c0-0.247,0.261-0.377,0.443-0.377c0.169,0,0.247,0.078,0.561,0.561
			c0.143,0.221,0.547,0.938,0.547,1.159c0,0.312-0.352,0.403-0.469,0.403c-0.131,0-0.261-0.104-0.339-0.234
			c-0.053-0.104-0.273-0.547-0.313-0.639C245.834,77.639,245.574,77.183,245.522,77.092z M246.968,76.531
			c-0.065-0.117-0.092-0.195-0.092-0.287c0-0.209,0.234-0.352,0.417-0.352c0.209,0,0.3,0.13,0.548,0.495
			c0.183,0.286,0.573,0.899,0.573,1.186s-0.312,0.378-0.456,0.378c-0.156,0-0.273-0.117-0.312-0.17
			c-0.014-0.013-0.287-0.56-0.353-0.664C247.242,77.025,247.007,76.622,246.968,76.531z"/>
		<path fill="#FDD240" d="M255.362,73.481c0-0.638,0.743-0.651,0.821-0.651c0.234,0,0.469,0.064,0.6,0.365
			c0.039,0.117,0.222,0.781,0.325,1.172c0.86-0.052,1.408-0.091,2.099-0.182c0.195-0.026,0.717-0.104,0.873-0.104
			c0.144,0,0.651,0,0.651,0.651c0,0.508-0.43,0.6-0.756,0.652c-0.339,0.051-1.238,0.13-2.476,0.208
			c0.208,0.534,0.286,0.729,0.547,1.251c0.782-0.053,1.772-0.144,2.28-0.209c0.639-0.104,0.651-0.104,0.782-0.104
			c0.339,0,0.561,0.234,0.561,0.625c0,0.339-0.183,0.561-0.612,0.639c-0.587,0.104-2.125,0.222-2.359,0.234
			c0.039,0.065,0.678,1.121,1.329,1.941c0.078,0.104,0.196,0.248,0.196,0.496c0,0.442-0.378,0.756-0.743,0.756
			c-0.091,0-0.222-0.027-0.469-0.131c-0.209-0.078-1.838-0.73-3.871-0.73c-1.368,0-2.515,0.418-2.515,1.355
			c0,1.225,1.968,1.369,3.258,1.369c0.678,0,1.759-0.053,3.192-0.392c0.234-0.065,0.821-0.208,0.938-0.208
			c0.6,0,0.612,0.612,0.612,0.69c0,0.509-0.364,0.639-0.6,0.717c-0.508,0.169-2.059,0.521-4.039,0.521
			c-1.16,0-2.333-0.064-3.401-0.508c-0.782-0.326-1.459-1.068-1.459-2.085c0-0.899,0.469-1.485,1.016-1.863
			c0.73-0.509,1.942-0.704,3.011-0.704c1.029,0,1.902,0.117,2.905,0.392c-0.195-0.235-0.469-0.573-0.99-1.524
			c-1.563,0.064-2.866,0.117-4.443,0.117c-0.325,0-1.603,0-1.851-0.078c-0.156-0.039-0.352-0.223-0.352-0.574
			c0-0.6,0.443-0.625,0.665-0.625c0.378,0,1.993,0.053,2.332,0.053c0.678,0,0.926-0.014,3.05-0.092
			c-0.235-0.521-0.378-0.899-0.509-1.264c-2.346,0.064-2.541,0.078-3.349,0.078c-0.456,0-1.16,0-1.355-0.065
			c-0.169-0.052-0.352-0.235-0.352-0.587c0-0.625,0.469-0.625,0.756-0.625c0.3,0,1.629,0.014,1.902,0.014
			c0.456,0,0.612,0,2.007-0.053C255.415,73.873,255.362,73.678,255.362,73.481z"/>
		<path fill="#FDD240" d="M270.455,76.922c2.723,0,3.909,1.693,3.909,3.558c0,1.068-0.404,2.736-2.438,3.531
			c-0.873,0.352-1.824,0.456-2.775,0.456c-2.554,0-3.636-0.926-3.636-2.176c0-1.525,1.421-2.15,2.698-2.15
			c0.352,0,1.276,0.052,1.902,0.586c0.456,0.404,0.639,1.017,0.639,1.616c0,0.352-0.053,0.509-0.144,0.729
			c1.498-0.273,2.229-1.251,2.229-2.476c0-1.876-1.473-2.437-2.972-2.437c-2.032,0-3.544,1.068-4.534,1.967
			c-0.821,0.743-0.86,0.782-1.134,0.782c-0.392,0-0.77-0.352-0.77-0.769c0-0.3,0.053-0.339,1.16-1.199
			c1.355-1.016,4.678-3.531,5.525-4.352c-0.795,0.039-4.027,0.221-4.691,0.221c-0.209,0-0.743-0.013-0.743-0.703
			c0-0.691,0.392-0.704,1.368-0.717c0.248,0,3.037-0.039,3.414-0.053c0.626-0.025,1.473-0.064,1.851-0.064
			c0.392,0,1.082,0.025,1.082,0.781c0,0.508-0.195,0.652-0.951,1.173c-1.877,1.316-2.085,1.46-2.802,2.06
			C269.073,77.117,269.529,76.922,270.455,76.922z M269.555,82.499c0-1.029-0.782-1.198-1.382-1.198
			c-0.69,0-1.354,0.352-1.354,0.977c0,0.704,1.029,1.004,1.941,1.004c0.208,0,0.456-0.014,0.612-0.053
			C269.477,83.008,269.555,82.838,269.555,82.499z"/>
		<path fill="#FDD240" d="M279.735,73.703c0.052-0.273,0.143-0.756,0.742-0.756c0.209,0,0.795,0.039,0.795,0.586
			c0,0.223-0.091,0.587-0.391,1.812c0.091,0,0.651-0.027,0.742-0.027c0.991,0,1.825,0.105,2.477,1.147
			c0.561,0.886,0.561,1.993,0.561,2.463c0,4.235-0.965,5.485-2.867,5.485c-1.068,0-1.955-0.416-2.189-0.547
			c-0.144-0.092-0.378-0.248-0.378-0.6c0-0.326,0.209-0.729,0.587-0.729c0.169,0,0.247,0.039,0.873,0.3
			c0.286,0.117,0.742,0.195,1.029,0.195c0.69,0,1.003-0.287,1.225-1.173c0.248-0.964,0.287-2.397,0.287-2.997
			c0-1.629-0.287-2.229-1.902-2.229c-0.274,0-0.626,0.026-0.795,0.026c-0.535,1.993-1.434,4.64-2.424,6.776
			c-0.313,0.678-0.521,0.808-0.848,0.808c-0.403,0-0.82-0.312-0.82-0.69c0-0.261,0.104-0.43,0.3-0.782
			c0.195-0.352,1.342-2.528,2.28-5.994c-0.222,0.013-0.86,0.065-1.343,0.117c-0.261,0.039-0.495,0.052-0.586,0.052
			c-0.639,0-0.69-0.416-0.69-0.689c0-0.587,0.403-0.665,0.547-0.691c0.248-0.039,0.521-0.052,2.424-0.156
			C279.604,74.381,279.618,74.315,279.735,73.703z M284.908,73.977c0.639,0,1.838,0.951,2.489,2.567
			c0.573,1.446,0.586,3.167,0.586,3.231c0,0.209,0,0.834-0.808,0.834c-0.626,0-0.678-0.43-0.704-0.808
			c-0.091-1.226-0.156-1.968-0.664-3.18c-0.261-0.612-0.431-0.769-1.225-1.499c-0.157-0.143-0.313-0.286-0.313-0.547
			c0-0.248,0.156-0.417,0.248-0.482C284.661,73.99,284.803,73.977,284.908,73.977z"/>
		<path fill="#FDD240" d="M293.576,78.186c1.134-0.013,1.929-0.039,2.619-0.064c0.144-0.014,0.808-0.053,0.938-0.053
			c0.183,0,0.717,0.014,0.717,0.664c0,0.626-0.521,0.652-0.756,0.665c-1.316,0.065-3.479,0.118-3.636,0.118
			c-0.026,0.312-0.065,1.029-0.065,1.303c0,1.225,0.261,2.202,2.711,2.202c1.811,0,3.101-0.482,3.101-2.515
			c0-0.782-0.26-1.486-0.299-1.59c-0.183-0.457-0.196-0.496-0.196-0.639c0-0.404,0.443-0.548,0.73-0.548
			c1.029,0,1.303,1.89,1.303,2.828c0,3.414-2.502,3.856-4.613,3.856c-3.7,0-4.209-1.785-4.209-3.661
			c0-0.313,0.026-0.782,0.065-1.237c-0.404,0-1.863,0-2.137-0.066c-0.209-0.064-0.392-0.273-0.392-0.625
			c0-0.664,0.561-0.664,0.73-0.664c0.534,0,1.381,0.039,1.915,0.039l0.17-1.98c-0.404,0-1.838,0-2.111-0.078
			c-0.248-0.066-0.404-0.301-0.404-0.613c0-0.651,0.548-0.664,0.743-0.664c0.222,0,1.576,0.025,1.902,0.025l0.104-1.25
			c0.025-0.34,0.064-0.744,0.756-0.744c0.417,0,0.834,0.157,0.769,0.783l-0.117,1.211c1.225,0,2.463-0.025,3.688-0.078
			c0.183-0.013,0.99-0.064,1.146-0.064c0.209,0,0.717,0.039,0.717,0.664c0,0.639-0.469,0.664-0.886,0.678
			c-0.508,0.025-2.554,0.104-4.796,0.131L293.576,78.186z"/>
	</g>
</g>
</svg>
