<svg xmlns="http://www.w3.org/2000/svg" viewBox="0 0 211.86 33.58"><defs><style>.cls-1{fill:#62b58f;}</style></defs><title>アセット 7</title><g id="レイヤー_2" data-name="レイヤー 2"><g id="レイヤー_1-2" data-name="レイヤー 1"><path class="cls-1" d="M5.87,16.74c-.94,0-1-.11-4.93-3.31C0,12.45,0,11.91,0,11.59a1.91,1.91,0,0,1,2.05-2c1.3,0,1.91.54,3.28,1.69,2.05,1.8,2.27,2,2.45,2.38a4.2,4.2,0,0,1,.25.86A2,2,0,0,1,5.87,16.74Zm2.59,4.39c0,2.45-3.1,9.14-4.1,10.69A2.31,2.31,0,0,1,2.2,33,2.22,2.22,0,0,1,.07,30.7c0-.72.11-.86.86-2.41,2.23-4.61,2.48-5.11,3.31-7.85A2,2,0,0,1,6,18.75,2.27,2.27,0,0,1,8.46,21.13ZM2,5.29A2.67,2.67,0,0,1,1,3.42,2,2,0,0,1,3,1.48c.9,0,1.37.14,3.2,1.51,2.63,2,3,2.34,3.1,3.35a2,2,0,0,1-2,2.34c-1,0-1.51-.43-3-1.62ZM9.39,21.17a3.26,3.26,0,0,1,3.24-3.38h15c2.92,0,3.82,2,3.82,3v7.7a1.74,1.74,0,0,1,1.8,1.87c0,2.05-1.22,2.05-2.88,2.05H10.19c-1.48,0-2.88,0-2.88-1.87s1.33-2,2.09-2.05Zm18-19.55c2.27,0,3.67,1,3.67,3.1v7.81c0,3-2.12,3.49-3,3.49H14c-2.48,0-4-1.08-4-2.84V4.75a3.24,3.24,0,0,1,1-2.41,4,4,0,0,1,2.56-.72Zm-11.84,20H14.29c-.58,0-.83,0-.83.79v6.12h2.05ZM26.74,5.94c0-.54-.11-.79-.76-.79H15.3c-.61,0-1,0-1,.86v.76H26.74ZM14.29,10.47v.83c0,.65.18.79.83.79H26c.65,0,.79-.25.79-.9v-.72Zm7,11.12H19.37v6.91h1.91Zm6.08,6.91V22.39c0-.54,0-.79-.83-.79H25.41v6.91Z"/><path class="cls-1" d="M39,23.07c-1.48,0-2.88,0-2.88-1.87s1.4-1.87,2.88-1.87H46a2.74,2.74,0,0,1,2.27,2.56c0,1.26-1.8,5-5,7.31-1.62,1.12-4.79,3-6.12,3-2.09,0-2.12-2.2-2.12-2.23a1.79,1.79,0,0,1,.9-1.55c4-2,4.39-2.2,5.15-2.81a9.7,9.7,0,0,0,2.2-2.27c0-.22-.11-.22-.54-.22Zm1.73-5.18a2.58,2.58,0,0,1-2.27-1,2.36,2.36,0,0,1-.5-1.8V6a2.45,2.45,0,0,1,.5-1.8,2.69,2.69,0,0,1,2.27-1h7.67L49.93.72A2,2,0,0,1,51.55,0C52.13,0,54,.72,54,2.16a1.86,1.86,0,0,1-.29,1h10a2.6,2.6,0,0,1,2.27,1,2.5,2.5,0,0,1,.5,1.8v9a2.42,2.42,0,0,1-.5,1.8,2.63,2.63,0,0,1-2.27,1H54.61V30.16a3.23,3.23,0,0,1-1.33,2.38c-.65.43-1.33.58-3.35.58-3.92,0-5.22-.47-5.22-2.3s1.3-1.87,2.2-1.87c.43,0,2.59.22,2.63.22.4,0,.5-.07.5-.79V17.89ZM62.13,8.71v-1a.79.79,0,0,0-.83-.86H42.95c-.65,0-.76.65-.76,1v.83ZM42.19,12.17v1.15c0,.22,0,.94.76.94H61.09a.92.92,0,0,0,1-.94V12.17ZM67.93,28.76a1.61,1.61,0,0,1,.94,1.55,2.25,2.25,0,0,1-2,2.38c-1,0-6-1.69-10.83-8.42a3.57,3.57,0,0,1-.86-2.2,2.21,2.21,0,0,1,2.16-2.2c.83,0,1,.22,2.05,1.62,1-.5,6.3-2.81,7.13-2.81,1.37,0,1.84,1.37,1.84,2.16,0,1.08-.76,1.62-3.24,2.59L62,24.76A9.15,9.15,0,0,0,64.8,27.1Z"/><path class="cls-1" d="M98.1,16.27c3.2.76,5.33,2.92,5.33,5.94,0,5-6.44,8.86-15.19,8.86S73,27.14,73,22.21c0-3,2.12-5.18,5.33-5.94l.65.9c-2.2.72-3.67,2.16-3.67,4.25,0,3.85,5.58,6.73,12.89,6.73s12.89-2.88,12.89-6.73c0-2.09-1.48-3.53-3.67-4.25ZM80.06,23a5.43,5.43,0,0,0,2.27-4.21A10.62,10.62,0,0,0,80.71,14a10.23,10.23,0,0,1-1.48-4.72,6.52,6.52,0,0,1,3.35-6l1,.61A5.38,5.38,0,0,0,81.29,8.1a10.77,10.77,0,0,0,1.62,4.79,10.23,10.23,0,0,1,1.48,4.68A6.41,6.41,0,0,1,81,23.65Zm6,1.48a7,7,0,0,0,2.48-5A12.76,12.76,0,0,0,87,14.11a12.41,12.41,0,0,1-1.58-5.29A7.72,7.72,0,0,1,89,1.87l1,.58a6.83,6.83,0,0,0-2.48,5,12.77,12.77,0,0,0,1.58,5.4,12.54,12.54,0,0,1,1.58,5.33,7.68,7.68,0,0,1-3.6,6.91ZM92.7,23a5.49,5.49,0,0,0,2.23-4.21A10.21,10.21,0,0,0,93.31,14a10.23,10.23,0,0,1-1.48-4.72,6.49,6.49,0,0,1,3.38-6l.94.58A5.55,5.55,0,0,0,93.88,8.1a10.76,10.76,0,0,0,1.62,4.79A9.81,9.81,0,0,1,97,17.57a6.41,6.41,0,0,1-3.35,6.08Z"/><path class="cls-1" d="M137.48,8.21c1.48,0,2.88,0,2.88,1.91s-1.22,2.05-2.88,2.05h-5.4c1.87,1.91,3,2.74,6.77,4.64,1.3.65,1.48,1.26,1.48,1.84s-.58,2.52-2.12,2.52a3.11,3.11,0,0,1-1.62-.5v9.86c0,2.48-2.23,2.48-3.28,2.48H114.66c-1,0-3.24,0-3.24-2.48V20.37a5.88,5.88,0,0,1-2.52.86,2.23,2.23,0,0,1-1.91-2.3c0-1.44,1-1.91,1.94-2.34A24.61,24.61,0,0,0,116,12.17h-5.65c-1.48,0-2.88,0-2.88-1.91s1.22-2.05,2.88-2.05H114c-.65-1-.83-1.33-.83-1.84a1.68,1.68,0,0,1,.36-1,11.5,11.5,0,0,1-2.3,0,1.8,1.8,0,0,1-1.4-1.91c0-2.05,1.58-2.05,2.59-2.05,2.63,0,12.27-.32,18.29-.65l4.64-.22a2.9,2.9,0,0,1,.54,0,2,2,0,0,1,2,2.09A1.88,1.88,0,0,1,137,4.07a9.63,9.63,0,0,1-2.48.43A1.76,1.76,0,0,1,135,5.65a2.71,2.71,0,0,1-.47,1.3c-.22.4-.25.47-.72,1.26ZM121.89,21.27h-5.22c-.58,0-.83,0-.83.83v1.15h6Zm-6,5.54v1.26c0,.76.14.83.83.83h5.22V26.82Zm5.54-14.65a19.1,19.1,0,0,1-5.47,5.4h16a15.26,15.26,0,0,1-2.45-1.91,25.93,25.93,0,0,1-2.84-3.49h-.5v2c0,1.55,0,2.88-2,2.88-2.23,0-2.23-1.08-2.23-2.88v-2Zm.5-7.13c-4,.18-4.46.18-4.93.18.25.47,1.37,2.56,1.58,3h3.35Zm7.16,3.17c.54-.9,1.4-2.38,2.12-3.56-.83,0-4.36.18-5.08.22V8.21Zm3.28,15V22.1c0-.72-.14-.83-.83-.83h-5.4v2Zm-6.23,5.65h5.4c.58,0,.83,0,.83-.83V26.82h-6.23Z"/><path class="cls-1" d="M150.73,9.72c-.5,1-2.52,5-3.74,6.33a2,2,0,0,1-1.55.68,2.42,2.42,0,0,1-2.38-2.16c0-.61.14-.83,1.44-2.81,2.38-3.67,2.84-5.08,4.36-9.75.47-1.51,1.4-1.87,2.09-1.87.18,0,2.48.14,2.48,2.12a11.68,11.68,0,0,1-1,3.35h4.75a3,3,0,0,1,2.66,1.55c.4.79.32,2.84.25,4.32a2.13,2.13,0,0,1,2-1.3,1.4,1.4,0,0,1,.86.22V3.17c0-1.44,0-2.88,2.05-2.88,2.23,0,2.23,1.26,2.23,2.88V14.51a38.7,38.7,0,0,0,8.39,5,1.69,1.69,0,0,1,.94,1.73,2.41,2.41,0,0,1-2.16,2.59c-1.22,0-4.32-1.76-7.16-3.78V30.6c0,1.44,0,2.88-2.05,2.88-2.23,0-2.23-1.26-2.23-2.88V16.67c-.68-.61-2.63-2.3-3-3.92a26.12,26.12,0,0,1-7.42,16.88c-1.87,1.91-4.54,3.82-6.12,3.82a2.21,2.21,0,0,1-2.23-2.3,2,2,0,0,1,1.15-1.94c3.56-2.48,5.8-4,8-8.1-.72-.58-4.07-2.84-4.72-3.38a1.56,1.56,0,0,1-.68-1.37A2.29,2.29,0,0,1,150,14c1.08,0,3.71,1.91,5,2.88a25.52,25.52,0,0,0,.83-6c0-1.08-.11-1.19-.94-1.19Z"/><path class="cls-1" d="M207.72,6c2.84,0,3.42,1.8,3.42,2.34v2.27c0,2.16-1,3.35-2.66,3.35H196c0,1.4,0,1.94-.07,2.38a2.62,2.62,0,0,1,2.34-1h9.21a5.12,5.12,0,0,1,2.48.5,3.29,3.29,0,0,1,1.44,2.92V29.62c0,.83,0,3.56-3,3.56a5.28,5.28,0,0,1-2.7-.76,1.2,1.2,0,0,1-.83.29,1.48,1.48,0,0,1-1.26-.65c-.22-.36-.22-.54-.22-2.16v-4h-1.08v5c0,1-.25,2-1.37,2-1.37,0-1.37-1.19-1.37-3v-4h-1.33V30.7c0,1.19,0,1.69-.25,2.09a1.71,1.71,0,0,1-1.44.79,1.75,1.75,0,0,1-1.44-.79c-.25-.4-.25-.9-.25-2.09V24.44A31.16,31.16,0,0,1,193,30.85a1.71,1.71,0,0,1-1.62,1.08c-.47,0-1.91-.22-1.91-1.66,0-.36,0-.43.65-2.23a1.72,1.72,0,0,1-1-.79c-.5-.94-.86-5.22-.86-5.54a1.41,1.41,0,0,1,1.37-1.58,1.06,1.06,0,0,1,1.08.94c.07.4.54,2.88.54,3a25.26,25.26,0,0,0,.83-4.61,1.38,1.38,0,0,1-1.22.79c-1.33,0-1.62-1.4-1.73-2a4.53,4.53,0,0,1-1.76.22V30.7c0,1.48,0,1.87-.5,2.38a1.74,1.74,0,0,1-1.3.5,1.8,1.8,0,0,1-1.51-.79c-.25-.4-.25-.9-.25-2.09V18.61c-1.48.11-2.12.18-2.81.18a1.79,1.79,0,0,1-1.87-2.05c0-2,1.26-2,2.38-2.05.4-.54.79-1.15,1.55-2.27-.4-.32-2-2.09-2.34-2.41s-1.37-1.26-1.58-1.51a1.65,1.65,0,0,1-.5-1.3,2.37,2.37,0,0,1,2.05-2.27,1.68,1.68,0,0,1,.94.29c1.08-1.76,1.19-1.94,2.23-3.78a1.66,1.66,0,0,1,1.51-.9,2,2,0,0,1,1.91,2c0,1.08-2.34,4.5-2.92,5.26l1,1c.36-.65,1.94-3.71,2.3-4.1A1.73,1.73,0,0,1,188.93,4c.5,0,2.16.65,2.16,2s-4.64,8.13-4.82,8.39a19.17,19.17,0,0,1,2.16-.11c-.07-.54-.25-1.58-.25-1.91A1.28,1.28,0,0,1,189.54,11a1.35,1.35,0,0,1,1.37,1.08c.22.76.94,4.57,1.12,5.62,0-1.33-.14-7.24-.14-8.46s0-1.91,1-2.63A3,3,0,0,1,194.61,6Zm-28,16.23c0-.4.25-1.87,1.69-1.87a1.53,1.53,0,0,1,1.3.65,1.51,1.51,0,0,1,.22,1,47.33,47.33,0,0,1-1.15,7.81,1.56,1.56,0,0,1-1.4.83,1.79,1.79,0,0,1-1.8-1.4C178.6,28.72,179.57,23.33,179.75,22.21ZM209,1.12c1.51,0,1.87,0,2.38.5a1.71,1.71,0,0,1,.5,1.33,1.8,1.8,0,0,1-.79,1.58c-.4.25-.9.25-2.09.25H193.53c-1.51,0-1.87,0-2.38-.5a1.71,1.71,0,0,1-.5-1.33,1.81,1.81,0,0,1,.79-1.58c.4-.25.9-.25,2.09-.25Zm-3.1,9.47c1.26,0,1.26-.25,1.26-1,0-.4-.29-.4-1-.4h-9.25c-.72,0-.86.11-.9.29v1.08Zm-6.3,8.53h-.5c-.83,0-.83.14-.83,1.12v1.84h1.33Zm3.82,0h-1.08v3h1.08Zm4.28,3v-2.2c0-.47,0-.68-.25-.72a5.15,5.15,0,0,0-1,0v3Zm-1.3,6.62a1.9,1.9,0,0,1,.61-.14,5.24,5.24,0,0,1,.61.14c.07,0,.07-.79.07-.86V25.92h-1.3Z"/></g></g></svg>