<svg xmlns="http://www.w3.org/2000/svg" viewBox="0 0 390.92 33.69"><defs><style>.cls-1{fill:#f7931e;}</style></defs><title>アセット 2</title><g id="レイヤー_2" data-name="レイヤー 2"><g id="レイヤー_1-2" data-name="レイヤー 1"><path class="cls-1" d="M8.35,30.31c0,1.3,0,2.88-2.16,2.88-2,0-2-1.3-2-2.88V17c-.58,1-1.08,1.69-2.16,1.69a2,2,0,0,1-2.05-2c0-.68.18-1,1.58-3.6A54.2,54.2,0,0,0,4.89,5.29,37.55,37.55,0,0,1,6.15.94,1.71,1.71,0,0,1,7.81.14C8.82.14,10,.5,10,2.2c0,.72-.36,1.91-1.69,5.87Zm21.09-29c2.45,0,3.2,1.91,3.2,4v23c0,2.05-.72,4-3.2,4H14.07c-2.45,0-3.2-1.91-3.2-4v-23c0-2,.72-4,3.2-4ZM14.87,27.39c0,.61.07.83.68.83H27.82c.54,0,.68-.11.68-.83V6c0-.61-.07-.83-.68-.83H15.55c-.54,0-.68.14-.68.83ZM25.2,9c1.51,0,1.87,0,2.38.5a1.71,1.71,0,0,1,.5,1.33,1.79,1.79,0,0,1-.79,1.55c-.4.25-.9.25-2.09.25H23.86v2.12h.94a2.85,2.85,0,0,1,1.84.61c.72.58.72,1.3.72,2.2V23c0,.76,0,3-2.56,3h-6c-2.56,0-2.56-2.2-2.56-3V17.57c0-1,0-1.8,1-2.41a3.24,3.24,0,0,1,1.51-.4h1.3V12.63h-1.8c-1.51,0-1.87,0-2.38-.5a1.71,1.71,0,0,1-.5-1.33,1.79,1.79,0,0,1,.79-1.55c.4-.25.9-.25,2.09-.25h1.8c0-1.55,0-2,.29-2.45a1.65,1.65,0,0,1,1.55-.79c1.94,0,1.94,1.15,1.94,3.24ZM19.94,21.71c0,.25.07.4.47.4h2.81c.47,0,.47-.22.47-.4V18.93c0-.25-.07-.4-.47-.4H20.41c-.43.07-.47.07-.47.4Z"/><path class="cls-1" d="M36.32,16c0-.11.5-3.6.58-4.28.07-1,.14-2.52.25-3.49a1.69,1.69,0,0,1,1.73-1.58,1.77,1.77,0,0,1,1.76,2.05c0,1-.25,5.29-.4,6.37-.18,1.4-.32,2.48-1.58,2.7A1.9,1.9,0,0,1,36.32,16Zm9.21,14.36c0,1.51-.14,2.88-1.94,2.88-2.05,0-2.05-1.26-2.05-2.88V3.13c0-1.48,0-2.88,1.91-2.88,2.09,0,2.09,1.22,2.09,2.88ZM57.35,6.52V3.13c0-1.58,0-2.88,2-2.88,2.38,0,2.38,1,2.38,2.88V6.52h4.46c1.26,0,2.88.07,2.88,2.05s-1.58,2.05-2.88,2.05H61.7v6.23h3.56c1.4,0,2,.32,2.3.68a2.06,2.06,0,0,1,.65,1.4,2.16,2.16,0,0,1-1,1.69,3.74,3.74,0,0,1-1.94.4H61.7v7.23h4.82a3,3,0,0,1,2.27.61,2,2,0,0,1,.65,1.48c0,2.05-2.12,2.05-2.92,2.05H51.77a3.56,3.56,0,0,1-2-.36,1.93,1.93,0,0,1-.94-1.69c0-2.09,2.12-2.09,2.92-2.09h5.58V21H53.21a4.25,4.25,0,0,1-2-.4,2.12,2.12,0,0,1-1-1.69,2.16,2.16,0,0,1,1-1.69,4.14,4.14,0,0,1,1.94-.4h4.14V10.62H54.21c-1.19,3.74-1.8,4.72-3.13,4.72a2.18,2.18,0,0,1-2.27-1.84,1.78,1.78,0,0,1-1.76-1.22c0-.22-.61-5.62-.61-5.8a1.67,1.67,0,0,1,1.66-1.73c1.51,0,1.69,1.66,1.8,2.34,0,.36.25,2,.29,2.3a49.78,49.78,0,0,0,1.58-6.55,1.7,1.7,0,0,1,1.73-1.37c.22,0,2.3.07,2.3,2a30.51,30.51,0,0,1-.47,3.06Z"/><path class="cls-1" d="M76.1,10.55a26,26,0,0,1,3.49,3.28,1.73,1.73,0,0,1,.36,1,2.41,2.41,0,0,1-2.27,2.27c-.54,0-.61-.07-2.12-1.33a43.13,43.13,0,0,1-3.31-3,1.85,1.85,0,0,1-.5-1.22c0-.4.43-2.27,1.94-2.27C74.38,9.29,74.56,9.29,76.1,10.55Zm2.27,8.6a2.1,2.1,0,0,1,2,2.05c0,1.94-2.3,8-4.14,10.69a2.62,2.62,0,0,1-1.94,1.3,2.07,2.07,0,0,1-2.16-2c0-.61,2.2-5.54,2.56-6.62.18-.5.9-2.77,1-3.24.4-1.12.86-1.87,2-2.09C78,19.19,78.23,19.15,78.37,19.15ZM77.83,2.7A30.24,30.24,0,0,1,81,5.79a1.6,1.6,0,0,1,.47,1.15,2.58,2.58,0,0,1-2.27,2.23c-.68,0-1.48-.5-3.17-2.2-.36-.36-2.16-1.94-2.45-2.3a1.81,1.81,0,0,1-.36-1c0-.9,1.08-2.34,2-2.34C75.85,1.3,76.1,1.3,77.83,2.7ZM93.78,13.35V30.78c0,1.58,0,2.92-2,2.92-2.3,0-2.3-1.08-2.3-2.92V13.64l-1.73.11c-.72.07-.79.07-1,.11v.68c0,7.38-1.8,15.08-2.81,17a2.5,2.5,0,0,1-2,1.26,2.24,2.24,0,0,1-2.23-2.12,42.06,42.06,0,0,1,1.37-4.86c.11-.43,1.15-8.21,1.15-9.25V5.22a3,3,0,0,1,1-2.23c.76-.65,1.44-.76,3.13-.9L100.11,1c.76,0,.83-.07,1-.07A2,2,0,0,1,103.17,3a2,2,0,0,1-.79,1.69,7.23,7.23,0,0,1-1.87.5L87.87,6.3c-.9.07-1.15.18-1.12.86V9.57l.76-.07,13.86-.94a2.87,2.87,0,0,1,2,.29,2.12,2.12,0,0,1,1,1.87c0,1.94-2,2.09-2.7,2.12l-3.35.22A36.25,36.25,0,0,0,99,17.21c.29-.14,1.69-.83,1.8-.9,1.76-1,2-1.08,2.41-1.08,1.58,0,2.12,2.09,2.12,2.27a1.74,1.74,0,0,1-.72,1.48,38.18,38.18,0,0,1-4.32,2.56,42.63,42.63,0,0,0,2.59,4.82c.65,1,1.87,3.06,1.87,3.92a1.93,1.93,0,0,1-2,1.87,2.21,2.21,0,0,1-1.62-.76c-5-5.62-6.34-15.55-6.41-16.56,0-.72,0-1.22,0-1.51Z"/><path class="cls-1" d="M113.72,16.74c-.94,0-1-.11-4.93-3.31-.9-1-.94-1.51-.94-1.84a1.91,1.91,0,0,1,2.05-2c1.3,0,1.91.54,3.28,1.69,2.05,1.8,2.27,2,2.45,2.38a4.19,4.19,0,0,1,.25.86A2,2,0,0,1,113.72,16.74Zm2.59,4.39c0,2.45-3.1,9.14-4.1,10.69A2.31,2.31,0,0,1,110.05,33a2.22,2.22,0,0,1-2.12-2.3c0-.72.11-.86.86-2.41,2.23-4.61,2.48-5.11,3.31-7.85a2,2,0,0,1,1.8-1.69A2.27,2.27,0,0,1,116.31,21.13ZM109.84,5.29a2.67,2.67,0,0,1-1-1.87,2,2,0,0,1,1.94-1.94c.9,0,1.37.14,3.2,1.51,2.63,2,3,2.34,3.1,3.35a2,2,0,0,1-2,2.34c-1,0-1.51-.43-3-1.62Zm7.41,15.87a3.26,3.26,0,0,1,3.24-3.38h15c2.92,0,3.82,2,3.82,3v7.7a1.74,1.74,0,0,1,1.8,1.87c0,2.05-1.22,2.05-2.88,2.05H118c-1.48,0-2.88,0-2.88-1.87s1.33-2,2.09-2.05Zm18-19.55c2.27,0,3.67,1,3.67,3.1v7.81c0,3-2.12,3.49-3,3.49H121.82c-2.48,0-4-1.08-4-2.84V4.75a3.24,3.24,0,0,1,1-2.41,4,4,0,0,1,2.56-.72Zm-11.84,20h-1.22c-.58,0-.83,0-.83.79v6.12h2.05ZM134.6,5.94c0-.54-.11-.79-.76-.79H123.15c-.61,0-1,0-1,.86v.76H134.6Zm-12.45,4.54v.83c0,.65.18.79.83.79h10.83c.65,0,.79-.25.79-.9v-.72Zm7,11.12h-1.91v6.91h1.91Zm6.08,6.91V22.39c0-.54,0-.79-.83-.79h-1.12v6.91Z"/><path class="cls-1" d="M146.81,23.07c-1.48,0-2.88,0-2.88-1.87s1.4-1.87,2.88-1.87h7.09a2.74,2.74,0,0,1,2.27,2.56c0,1.26-1.8,5-5,7.31-1.62,1.12-4.79,3-6.12,3-2.09,0-2.12-2.2-2.12-2.23a1.79,1.79,0,0,1,.9-1.55c4-2,4.39-2.2,5.15-2.81a9.7,9.7,0,0,0,2.2-2.27c0-.22-.11-.22-.54-.22Zm1.73-5.18a2.58,2.58,0,0,1-2.27-1,2.36,2.36,0,0,1-.5-1.8V6a2.45,2.45,0,0,1,.5-1.8,2.69,2.69,0,0,1,2.27-1h7.67L157.79.72A2,2,0,0,1,159.41,0c.58,0,2.41.72,2.41,2.16a1.86,1.86,0,0,1-.29,1h10a2.6,2.6,0,0,1,2.27,1,2.5,2.5,0,0,1,.5,1.8v9a2.42,2.42,0,0,1-.5,1.8,2.63,2.63,0,0,1-2.27,1h-9.11V30.16a3.23,3.23,0,0,1-1.33,2.38c-.65.43-1.33.58-3.35.58-3.92,0-5.22-.47-5.22-2.3s1.3-1.87,2.2-1.87c.43,0,2.59.22,2.63.22.4,0,.5-.07.5-.79V17.89ZM170,8.71v-1a.79.79,0,0,0-.83-.86H150.8c-.65,0-.76.65-.76,1v.83ZM150,12.17v1.15c0,.22,0,.94.76.94h18.14a.92.92,0,0,0,1-.94V12.17Zm25.74,16.59a1.61,1.61,0,0,1,.94,1.55,2.25,2.25,0,0,1-2,2.38c-1,0-6-1.69-10.83-8.42a3.57,3.57,0,0,1-.86-2.2,2.21,2.21,0,0,1,2.16-2.2c.83,0,1,.22,2.05,1.62,1-.5,6.3-2.81,7.13-2.81,1.37,0,1.84,1.37,1.84,2.16,0,1.08-.76,1.62-3.24,2.59l-3.1,1.33a9.15,9.15,0,0,0,2.77,2.34Z"/><path class="cls-1" d="M206,16.27c3.2.76,5.33,2.92,5.33,5.94,0,5-6.44,8.86-15.19,8.86s-15.19-3.92-15.19-8.85c0-3,2.12-5.18,5.33-5.94l.65.9c-2.2.72-3.67,2.16-3.67,4.25,0,3.85,5.58,6.73,12.89,6.73S209,25.27,209,21.42c0-2.09-1.48-3.53-3.67-4.25Zm-18,6.77a5.43,5.43,0,0,0,2.27-4.21A10.63,10.63,0,0,0,188.57,14a10.23,10.23,0,0,1-1.48-4.72,6.52,6.52,0,0,1,3.35-6l1,.61a5.38,5.38,0,0,0-2.27,4.21,10.77,10.77,0,0,0,1.62,4.79,10.23,10.23,0,0,1,1.48,4.68,6.41,6.41,0,0,1-3.35,6.08Zm6,1.48a7,7,0,0,0,2.48-5,12.76,12.76,0,0,0-1.58-5.4,12.41,12.41,0,0,1-1.58-5.29,7.72,7.72,0,0,1,3.6-6.95l1,.58a6.83,6.83,0,0,0-2.48,5,12.77,12.77,0,0,0,1.58,5.4,12.54,12.54,0,0,1,1.58,5.33,7.68,7.68,0,0,1-3.6,6.91ZM200.55,23a5.49,5.49,0,0,0,2.23-4.21A10.21,10.21,0,0,0,201.17,14a10.23,10.23,0,0,1-1.48-4.72,6.49,6.49,0,0,1,3.38-6l.94.58a5.55,5.55,0,0,0-2.27,4.25,10.76,10.76,0,0,0,1.62,4.79,9.81,9.81,0,0,1,1.48,4.68,6.41,6.41,0,0,1-3.35,6.08Z"/><path class="cls-1" d="M241.41,12.13a4.54,4.54,0,0,1,2.45.65,3.61,3.61,0,0,1,1.55,3.42c0,2.7-1.08,10.73-10.69,14.29a33.92,33.92,0,0,1-9.18,1.84,2.49,2.49,0,0,1-2.66-2.52,2.27,2.27,0,0,1,2.2-2.34c9.14-.83,14.18-3.38,15.23-9.79v-.25c0-.54-.29-.54-1.12-.54H221.11c-2,0-2.48,0-3.17-.68a2.28,2.28,0,0,1-.65-1.69,2.31,2.31,0,0,1,1-2c.54-.36,1.19-.36,2.77-.36Zm-1.87-9.21c2,0,2.48,0,3.17.68a2.32,2.32,0,0,1,.68,1.69,2.26,2.26,0,0,1-1.08,2c-.54.36-1.19.36-2.77.36H223.16c-2,0-2.48,0-3.13-.68a2.19,2.19,0,0,1-.68-1.69,2.28,2.28,0,0,1,1-2c.54-.36,1.22-.36,2.77-.36Z"/><path class="cls-1" d="M253.62,28.62a2.16,2.16,0,0,1,2.3-2.3c4.79-.5,9.4-1,14.87-5,4.68-3.42,6.16-7.45,7.31-10.62a2.09,2.09,0,0,1,2.05-1.55,2.5,2.5,0,0,1,2.74,2.34c0,.65-1.3,6.59-6.77,11.77a29.33,29.33,0,0,1-19.87,8A2.36,2.36,0,0,1,253.62,28.62Zm9.32-15.08c-1,0-1.3-.25-4.1-2.48-1.22-1-1.37-1.08-3.6-2.63a2.65,2.65,0,0,1-1.51-2.3,2.6,2.6,0,0,1,2.45-2.77c.79,0,1.15,0,4.82,2.81,4.46,3.35,4.46,4.07,4.46,4.93A2.5,2.5,0,0,1,262.94,13.53Z"/><path class="cls-1" d="M300.2,4.72a13.54,13.54,0,0,1-.11-1.51,2.53,2.53,0,0,1,4.46-1.62c.4.5.47,1.19.58,2.74l.22,2.52,8.31-.43c1-.07,1.19-.07,1.37-.07,2.27,0,2.59,1.58,2.59,2.34a2.29,2.29,0,0,1-1,1.91c-.5.36-1.15.4-2.74.5l-8.21.43.5,6.3,8.68-.5c1.08-.07,1.22-.07,1.44-.07a2.28,2.28,0,0,1,2.56,2.38,2.24,2.24,0,0,1-1,1.91c-.5.36-1.22.4-2.74.5l-8.6.5.5,6.23c0,.43,0,1,0,1.33,0,1.66-.76,2.7-2.48,2.7-2.34,0-2.48-1.91-2.59-3.64l-.47-6.3-9.9.58c-1.08.07-1.22.07-1.44.07a2.37,2.37,0,0,1-1.58-4.28c.47-.32,1.19-.36,2.74-.47l9.83-.58-.47-6.34-8,.43c-1.08.07-1.22.07-1.4.07a2.36,2.36,0,0,1-2.12-.9,2.62,2.62,0,0,1-.47-1.55,2.14,2.14,0,0,1,1-1.94c.5-.29,1.12-.29,2.74-.4l7.88-.43Z"/><path class="cls-1" d="M325.19,28.62a2.16,2.16,0,0,1,2.3-2.3c4.79-.5,9.4-1,14.87-5,4.68-3.42,6.16-7.45,7.31-10.62a2.09,2.09,0,0,1,2.05-1.55,2.5,2.5,0,0,1,2.73,2.34c0,.65-1.29,6.59-6.77,11.77a29.33,29.33,0,0,1-19.87,8A2.36,2.36,0,0,1,325.19,28.62Zm9.32-15.08c-1,0-1.29-.25-4.1-2.48-1.22-1-1.37-1.08-3.6-2.63a2.65,2.65,0,0,1-1.51-2.3,2.6,2.6,0,0,1,2.45-2.77c.79,0,1.15,0,4.82,2.81C337,9.5,337,10.22,337,11.09A2.5,2.5,0,0,1,334.51,13.53Z"/><path class="cls-1" d="M383.72,6.62A14.57,14.57,0,0,1,382.25,3a1.34,1.34,0,0,1,1.4-1.37c.9,0,1.37.61,2,1.58,1,1.66,1.15,2.34,1.15,2.84a1.65,1.65,0,0,1-.29,1C387.72,8,388,9.54,388,11.27c0,7.77-5.36,16.09-14.69,20a28.09,28.09,0,0,1-7.13,1.8,2.43,2.43,0,0,1-2.38-2.59,2.54,2.54,0,0,1,2.45-2.59c4.5-.86,10-2.81,13.61-8a16.81,16.81,0,0,0,2.92-7.7c0-.83-.4-.83-1.26-.83H370.94c-2.12,3-6.91,7.34-9,7.34A2.66,2.66,0,0,1,359.57,16,2.57,2.57,0,0,1,361,13.82a21.47,21.47,0,0,0,7.85-9.29c1-2.2,1.44-3.17,3-3.17.94,0,2.77.54,2.77,2.3a8.72,8.72,0,0,1-.86,3Zm5.69-5.11a7.87,7.87,0,0,1,1.51,3.74,1.28,1.28,0,0,1-1.37,1.3,1.49,1.49,0,0,1-1.37-.86,11.2,11.2,0,0,1-1.47-3.6A1.28,1.28,0,0,1,388,.79,1.53,1.53,0,0,1,389.41,1.51Z"/></g></g></svg>