<svg xmlns="http://www.w3.org/2000/svg" viewBox="0 0 354.13 33.66"><defs><style>.cls-1{fill:#ffe4b2;}</style></defs><title>アセット 1</title><g id="レイヤー_2" data-name="レイヤー 2"><g id="レイヤー_1-2" data-name="レイヤー 1"><path class="cls-1" d="M8.1,1.19a2.9,2.9,0,0,1,3,3.24V9.5c0,1.84-.5,3.53-2.84,3.53H5.47c-1,0-1.08.25-1.12.86l-.18,2.7c0,.72.11.83.76.83H7.74c3,0,3.38,2.09,3.38,3.85,0,5.36-1.33,9.79-2.48,10.87a4.61,4.61,0,0,1-3.42,1.08c-.61,0-3.53-.18-4.5-1A1.83,1.83,0,0,1,0,30.63a1.94,1.94,0,0,1,2-2.12,7.22,7.22,0,0,1,1.33.22,8.38,8.38,0,0,0,1.58.18c.86,0,1.12-.18,1.55-2.12a41.27,41.27,0,0,0,.61-4.54c0-.65-.5-.65-1-.65H3.56c-2.66,0-3.46-1-3.28-3.85l.32-6.08C.76,9,2.63,9,3.82,9H6.3c.83,0,.83-.29.83-.94V5.87c0-.72-.61-.72-1.12-.72H3c-1.48,0-2.88,0-2.88-1.91S1.37,1.19,3,1.19Zm7,9.18A4.89,4.89,0,0,1,13,10.19a2.16,2.16,0,0,1-1-1.91c0-1.8,1.19-1.87,2.7-1.94C15.91,4.21,16.05,4,17.24,1.69,17.67.86,18,.18,19.08.18s2.41.65,2.41,2a2.24,2.24,0,0,1-.29,1c-.86,1.55-1,1.73-1.73,2.92l6.44-.36c-.18-.32-.86-1.33-1.3-2a1.74,1.74,0,0,1-.36-1c0-1.37,1.55-2,2.16-2,1.12,0,1.62.65,3.67,3.85,2.23,3.49,2.23,4,2.23,4.57a2,2,0,0,1-2.09,2.09c-1.08,0-1.58-.83-2.09-1.66l-3.92.22V12.2h3.92a5,5,0,0,1,2.38.47,2.53,2.53,0,0,1,1.19,2.09v6.19A2.39,2.39,0,0,1,30.52,23a4.73,4.73,0,0,1-2.38.5H24.22v4.14L27,27.36c-.61-1.44-.68-1.58-.68-1.91,0-1.44,1.62-1.91,2-1.91,1,0,1.51.68,2.23,2.16.86,1.66,2.16,4.25,2.16,5.69a1.42,1.42,0,0,1-.58,1.33,2.64,2.64,0,0,1-1.44.58c-1.08,0-1.48-.9-2-2.05L14.69,33.15a8.33,8.33,0,0,1-.9.07,2.1,2.1,0,0,1-2.3-2.34c0-1.91,1.3-2.05,2.59-2.2L20,28.08V23.5H16.38A4.48,4.48,0,0,1,14,23a2.42,2.42,0,0,1-1.19-2.05V14.76A2.51,2.51,0,0,1,14,12.67a5.1,5.1,0,0,1,2.38-.47H20V10Zm2.48,5.76c-.47,0-.79.25-.79.68v1.91c0,.43.32.68.79.68H20V16.13Zm6.66,3.28H27c.47,0,.79-.25.79-.68V16.81c0-.43-.32-.68-.79-.68H24.22Z"/><path class="cls-1" d="M50,7.7a3,3,0,0,1,3,3.2,14.41,14.41,0,0,1-5.08,9.93c-3.82,3.17-8.6,4.57-10.08,4.57a1.88,1.88,0,0,1-1.44-.5,2.45,2.45,0,0,1-.72-1.69c0-1.3,1.12-1.76,2.45-2.12a21.46,21.46,0,0,0,5.51-2.23A18.9,18.9,0,0,0,41.29,17a1.8,1.8,0,0,1-.72-1.44,2.26,2.26,0,0,1,2-2c1,0,1.62.54,3.89,2.41a10.64,10.64,0,0,0,1.8-4.07c0-.36-.18-.36-.36-.36h-5.8c-.58,1-2.45,4.21-4.39,4.21a2.23,2.23,0,0,1-2.2-2.05c0-.65.07-.76,1.87-3.1A18.54,18.54,0,0,0,40.21,5.4H38.77c-1.44,0-2.88,0-2.88-1.87s1.3-2,2.88-2H50.58c1.44,0,2.88,0,2.88,1.87s-1.33,2-2.88,2h-6a16.08,16.08,0,0,1-.68,2.3ZM37.62,28.47c.32-.4,1.69-2.27,2-2.59a1.38,1.38,0,0,1,1.19-.5,2.07,2.07,0,0,1,2.12,2.05c0,1.37-2.05,4-3.2,5.26a3.15,3.15,0,0,1-2,1,2,2,0,0,1-2-2C35.71,30.78,35.78,30.7,37.62,28.47Zm9.79,3.2c-.22-.65-1.3-3.6-1.48-4.21a3.42,3.42,0,0,1-.11-.72,2,2,0,0,1,2.05-1.84,1.91,1.91,0,0,1,1.66,1,21,21,0,0,1,1.94,5.69c0,.47-.25,1.8-2.41,1.8C48,33.37,47.52,32,47.41,31.68Zm7.34-.5a43,43,0,0,1-1.15-4.46,1.84,1.84,0,0,1,1.94-1.8,2,2,0,0,1,2,1.3,23.22,23.22,0,0,1,1.66,5.22c0,1.87-1.87,1.87-2.48,1.87C55.29,33.3,55,32.07,54.75,31.17Zm4.9-15.8c0,1.55,0,2.88-1.94,2.88-2.27,0-2.27-1.08-2.27-2.88V4.43c0-1.55,0-2.88,1.94-2.88,2.27,0,2.27,1.08,2.27,2.88Zm7.27,5.76c0,2.59-1.37,3.56-4.54,3.56a9.88,9.88,0,0,1-4.54-1,2.25,2.25,0,0,1-.94-1.87,1.87,1.87,0,0,1,1.76-2c.18,0,2.92.61,3.46.61s.65-.65.65-.83V3.74c0-1.55,0-2.88,1.94-2.88,2.2,0,2.2,1.08,2.2,2.88ZM63,30.42c-1-1.84-1.08-2-1.26-2.41a1.78,1.78,0,0,1-.18-.83,1.89,1.89,0,0,1,2-1.87c.83,0,1.26.43,2.05,1.69s2.27,3.71,2.27,4.72a2,2,0,0,1-2,1.84C64.65,33.55,64.58,33.37,63,30.42Z"/><path class="cls-1" d="M76.93,16.74c-.94,0-1-.11-4.93-3.31-.9-1-.94-1.51-.94-1.84a1.91,1.91,0,0,1,2.05-2c1.3,0,1.91.54,3.28,1.69,2.05,1.8,2.27,2,2.45,2.38a4.2,4.2,0,0,1,.25.86A2,2,0,0,1,76.93,16.74Zm2.59,4.39c0,2.45-3.1,9.14-4.1,10.69A2.31,2.31,0,0,1,73.26,33a2.22,2.22,0,0,1-2.12-2.3c0-.72.11-.86.86-2.41,2.23-4.61,2.48-5.11,3.31-7.85a2,2,0,0,1,1.8-1.69A2.27,2.27,0,0,1,79.52,21.13ZM73,5.29a2.67,2.67,0,0,1-1-1.87A2,2,0,0,1,74,1.48c.9,0,1.37.14,3.2,1.51,2.63,2,3,2.34,3.1,3.35a2,2,0,0,1-2,2.34c-1,0-1.51-.43-3-1.62Zm7.42,15.87a3.26,3.26,0,0,1,3.24-3.38h15c2.92,0,3.82,2,3.82,3v7.7a1.74,1.74,0,0,1,1.8,1.87c0,2.05-1.22,2.05-2.88,2.05H81.25c-1.48,0-2.88,0-2.88-1.87s1.33-2,2.09-2.05Zm18-19.55c2.27,0,3.67,1,3.67,3.1v7.81c0,3-2.12,3.49-3,3.49H85c-2.48,0-4-1.08-4-2.84V4.75a3.24,3.24,0,0,1,1-2.41,4,4,0,0,1,2.56-.72Zm-11.84,20H85.35c-.58,0-.83,0-.83.79v6.12h2.05ZM97.81,5.94c0-.54-.11-.79-.76-.79H86.36c-.61,0-1,0-1,.86v.76H97.81ZM85.35,10.47v.83c0,.65.18.79.83.79H97c.65,0,.79-.25.79-.9v-.72Zm7,11.12H90.43v6.91h1.91Zm6.08,6.91V22.39c0-.54,0-.79-.83-.79H96.48v6.91Z"/><path class="cls-1" d="M110,23.07c-1.48,0-2.88,0-2.88-1.87s1.4-1.87,2.88-1.87h7.09a2.74,2.74,0,0,1,2.27,2.56c0,1.26-1.8,5-5,7.31-1.62,1.12-4.79,3-6.12,3-2.09,0-2.12-2.2-2.12-2.23a1.79,1.79,0,0,1,.9-1.55c4-2,4.39-2.2,5.15-2.81a9.7,9.7,0,0,0,2.2-2.27c0-.22-.11-.22-.54-.22Zm1.73-5.18a2.58,2.58,0,0,1-2.27-1A2.36,2.36,0,0,1,109,15V6a2.45,2.45,0,0,1,.5-1.8,2.69,2.69,0,0,1,2.27-1h7.67L121,.72A2,2,0,0,1,122.61,0c.58,0,2.41.72,2.41,2.16a1.86,1.86,0,0,1-.29,1h10a2.6,2.6,0,0,1,2.27,1,2.5,2.5,0,0,1,.5,1.8v9a2.42,2.42,0,0,1-.5,1.8,2.63,2.63,0,0,1-2.27,1h-9.11V30.16a3.23,3.23,0,0,1-1.33,2.38c-.65.43-1.33.58-3.35.58-3.92,0-5.22-.47-5.22-2.3s1.3-1.87,2.2-1.87c.43,0,2.59.22,2.63.22.4,0,.5-.07.5-.79V17.89ZM133.2,8.71v-1a.79.79,0,0,0-.83-.86H114c-.65,0-.76.65-.76,1v.83Zm-19.94,3.46v1.15c0,.22,0,.94.76.94h18.14a.92.92,0,0,0,1-.94V12.17ZM139,28.76a1.61,1.61,0,0,1,.94,1.55,2.25,2.25,0,0,1-2,2.38c-1,0-6-1.69-10.83-8.42a3.57,3.57,0,0,1-.86-2.2,2.21,2.21,0,0,1,2.16-2.2c.83,0,1,.22,2.05,1.62,1-.5,6.3-2.81,7.13-2.81,1.37,0,1.84,1.37,1.84,2.16,0,1.08-.76,1.62-3.24,2.59l-3.1,1.33a9.15,9.15,0,0,0,2.77,2.34Z"/><path class="cls-1" d="M169.16,16.27c3.2.76,5.33,2.92,5.33,5.94,0,5-6.44,8.86-15.19,8.86s-15.19-3.92-15.19-8.85c0-3,2.12-5.18,5.33-5.94l.65.9c-2.2.72-3.67,2.16-3.67,4.25,0,3.85,5.58,6.73,12.89,6.73s12.89-2.88,12.89-6.73c0-2.09-1.48-3.53-3.67-4.25Zm-18,6.77a5.43,5.43,0,0,0,2.27-4.21A10.63,10.63,0,0,0,151.77,14a10.23,10.23,0,0,1-1.48-4.72,6.52,6.52,0,0,1,3.35-6l1,.61a5.38,5.38,0,0,0-2.27,4.21A10.77,10.77,0,0,0,154,12.89a10.23,10.23,0,0,1,1.48,4.68,6.41,6.41,0,0,1-3.35,6.08Zm6,1.48a7,7,0,0,0,2.48-5,12.76,12.76,0,0,0-1.58-5.4,12.41,12.41,0,0,1-1.58-5.29,7.72,7.72,0,0,1,3.6-6.95l1,.58a6.83,6.83,0,0,0-2.48,5,12.77,12.77,0,0,0,1.58,5.4,12.54,12.54,0,0,1,1.58,5.33,7.68,7.68,0,0,1-3.6,6.91ZM163.76,23A5.49,5.49,0,0,0,166,18.83,10.21,10.21,0,0,0,164.37,14a10.23,10.23,0,0,1-1.48-4.72,6.49,6.49,0,0,1,3.38-6l.94.58a5.55,5.55,0,0,0-2.27,4.25,10.76,10.76,0,0,0,1.62,4.79A9.81,9.81,0,0,1,168,17.57a6.41,6.41,0,0,1-3.35,6.08Z"/><path class="cls-1" d="M204.62,12.13a4.54,4.54,0,0,1,2.45.65,3.61,3.61,0,0,1,1.55,3.42c0,2.7-1.08,10.73-10.69,14.29a33.92,33.92,0,0,1-9.18,1.84,2.49,2.49,0,0,1-2.66-2.52,2.27,2.27,0,0,1,2.2-2.34c9.14-.83,14.18-3.38,15.23-9.79v-.25c0-.54-.29-.54-1.12-.54H184.32c-2,0-2.48,0-3.17-.68a2.28,2.28,0,0,1-.65-1.69,2.31,2.31,0,0,1,1-2c.54-.36,1.19-.36,2.77-.36Zm-1.87-9.21c2,0,2.48,0,3.17.68a2.32,2.32,0,0,1,.68,1.69,2.26,2.26,0,0,1-1.08,2c-.54.36-1.19.36-2.77.36H186.37c-2,0-2.48,0-3.13-.68a2.19,2.19,0,0,1-.68-1.69,2.28,2.28,0,0,1,1-2c.54-.36,1.22-.36,2.77-.36Z"/><path class="cls-1" d="M216.83,28.62a2.16,2.16,0,0,1,2.3-2.3c4.79-.5,9.39-1,14.87-5,4.68-3.42,6.16-7.45,7.31-10.62a2.09,2.09,0,0,1,2.05-1.55,2.5,2.5,0,0,1,2.74,2.34c0,.65-1.3,6.59-6.77,11.77a29.33,29.33,0,0,1-19.87,8A2.36,2.36,0,0,1,216.83,28.62Zm9.32-15.08c-1,0-1.3-.25-4.1-2.48-1.22-1-1.37-1.08-3.6-2.63a2.65,2.65,0,0,1-1.51-2.3,2.6,2.6,0,0,1,2.45-2.77c.79,0,1.15,0,4.82,2.81,4.46,3.35,4.46,4.07,4.46,4.93A2.5,2.5,0,0,1,226.15,13.53Z"/><path class="cls-1" d="M263.41,4.72a13.54,13.54,0,0,1-.11-1.51,2.53,2.53,0,0,1,4.46-1.62c.4.5.47,1.19.58,2.74l.22,2.52,8.31-.43c1-.07,1.19-.07,1.37-.07,2.27,0,2.59,1.58,2.59,2.34a2.29,2.29,0,0,1-1,1.91c-.5.36-1.15.4-2.74.5l-8.21.43.5,6.3,8.67-.5c1.08-.07,1.22-.07,1.44-.07a2.28,2.28,0,0,1,2.56,2.38,2.24,2.24,0,0,1-1,1.91c-.5.36-1.22.4-2.74.5l-8.6.5.5,6.23c0,.43,0,1,0,1.33,0,1.66-.76,2.7-2.48,2.7-2.34,0-2.48-1.91-2.59-3.64l-.47-6.3-9.9.58c-1.08.07-1.22.07-1.44.07a2.37,2.37,0,0,1-1.58-4.28c.47-.32,1.19-.36,2.74-.47l9.83-.58L264,11.84l-8,.43c-1.08.07-1.22.07-1.4.07a2.36,2.36,0,0,1-2.12-.9A2.62,2.62,0,0,1,252,9.9,2.14,2.14,0,0,1,253,8c.5-.29,1.12-.29,2.74-.4l7.88-.43Z"/><path class="cls-1" d="M288.4,28.62a2.16,2.16,0,0,1,2.3-2.3c4.79-.5,9.39-1,14.87-5,4.68-3.42,6.16-7.45,7.31-10.62a2.08,2.08,0,0,1,2.05-1.55,2.5,2.5,0,0,1,2.74,2.34c0,.65-1.3,6.59-6.77,11.77a29.33,29.33,0,0,1-19.87,8A2.36,2.36,0,0,1,288.4,28.62Zm9.32-15.08c-1,0-1.3-.25-4.1-2.48-1.22-1-1.37-1.08-3.6-2.63a2.65,2.65,0,0,1-1.51-2.3A2.6,2.6,0,0,1,291,3.35c.79,0,1.15,0,4.82,2.81,4.46,3.35,4.46,4.07,4.46,4.93A2.5,2.5,0,0,1,297.72,13.53Z"/><path class="cls-1" d="M346.93,6.62A14.53,14.53,0,0,1,345.45,3a1.34,1.34,0,0,1,1.4-1.37c.9,0,1.37.61,2,1.58,1,1.66,1.15,2.34,1.15,2.84a1.66,1.66,0,0,1-.29,1c1.22.86,1.51,2.45,1.51,4.18,0,7.77-5.36,16.09-14.69,20a28.09,28.09,0,0,1-7.13,1.8A2.43,2.43,0,0,1,327,30.49a2.54,2.54,0,0,1,2.45-2.59c4.5-.86,10-2.81,13.61-8A16.81,16.81,0,0,0,346,12.2c0-.83-.4-.83-1.26-.83H334.15c-2.12,3-6.91,7.34-9,7.34A2.66,2.66,0,0,1,322.78,16a2.57,2.57,0,0,1,1.48-2.16,21.48,21.48,0,0,0,7.85-9.29c1-2.2,1.44-3.17,3-3.17.94,0,2.77.54,2.77,2.3a8.75,8.75,0,0,1-.86,3Zm5.69-5.11a7.87,7.87,0,0,1,1.51,3.74,1.28,1.28,0,0,1-1.37,1.3,1.49,1.49,0,0,1-1.37-.86,11.21,11.21,0,0,1-1.48-3.6,1.28,1.28,0,0,1,1.3-1.3A1.53,1.53,0,0,1,352.62,1.51Z"/></g></g></svg>