<svg xmlns="http://www.w3.org/2000/svg" viewBox="0 0 212.29 33.12"><defs><style>.cls-1{fill:#a71d22;}</style></defs><title>アセット 8</title><g id="レイヤー_2" data-name="レイヤー 2"><g id="レイヤー_1-2" data-name="レイヤー 1"><path class="cls-1" d="M5.87,16.74c-.94,0-1-.11-4.93-3.31C0,12.45,0,11.91,0,11.59a1.91,1.91,0,0,1,2.05-2c1.3,0,1.91.54,3.28,1.69,2.05,1.8,2.27,2,2.45,2.38a4.2,4.2,0,0,1,.25.86A2,2,0,0,1,5.87,16.74Zm2.59,4.39c0,2.45-3.1,9.14-4.1,10.69A2.31,2.31,0,0,1,2.2,33,2.22,2.22,0,0,1,.07,30.7c0-.72.11-.86.86-2.41,2.23-4.61,2.48-5.11,3.31-7.85A2,2,0,0,1,6,18.75,2.27,2.27,0,0,1,8.46,21.13ZM2,5.29A2.67,2.67,0,0,1,1,3.42,2,2,0,0,1,3,1.48c.9,0,1.37.14,3.2,1.51,2.63,2,3,2.34,3.1,3.35a2,2,0,0,1-2,2.34c-1,0-1.51-.43-3-1.62ZM9.39,21.17a3.26,3.26,0,0,1,3.24-3.38h15c2.92,0,3.82,2,3.82,3v7.7a1.74,1.74,0,0,1,1.8,1.87c0,2.05-1.22,2.05-2.88,2.05H10.19c-1.48,0-2.88,0-2.88-1.87s1.33-2,2.09-2.05Zm18-19.55c2.27,0,3.67,1,3.67,3.1v7.81c0,3-2.12,3.49-3,3.49H14c-2.48,0-4-1.08-4-2.84V4.75a3.24,3.24,0,0,1,1-2.41,4,4,0,0,1,2.56-.72Zm-11.84,20H14.29c-.58,0-.83,0-.83.79v6.12h2.05ZM26.74,5.94c0-.54-.11-.79-.76-.79H15.3c-.61,0-1,0-1,.86v.76H26.74ZM14.29,10.47v.83c0,.65.18.79.83.79H26c.65,0,.79-.25.79-.9v-.72Zm7,11.12H19.37v6.91h1.91Zm6.08,6.91V22.39c0-.54,0-.79-.83-.79H25.41v6.91Z"/><path class="cls-1" d="M39,23.07c-1.48,0-2.88,0-2.88-1.87s1.4-1.87,2.88-1.87H46a2.75,2.75,0,0,1,2.27,2.56c0,1.26-1.8,5-5,7.31-1.62,1.12-4.79,3-6.12,3-2.09,0-2.12-2.2-2.12-2.23a1.79,1.79,0,0,1,.9-1.55c4-2,4.39-2.2,5.15-2.81a9.7,9.7,0,0,0,2.2-2.27c0-.22-.11-.22-.54-.22Zm1.73-5.18a2.58,2.58,0,0,1-2.27-1,2.36,2.36,0,0,1-.5-1.8V6a2.45,2.45,0,0,1,.5-1.8,2.69,2.69,0,0,1,2.27-1h7.67L49.93.72A2,2,0,0,1,51.55,0C52.13,0,54,.72,54,2.16a1.86,1.86,0,0,1-.29,1h10a2.6,2.6,0,0,1,2.27,1,2.5,2.5,0,0,1,.5,1.8v9a2.42,2.42,0,0,1-.5,1.8,2.63,2.63,0,0,1-2.27,1H54.61V30.16a3.23,3.23,0,0,1-1.33,2.38c-.65.43-1.33.58-3.35.58-3.92,0-5.22-.47-5.22-2.3s1.3-1.87,2.2-1.87c.43,0,2.59.22,2.63.22.4,0,.5-.07.5-.79V17.89ZM62.13,8.71v-1a.79.79,0,0,0-.83-.86H42.95c-.65,0-.76.65-.76,1v.83ZM42.19,12.17v1.15c0,.22,0,.94.76.94H61.09a.92.92,0,0,0,1-.94V12.17ZM67.93,28.76a1.61,1.61,0,0,1,.94,1.55,2.25,2.25,0,0,1-2,2.38c-1,0-6-1.69-10.83-8.42a3.57,3.57,0,0,1-.86-2.2,2.21,2.21,0,0,1,2.16-2.2c.83,0,1,.21,2.05,1.62,1-.5,6.3-2.81,7.13-2.81,1.37,0,1.84,1.37,1.84,2.16,0,1.08-.76,1.62-3.24,2.59L62,24.76A9.14,9.14,0,0,0,64.8,27.1Z"/><path class="cls-1" d="M98.1,16.27c3.2.76,5.33,2.92,5.33,5.94,0,5-6.44,8.85-15.19,8.85S73,27.14,73,22.21c0-3,2.12-5.18,5.33-5.94l.65.9c-2.2.72-3.67,2.16-3.67,4.25,0,3.85,5.58,6.73,12.89,6.73s12.89-2.88,12.89-6.73c0-2.09-1.48-3.53-3.67-4.25ZM80.06,23a5.43,5.43,0,0,0,2.27-4.21A10.62,10.62,0,0,0,80.71,14a10.23,10.23,0,0,1-1.48-4.72,6.52,6.52,0,0,1,3.35-6l1,.61A5.38,5.38,0,0,0,81.29,8.1a10.77,10.77,0,0,0,1.62,4.79,10.23,10.23,0,0,1,1.48,4.68A6.41,6.41,0,0,1,81,23.65Zm6,1.48a7,7,0,0,0,2.48-5A12.76,12.76,0,0,0,87,14.11a12.41,12.41,0,0,1-1.58-5.29A7.72,7.72,0,0,1,89,1.87l1,.58a6.83,6.83,0,0,0-2.48,5,12.77,12.77,0,0,0,1.58,5.4,12.54,12.54,0,0,1,1.58,5.33,7.68,7.68,0,0,1-3.6,6.91ZM92.7,23a5.49,5.49,0,0,0,2.23-4.21A10.21,10.21,0,0,0,93.31,14a10.23,10.23,0,0,1-1.48-4.72,6.49,6.49,0,0,1,3.38-6l.94.58A5.55,5.55,0,0,0,93.88,8.1a10.76,10.76,0,0,0,1.62,4.79A9.81,9.81,0,0,1,97,17.57a6.41,6.41,0,0,1-3.35,6.08Z"/><path class="cls-1" d="M132,5.94c2,0,5.44,0,5.44,4.61,0,4.36-2.59,12.78-10.76,17.93a25.67,25.67,0,0,1-11.05,4,2.48,2.48,0,0,1-2.38-2.59c0-2.05,1.58-2.34,3-2.59,13.5-2.59,16.09-14,16.09-15.51,0-.9-.47-1-1.58-1H119.88c-2.3,3.17-6.59,7.31-8.57,7.31a2.64,2.64,0,0,1-2.45-2.66c0-1.12.54-1.51,1.8-2.41a23.75,23.75,0,0,0,7-8.31c.22-.47,1.12-2.45,1.33-2.84A2.26,2.26,0,0,1,120.89.76c.58,0,2.63.36,2.63,2.3a7.36,7.36,0,0,1-.86,2.88Z"/><path class="cls-1" d="M164.77,28.29c0,2,0,2.48-.68,3.17a2.37,2.37,0,0,1-1.84.68,2.41,2.41,0,0,1-2.05-.68c-.68-.61-.68-1.22-.68-3.17V16.05c-5.29,2.92-11.73,4.68-12.74,4.68A2.46,2.46,0,0,1,144.4,18c0-1.87,1.33-2.23,2.66-2.56A37.88,37.88,0,0,0,162.47,8a38.37,38.37,0,0,0,5.76-5.58,2.17,2.17,0,0,1,1.87-1,2.81,2.81,0,0,1,2.63,2.59,2.94,2.94,0,0,1-.76,1.8,48.54,48.54,0,0,1-7.2,6.73Z"/><path class="cls-1" d="M186.55,9.83c-2,0-2.48,0-3.17-.68a2.33,2.33,0,0,1-.65-1.69,2.34,2.34,0,0,1,1-2.05C184.32,5,185,5,186.55,5h14.61a3.44,3.44,0,0,1,3.56,3.64,19.3,19.3,0,0,1-1.84,7.56,32,32,0,0,1-1.55,2.88,60.54,60.54,0,0,1,7.88,7.59c1.66,1.91,2.05,2.52,2.05,3.42a2.77,2.77,0,0,1-2.7,2.63,2.72,2.72,0,0,1-2.27-1.44,59.11,59.11,0,0,0-7.92-8.24c-6.26,6.8-14.33,10-15.69,10a2.45,2.45,0,0,1-2.34-2.59,2.22,2.22,0,0,1,1.48-2.2c6.37-3.24,7.09-3.6,8.6-4.68,5.44-3.85,9-10.44,9-12.63,0-1.15-.47-1.15-1.62-1.15Zm20.23-2.16c-.94,0-1.4-.94-1.62-1.33A10.43,10.43,0,0,1,204,3.2a1.23,1.23,0,0,1,1.3-1.33c.65,0,1,.29,1.4.9.18.22,1.55,2.27,1.55,3.35a1.45,1.45,0,0,1-1,1.48A2.46,2.46,0,0,1,206.78,7.67Zm4-1.44c-.9,0-1.37-.94-1.58-1.33A10.44,10.44,0,0,1,208,1.76a1.24,1.24,0,0,1,1.3-1.33c.61,0,.9.22,1.4.83.32.47,1.62,2.63,1.62,3.49a1.41,1.41,0,0,1-1,1.4A2.86,2.86,0,0,1,210.74,6.23Z"/></g></g></svg>