<svg xmlns="http://www.w3.org/2000/svg" viewBox="0 0 211.86 33.58"><defs><style>.cls-1{fill:#a5396f;}</style></defs><title>アセット 5</title><g id="レイヤー_2" data-name="レイヤー 2"><g id="レイヤー_1-2" data-name="レイヤー 1"><path class="cls-1" d="M5.87,16.74c-.94,0-1-.11-4.93-3.31C0,12.45,0,11.91,0,11.59a1.91,1.91,0,0,1,2.05-2c1.3,0,1.91.54,3.28,1.69,2.05,1.8,2.27,2,2.45,2.38a4.2,4.2,0,0,1,.25.86A2,2,0,0,1,5.87,16.74Zm2.59,4.39c0,2.45-3.1,9.14-4.1,10.69A2.31,2.31,0,0,1,2.2,33,2.22,2.22,0,0,1,.07,30.7c0-.72.11-.86.86-2.41,2.23-4.61,2.48-5.11,3.31-7.85A2,2,0,0,1,6,18.75,2.27,2.27,0,0,1,8.46,21.13ZM2,5.29A2.67,2.67,0,0,1,1,3.42,2,2,0,0,1,3,1.48c.9,0,1.37.14,3.2,1.51,2.63,2,3,2.34,3.1,3.35a2,2,0,0,1-2,2.34c-1,0-1.51-.43-3-1.62ZM9.39,21.17a3.26,3.26,0,0,1,3.24-3.38h15c2.92,0,3.82,2,3.82,3v7.7a1.74,1.74,0,0,1,1.8,1.87c0,2.05-1.22,2.05-2.88,2.05H10.19c-1.48,0-2.88,0-2.88-1.87s1.33-2,2.09-2.05Zm18-19.55c2.27,0,3.67,1,3.67,3.1v7.81c0,3-2.12,3.49-3,3.49H14c-2.48,0-4-1.08-4-2.84V4.75a3.24,3.24,0,0,1,1-2.41,4,4,0,0,1,2.56-.72Zm-11.84,20H14.29c-.58,0-.83,0-.83.79v6.12h2.05ZM26.74,5.94c0-.54-.11-.79-.76-.79H15.3c-.61,0-1,0-1,.86v.76H26.74ZM14.29,10.47v.83c0,.65.18.79.83.79H26c.65,0,.79-.25.79-.9v-.72Zm7,11.12H19.37v6.91h1.91Zm6.08,6.91V22.39c0-.54,0-.79-.83-.79H25.41v6.91Z"/><path class="cls-1" d="M39,23.07c-1.48,0-2.88,0-2.88-1.87s1.4-1.87,2.88-1.87H46a2.74,2.74,0,0,1,2.27,2.56c0,1.26-1.8,5-5,7.31-1.62,1.12-4.79,3-6.12,3-2.09,0-2.12-2.2-2.12-2.23a1.79,1.79,0,0,1,.9-1.55c4-2,4.39-2.2,5.15-2.81a9.7,9.7,0,0,0,2.2-2.27c0-.22-.11-.22-.54-.22Zm1.73-5.18a2.58,2.58,0,0,1-2.27-1,2.36,2.36,0,0,1-.5-1.8V6a2.45,2.45,0,0,1,.5-1.8,2.69,2.69,0,0,1,2.27-1h7.67L49.93.72A2,2,0,0,1,51.55,0C52.13,0,54,.72,54,2.16a1.86,1.86,0,0,1-.29,1h10a2.6,2.6,0,0,1,2.27,1,2.5,2.5,0,0,1,.5,1.8v9a2.42,2.42,0,0,1-.5,1.8,2.63,2.63,0,0,1-2.27,1H54.61V30.16a3.23,3.23,0,0,1-1.33,2.38c-.65.43-1.33.58-3.35.58-3.92,0-5.22-.47-5.22-2.3s1.3-1.87,2.2-1.87c.43,0,2.59.22,2.63.22.4,0,.5-.07.5-.79V17.89ZM62.13,8.71v-1a.79.79,0,0,0-.83-.86H42.95c-.65,0-.76.65-.76,1v.83ZM42.19,12.17v1.15c0,.22,0,.94.76.94H61.09a.92.92,0,0,0,1-.94V12.17ZM67.93,28.76a1.61,1.61,0,0,1,.94,1.55,2.25,2.25,0,0,1-2,2.38c-1,0-6-1.69-10.83-8.42a3.57,3.57,0,0,1-.86-2.2,2.21,2.21,0,0,1,2.16-2.2c.83,0,1,.22,2.05,1.62,1-.5,6.3-2.81,7.13-2.81,1.37,0,1.84,1.37,1.84,2.16,0,1.08-.76,1.62-3.24,2.59L62,24.76A9.15,9.15,0,0,0,64.8,27.1Z"/><path class="cls-1" d="M98.1,16.27c3.2.76,5.33,2.92,5.33,5.94,0,5-6.44,8.86-15.19,8.86S73,27.14,73,22.21c0-3,2.12-5.18,5.33-5.94l.65.9c-2.2.72-3.67,2.16-3.67,4.25,0,3.85,5.58,6.73,12.89,6.73s12.89-2.88,12.89-6.73c0-2.09-1.48-3.53-3.67-4.25ZM80.06,23a5.43,5.43,0,0,0,2.27-4.21A10.62,10.62,0,0,0,80.71,14a10.23,10.23,0,0,1-1.48-4.72,6.52,6.52,0,0,1,3.35-6l1,.61A5.38,5.38,0,0,0,81.29,8.1a10.77,10.77,0,0,0,1.62,4.79,10.23,10.23,0,0,1,1.48,4.68A6.41,6.41,0,0,1,81,23.65Zm6,1.48a7,7,0,0,0,2.48-5A12.76,12.76,0,0,0,87,14.11a12.41,12.41,0,0,1-1.58-5.29A7.72,7.72,0,0,1,89,1.87l1,.58a6.83,6.83,0,0,0-2.48,5,12.77,12.77,0,0,0,1.58,5.4,12.54,12.54,0,0,1,1.58,5.33,7.68,7.68,0,0,1-3.6,6.91ZM92.7,23a5.49,5.49,0,0,0,2.23-4.21A10.21,10.21,0,0,0,93.31,14a10.23,10.23,0,0,1-1.48-4.72,6.49,6.49,0,0,1,3.38-6l.94.58A5.55,5.55,0,0,0,93.88,8.1a10.76,10.76,0,0,0,1.62,4.79A9.81,9.81,0,0,1,97,17.57a6.41,6.41,0,0,1-3.35,6.08Z"/><path class="cls-1" d="M115.85,30.67c0,1.48,0,2.88-1.91,2.88-2.09,0-2.09-1.19-2.09-2.88v-9c-1.22,2.3-1.73,3.17-2.88,3.17-.25,0-1.94-.14-1.94-1.76,0-.94.47-1.69,1.87-4a29.27,29.27,0,0,0,2.41-5.8h-1c-1.51,0-1.87,0-2.38-.5a1.71,1.71,0,0,1-.5-1.33c0-2,1.3-2,2.88-2h1.51V6.12l-1.08.14a13.49,13.49,0,0,1-1.44.14c-1.69,0-1.69-1.84-1.69-2.27,0-1.58,1.12-1.73,2.63-1.91l6.26-.79a14,14,0,0,1,1.4-.14c1.51,0,1.73,1.4,1.73,2.2,0,1.62-1,1.76-2.63,2l-1.19.14V9.43h1.08c1.51,0,1.84,0,2.38.5a1.71,1.71,0,0,1,.5,1.33c0,2-1.3,2-2.88,2h-1.08V14a21.26,21.26,0,0,0,1.55,2.34l1.44,2a25,25,0,0,0,.61-3.06c.11-.83.29-2.34,1.94-2.34,1,0,1.69.83,1.69,2.38A27.25,27.25,0,0,1,121,23.72a2,2,0,0,1-1.66,1.08,1.62,1.62,0,0,1-1.66-1.73,4.45,4.45,0,0,1,.22-1.22,1.31,1.31,0,0,1-1.19-.25,4.14,4.14,0,0,1-.9-.9Zm12.24-2.81c0,.94.83.94,1.22.94h4.21c1.58,0,1.66-1,1.84-2.56a1.78,1.78,0,0,1,1.8-1.84c1.33,0,2.12.94,2.12,2.63,0,5.65-3.35,6-5.33,6h-5.29c-1.55,0-4.36,0-4.64-2.84-1.55,1.3-3.13,2.45-4.43,2.45a2.13,2.13,0,0,1-2.23-2,2.61,2.61,0,0,1,1.3-2.09A63.39,63.39,0,0,0,124,24.62V10.4c0-1.51,0-2.84,1.91-2.84,2.16,0,2.16,1.12,2.16,2.84V20a38.86,38.86,0,0,0,5.65-10.55c.25-.83,1.69-5.36,1.87-5.65a1.72,1.72,0,0,1,1.62-1,2,2,0,0,1,2.2,2c0,.58-.22,3.2-2.88,9.07,1.08-.22,2,1,2.45,2.05.76,1.76,1.87,4.5,1.87,6.23,0,1.91-2,1.91-2.23,1.91-1.08,0-1.62-1.08-1.91-1.91-.61-1.87-.72-2.2-1.8-5.08a40.14,40.14,0,0,1-6.84,9.29Zm2.81-18.72c-.83,0-.86,0-3.28-2.92-2.59-3-2.81-3.24-2.81-4a2,2,0,0,1,2-2c.79,0,1.58.54,2.92,1.91a32.22,32.22,0,0,1,2.63,3.31A3.07,3.07,0,0,1,133,6.8,2.13,2.13,0,0,1,130.89,9.14Z"/><path class="cls-1" d="M149.18,16.41c-1,0-1.44-.32-3.13-2-.4-.43-2.38-2.27-2.7-2.7a2.35,2.35,0,0,1-.4-1.26,1.85,1.85,0,0,1,2-1.91c.94,0,1.8.47,3.56,2.12,2.52,2.45,2.7,2.59,2.7,3.67A1.93,1.93,0,0,1,149.18,16.41Zm2.05,5.15c0,1.73-2.59,8.57-3.49,10.08a2.71,2.71,0,0,1-2.2,1.51,2.08,2.08,0,0,1-2.16-2.09,5.17,5.17,0,0,1,.76-2.3,33.41,33.41,0,0,0,2.45-6.3c.4-1.73.61-2.7,2-2.92A2.1,2.1,0,0,1,151.23,21.56Zm-1.3-13c-1.12,0-1.84-.58-3.06-1.51-2.66-2.12-3-2.41-3-3.53A2,2,0,0,1,146,1.51c.9,0,1.22.25,3,1.62,2.66,2.12,2.81,2.66,2.81,3.46A1.78,1.78,0,0,1,149.94,8.6ZM173,20.16a2.81,2.81,0,0,1,2.2,1.08c.4.58.43,1,.43,2.84,0,7.13-1,9.29-5.36,9.29-1.76,0-2.23-.29-2.56-.54A2.14,2.14,0,0,1,166.6,31a1.79,1.79,0,0,1,1.76-1.94c.25,0,1.44.29,1.66.29,1.15,0,1.33-1.73,1.33-5,0-.47-.22-.61-.79-.61h-.47A27.75,27.75,0,0,1,165,31.28c-2.12,2.27-3,2.27-3.49,2.27a1.94,1.94,0,0,1-1.33-3.49l2.12-1.73c2.38-2.88,2.63-3.2,3.31-4.54H164c-1.76,2.52-2.56,3.17-6.77,6.62-1.84,1.51-2.63,1.76-3.35,1.76a1.7,1.7,0,0,1-1.76-1.91,1.8,1.8,0,0,1,.65-1.51l3.82-2.66a19.7,19.7,0,0,0,2.41-2.3h-2c-1,1-2.74,2.63-4.07,2.63a1.87,1.87,0,0,1-1.91-1.87,2.78,2.78,0,0,1,1.15-2.2c2.74-2.16,3.17-2.74,3.82-3.64h-1.58c-1.48,0-2.88,0-2.88-1.91s1.4-1.87,2.88-1.87h19.11c1.48,0,2.88,0,2.88,1.91s-1.4,1.87-2.88,1.87H161.21c-.25.4-.79,1.12-1,1.44ZM171.43,1.55a3,3,0,0,1,3.28,2.66v6.48a3.07,3.07,0,0,1-2.66,3H156.81c-2.38,0-3.49-1-3.49-3.42V4.43a2.9,2.9,0,0,1,3-2.88ZM158.11,4.86c-.68,0-.68.32-.68,1.08h12.85c0-.54,0-1.08-.86-1.08ZM157.43,9v.5a.64.64,0,0,0,.68.72h11.45c.72,0,.72-.47.72-.72V9Z"/><path class="cls-1" d="M207.72,6c2.84,0,3.42,1.8,3.42,2.34v2.27c0,2.16-1,3.35-2.66,3.35H196c0,1.4,0,1.94-.07,2.38a2.62,2.62,0,0,1,2.34-1h9.21a5.12,5.12,0,0,1,2.48.5,3.29,3.29,0,0,1,1.44,2.92V29.62c0,.83,0,3.56-3,3.56a5.28,5.28,0,0,1-2.7-.76,1.2,1.2,0,0,1-.83.29,1.48,1.48,0,0,1-1.26-.65c-.22-.36-.22-.54-.22-2.16v-4h-1.08v5c0,1-.25,2-1.37,2-1.37,0-1.37-1.19-1.37-3v-4h-1.33V30.7c0,1.19,0,1.69-.25,2.09a1.71,1.71,0,0,1-1.44.79,1.75,1.75,0,0,1-1.44-.79c-.25-.4-.25-.9-.25-2.09V24.44A31.16,31.16,0,0,1,193,30.85a1.71,1.71,0,0,1-1.62,1.08c-.47,0-1.91-.22-1.91-1.66,0-.36,0-.43.65-2.23a1.72,1.72,0,0,1-1-.79c-.5-.94-.86-5.22-.86-5.54a1.41,1.41,0,0,1,1.37-1.58,1.06,1.06,0,0,1,1.08.94c.07.4.54,2.88.54,3a25.26,25.26,0,0,0,.83-4.61,1.38,1.38,0,0,1-1.22.79c-1.33,0-1.62-1.4-1.73-2a4.53,4.53,0,0,1-1.76.22V30.7c0,1.48,0,1.87-.5,2.38a1.74,1.74,0,0,1-1.3.5,1.8,1.8,0,0,1-1.51-.79c-.25-.4-.25-.9-.25-2.09V18.61c-1.48.11-2.12.18-2.81.18a1.79,1.79,0,0,1-1.87-2.05c0-2,1.26-2,2.38-2.05.4-.54.79-1.15,1.55-2.27-.4-.32-2-2.09-2.34-2.41s-1.37-1.26-1.58-1.51a1.65,1.65,0,0,1-.5-1.3,2.37,2.37,0,0,1,2.05-2.27,1.68,1.68,0,0,1,.94.29c1.08-1.76,1.19-1.94,2.23-3.78a1.66,1.66,0,0,1,1.51-.9,2,2,0,0,1,1.91,2c0,1.08-2.34,4.5-2.92,5.26l1,1c.36-.65,1.94-3.71,2.3-4.1A1.73,1.73,0,0,1,188.93,4c.5,0,2.16.65,2.16,2s-4.64,8.13-4.82,8.39a19.17,19.17,0,0,1,2.16-.11c-.07-.54-.25-1.58-.25-1.91A1.28,1.28,0,0,1,189.54,11a1.35,1.35,0,0,1,1.37,1.08c.22.76.94,4.57,1.12,5.62,0-1.33-.14-7.24-.14-8.46s0-1.91,1-2.63A3,3,0,0,1,194.61,6Zm-28,16.23c0-.4.25-1.87,1.69-1.87a1.53,1.53,0,0,1,1.3.65,1.51,1.51,0,0,1,.22,1,47.33,47.33,0,0,1-1.15,7.81,1.56,1.56,0,0,1-1.4.83,1.79,1.79,0,0,1-1.8-1.4C178.6,28.72,179.57,23.33,179.75,22.21ZM209,1.12c1.51,0,1.87,0,2.38.5a1.71,1.71,0,0,1,.5,1.33,1.8,1.8,0,0,1-.79,1.58c-.4.25-.9.25-2.09.25H193.53c-1.51,0-1.87,0-2.38-.5a1.71,1.71,0,0,1-.5-1.33,1.81,1.81,0,0,1,.79-1.58c.4-.25.9-.25,2.09-.25Zm-3.1,9.47c1.26,0,1.26-.25,1.26-1,0-.4-.29-.4-1-.4h-9.25c-.72,0-.86.11-.9.29v1.08Zm-6.3,8.53h-.5c-.83,0-.83.14-.83,1.12v1.84h1.33Zm3.82,0h-1.08v3h1.08Zm4.28,3v-2.2c0-.47,0-.68-.25-.72a5.15,5.15,0,0,0-1,0v3Zm-1.3,6.62a1.9,1.9,0,0,1,.61-.14,5.24,5.24,0,0,1,.61.14c.07,0,.07-.79.07-.86V25.92h-1.3Z"/></g></g></svg>