<?xml version="1.0" encoding="utf-8"?>
<!-- Generator: Adobe Illustrator 16.0.0, SVG Export Plug-In . SVG Version: 6.00 Build 0)  -->
<!DOCTYPE svg PUBLIC "-//W3C//DTD SVG 1.1//EN" "http://www.w3.org/Graphics/SVG/1.1/DTD/svg11.dtd">
<svg version="1.1" id="レイヤー_1" xmlns="http://www.w3.org/2000/svg" xmlns:xlink="http://www.w3.org/1999/xlink" x="0px"
	 y="0px" width="460px" height="100px" viewBox="0 0 460 100" enable-background="new 0 0 460 100" xml:space="preserve">
<g>
	<g>
		<g>
			<path fill="#FFFFFF" d="M93.998,41.529c-1.188,0-1.279-0.138-6.26-4.203c-1.141-1.234-1.188-1.919-1.188-2.33
				c0-1.873,1.371-2.559,2.604-2.559c1.646,0,2.422,0.686,4.158,2.147c2.604,2.284,2.879,2.513,3.107,3.015
				c0.137,0.32,0.318,0.959,0.318,1.097C96.738,41.529,94.318,41.529,93.998,41.529z M97.287,47.103
				c0,3.106-3.93,11.604-5.209,13.568c-0.365,0.594-1.051,1.507-2.74,1.507c-2.285,0-2.695-2.283-2.695-2.924
				c0-0.913,0.137-1.096,1.096-3.061c2.834-5.848,3.152-6.486,4.203-9.959c0.184-0.686,0.549-1.873,2.285-2.147
				C96.236,43.812,97.287,45.777,97.287,47.103z M89.064,27.001c-0.777-0.594-1.234-1.69-1.234-2.376
				c0-1.599,1.371-2.467,2.467-2.467c1.143,0,1.736,0.184,4.066,1.919c3.336,2.513,3.791,2.97,3.93,4.249
				c0.229,1.781-1.098,2.969-2.514,2.969c-1.279,0-1.918-0.548-3.791-2.055L89.064,27.001z M98.475,47.148
				c0-2.285,1.645-4.295,4.111-4.295h19.051c3.701,0,4.844,2.559,4.844,3.838v9.776c1.188,0.091,2.283,0.685,2.283,2.376
				c0,2.604-1.553,2.604-3.654,2.604H99.48c-1.873,0-3.656,0-3.656-2.375c0-2.559,1.691-2.559,2.65-2.604V47.148z M121.271,22.342
				c2.879,0,4.66,1.324,4.66,3.928v9.914c0,3.792-2.695,4.432-3.746,4.432h-17.908c-3.152,0-5.025-1.371-5.025-3.609V26.316
				c0-1.098,0.457-2.33,1.324-3.062c0.869-0.731,2.102-0.913,3.244-0.913H121.271z M106.242,47.696h-1.555
				c-0.73,0-1.051,0.046-1.051,1.005v7.767h2.605V47.696z M120.494,27.823c0-0.685-0.137-1.005-0.959-1.005h-13.568
				c-0.775,0-1.279,0-1.279,1.096v0.96h15.807V27.823z M104.688,33.58v1.051c0,0.822,0.229,1.004,1.051,1.004h13.752
				c0.822,0,1.004-0.319,1.004-1.142V33.58H104.688z M113.551,47.696h-2.422v8.771h2.422V47.696z M121.271,56.468v-7.767
				c0-0.686-0.045-1.005-1.051-1.005h-1.416v8.771H121.271z"/>
			<path fill="#FFFFFF" d="M138.533,49.569c-1.873,0-3.654,0-3.654-2.376c0-2.375,1.781-2.375,3.654-2.375h9
				c0.594,0,2.879,1.005,2.879,3.243c0,1.599-2.285,6.351-6.396,9.274c-2.057,1.416-6.076,3.746-7.766,3.746
				c-2.65,0-2.697-2.787-2.697-2.832c0-0.32,0.139-1.463,1.143-1.965c5.025-2.513,5.574-2.787,6.533-3.563
				c1.234-1.005,2.787-2.559,2.787-2.878c0-0.274-0.137-0.274-0.686-0.274H138.533z M140.727,42.99
				c-1.736,0-2.514-0.822-2.879-1.324c-0.365-0.411-0.639-0.914-0.639-2.284V27.914c0-1.416,0.318-1.873,0.639-2.283
				c0.641-0.822,1.553-1.325,2.879-1.325h9.73c0.32-0.503,1.736-2.695,2.01-3.106c0.457-0.64,1.326-0.914,2.057-0.914
				s3.061,0.914,3.061,2.741c0,0.686-0.229,1.005-0.365,1.279h12.746c1.416,0,2.33,0.548,2.877,1.325
				c0.412,0.502,0.641,1.051,0.641,2.283v11.468c0,1.37-0.273,1.827-0.641,2.284c-0.73,1.005-1.781,1.324-2.877,1.324h-11.559
				v15.579c0,1.051-0.777,2.421-1.689,3.015c-0.822,0.549-1.691,0.731-4.25,0.731c-4.979,0-6.623-0.594-6.623-2.924
				c0-2.376,1.645-2.376,2.785-2.376c0.549,0,3.291,0.274,3.336,0.274c0.502,0,0.639-0.091,0.639-1.005V42.99H140.727z
				 M167.955,31.342v-1.279c0-0.686-0.412-1.098-1.051-1.098h-23.301c-0.822,0-0.959,0.822-0.959,1.326v1.051H167.955z
				 M142.645,35.727v1.463c0,0.273,0,1.188,0.959,1.188h23.025c0.686,0,1.326-0.32,1.326-1.188v-1.463H142.645z M175.311,56.787
				c1.188,0.641,1.188,1.6,1.188,1.965c0,1.6-1.143,3.016-2.514,3.016c-1.232,0-7.584-2.147-13.75-10.69
				c-0.641-0.868-1.098-1.69-1.098-2.787c0-2.238,2.102-2.786,2.742-2.786c1.051,0,1.279,0.273,2.604,2.055
				c1.232-0.639,7.994-3.562,9.045-3.562c1.736,0,2.33,1.736,2.33,2.74c0,1.371-0.959,2.057-4.111,3.29
				c-0.639,0.274-3.381,1.462-3.93,1.69c1.006,1.142,1.783,2.01,3.52,2.969L175.311,56.787z"/>
			<path fill="#FFFFFF" d="M219.676,40.859c4.471,1.055,7.436,4.07,7.436,8.291c0,6.934-8.994,12.361-21.203,12.361
				c-12.311,0-21.205-5.478-21.205-12.361c0-4.221,2.965-7.236,7.436-8.291l0.906,1.256c-3.066,1.006-5.127,3.016-5.127,5.93
				c0,5.377,7.789,9.396,17.99,9.396c10.199,0,17.988-4.02,17.988-9.396c0-2.914-2.061-4.924-5.125-5.93L219.676,40.859z
				 M194.502,50.307c2.311-1.859,3.164-4.021,3.164-5.879c0-1.859-0.904-4.322-2.26-6.684c-1.357-2.361-2.061-4.824-2.061-6.582
				c0-3.016,0.805-5.98,4.672-8.441l1.357,0.854c-2.311,1.859-3.166,3.97-3.166,5.879c0,1.859,0.904,4.271,2.262,6.684
				c1.357,2.361,2.061,4.823,2.061,6.531c0,3.367-0.904,6.131-4.674,8.492L194.502,50.307z M202.893,52.366
				c2.361-2.161,3.467-4.724,3.467-6.984c0-2.211-0.854-4.823-2.211-7.537c-1.406-2.663-2.211-5.427-2.211-7.386
				c0-3.468,0.955-6.935,5.025-9.698l1.457,0.804c-2.361,2.11-3.467,4.673-3.467,6.934c0,2.211,0.854,4.824,2.211,7.537
				c1.406,2.714,2.211,5.428,2.211,7.438c0,3.818-1.207,7.034-5.025,9.646L202.893,52.366z M212.139,50.307
				c2.26-1.859,3.115-4.021,3.115-5.879c0-1.859-0.855-4.322-2.262-6.684c-1.357-2.361-2.061-4.824-2.061-6.582
				c0-3.016,0.805-5.98,4.723-8.441l1.307,0.804c-2.26,1.858-3.164,4.02-3.164,5.929c0,1.859,0.904,4.271,2.26,6.684
				c1.408,2.361,2.061,4.823,2.061,6.531c0,3.367-0.904,6.131-4.672,8.492L212.139,50.307z"/>
			<path fill="#FFFFFF" d="M246.014,59.209c0,1.873,0,3.654-2.422,3.654c-2.648,0-2.648-1.508-2.648-3.654V47.787
				c-1.555,2.924-2.193,4.021-3.656,4.021c-0.318,0-2.467-0.184-2.467-2.239c0-1.188,0.594-2.147,2.375-5.116
				c1.234-2.057,1.828-3.838,3.062-7.355h-1.234c-1.918,0-2.375,0-3.016-0.64c-0.318-0.319-0.639-0.776-0.639-1.69
				c0-2.513,1.645-2.513,3.654-2.513h1.92v-4.203l-1.371,0.183c-1.234,0.137-1.371,0.184-1.828,0.184
				c-2.146,0-2.146-2.33-2.146-2.879c0-2.01,1.416-2.193,3.334-2.422l7.949-1.004c1.234-0.138,1.371-0.184,1.783-0.184
				c1.918,0,2.191,1.782,2.191,2.787c0,2.056-1.324,2.238-3.334,2.513l-1.508,0.183v4.843h1.371c1.918,0,2.33,0,3.014,0.64
				c0.32,0.32,0.641,0.776,0.641,1.69c0,2.513-1.645,2.513-3.654,2.513h-1.371v0.914c0.273,0.456,0.822,1.461,1.965,2.969
				c1.553,2.147,1.736,2.376,1.826,2.513c0.137-0.548,0.504-1.873,0.777-3.884c0.137-1.051,0.365-2.969,2.467-2.969
				c1.279,0,2.146,1.051,2.146,3.016c0,2.74-1.689,9.229-2.604,10.735c-0.273,0.411-0.867,1.37-2.102,1.37
				c-0.549,0-2.102-0.319-2.102-2.192c0-0.457,0.047-0.594,0.275-1.554c-0.686,0.092-1.098,0.046-1.508-0.319
				c-0.184-0.138-0.822-0.64-1.143-1.142V59.209z M261.547,55.646c0,1.188,1.051,1.188,1.553,1.188h5.346
				c2.01,0,2.102-1.233,2.33-3.243c0.045-0.457,0.229-2.33,2.283-2.33c1.691,0,2.695,1.188,2.695,3.335
				c0,7.173-4.248,7.583-6.762,7.583h-6.715c-1.965,0-5.527-0.045-5.893-3.608c-1.965,1.645-3.975,3.106-5.619,3.106
				c-1.736,0-2.834-1.324-2.834-2.513c0-1.142,0.732-2.011,1.645-2.649c5.301-3.746,5.895-4.158,6.809-4.98V33.488
				c0-1.919,0-3.609,2.42-3.609c2.742,0,2.742,1.416,2.742,3.609v12.152c1.736-2.284,5.391-7.767,7.172-13.386
				c0.32-1.051,2.146-6.808,2.375-7.173c0.229-0.457,0.777-1.279,2.057-1.279c0.273,0,2.787,0,2.787,2.514
				c0,0.73-0.275,4.065-3.656,11.512c1.371-0.273,2.559,1.279,3.107,2.604c0.959,2.238,2.375,5.71,2.375,7.903
				c0,2.422-2.559,2.422-2.832,2.422c-1.371,0-2.055-1.371-2.422-2.422c-0.775-2.375-0.912-2.787-2.283-6.441
				c-1.645,3.106-4.02,6.898-8.68,11.787V55.646z M265.109,31.889c-1.051,0-1.096-0.045-4.156-3.699
				c-3.291-3.793-3.564-4.112-3.564-5.117c0-1.279,1.006-2.513,2.559-2.513c1.006,0,2.01,0.685,3.701,2.421
				c0.912,0.914,2.648,3.198,3.334,4.203c0.549,0.777,0.686,1.234,0.777,1.736C268.08,30.473,266.525,31.889,265.109,31.889z"/>
			<path fill="#FFFFFF" d="M290.869,41.117c-1.279,0-1.828-0.41-3.975-2.559c-0.502-0.547-3.016-2.877-3.426-3.426
				c-0.412-0.686-0.504-1.188-0.504-1.599c0-1.462,1.051-2.421,2.514-2.421c1.188,0,2.283,0.594,4.521,2.695
				c3.199,3.105,3.428,3.289,3.428,4.659C293.428,40.066,292.422,41.117,290.869,41.117z M293.473,47.65
				c0,2.193-3.289,10.873-4.432,12.792c-0.365,0.594-1.232,1.919-2.787,1.919c-2.055,0-2.74-1.69-2.74-2.65
				c0-0.594,0.137-1.232,0.959-2.924c1.463-3.105,2.65-5.893,3.107-7.994c0.502-2.193,0.775-3.427,2.559-3.701
				C291.828,44.818,293.473,45.777,293.473,47.65z M291.828,31.204c-1.416,0-2.33-0.731-3.883-1.919
				c-3.381-2.695-3.793-3.061-3.793-4.477c0-1.279,0.914-2.604,2.695-2.604c1.143,0,1.555,0.319,3.793,2.056
				c3.381,2.695,3.562,3.381,3.562,4.386C294.203,30.062,293.518,31.204,291.828,31.204z M321.111,45.869
				c0.32,0,1.873,0.092,2.787,1.37c0.504,0.731,0.549,1.233,0.549,3.609c0,9.046-1.324,11.786-6.807,11.786
				c-2.238,0-2.832-0.365-3.244-0.686c-0.914-0.594-1.416-1.369-1.416-2.283c0-1.919,1.461-2.467,2.238-2.467
				c0.32,0,1.828,0.365,2.102,0.365c1.461,0,1.689-2.193,1.689-6.305c0-0.594-0.273-0.777-1.004-0.777h-0.594
				c-2.148,4.797-5.072,7.996-6.441,9.503c-2.695,2.878-3.746,2.878-4.432,2.878c-0.914,0-2.695-0.365-2.695-2.283
				c0-1.279,0.594-1.874,1.004-2.148l2.695-2.192c3.016-3.655,3.336-4.065,4.203-5.757h-2.01c-2.238,3.199-3.244,4.021-8.588,8.406
				c-2.33,1.919-3.336,2.238-4.25,2.238c-0.822,0-2.238-0.41-2.238-2.421c0-1.233,0.641-1.781,0.822-1.919l4.844-3.381
				c0.867-0.594,2.01-1.826,3.061-2.924h-2.514c-1.279,1.326-3.471,3.336-5.162,3.336c-0.73,0-2.42-0.503-2.42-2.376
				c0-1.279,0.684-2.147,1.461-2.786c3.473-2.742,4.02-3.473,4.842-4.615h-2.01c-1.873,0-3.654,0-3.654-2.421
				c0-2.376,1.781-2.376,3.654-2.376h24.26c1.873,0,3.654,0,3.654,2.422c0,2.375-1.781,2.375-3.654,2.375h-15.717
				c-0.318,0.503-1.004,1.416-1.324,1.828H321.111z M319.102,22.25c2.695,0,4.158,1.918,4.158,3.381v8.223
				c0,1.919-1.736,3.792-3.381,3.792h-19.324c-3.016,0-4.432-1.233-4.432-4.34v-7.401c0-1.645,1.279-3.654,3.746-3.654H319.102z
				 M302.199,26.453c-0.869,0-0.869,0.41-0.869,1.37h16.311c0-0.685,0-1.37-1.098-1.37H302.199z M301.33,31.752v0.64
				c0,0.595,0.32,0.914,0.869,0.914h14.527c0.914,0,0.914-0.595,0.914-0.914v-0.64H301.33z"/>
			<path fill="#FFFFFF" d="M367.703,27.869c3.609,0,4.34,2.284,4.34,2.969v2.879c0,2.741-1.234,4.248-3.381,4.248h-15.854
				c-0.045,1.782-0.045,2.468-0.09,3.016c0.959-1.188,1.918-1.324,2.969-1.324h11.695c1.143,0,2.65,0.229,3.152,0.639
				c1.143,0.914,1.828,1.828,1.828,3.701v13.888c0,1.051,0,4.522-3.793,4.522c-0.182,0-1.965,0-3.426-0.959
				c-0.184,0.137-0.457,0.365-1.051,0.365c-0.275,0-1.188-0.091-1.6-0.822c-0.273-0.457-0.273-0.686-0.273-2.74v-5.072h-1.371v5.072
				v1.324c0,1.279-0.32,2.513-1.736,2.513c-1.736,0-1.736-1.507-1.736-3.837v-5.072h-1.689v6.076c0,1.508,0,2.148-0.32,2.65
				c-0.547,0.776-1.232,1.005-1.826,1.005c-0.914,0-1.508-0.548-1.828-1.005c-0.32-0.502-0.32-1.143-0.32-2.65v-7.949
				c-0.229,1.051-1.188,5.803-2.42,8.133c-0.641,1.233-1.508,1.37-2.057,1.37c-0.594,0-2.422-0.274-2.422-2.102
				c0-0.456,0-0.548,0.822-2.832c-0.686-0.183-1.188-0.776-1.279-1.005c-0.639-1.188-1.096-6.625-1.096-7.035
				c0-1.691,1.234-2.011,1.736-2.011c0.73,0,1.232,0.457,1.371,1.188c0.09,0.503,0.684,3.655,0.684,3.838
				c0.457-1.599,0.961-4.203,1.051-5.848c-0.547,1.005-1.416,1.005-1.553,1.005c-1.689,0-2.055-1.781-2.193-2.559
				c-0.365,0.137-0.594,0.229-2.238,0.274v15.532c0,1.873,0,2.376-0.639,3.016c-0.457,0.457-1.006,0.64-1.645,0.64
				c-0.961,0-1.555-0.503-1.92-1.005c-0.318-0.502-0.318-1.143-0.318-2.65v-15.35c-1.873,0.137-2.697,0.229-3.564,0.229
				c-1.553,0-2.375-1.005-2.375-2.604c0-2.514,1.598-2.559,3.016-2.604c0.502-0.686,1.004-1.462,1.963-2.878
				c-0.502-0.412-2.512-2.65-2.969-3.061c-0.32-0.32-1.736-1.6-2.01-1.92c-0.412-0.41-0.641-0.867-0.641-1.645
				c0-1.051,1.006-2.878,2.605-2.878c0.594,0,0.959,0.229,1.188,0.366c1.369-2.239,1.508-2.467,2.832-4.797
				c0.41-0.777,1.143-1.143,1.918-1.143c1.051,0,2.422,0.914,2.422,2.513c0,1.37-2.969,5.71-3.701,6.67
				c0.412,0.411,1.143,1.142,1.279,1.279c0.457-0.822,2.467-4.706,2.924-5.208c0.686-0.822,1.555-0.822,1.691-0.822
				c0.639,0,2.74,0.822,2.74,2.559c0,1.645-5.893,10.324-6.121,10.645c0.32-0.047,2.193-0.184,2.74-0.138
				c-0.09-0.685-0.318-2.01-0.318-2.421c0-0.503,0.09-1.828,1.734-1.828c1.279,0,1.555,0.914,1.736,1.371
				c0.275,0.959,1.188,5.802,1.416,7.127c0-1.69-0.182-9.183-0.182-10.736c0-1.508,0.045-2.421,1.232-3.335
				c0.139-0.137,1.098-0.776,2.24-0.776H367.703z M332.205,48.473c0.047-0.502,0.32-2.375,2.148-2.375
				c0.684,0,1.416,0.365,1.645,0.822c0.273,0.457,0.273,0.639,0.273,1.279c0,3.243-1.371,9.685-1.463,9.913
				c-0.09,0.319-0.775,1.051-1.781,1.051c-1.645,0-2.283-1.416-2.283-1.782C330.744,56.742,331.977,49.889,332.205,48.473z
				 M369.301,21.701c1.92,0,2.377,0,3.016,0.641c0.273,0.273,0.641,0.73,0.641,1.689c0,0.32,0,1.325-1.006,2.01
				c-0.502,0.32-1.143,0.32-2.65,0.32h-19.598c-1.92,0-2.377,0-3.016-0.64c-0.273-0.274-0.639-0.731-0.639-1.69
				c0-0.319,0-1.324,1.004-2.01c0.502-0.32,1.143-0.32,2.65-0.32H369.301z M365.373,33.717c1.598,0,1.598-0.32,1.598-1.233
				c0-0.503-0.365-0.503-1.277-0.503h-11.742c-0.914,0-1.096,0.137-1.143,0.365v1.371H365.373z M357.377,44.544h-0.639
				c-1.051,0-1.051,0.183-1.051,1.417v2.329h1.689V44.544z M362.221,44.544h-1.371v3.746h1.371V44.544z M367.656,48.29v-2.786
				c0-0.594,0-0.869-0.318-0.914c-0.229-0.046-0.32-0.046-1.326-0.046v3.746H367.656z M366.012,56.696
				c0.137-0.046,0.457-0.183,0.777-0.183c0.137,0,0.777,0.183,0.777,0.183c0.09,0,0.09-1.005,0.09-1.097v-2.422h-1.645V56.696z"/>
		</g>
	</g>
	<g>
		<path fill="#FDD240" d="M154.85,73.756c0,0.104,0,0.208-0.025,0.325c-0.248,1.577-0.299,1.863-0.391,3.128
			c-0.039,0.639-0.078,1.381-0.078,2.123c0,0.912,0.078,2.686,0.26,3.688c0.027,0.156,0.078,0.456,0.078,0.586
			c0,0.521-0.416,0.626-0.729,0.626s-0.574-0.078-0.691-0.574c-0.273-1.094-0.338-3.219-0.338-4.234
			c0-2.567,0.299-5.004,0.455-5.668c0.145-0.548,0.34-0.613,0.848-0.613C154.342,73.143,154.85,73.195,154.85,73.756z
			 M161.393,76.635c0.234-0.013,1.654-0.078,1.732-0.078c0.262,0,0.678,0.053,0.678,0.639c0,0.443-0.248,0.586-0.494,0.613
			c-0.105,0.025-1.617,0.09-1.877,0.104l0.09,2.502c0.34,0.17,0.965,0.495,1.682,1.068c0.639,0.508,0.742,0.717,0.742,0.978
			c0,0.339-0.273,0.729-0.689,0.729c-0.248,0-0.469-0.182-0.691-0.352c-0.729-0.6-0.807-0.678-1.121-0.873
			c-0.09,0.965-0.234,2.385-2.67,2.385c-2.607,0-2.971-1.551-2.971-2.242c0-1.055,0.807-2.306,3.061-2.306
			c0.639,0,0.965,0.091,1.266,0.183l-0.078-2.02c-1.109,0.052-2.203,0.091-3.297,0.091c-0.795,0-1.174,0-1.174-0.651
			c0-0.626,0.457-0.626,0.859-0.626c0.848,0,1.695-0.026,2.529-0.052c0.17,0,0.885-0.026,1.029-0.026l-0.066-1.759
			c-1.914,0.064-2.148,0.078-3.074,0.078c-0.742,0-1.146,0-1.146-0.639c0-0.625,0.494-0.625,0.742-0.625
			c1.629,0,3.271-0.039,4.9-0.117c0.26,0,1.434-0.079,1.668-0.079c0.156,0,0.664,0,0.664,0.626c0,0.521-0.377,0.586-0.469,0.6
			c-0.457,0.064-1.342,0.091-1.891,0.117L161.393,76.635z M158.824,80.883c-1.107,0-1.746,0.509-1.746,1.186
			c0,1.082,1.355,1.082,1.604,1.082c1.537,0,1.537-0.834,1.486-1.967C159.932,81.078,159.541,80.883,158.824,80.883z"/>
		<path fill="#FDD240" d="M170.699,77.664c1.941,0,1.992,1.707,1.992,2.255c0,0.286-0.09,1.707-0.09,1.837
			c0,0.234,0,1.174,0.977,1.174c1.498,0,1.785-2.268,1.85-3.311c0.053-1.107,0.066-1.238,0.145-1.395
			c0.131-0.273,0.508-0.287,0.625-0.287c0.77,0,0.77,0.574,0.77,0.887c0,0.065-0.014,0.821-0.145,1.76
			c-0.221,1.563-0.885,3.791-3.336,3.791c-1.615,0-2.279-0.99-2.279-2.307c0-0.273,0.064-1.472,0.064-1.719
			c0-0.744-0.104-1.316-1.016-1.316c-0.939,0-2.008,1.068-2.477,2.268c-0.117,0.325-0.326,0.898-0.6,1.993
			c-0.143,0.626-0.221,0.951-0.795,0.951c-0.117,0-0.768-0.039-0.768-0.69c0-0.222,0.051-0.404,0.377-1.381
			c0.873-2.75,1.785-5.5,2.762-8.21c0.236-0.651,0.354-0.99,0.873-0.99c0.34,0,0.783,0.234,0.783,0.638c0,0.223,0,0.301-0.496,1.499
			c-0.078,0.183-0.365,0.886-0.547,1.382c-0.574,1.563-0.639,1.732-0.809,2.15C169.316,78.029,169.748,77.664,170.699,77.664z"/>
		<path fill="#FDD240" d="M188.893,75.279c0.742,0,0.756,0.613,0.756,0.756c0,0.613-0.443,0.691-1.121,0.809
			c-1.16,0.209-3.949,0.834-5.461,1.537c-0.846,0.391-2.396,1.225-2.396,2.646c0,1.095,0.678,1.851,3.818,1.851
			c1.459,0,2.357-0.131,3.973-0.378c0.092-0.013,0.197-0.013,0.287-0.013c0.613,0,0.73,0.43,0.73,0.729
			c0,0.56-0.34,0.678-0.73,0.756c-0.756,0.169-2.502,0.325-4,0.325c-2.41,0-5.629-0.299-5.629-3.152c0-2.451,2.318-3.48,3.857-4.158
			c-0.117-0.912-0.588-2.684-0.613-2.749c-0.064-0.222-0.182-0.612-0.182-0.821c0-0.547,0.533-0.639,0.807-0.639
			c0.678,0,0.744,0.313,0.926,1.226c0.104,0.534,0.391,1.98,0.443,2.437C185.66,75.971,188.332,75.279,188.893,75.279z"/>
		<path fill="#FDD240" d="M193.949,73.781c0,0.131-0.012,0.209-0.012,0.273c-0.248,1.369-0.496,2.814-0.496,5.226
			c0,1.147,0.078,2.606,0.248,3.597c0.025,0.183,0.092,0.6,0.092,0.756c0,0.482-0.301,0.651-0.717,0.651
			c-0.391,0-0.613-0.169-0.717-0.599c-0.209-0.913-0.326-2.984-0.326-4.51c0-2.971,0.43-5.277,0.482-5.447
			c0.053-0.234,0.17-0.664,0.873-0.572C193.871,73.221,193.949,73.494,193.949,73.781z M198.941,73.847
			c-0.014-0.274,0.012-0.769,0.729-0.769s0.73,0.469,0.744,0.756l0.025,1.59c0.26-0.014,1.668-0.078,1.824-0.078
			c0.195,0,0.73,0,0.73,0.689c0,0.587-0.404,0.652-0.535,0.665c-0.17,0.026-1.68,0.078-2.006,0.091l0.051,3.102
			c0.809,0.43,1.525,0.938,2.203,1.577c0.391,0.352,0.494,0.599,0.494,0.821c0,0.455-0.377,0.808-0.729,0.808
			c-0.273,0-0.312-0.052-0.912-0.678c-0.404-0.431-0.834-0.743-1.121-0.938c0,0.691-0.014,1.225-0.209,1.668
			c-0.482,1.056-1.889,1.16-2.475,1.16c-2.217,0-3.051-1.225-3.051-2.502c0-1.59,1.291-2.528,3.076-2.528
			c0.625,0,1.043,0.104,1.291,0.169l-0.066-2.605c-0.521,0.025-2.449,0.064-3.557,0.064c-0.234,0-0.756,0-0.756-0.689
			c0-0.678,0.469-0.678,0.898-0.678c1.121-0.014,2.424-0.026,3.389-0.065L198.941,73.847z M197.795,80.492
			c-0.496,0-1.812,0.131-1.812,1.342c0,1.121,1.121,1.265,1.668,1.265c0.365,0,1.082-0.078,1.33-0.626
			c0.209-0.443,0.117-1.42,0.117-1.707C198.811,80.636,198.445,80.492,197.795,80.492z"/>
		<path fill="#FDD240" d="M206.893,75.84c-0.418,0-0.586,0.222-0.586,0.574v7.766c0,0.209-0.027,0.678-0.652,0.678
			c-0.496,0-0.73-0.156-0.73-0.678v-7.844c0-1.408,0.482-1.799,1.785-1.799h2.998v-1.212c0-0.183,0-0.678,0.678-0.678
			c0.521,0,0.756,0.183,0.756,0.678v1.212h3.023c1.289,0,1.797,0.378,1.797,1.799v6.633c0,0.586-0.09,1.289-0.703,1.602
			c-0.377,0.196-0.73,0.196-1.668,0.196c-0.834,0-1.004-0.013-1.146-0.065c-0.273-0.117-0.379-0.404-0.379-0.651
			c0-0.534,0.326-0.678,0.783-0.678c0.195,0,1.094,0.026,1.277,0c0.324-0.039,0.441-0.273,0.441-0.573v-6.385
			c0-0.353-0.168-0.574-0.586-0.574h-2.75c0.432,2.606,1.955,3.936,2.828,4.691c0.248,0.209,0.379,0.365,0.379,0.625
			c0,0.392-0.34,0.809-0.73,0.809c-0.182,0-0.391-0.014-1.172-0.795c-1.422-1.42-1.877-2.75-2.072-3.336
			c-0.273,0.809-0.678,1.863-1.473,2.736c-0.17,0.183-1.291,1.355-1.877,1.355c-0.443,0-0.703-0.456-0.703-0.795
			c0-0.312,0.221-0.495,0.455-0.678c0.912-0.69,1.785-1.342,2.398-3.114c0.234-0.678,0.326-1.238,0.365-1.499H206.893z"/>
		<path fill="#FDD240" d="M219.443,79.293c-0.195,0.014-1.303,0.104-1.459,0.104c-0.51,0-0.574-0.43-0.574-0.599
			c0-0.184,0.064-0.353,0.234-0.47c0.105-0.078,0.17-0.078,0.717-0.117c0.248-0.339,0.496-0.704,0.717-1.068
			c-0.443-0.482-0.494-0.534-0.977-0.991c-0.482-0.469-0.627-0.599-0.627-0.82c0-0.312,0.287-0.639,0.613-0.639
			c0.143,0,0.234,0.053,0.312,0.104c0.301-0.548,0.6-1.265,0.625-1.329c0.275-0.664,0.354-0.848,0.678-0.848
			c0.379,0,0.717,0.301,0.717,0.6c0,0.287-0.689,1.59-1.146,2.372c0.195,0.183,0.223,0.222,0.482,0.481
			c0.273-0.442,0.299-0.521,0.99-1.798c0.182-0.339,0.312-0.43,0.508-0.43c0.352,0,0.717,0.312,0.717,0.612
			c0,0.143-0.064,0.287-0.611,1.212c-0.418,0.704-0.809,1.368-1.578,2.489c0.273-0.026,1.107-0.078,1.316-0.092
			c-0.039-0.117-0.209-0.625-0.209-0.69c0-0.274,0.248-0.443,0.51-0.443c0.26,0,0.312,0.091,0.6,0.808
			c0.299,0.77,0.441,1.147,0.441,1.343c0,0.378-0.391,0.481-0.559,0.481c-0.301,0-0.365-0.247-0.443-0.469
			c-0.145,0.026-0.756,0.092-0.848,0.092v5.121c0,0.182,0,0.6-0.574,0.6c-0.572,0-0.572-0.418-0.572-0.6V79.293z M219.014,80.636
			c0,0.104-0.066,1.46-0.379,2.866c-0.051,0.248-0.117,0.535-0.521,0.535c-0.246,0-0.561-0.17-0.561-0.496
			c0-0.143,0.158-0.795,0.184-0.925c0.17-0.795,0.248-1.851,0.26-1.98c0.014-0.313,0.092-0.534,0.482-0.534
			C219.014,80.102,219.014,80.506,219.014,80.636z M222.037,81.092c0.195,1.016,0.26,1.89,0.26,2.02c0,0.508-0.43,0.535-0.535,0.535
			c-0.441,0-0.469-0.365-0.48-0.548c-0.053-0.756-0.066-0.886-0.156-1.538c-0.066-0.377-0.131-0.912-0.131-1.016
			c0-0.131,0.025-0.209,0.092-0.274c0.09-0.078,0.246-0.156,0.363-0.156C221.867,80.114,221.867,80.18,222.037,81.092z
			 M228.916,76.583c0.156,0,0.666,0,0.666,0.587c0,0.469-0.248,0.625-0.666,0.625h-2.137c-0.533,0.547-0.912,0.859-1.186,1.068
			h1.955c0.951,0,1.395,0.339,1.406,1.407v2.972c0,1.055-0.441,1.395-1.406,1.395h-2.945c-0.977,0-1.395-0.365-1.395-1.395v-2.828
			c-0.352,0.195-0.547,0.287-0.717,0.287c-0.326,0-0.586-0.34-0.586-0.678c0-0.352,0.26-0.469,0.43-0.547
			c1.395-0.639,2.137-1.147,2.762-1.682h-2.293c-0.168,0-0.678,0-0.678-0.6c0-0.547,0.404-0.612,0.678-0.612h1.852v-1.512h-1.434
			c-0.156,0-0.678,0-0.678-0.587c0-0.599,0.521-0.599,0.678-0.599h1.434v-0.678c0-0.417,0.234-0.612,0.611-0.612
			c0.301,0,0.691,0.078,0.691,0.612v0.678h1.055c0.209,0,0.574,0.039,0.574,0.587c0,0.521-0.301,0.599-0.586,0.599h-1.07v1.512
			h0.393c1.029-1.212,1.42-2.085,1.85-3.036c0.092-0.195,0.221-0.417,0.535-0.417c0.299,0,0.689,0.208,0.689,0.573
			c0,0.312-0.508,1.446-1.59,2.88H228.916z M227.652,81.17v-0.887c0-0.247-0.104-0.377-0.365-0.377h-2.41
			c-0.248,0-0.365,0.13-0.365,0.377v0.887H227.652z M227.652,82.135h-3.141v1.042c0,0.247,0.117,0.364,0.365,0.364h2.41
			c0.248,0,0.365-0.117,0.365-0.364V82.135z"/>
		<path fill="#FDD240" d="M233.285,73.768c0,0.223-0.184,1.199-0.209,1.408c-0.209,1.551-0.301,3.205-0.301,4.574
			c0,1.016,0.053,2.032,0.195,3.01c0.027,0.209,0.092,0.703,0.092,0.873c0,0.352-0.143,0.703-0.77,0.703
			c-0.352,0-0.598-0.13-0.703-0.533c-0.17-0.639-0.273-2.346-0.273-4.184c0-2.958,0.379-5.616,0.508-6.033
			c0.145-0.43,0.457-0.43,0.822-0.43C232.711,73.156,233.285,73.182,233.285,73.768z M241.311,83.555
			c-0.742,0.143-1.941,0.209-2.684,0.209c-1.42,0-4.195-0.066-4.195-2.463c0-0.639,0.312-2.033,1.186-2.033
			c0.377,0,0.795,0.234,0.795,0.6c0,0.169,0,0.182-0.262,0.664c-0.156,0.3-0.221,0.521-0.221,0.73c0,0.951,1.146,1.081,2.398,1.081
			c0.195,0,0.951-0.013,1.758-0.117c0.195-0.026,1.029-0.183,1.199-0.183c0.301,0,0.717,0.092,0.73,0.703
			C242.016,83.15,241.885,83.45,241.311,83.555z M240.934,75.566c-0.195,0-1.055-0.025-1.238-0.025
			c-1.264,0-2.711,0.039-3.701,0.104c-0.143,0.014-0.273,0.026-0.338,0.026c-0.391,0-0.73-0.169-0.73-0.717
			c0-0.612,0.418-0.678,0.574-0.704c0.248-0.039,2.189-0.143,4.117-0.143c0.352,0,1.408,0,1.682,0.078
			c0.195,0.052,0.404,0.234,0.404,0.664C241.703,75.502,241.232,75.566,240.934,75.566z"/>
		<path fill="#FDD240" d="M246.787,73.834c0,0.364-0.078,1.928-0.092,2.254c-0.025,0.859-0.092,2.775-0.092,3.518
			c0,1.76,0,3.363,2.672,3.363c2.945,0,3.648-1.564,4.027-2.842c0.078-0.221,0.246-1.25,0.352-1.434
			c0.17-0.286,0.508-0.286,0.6-0.286c0.234,0,0.846,0.052,0.846,0.678c0,0.417-0.221,1.785-1.055,3.102
			c-1.043,1.629-2.814,2.176-4.717,2.176c-1.824,0-3.023-0.508-3.727-1.616c-0.496-0.781-0.51-1.824-0.51-3.088
			c0-0.898,0.078-4.809,0.092-5.616c0.014-0.665,0.104-1.029,0.834-1.029C246.787,73.013,246.787,73.599,246.787,73.834z"/>
		<path fill="#FDD240" d="M258.008,76.101c-0.586,0-1.029,0-1.029-0.677c0-0.548,0.301-0.691,0.73-0.691h1.824
			c0.182-1.107,0.209-1.225,0.248-1.368c0.117-0.403,0.455-0.442,0.639-0.442c0.533,0,0.781,0.234,0.781,0.638
			c0,0.169-0.014,0.353-0.156,1.134c1.59-0.039,2.24-0.052,3.766-0.117c0.156-0.014,0.859-0.053,1.004-0.053
			c0.209,0,0.729,0.027,0.729,0.691c0,0.651-0.494,0.664-0.742,0.678c-2.566,0.13-3.83,0.156-5.029,0.182
			c-0.352,1.59-0.521,2.346-1.225,4.588c-0.326,1.003-0.965,2.866-1.227,3.336c-0.117,0.221-0.299,0.377-0.611,0.377
			c-0.262,0-0.809-0.143-0.809-0.65c0-0.145,0.014-0.262,0.273-0.834c0.379-0.809,1.082-2.659,1.564-4.444
			c0.209-0.782,0.391-1.563,0.547-2.346H258.008z M267.73,84.193c-0.236,0.052-0.939,0.156-2.229,0.156
			c-3.09,0-4.404-0.547-4.404-2.098c0-0.6,0.285-1.434,1.029-1.434c0.26,0,0.678,0.143,0.678,0.495c0,0.169-0.066,0.286-0.105,0.364
			c-0.09,0.195-0.143,0.287-0.143,0.457c0,0.43,0.352,0.611,0.807,0.717c0.275,0.064,0.795,0.143,1.578,0.143
			c0.561,0,1.25-0.025,1.85-0.092c0.613-0.064,0.691-0.078,0.809-0.078c0.482,0,0.678,0.274,0.678,0.665
			C268.277,83.894,268.068,84.115,267.73,84.193z M267.652,78.851c-0.158,0.091-0.326,0.104-0.443,0.104s-0.666-0.053-0.99-0.078
			c-0.195-0.014-0.354-0.014-0.666-0.014c-0.639,0-1.289,0.026-1.914,0.092c-0.145,0.013-1.135,0.117-1.188,0.117
			c-0.598,0-0.598-0.6-0.598-0.665c0-0.509,0.338-0.665,1.197-0.782c0.834-0.117,2.111-0.156,2.711-0.156
			c0.025,0,1.486,0.014,1.852,0.195c0.285,0.156,0.285,0.404,0.285,0.652C267.898,78.473,267.82,78.732,267.652,78.851z"/>
		<path fill="#FDD240" d="M271.707,74.12c0,0.156-0.078,0.821-0.078,0.951c-0.066,0.626-0.145,1.655-0.145,2.671
			c0,0.431,0,3.062,0.691,4.236c0.156,0.247,0.494,0.521,0.885,0.521c0.783,0,1.277-0.886,1.59-1.89
			c0.197-0.586,0.262-0.795,0.705-0.795c0.391,0,0.781,0.222,0.781,0.665c0,0.378-0.17,0.86-0.625,1.746
			c-0.391,0.756-1.121,1.902-2.516,1.902c-2.957,0-2.957-5.121-2.957-6.45c0-1.355,0.143-3.479,0.207-3.74
			c0.145-0.482,0.496-0.495,0.809-0.495C271.146,73.442,271.707,73.442,271.707,74.12z M279.799,82.421c0-0.286,0.014-1.563,0-1.812
			c-0.053-1.746-0.301-3.844-1.277-4.613c-0.26-0.195-0.547-0.286-1.055-0.338c-0.365-0.039-0.744-0.092-0.744-0.73
			c0-0.182,0.066-0.717,0.795-0.717c0.184,0,1.891,0.053,2.828,1.629c0.6,0.99,0.809,2.633,0.887,3.35
			c0.104,0.898,0.129,1.967,0.129,2.814c0,0.625,0,1.199-0.768,1.199C279.799,83.203,279.799,82.629,279.799,82.421z"/>
		<path fill="#FDD240" d="M285.182,73.729c0,0.287-0.221,1.525-0.246,1.773c-0.053,0.442-0.248,2.11-0.248,3.766
			c0,1.107,0.092,2.541,0.26,3.584c0.027,0.169,0.078,0.547,0.078,0.703c0,0.586-0.494,0.639-0.729,0.639
			c-0.326,0-0.547-0.092-0.678-0.521c-0.301-1.043-0.352-3.219-0.352-4.392c0-2.619,0.324-5.017,0.469-5.591
			c0.143-0.547,0.391-0.56,0.859-0.56C284.648,73.13,285.182,73.169,285.182,73.729z M292.258,78.955v0.312
			c0,1.746,0,3.792-2.553,4.795c-0.613,0.248-1.682,0.443-2.295,0.443c-0.611,0-0.717-0.495-0.717-0.742
			c0-0.457,0.262-0.574,0.744-0.626c0.781-0.078,1.863-0.208,2.645-1.003c0.508-0.521,0.691-1.343,0.691-3.023
			c0-0.273-0.014-1.486-0.027-1.733c-1.355,0.026-2.307,0.052-3.297,0.052s-1.068-0.025-1.197-0.104
			c-0.223-0.131-0.287-0.365-0.287-0.587c0-0.69,0.455-0.69,0.963-0.69c2.217,0,2.463,0,3.793-0.026
			c-0.014-0.352-0.078-1.851-0.078-2.163c0-0.404,0.025-0.847,0.742-0.847c0.547,0,0.756,0.208,0.77,0.821
			c0.014,1.016,0.014,1.12,0.039,2.149c0.209-0.013,1.121-0.052,1.303-0.065c0.17,0,0.273-0.013,0.301-0.013
			c0.234,0,0.729,0.026,0.729,0.678c0,0.665-0.377,0.69-1.029,0.717c-0.195,0-1.082,0.039-1.264,0.052
			C292.246,78.146,292.246,78.225,292.258,78.955z"/>
		<path fill="#FDD240" d="M306.021,75.476c0.352,0,0.77,0.13,0.77,0.755c0,0.626-0.482,0.704-1.109,0.795
			c-0.43,0.078-3.699,0.639-5.303,1.369c-1.199,0.534-2.385,1.368-2.385,2.632c0,1.095,0.625,1.876,3.832,1.876
			c1.445,0,2.318-0.13,3.961-0.377c0.092-0.014,0.195-0.026,0.287-0.026c0.639,0,0.729,0.417,0.729,0.743
			c0,0.561-0.352,0.664-0.729,0.756c-0.795,0.169-2.58,0.312-4.002,0.312c-2.67,0-5.615-0.365-5.615-3.166
			c0-2.477,2.307-3.48,3.791-4.131c-0.117-0.913-0.6-2.711-0.611-2.737c-0.066-0.222-0.184-0.612-0.184-0.808
			c0-0.561,0.549-0.639,0.809-0.639c0.678,0,0.742,0.312,0.926,1.212c0.117,0.56,0.391,1.98,0.441,2.463
			C303.416,75.866,305.525,75.476,306.021,75.476z M304.705,73.508c-0.039-0.065-0.053-0.156-0.053-0.234
			c0-0.261,0.273-0.352,0.432-0.352c0.221,0,0.299,0.117,0.586,0.65c0.248,0.457,0.404,0.926,0.404,1.108
			c0,0.391-0.404,0.391-0.443,0.391c-0.223,0-0.326-0.183-0.34-0.208c-0.025-0.039-0.234-0.587-0.273-0.704
			C304.965,74.055,304.744,73.599,304.705,73.508z M306.191,73.091c-0.027-0.065-0.027-0.157-0.027-0.196
			c0-0.299,0.326-0.377,0.43-0.377c0.223,0,0.248,0.064,0.549,0.561c0.182,0.338,0.43,0.964,0.43,1.159
			c0,0.404-0.418,0.404-0.457,0.404c-0.168,0-0.299-0.13-0.363-0.274c-0.078-0.221-0.17-0.455-0.248-0.639
			C306.465,73.625,306.23,73.182,306.191,73.091z"/>
	</g>
</g>
</svg>
