<?xml version="1.0" encoding="utf-8"?>
<!-- Generator: Adobe Illustrator 16.0.0, SVG Export Plug-In . SVG Version: 6.00 Build 0)  -->
<!DOCTYPE svg PUBLIC "-//W3C//DTD SVG 1.1//EN" "http://www.w3.org/Graphics/SVG/1.1/DTD/svg11.dtd">
<svg version="1.1" id="レイヤー_1" xmlns="http://www.w3.org/2000/svg" xmlns:xlink="http://www.w3.org/1999/xlink" x="0px"
	 y="0px" width="460px" height="140px" viewBox="0 0 460 140" enable-background="new 0 0 460 140" xml:space="preserve">
<g>
	<g>
		<path fill="#FFFFFF" d="M170.852,52.064c0,1.645,0,3.654-2.742,3.654c-2.512,0-2.512-1.645-2.512-3.654V35.115
			c-0.73,1.279-1.371,2.146-2.742,2.146c-0.594,0-2.604-0.457-2.604-2.512c0-0.869,0.229-1.234,2.01-4.568
			c1.189-2.148,3.564-7.584,4.203-9.869c1.279-4.705,1.371-5.025,1.6-5.527c0.412-0.868,1.416-1.005,2.102-1.005
			c1.279,0,2.832,0.456,2.832,2.604c0,0.913-0.457,2.421-2.146,7.445V52.064z M197.623,15.242c3.105,0,4.066,2.421,4.066,5.07
			v29.193c0,2.604-0.914,5.117-4.066,5.117h-19.508c-3.107,0-4.066-2.422-4.066-5.072V20.312c0-2.558,0.914-5.07,4.066-5.07H197.623
			z M179.121,48.363c0,0.777,0.09,1.051,0.867,1.051h15.578c0.686,0,0.869-0.137,0.869-1.051V21.272
			c0-0.776-0.092-1.051-0.869-1.051h-15.578c-0.686,0-0.867,0.183-0.867,1.051V48.363z M192.232,25.019c1.918,0,2.375,0,3.014,0.64
			c0.275,0.273,0.641,0.73,0.641,1.69c0,0.594-0.184,1.416-1.006,1.964c-0.502,0.32-1.141,0.32-2.648,0.32h-1.691v2.695h1.188
			c0.32,0,1.371,0,2.33,0.777c0.914,0.73,0.914,1.645,0.914,2.786v6.898c0,0.96,0,3.746-3.244,3.746H184.1
			c-3.244,0-3.244-2.786-3.244-3.746v-6.898c0-1.233,0-2.284,1.326-3.062c0.41-0.273,1.279-0.502,1.918-0.502h1.645v-2.695h-2.283
			c-1.92,0-2.377,0-3.016-0.64c-0.273-0.274-0.641-0.731-0.641-1.69c0-0.594,0.184-1.416,1.006-1.965
			c0.502-0.319,1.143-0.319,2.65-0.319h2.283c0-1.964,0-2.558,0.365-3.106s0.869-1.006,1.965-1.006c2.467,0,2.467,1.463,2.467,4.112
			H192.232z M185.562,41.146c0,0.319,0.09,0.503,0.594,0.503h3.562c0.594,0,0.594-0.275,0.594-0.503v-3.519
			c0-0.319-0.092-0.502-0.594-0.502h-3.562c-0.549,0.092-0.594,0.092-0.594,0.502V41.146z"/>
		<path fill="#FFFFFF" d="M208.9,33.928c0-0.138,0.639-4.569,0.73-5.438c0.092-1.232,0.182-3.197,0.32-4.432
			c0.137-1.37,1.188-2.01,2.191-2.01c2.238,0,2.238,2.102,2.238,2.604c0,1.325-0.318,6.716-0.502,8.086
			c-0.229,1.782-0.41,3.152-2.01,3.427C210.955,36.349,208.9,35.938,208.9,33.928z M220.596,52.155c0,1.919-0.184,3.655-2.469,3.655
			c-2.604,0-2.604-1.6-2.604-3.655V17.572c0-1.873,0-3.655,2.422-3.655c2.65,0,2.65,1.554,2.65,3.655V52.155z M235.58,21.866v-4.294
			c0-2.01,0-3.655,2.512-3.655c3.016,0,3.016,1.325,3.016,3.655v4.294h5.664c1.6,0,3.656,0.091,3.656,2.604
			c0,2.467-2.012,2.604-3.656,2.604h-5.664v7.904h4.523c1.781,0,2.512,0.41,2.924,0.867c0.457,0.411,0.822,1.143,0.822,1.781
			c0,0.686-0.457,1.646-1.279,2.148c-0.457,0.319-1.371,0.502-2.467,0.502h-4.523v9.183h6.121c1.051,0,2.057,0,2.879,0.776
			c0.502,0.457,0.822,1.097,0.822,1.873c0,2.604-2.695,2.604-3.701,2.604h-18.73c-1.004,0-1.736,0-2.512-0.457
			c-0.777-0.457-1.188-1.279-1.188-2.147c0-2.649,2.695-2.649,3.699-2.649h7.082v-9.183h-5.254c-0.777,0-1.781-0.092-2.514-0.502
			c-0.867-0.549-1.232-1.508-1.232-2.148c0-0.685,0.457-1.645,1.279-2.146c0.457-0.274,1.369-0.502,2.467-0.502h5.254v-7.904h-3.975
			c-1.508,4.752-2.285,5.984-3.975,5.984c-1.051,0-2.742-0.639-2.879-2.33c-1.143,0-1.918-0.639-2.238-1.553
			c-0.045-0.273-0.777-7.127-0.777-7.355c0-1.324,1.006-2.192,2.102-2.192c1.92,0,2.148,2.102,2.285,2.97
			c0.045,0.457,0.32,2.512,0.365,2.924c1.143-3.655,1.461-5.482,2.01-8.314c0.092-0.412,0.549-1.736,2.193-1.736
			c0.273,0,2.924,0.092,2.924,2.512c0,0.549-0.412,3.016-0.594,3.884H235.58z"/>
		<path fill="#FFFFFF" d="M261.932,26.982c0.594,0.457,3.701,3.062,4.432,4.158c0.32,0.457,0.457,0.867,0.457,1.279
			c0,1.37-1.326,2.878-2.879,2.878c-0.686,0-0.777-0.092-2.695-1.69c-1.006-0.822-3.791-3.244-4.203-3.792
			c-0.41-0.503-0.639-0.96-0.639-1.554c0-0.502,0.547-2.877,2.467-2.877C259.738,25.385,259.967,25.385,261.932,26.982z
			 M264.811,37.902c1.553,0,2.512,1.507,2.512,2.604c0,2.467-2.924,10.143-5.254,13.568c-0.32,0.457-1.188,1.645-2.467,1.645
			c-1.781,0-2.74-1.371-2.74-2.559c0-0.776,2.785-7.035,3.242-8.406c0.229-0.639,1.143-3.518,1.326-4.111
			c0.502-1.416,1.096-2.375,2.512-2.649C264.307,37.947,264.627,37.902,264.811,37.902z M264.125,17.023
			c1.963,1.6,4.064,3.883,4.064,3.93c0.457,0.502,0.596,0.959,0.596,1.461c0,1.691-1.965,2.833-2.879,2.833
			c-0.867,0-1.873-0.64-4.02-2.786c-0.457-0.457-2.742-2.468-3.107-2.924c-0.365-0.549-0.457-0.96-0.457-1.326
			c0-1.142,1.371-2.969,2.559-2.969C261.611,15.242,261.932,15.242,264.125,17.023z M284.363,30.547v22.111c0,2.01,0,3.7-2.514,3.7
			c-2.924,0-2.924-1.37-2.924-3.7V30.912l-2.191,0.137c-0.914,0.092-1.006,0.092-1.279,0.137v0.869
			c0,9.365-2.285,19.141-3.564,21.562c-0.273,0.549-1.279,1.6-2.559,1.6c-1.188,0-2.832-0.96-2.832-2.695
			c0-1.006,1.508-5.301,1.736-6.168c0.137-0.549,1.461-10.416,1.461-11.741V20.222c0-0.138,0-1.69,1.326-2.833
			c0.959-0.822,1.826-0.959,3.975-1.142l17.404-1.37c0.961-0.046,1.051-0.092,1.234-0.092c1.736,0,2.65,1.279,2.65,2.604
			c0,0.594-0.184,1.6-1.006,2.148c-0.32,0.228-2.055,0.639-2.375,0.639l-16.035,1.416c-1.143,0.092-1.463,0.229-1.416,1.097v3.062
			c0.455-0.046,0.502-0.046,0.959-0.092l17.588-1.188c1.279-0.092,1.828-0.092,2.559,0.365c0.641,0.411,1.279,1.143,1.279,2.375
			c0,2.467-2.559,2.65-3.426,2.695l-4.25,0.275c0.092,0.959,0.229,2.512,0.777,5.253c0.365-0.183,2.146-1.051,2.285-1.142
			c2.238-1.234,2.512-1.371,3.061-1.371c2.01,0,2.695,2.65,2.695,2.879c0,0.73-0.275,1.416-0.914,1.873
			c-1.645,1.232-5.162,3.105-5.482,3.243c0.365,0.913,1.6,3.335,3.289,6.122c0.822,1.279,2.375,3.883,2.375,4.979
			c0,1.37-1.188,2.376-2.512,2.376c-1.051,0-1.781-0.641-2.057-0.96c-6.303-7.127-8.039-19.735-8.131-21.015
			c-0.045-0.914-0.045-1.554-0.045-1.919L284.363,30.547z"/>
		<path fill="#FFFFFF" d="M98.023,80.761c-0.951,0-1.023-0.11-5.006-3.362c-0.914-0.986-0.951-1.535-0.951-1.863
			c0-1.498,1.096-2.047,2.084-2.047c1.314,0,1.936,0.549,3.324,1.718c2.084,1.827,2.303,2.01,2.486,2.411
			c0.109,0.256,0.256,0.768,0.256,0.878C100.217,80.761,98.279,80.761,98.023,80.761z M100.654,85.219
			c0,2.485-3.143,9.283-4.166,10.854c-0.293,0.475-0.84,1.206-2.193,1.206c-1.826,0-2.156-1.828-2.156-2.34
			c0-0.73,0.111-0.877,0.879-2.447c2.266-4.678,2.521-5.189,3.361-7.967c0.146-0.549,0.438-1.499,1.826-1.719
			C99.814,82.588,100.654,84.159,100.654,85.219z M94.076,69.14c-0.621-0.476-0.986-1.353-0.986-1.9
			c0-1.279,1.096-1.974,1.973-1.974c0.914,0,1.389,0.146,3.254,1.535c2.668,2.01,3.033,2.375,3.143,3.398
			c0.182,1.426-0.877,2.375-2.01,2.375c-1.023,0-1.535-0.438-3.033-1.645L94.076,69.14z M101.605,85.256
			c0-1.827,1.314-3.436,3.289-3.436h15.238c2.961,0,3.873,2.047,3.873,3.07v7.82c0.951,0.073,1.828,0.549,1.828,1.9
			c0,2.083-1.242,2.083-2.924,2.083h-20.502c-1.498,0-2.924,0-2.924-1.9c0-2.046,1.354-2.046,2.121-2.083V85.256z M119.84,65.412
			c2.303,0,3.729,1.06,3.729,3.143v7.93c0,3.033-2.156,3.545-2.996,3.545h-14.326c-2.521,0-4.02-1.096-4.02-2.887v-8.551
			c0-0.877,0.365-1.864,1.059-2.449c0.695-0.584,1.682-0.73,2.596-0.73H119.84z M107.816,85.694h-1.242
			c-0.584,0-0.84,0.036-0.84,0.804v6.213h2.082V85.694z M119.219,69.797c0-0.548-0.109-0.804-0.768-0.804h-10.854
			c-0.621,0-1.023,0-1.023,0.878v0.767h12.645V69.797z M106.574,74.402v0.84c0,0.658,0.184,0.805,0.842,0.805h11
			c0.656,0,0.803-0.256,0.803-0.914v-0.73H106.574z M113.664,85.694h-1.936v7.017h1.936V85.694z M119.84,92.711v-6.213
			c0-0.548-0.035-0.804-0.84-0.804h-1.133v7.017H119.84z"/>
		<path fill="#FFFFFF" d="M131.824,87.192c-1.498,0-2.924,0-2.924-1.899c0-1.9,1.426-1.9,2.924-1.9h7.199
			c0.475,0,2.303,0.803,2.303,2.594c0,1.279-1.828,5.08-5.117,7.419c-1.645,1.133-4.859,2.997-6.211,2.997
			c-2.121,0-2.156-2.229-2.156-2.266c0-0.256,0.109-1.17,0.912-1.572c4.021-2.01,4.459-2.229,5.227-2.85
			c0.986-0.805,2.229-2.047,2.229-2.303c0-0.22-0.109-0.22-0.547-0.22H131.824z M133.578,81.93c-1.389,0-2.01-0.657-2.303-1.059
			c-0.291-0.33-0.512-0.731-0.512-1.828v-9.172c0-1.134,0.256-1.499,0.512-1.828c0.512-0.658,1.244-1.06,2.303-1.06h7.785
			c0.256-0.401,1.389-2.156,1.607-2.485c0.365-0.512,1.061-0.73,1.645-0.73s2.449,0.73,2.449,2.192c0,0.548-0.184,0.804-0.293,1.023
			h10.195c1.133,0,1.863,0.438,2.303,1.06c0.328,0.402,0.512,0.841,0.512,1.828v9.172c0,1.097-0.219,1.462-0.512,1.828
			c-0.584,0.803-1.426,1.059-2.303,1.059h-9.246v12.463c0,0.84-0.621,1.936-1.352,2.411c-0.658,0.438-1.352,0.585-3.398,0.585
			c-3.984,0-5.299-0.475-5.299-2.339c0-1.9,1.314-1.9,2.229-1.9c0.439,0,2.631,0.22,2.668,0.22c0.402,0,0.512-0.074,0.512-0.805
			V81.93H133.578z M155.359,72.611v-1.023c0-0.548-0.328-0.877-0.84-0.877h-18.639c-0.658,0-0.768,0.658-0.768,1.06v0.841H155.359z
			 M135.113,76.119v1.17c0,0.219,0,0.95,0.768,0.95h18.418c0.549,0,1.061-0.256,1.061-0.95v-1.17H135.113z M161.242,92.967
			c0.951,0.512,0.951,1.279,0.951,1.571c0,1.279-0.914,2.412-2.01,2.412c-0.986,0-6.066-1.718-11-8.552
			c-0.512-0.694-0.877-1.352-0.877-2.229c0-1.791,1.68-2.23,2.191-2.23c0.842,0,1.023,0.22,2.084,1.645
			c0.986-0.511,6.395-2.85,7.236-2.85c1.389,0,1.863,1.389,1.863,2.192c0,1.097-0.768,1.645-3.289,2.632
			c-0.512,0.219-2.705,1.169-3.143,1.352c0.803,0.914,1.426,1.607,2.814,2.375L161.242,92.967z"/>
		<path fill="#FFFFFF" d="M200.871,80.096c4.262,1.006,7.088,3.88,7.088,7.903c0,6.61-8.572,11.782-20.213,11.782
			c-11.734,0-20.211-5.221-20.211-11.782c0-4.023,2.824-6.897,7.088-7.903l0.861,1.197c-2.92,0.959-4.885,2.875-4.885,5.652
			c0,5.125,7.424,8.957,17.146,8.957c9.725,0,17.148-3.832,17.148-8.957c0-2.777-1.965-4.693-4.887-5.652L200.871,80.096z
			 M176.875,89.101c2.203-1.772,3.018-3.831,3.018-5.604c0-1.771-0.863-4.119-2.156-6.369c-1.293-2.252-1.963-4.599-1.963-6.275
			c0-2.873,0.766-5.699,4.453-8.047l1.293,0.814c-2.203,1.772-3.018,3.784-3.018,5.604c0,1.772,0.863,4.071,2.156,6.37
			c1.293,2.251,1.963,4.598,1.963,6.227c0,3.209-0.861,5.844-4.453,8.095L176.875,89.101z M184.873,91.064
			c2.252-2.06,3.305-4.502,3.305-6.658c0-2.107-0.814-4.598-2.107-7.184c-1.342-2.539-2.107-5.174-2.107-7.041
			c0-3.305,0.91-6.61,4.789-9.244l1.391,0.766c-2.252,2.012-3.305,4.455-3.305,6.61c0,2.107,0.812,4.599,2.107,7.185
			c1.34,2.586,2.107,5.173,2.107,7.089c0,3.64-1.15,6.706-4.791,9.196L184.873,91.064z M193.686,89.101
			c2.156-1.772,2.971-3.831,2.971-5.604c0-1.771-0.814-4.119-2.156-6.369c-1.293-2.252-1.963-4.599-1.963-6.275
			c0-2.873,0.766-5.699,4.502-8.047l1.246,0.767c-2.156,1.772-3.018,3.832-3.018,5.652c0,1.772,0.861,4.071,2.154,6.37
			c1.342,2.251,1.965,4.598,1.965,6.227c0,3.209-0.863,5.844-4.455,8.095L193.686,89.101z"/>
		<path fill="#FFFFFF" d="M237.908,76.083c0.822,0,1.609,0.183,2.328,0.657c1.234,0.805,1.473,2.12,1.473,3.473
			c0,2.74-1.027,10.891-10.174,14.508c-4.076,1.572-8.256,1.863-8.734,1.863c-1.713,0-2.535-1.314-2.535-2.558
			c0-0.986,0.549-2.229,2.09-2.376c8.701-0.84,13.496-3.435,14.49-9.939v-0.256c0-0.549-0.273-0.549-1.062-0.549h-17.195
			c-1.885,0-2.365,0-3.016-0.693c-0.445-0.476-0.617-1.061-0.617-1.718c0-1.169,0.617-1.791,0.994-2.047
			c0.514-0.365,1.131-0.365,2.639-0.365H237.908z M236.127,66.728c1.883,0,2.363,0,3.014,0.694c0.273,0.293,0.65,0.84,0.65,1.718
			c0,0.986-0.41,1.608-1.027,2.046c-0.514,0.365-1.131,0.365-2.637,0.365h-15.588c-1.883,0-2.363,0-2.98-0.693
			c-0.307-0.293-0.65-0.841-0.65-1.718c0-0.95,0.377-1.608,0.994-2.047c0.514-0.365,1.164-0.365,2.637-0.365H236.127z"/>
		<path fill="#FFFFFF" d="M246.303,92.82c0-2.119,1.609-2.303,2.191-2.339c4.557-0.511,8.941-1.022,14.148-5.079
			c4.453-3.473,5.857-7.565,6.953-10.781c0.412-1.206,1.199-1.571,1.953-1.571c1.268,0,2.604,0.804,2.604,2.376
			c0,0.657-1.234,6.688-6.441,11.949c-5.309,5.409-12.469,8.076-18.908,8.076C246.986,95.451,246.303,94.282,246.303,92.82z
			 M255.174,77.508c-0.959,0-1.232-0.256-3.904-2.521c-1.166-0.986-1.303-1.096-3.426-2.668c-0.721-0.512-1.439-1.096-1.439-2.338
			c0-1.535,0.994-2.814,2.33-2.814c0.754,0,1.096,0.037,4.59,2.851c4.248,3.398,4.248,4.13,4.248,5.007
			C257.572,75.827,256.955,77.508,255.174,77.508z"/>
		<path fill="#FFFFFF" d="M287.41,68.555c-0.102-1.133-0.102-1.279-0.102-1.535c0-1.937,1.199-2.558,2.432-2.558
			c0.273,0,1.131,0,1.814,0.913c0.377,0.512,0.445,1.207,0.549,2.777l0.205,2.559l7.914-0.438c0.994-0.073,1.131-0.073,1.301-0.073
			c2.158,0,2.467,1.607,2.467,2.375c0,0.841-0.342,1.463-0.924,1.938c-0.48,0.365-1.098,0.402-2.604,0.512l-7.811,0.438l0.479,6.396
			l8.256-0.512c1.027-0.073,1.166-0.073,1.371-0.073c2.09,0,2.432,1.608,2.432,2.412c0,0.767-0.24,1.353-0.926,1.937
			c-0.479,0.365-1.164,0.402-2.602,0.512l-8.188,0.512l0.479,6.322c0.035,0.438,0.035,1.023,0.035,1.352
			c0,1.682-0.721,2.741-2.363,2.741c-2.227,0-2.365-1.937-2.467-3.69l-0.445-6.396l-9.42,0.586
			c-1.029,0.072-1.166,0.072-1.371,0.072c-2.055,0-2.432-1.571-2.432-2.412c0-0.949,0.445-1.57,0.924-1.937
			c0.445-0.329,1.131-0.365,2.604-0.476l9.352-0.584l-0.445-6.432l-7.604,0.438c-1.027,0.074-1.166,0.074-1.336,0.074
			c-0.584,0-1.336,0-2.021-0.914c-0.412-0.549-0.445-1.315-0.445-1.571c0-0.768,0.24-1.499,0.959-1.974
			c0.479-0.293,1.062-0.293,2.604-0.402l7.502-0.438L287.41,68.555z"/>
		<path fill="#FFFFFF" d="M307.967,92.82c0-2.119,1.609-2.303,2.191-2.339c4.557-0.511,8.941-1.022,14.148-5.079
			c4.453-3.473,5.857-7.565,6.953-10.781c0.412-1.206,1.199-1.571,1.953-1.571c1.268,0,2.604,0.804,2.604,2.376
			c0,0.657-1.234,6.688-6.441,11.949c-5.309,5.409-12.469,8.076-18.908,8.076C308.65,95.451,307.967,94.282,307.967,92.82z
			 M316.838,77.508c-0.959,0-1.232-0.256-3.904-2.521c-1.166-0.986-1.303-1.096-3.426-2.668c-0.721-0.512-1.439-1.096-1.439-2.338
			c0-1.535,0.994-2.814,2.33-2.814c0.754,0,1.096,0.037,4.59,2.851c4.248,3.398,4.248,4.13,4.248,5.007
			C319.236,75.827,318.619,77.508,316.838,77.508z"/>
		<path fill="#FFFFFF" d="M360.447,70.492c-0.273-0.476-1.404-2.961-1.404-3.654c0-1.061,0.822-1.39,1.336-1.39
			c0.857,0,1.303,0.622,1.885,1.608c0.924,1.681,1.096,2.375,1.096,2.887c0,0.365-0.068,0.73-0.273,1.023
			c1.164,0.877,1.438,2.484,1.438,4.239c0,7.894-5.104,16.335-13.977,20.319c-3.049,1.352-6.508,1.826-6.781,1.826
			c-1.098,0-2.262-0.913-2.262-2.631c0-2.156,1.645-2.484,2.33-2.631c4.281-0.877,9.557-2.851,12.949-8.113
			c1.713-2.668,2.773-6.14,2.773-7.82c0-0.841-0.377-0.841-1.199-0.841h-10.07c-2.021,2.997-6.578,7.455-8.529,7.455
			c-1.475,0-2.295-1.608-2.295-2.777s0.752-1.718,1.404-2.192c3.014-2.119,5.686-5.189,7.467-9.429
			c0.959-2.229,1.371-3.216,2.809-3.216c0.891,0,2.639,0.548,2.639,2.339c0,1.06-0.617,2.485-0.822,2.997H360.447z M365.859,65.303
			c0.994,1.389,1.439,3.215,1.439,3.801c0,0.621-0.41,1.314-1.301,1.314c-0.652,0-1.029-0.365-1.303-0.877
			c-0.479-0.877-1.404-2.813-1.404-3.654c0-1.06,0.891-1.315,1.232-1.315C365.037,64.571,365.414,64.682,365.859,65.303z"/>
	</g>
	<g>
		<path fill="#603813" d="M128.184,118.509c0,0.313-0.014,0.548-0.078,0.756c0.156-0.156,0.299-0.286,0.547-0.286
			c0.34,0,0.742,0.325,0.742,0.717c0,0.195-0.039,0.286-0.781,0.938c-0.104,0.092-0.73,0.639-1.654,1.238
			c0.82,0.352,1.146,0.417,2.41,0.678c0.273,0.064,0.6,0.156,0.6,0.573c0,0.3-0.182,0.834-0.678,0.834s-4.666-0.743-6.424-4.104
			h-1.93v2.476c1.16-0.078,1.33-0.104,2.842-0.325c0.104-0.014,0.209-0.027,0.287-0.027c0.494,0,0.559,0.457,0.559,0.678
			c0,0.521-0.299,0.561-1.158,0.691c-1.355,0.209-4.404,0.521-4.758,0.521c-0.182,0-0.664,0-0.664-0.73
			c0-0.456,0.287-0.573,0.43-0.612c0.105-0.013,0.209-0.026,1.096-0.091v-6.111c0-0.184,0-0.652,0.156-0.926
			c-0.184,0.078-0.443,0.195-0.691,0.3c-0.352,0.144-0.469,0.169-0.6,0.169c-0.508,0-0.678-0.547-0.678-0.808
			c0-0.442,0.301-0.56,0.549-0.638c2.436-0.795,3.348-1.512,4.338-2.307c0.418-0.326,0.639-0.496,1.277-0.482
			c0.678,0,0.9,0.169,1.264,0.469c1.383,1.134,2.178,1.576,4.275,2.293c0.43,0.157,0.625,0.287,0.625,0.665
			c0,0.326-0.195,0.808-0.664,0.808c-0.248,0-1.068-0.352-1.408-0.494c0.17,0.26,0.17,0.768,0.17,0.951V118.509z M123.232,114.978
			v-0.808c0-0.273,0.078-0.586,0.664-0.586c0.508,0,0.678,0.221,0.678,0.586v0.808h2.268c0.129,0,0.207,0,0.391,0.013
			c-1.721-0.886-2.555-1.615-3.023-2.059c-0.182-0.156-0.209-0.182-0.287-0.182c-0.104,0-0.156,0.051-0.312,0.195
			c-0.951,0.938-2.281,1.668-2.996,2.032h0.312H123.232z M126.842,116.945v-0.561c0-0.221-0.092-0.365-0.365-0.365h-5.174
			c-0.26,0-0.365,0.131-0.365,0.365v0.561H126.842z M126.842,117.896h-5.904v0.899h5.539c0.26,0,0.365-0.13,0.365-0.365V117.896z
			 M124.404,119.852c0.496,0.664,0.938,1.055,1.355,1.355c0.652-0.443,1.342-0.912,1.863-1.447c-0.17,0.065-0.418,0.092-0.781,0.092
			H124.404z"/>
		<path fill="#603813" d="M137.92,122.366c0,0.534-0.43,0.964-0.965,0.964c-0.533,0-0.965-0.43-0.965-0.964s0.432-0.964,0.965-0.964
			C137.49,121.402,137.92,121.832,137.92,122.366z M137.451,119.708c-0.027,0.325-0.156,0.548-0.496,0.548
			c-0.326,0-0.455-0.196-0.494-0.548l-0.301-3.675v-2.945c0-0.703,0.521-0.756,0.783-0.756c0.469,0,0.807,0.209,0.807,0.756v2.945
			L137.451,119.708z"/>
		<path fill="#603813" d="M149.428,116.477c0.262-0.039,0.691-0.117,1.355-0.117c1.135,0,2.607,0.208,3.506,0.886
			c0.926,0.704,1.186,1.812,1.186,2.646c0,1.642-0.887,2.71-2.398,3.205c-0.508,0.17-1.225,0.326-2.332,0.326
			c-0.547,0-1.146,0-1.146-0.73c0-0.611,0.482-0.611,0.703-0.611c1.107,0,1.277,0,1.852-0.131c0.898-0.209,1.785-0.742,1.785-2.059
			c0-1.994-1.746-2.268-3.023-2.268c-0.795,0-1.186,0.078-1.486,0.131v2.059c0,1.289,0,3.583-2.318,3.583
			c-1.525,0-2.711-1.198-2.711-2.775c0-2.411,2.359-3.375,3.623-3.818v-1.629c-0.443,0-1.617,0.026-1.994,0.026
			c-0.887,0-0.99,0-1.146-0.039c-0.131-0.026-0.391-0.183-0.391-0.639c0-0.664,0.494-0.664,0.834-0.664c1.197,0,1.367,0,2.697-0.026
			v-1.134c0-0.261,0.012-0.742,0.703-0.742c0.678,0,0.703,0.455,0.703,0.742v1.082c0.262-0.014,1.461-0.078,1.617-0.078
			c0.182,0,0.717,0,0.717,0.678c0,0.572-0.404,0.638-0.535,0.65c-0.131,0.014-1.512,0.065-1.799,0.078V116.477z M148.033,118.131
			c-0.834,0.326-2.268,1.004-2.268,2.385c0,0.887,0.639,1.525,1.305,1.525c0.65,0,0.963-0.574,0.963-2.268V118.131z
			 M152.529,112.527c0.861,0,3.258,2.086,3.258,2.959c0,0.391-0.377,0.703-0.781,0.703c-0.312,0-0.365-0.064-0.809-0.678
			c-0.703-0.99-1.316-1.381-1.916-1.746c-0.312-0.195-0.43-0.482-0.43-0.6c0-0.13,0.105-0.326,0.17-0.404
			C152.113,112.658,152.309,112.527,152.529,112.527z"/>
		<path fill="#603813" d="M165.902,115.746c0-0.847,0-0.99,0.104-1.159c0.156-0.248,0.457-0.274,0.625-0.274
			c0.705,0,0.809,0.379,0.809,1.174c0,0.664-0.156,2.24-0.156,2.293c1.459,0.586,1.682,0.848,1.682,1.238
			c0,0.377-0.326,0.781-0.666,0.781c-0.195,0-0.365-0.091-0.521-0.156c-0.117-0.052-0.625-0.312-0.729-0.365
			c-0.145,0.691-0.547,1.824-1.42,2.854c-0.979,1.173-1.994,1.407-2.281,1.407c-0.365,0-0.703-0.352-0.703-0.73
			c0-0.352,0.143-0.43,1.107-0.938c1.406-0.77,1.785-2.15,1.941-3.166c-1.029-0.379-2.086-0.678-3.166-0.848
			c-0.34,1.303-0.951,2.789-1.057,3.036c-0.521,1.251-1.133,1.876-2.006,1.876c-1.004,0-2.281-0.846-2.281-2.593
			c0-0.3,0-3.44,4.326-3.661c0.053-0.248,0.365-1.316,0.418-1.538c0.039-0.195,0.143-0.704,0.143-0.873
			c0-0.144-0.039-0.364-0.508-0.364c-0.078,0-2.164,0.117-2.566,0.117c-0.326,0-0.809,0-0.809-0.691
			c0-0.703,0.494-0.703,0.977-0.703c0.744,0,1.551-0.026,2.033-0.039c0.34-0.014,0.951-0.039,1.004-0.039
			c0.809,0,1.367,0.312,1.367,1.081c0,0.431-0.156,1.082-0.207,1.316c-0.066,0.286-0.418,1.538-0.482,1.798
			c0.756,0.131,1.811,0.326,2.984,0.678C165.902,116.516,165.902,116.189,165.902,115.746z M160.143,117.975
			c-1.16,0.391-1.695,1.277-1.695,2.202c0,0.899,0.561,1.226,0.9,1.226c0.416,0,0.703-0.47,1.068-1.382
			c0.312-0.808,0.533-1.433,0.742-2.241C160.467,117.871,160.389,117.884,160.143,117.975z"/>
		<path fill="#603813" d="M175.717,122.914c0,0.65-0.561,0.703-0.822,0.703c-0.611,0-0.689-0.443-0.756-0.859
			c-0.273-1.747-0.363-2.15-1.25-5.826c-0.209,0.092-1.016,0.457-1.316,0.587c-0.234,0.104-0.416,0.183-0.664,0.183
			c-0.457,0-0.639-0.469-0.639-0.77c0-0.247,0.078-0.43,0.43-0.599c0.521-0.247,1.721-0.69,1.863-0.743
			c-0.156-0.561-0.248-0.886-0.533-1.824c-0.078-0.273-0.131-0.456-0.131-0.639c0-0.586,0.611-0.651,0.768-0.651
			c0.457,0,0.588,0.261,0.666,0.482c0.09,0.208,0.143,0.43,0.6,2.137c0.6-0.195,1.693-0.573,2.189-0.704
			c-0.078-0.208-0.301-0.781-0.496-1.159s-0.209-0.47-0.209-0.561c0-0.442,0.457-0.599,0.705-0.599c0.494,0,0.664,0.182,1.406,1.98
			c0.404-0.065,0.82-0.117,1.238-0.117c1.643,0,3.062,1.081,3.062,3.102c0,0.586-0.117,2.098-1.186,2.944
			c-0.678,0.548-1.564,0.729-2.438,0.729c-0.691,0-1.551-0.117-1.551-0.82c0-0.339,0.17-0.652,0.652-0.652
			c0.039,0,0.078,0,0.391,0.039c0.287,0.039,0.482,0.039,0.561,0.039c0.352,0,0.963-0.052,1.445-0.455
			c0.469-0.392,0.678-1.107,0.678-1.721c0-0.534-0.104-1.043-0.416-1.395c-0.34-0.377-0.9-0.533-1.33-0.533
			c-0.248,0-0.521,0.039-0.664,0.051c0.117,0.353,0.365,1.135,0.365,1.434c0,0.431-0.34,0.665-0.77,0.665
			c-0.312,0-0.469-0.091-0.572-0.353c-0.014-0.025-0.404-1.264-0.443-1.42c-0.521,0.156-0.926,0.273-2.295,0.795
			C175,119.395,175.717,122.314,175.717,122.914z"/>
		<path fill="#603813" d="M185.582,112.801c0,0.287-0.221,1.525-0.26,1.773c-0.039,0.442-0.234,2.11-0.234,3.766
			c0,1.107,0.078,2.541,0.248,3.584c0.025,0.169,0.09,0.547,0.09,0.703c0,0.586-0.508,0.639-0.742,0.639
			c-0.312,0-0.547-0.092-0.678-0.521c-0.299-1.043-0.352-3.219-0.352-4.392c0-2.619,0.326-5.017,0.482-5.591
			c0.131-0.547,0.391-0.56,0.848-0.56C185.035,112.202,185.582,112.241,185.582,112.801z M192.49,118.027v0.299
			c0,1.785,0,3.818-2.541,4.809c-0.6,0.248-1.668,0.443-2.281,0.443s-0.717-0.495-0.717-0.742c0-0.457,0.26-0.574,0.742-0.626
			c0.783-0.078,1.852-0.208,2.633-1.003c0.457-0.47,0.678-1.187,0.678-3.023c0-0.273-0.025-1.486-0.025-1.721
			c-1.057,0.014-2.15,0.026-3.207,0.026c-0.781,0-0.977,0-1.133-0.091c-0.209-0.131-0.273-0.365-0.273-0.587
			c0-0.69,0.443-0.69,0.951-0.69c2.15,0,2.385,0,3.623-0.026c-0.027-0.99-0.027-1.017-0.027-1.146
			c-0.012-0.339-0.039-0.964-0.039-1.029c0-0.404,0.027-0.834,0.744-0.834c0.572,0,0.703,0.247,0.754,0.638
			c0,0,0.041,1.969,0.053,2.333c0.691-0.026,0.756-0.039,1.381-0.065c0.223,0,0.365-0.013,0.393-0.013
			c0.234,0,0.717,0.026,0.717,0.678c0,0.665-0.34,0.678-1.043,0.717c-1.225,0.039-1.355,0.052-1.408,0.052
			C192.477,117.219,192.477,117.297,192.49,118.027z M192.803,112.58c-0.027-0.065-0.027-0.131-0.027-0.17
			c0-0.299,0.273-0.377,0.418-0.377c0.26,0,0.338,0.156,0.455,0.469c0.17,0.443,0.352,1.121,0.352,1.355
			c0,0.338-0.324,0.391-0.43,0.391c-0.312,0-0.352-0.156-0.561-0.978C192.998,113.231,192.814,112.645,192.803,112.58z
			 M194.105,112.006c0-0.325,0.352-0.364,0.43-0.364c0.26,0,0.352,0.222,0.457,0.47c0.234,0.572,0.363,1.172,0.363,1.315
			c0,0.365-0.352,0.404-0.43,0.404c-0.234,0-0.326-0.208-0.338-0.235c-0.053-0.117-0.195-0.638-0.223-0.742
			C194.326,112.723,194.105,112.137,194.105,112.006z"/>
		<path fill="#603813" d="M203.086,122.366c0,0.534-0.43,0.964-0.965,0.964c-0.533,0-0.965-0.43-0.965-0.964
			s0.432-0.964,0.965-0.964C202.656,121.402,203.086,121.832,203.086,122.366z M202.617,119.708
			c-0.027,0.325-0.156,0.548-0.496,0.548c-0.326,0-0.455-0.196-0.494-0.548l-0.301-3.675v-2.945c0-0.703,0.521-0.756,0.783-0.756
			c0.469,0,0.807,0.209,0.807,0.756v2.945L202.617,119.708z"/>
		<path fill="#603813" d="M217.201,112.358c0-0.208,0-0.678,0.611-0.678c0.443,0,0.691,0.13,0.691,0.678v1.929h0.729
			c0.652,0,1.277,0,1.578,0.586c0.129,0.248,0.156,0.496,0.156,1.316c0,0.352-0.066,5.069-0.418,6.463
			c-0.299,1.187-0.859,1.187-2.059,1.187c-0.678,0-1.133,0-1.133-0.704c0-0.377,0.168-0.69,0.586-0.69
			c0.131,0,0.703,0.026,0.82,0.026c0.508,0,0.561-0.3,0.652-0.821c0.221-1.446,0.299-5.199,0.299-5.407
			c0-0.626-0.117-0.626-0.717-0.626h-0.508v0.195c0,1.159-0.117,4.365-1.434,6.933c-0.611,1.186-0.807,1.186-1.029,1.186
			c-0.326,0-0.807-0.26-0.807-0.69c0-0.091,0.012-0.144,0.025-0.195c-0.859,0.156-5.068,0.626-5.643,0.626
			c-0.209,0-0.586,0-0.586-0.587c0-0.495,0.299-0.534,0.611-0.548c0.965-0.052,1.018-0.064,2.359-0.182v-0.938h-2.137
			c-0.117,0-0.574,0-0.574-0.521c0-0.508,0.443-0.508,0.574-0.508h2.137v-0.626h-1.225c-1.057,0-1.342-0.234-1.342-1.329v-1.59
			c0-1.081,0.26-1.342,1.342-1.342h1.225v-0.561h-2.359c-0.117,0-0.6,0-0.6-0.534s0.457-0.534,0.6-0.534h2.359v-0.612
			c-1.303,0.078-1.537,0.091-2.111,0.091c-0.221,0-0.613,0-0.613-0.56c0-0.482,0.326-0.496,0.588-0.509
			c2.541-0.078,3.453-0.234,4.834-0.47c0.182-0.025,0.273-0.039,0.338-0.039c0.51,0,0.51,0.496,0.51,0.587
			c0,0.442-0.248,0.495-0.404,0.534c-0.117,0.026-0.926,0.144-1.93,0.261v0.717h2.268c0.117,0,0.627,0,0.6,0.56
			c0.078-0.078,0.156-0.143,0.469-0.143h0.666V112.358z M211.988,117.206v-0.821h-1.029c-0.326,0-0.365,0.222-0.365,0.352v0.47
			H211.988z M211.988,118.014h-1.395v0.456c0,0.183,0.064,0.365,0.365,0.365h1.029V118.014z M213.199,122.236
			c0.783-0.092,0.9-0.104,2.008-0.234c0.117-0.014,0.195-0.014,0.221-0.014c0.234,0,0.326,0.104,0.365,0.17
			c0.418-0.73,0.859-1.604,1.16-3.401c0.078-0.534,0.248-1.642,0.248-3.141h-0.666c-0.285,0-0.689-0.052-0.611-0.834
			c-0.092,0.091-0.17,0.156-0.457,0.156h-2.268v0.561h1.227c1.094,0,1.342,0.273,1.342,1.342v1.59c0,1.069-0.262,1.329-1.342,1.329
			h-1.227v0.626h2.061c0.312,0,0.572,0.104,0.572,0.508c0,0.521-0.416,0.521-0.572,0.521h-2.061V122.236z M213.199,117.206h1.395
			v-0.47c0-0.234-0.117-0.352-0.365-0.352h-1.029V117.206z M213.199,118.014v0.821h1.029c0.248,0,0.365-0.13,0.365-0.365v-0.456
			H213.199z"/>
		<path fill="#603813" d="M225.777,123.266c0,0.169,0,0.678-0.625,0.678c-0.471,0-0.705-0.17-0.705-0.678v-3.375
			c-0.859,0.338-1.445,0.561-1.771,0.561c-0.443,0-0.639-0.431-0.639-0.743c0-0.47,0.34-0.587,0.678-0.69
			c0.574-0.183,1.16-0.379,1.732-0.6v-2.945h-0.781c-0.092,0.547-0.209,1.095-0.377,1.629c-0.039,0.156-0.131,0.443-0.521,0.443
			c-0.209,0-0.627-0.117-0.627-0.547c0-0.157,0.287-1.096,0.34-1.304c0.248-1.017,0.287-1.851,0.338-2.775
			c0.014-0.208,0.027-0.587,0.549-0.587c0.52,0,0.52,0.379,0.52,0.561c0,0.404-0.039,1.043-0.064,1.251h0.625v-1.759
			c0-0.209,0.027-0.678,0.627-0.678c0.469,0,0.703,0.156,0.703,0.678v1.759h0.756c0.43,0,0.547,0.313,0.547,0.612
			c0,0.3-0.039,0.717-0.547,0.717h-0.756v2.411c0.156-0.065,0.443-0.183,0.6-0.261c0.234-0.104,0.312-0.104,0.365-0.104
			c0.377,0,0.533,0.378,0.533,0.729c0,0.195-0.039,0.391-0.352,0.574c-0.26,0.143-0.561,0.286-1.146,0.533V123.266z
			 M231.068,114.717c-0.301,1.068-0.834,2.906-2.516,4.861c-0.365,0.416-1.121,1.211-1.525,1.211c-0.391,0-0.678-0.352-0.678-0.703
			c0-0.261,0.158-0.417,0.354-0.561c0.533-0.417,1.432-1.146,2.279-2.619c0.262-0.456,0.418-0.848,0.848-2.189h-1.018
			c-0.168,0.417-0.611,1.408-1.119,2.098c-0.184,0.235-0.379,0.34-0.574,0.34c-0.338,0-0.742-0.301-0.742-0.717
			c0-0.209,0.078-0.34,0.234-0.535c0.77-1.003,1.225-2.215,1.342-2.671c0.104-0.417,0.287-1.107,0.352-1.237
			c0.131-0.262,0.365-0.313,0.574-0.313c0.391,0,0.703,0.235,0.703,0.561c0,0.286-0.234,1.029-0.287,1.186h3.062
			c1.551,0,1.643,0.795,1.643,2.007c0,0.834-0.039,4.795-0.43,6.541c-0.352,1.578-0.848,1.825-2.217,1.825
			c-0.312,0-1.041,0-1.303-0.078c-0.287-0.091-0.404-0.443-0.404-0.651c0-0.223,0.066-0.691,0.73-0.691
			c0.143,0,0.809,0.039,0.938,0.039c0.691,0,0.9-0.156,1.096-1.902c0.195-1.693,0.234-3.231,0.273-4.482
			c-0.234,0.873-0.43,1.629-1.186,3.231c-0.547,1.16-1.42,2.489-2.814,3.662c-0.861,0.716-0.99,0.716-1.146,0.716
			c-0.404,0-0.717-0.364-0.717-0.716c0-0.313,0.26-0.509,0.494-0.665c0.809-0.561,2.189-1.603,3.336-3.948
			c0.691-1.394,0.82-1.915,1.252-3.597H231.068z"/>
		<path fill="#603813" d="M247.477,121.845c0.092,0.091,0.223,0.313,0.223,0.534c0,0.3-0.262,0.678-0.717,0.678
			c-0.287,0-0.51-0.195-0.613-0.312l-1.16-1.238c-0.807,0.965-1.98,1.551-3.23,1.551c-1.824,0-3.271-1.316-3.271-3.114
			c0-1.98,1.668-2.814,2.424-3.206c-0.574-0.689-1.055-1.276-1.055-2.254c0-1.434,1.08-2.437,2.527-2.437
			c1.512,0,2.41,1.146,2.41,2.515c0,1.459-1.107,2.163-1.863,2.58l1.852,2.202c0.104-0.222,0.117-0.312,0.273-1.056
			c0.09-0.416,0.168-0.781,0.756-0.781c0.221,0,0.768,0.13,0.768,0.625c0,0.312-0.246,1.303-0.768,2.229L247.477,121.845z
			 M241.979,117.779c-0.574,0.3-1.682,0.912-1.682,2.163c0,1.12,0.898,1.798,1.838,1.798c1.199,0,1.863-0.847,2.15-1.198
			L241.979,117.779z M243.619,114.404c0-0.378-0.182-1.186-1.041-1.186c-0.705,0-1.07,0.534-1.07,1.146
			c0,0.625,0.365,1.107,0.834,1.76C243.176,115.604,243.619,115.134,243.619,114.404z"/>
		<path fill="#603813" d="M260.055,116.438c0,1.381-0.535,1.381-1.746,1.381c-0.34,0-0.912-0.014-0.912-0.703
			c0-0.223,0.039-0.6,0.521-0.6c0.078,0,0.547,0,0.611-0.014c0.17-0.039,0.248-0.169,0.248-0.377v-2.111h-1.604
			c-0.012,1.395-0.469,2.488-1.08,3.258c-0.273,0.338-0.809,0.912-1.188,0.912c-0.352,0-0.689-0.352-0.689-0.691
			c0-0.234,0-0.234,0.77-1.003c0.195-0.195,0.898-1.081,0.898-2.476h-3.453c-0.156,0-0.639,0-0.639-0.613
			c0-0.6,0.416-0.625,0.639-0.625h4.717v-0.573c0-0.443,0.34-0.548,0.652-0.548c0.441,0,0.768,0.104,0.768,0.548v0.573h4.783
			c0.156,0,0.625,0,0.625,0.612c0,0.6-0.404,0.626-0.625,0.626h-3.297V116.438z M260.51,118.431c0.432,0,0.613,0.026,0.756,0.118
			c0.209,0.129,0.404,0.377,0.404,0.742c0,0.456-0.26,0.82-0.768,1.277c-0.209,0.182-0.691,0.611-1.525,1.12
			c1.25,0.456,2.268,0.665,3.83,0.86c0.301,0.039,0.666,0.104,0.666,0.625c0,0.144-0.053,0.756-0.691,0.756
			c-0.729,0-3.389-0.534-5.316-1.459c-2.02,0.898-4.744,1.434-5.369,1.434s-0.625-0.561-0.625-0.691
			c0-0.521,0.377-0.573,0.703-0.625c1.199-0.156,2.75-0.495,3.857-0.899c-0.938-0.612-1.42-1.107-1.629-1.315
			c-0.625,0.377-1.76,0.951-2.123,0.951c-0.365,0-0.627-0.34-0.627-0.704c0-0.313,0.17-0.456,0.457-0.573
			c2.072-0.951,2.279-1.146,3.57-2.332c0.131-0.118,0.287-0.223,0.521-0.223c0.312,0,0.678,0.234,0.678,0.6
			c0,0.183-0.053,0.273-0.092,0.339H260.51z M253.578,117.05c-0.664,0.755-0.781,0.755-0.965,0.755
			c-0.312,0-0.717-0.247-0.717-0.677c0-0.261,0.184-0.431,0.639-0.86c0.145-0.131,0.652-0.678,1.057-1.407
			c0.129-0.234,0.234-0.392,0.533-0.392c0.312,0,0.691,0.209,0.691,0.535C254.816,115.604,253.631,116.984,253.578,117.05z
			 M256.027,119.525c-0.025,0.014-0.129,0.104-0.156,0.117c1.225,0.99,1.746,1.264,2.072,1.42c1.16-0.572,1.967-1.225,1.967-1.406
			c0-0.117-0.143-0.131-0.221-0.131H256.027z M262.178,115.291c0.393,0.547,0.9,1.016,1.291,1.381
			c0.221,0.195,0.273,0.378,0.273,0.495c0,0.352-0.338,0.704-0.717,0.704c-0.26,0-0.43-0.117-1.225-0.979
			c-0.352-0.377-1.135-1.289-1.135-1.72c0-0.391,0.418-0.612,0.627-0.612C261.67,114.561,261.723,114.626,262.178,115.291z"/>
		<path fill="#603813" d="M267.875,115.577l-1.902,0.091c-0.158,0.014-0.795,0.039-0.795-0.69c0-0.651,0.533-0.678,0.742-0.69
			l2.006-0.078c0.014-0.273,0.066-1.395,0.078-1.459c0.014-0.274,0.039-0.756,0.73-0.756c0.678,0,0.717,0.416,0.717,0.729
			c0,0.092-0.025,0.47-0.078,1.408c0.273,0.013,0.338,0.234,0.338,0.377c0,0.17-0.012,0.184-0.391,0.626v0.235
			c0.547-0.482,1.096-0.795,1.252-0.887c0.664-0.378,1.328-0.6,2.268-0.6c2.346,0,3.766,1.604,3.766,4.066
			c0,1.512-0.391,3.18-1.721,4.104c-0.664,0.456-1.498,0.808-2.762,0.964c-0.404,0.053-0.77,0.078-0.951,0.078
			c-0.314,0-0.939,0-0.939-0.69c0-0.587,0.639-0.678,0.822-0.69c1.197-0.078,2.006-0.131,2.918-0.795
			c0.756-0.561,1.174-1.473,1.174-2.75c0-0.99-0.301-2.957-2.49-2.957c-0.99,0-2.072,0.43-3.414,1.732
			c-0.039,0.926-0.053,1.043-0.053,2.814c0,0.457,0.027,2.489,0.027,2.906s0,0.965-0.717,0.965c-0.117,0-0.613,0-0.703-0.47
			c-0.027-0.13-0.027-0.208-0.027-0.99c0-1.226,0-1.251,0.039-3.453c-0.781,1.173-0.859,1.303-1.25,1.876
			c-0.326,0.469-0.482,0.574-0.744,0.574c-0.352,0-0.768-0.262-0.768-0.704c0-0.287,0.064-0.365,0.547-0.925
			c0.547-0.639,1.615-2.033,2.268-3.193L267.875,115.577z"/>
		<path fill="#603813" d="M281.338,121.662c0.104,0,0.482,0.039,0.611,0.053c0.354,0.052,0.705,0.052,0.965,0.052
			c1.369,0,2.137-0.222,2.711-0.495c0.99-0.482,1.512-1.264,1.512-2.437c0-1.812-1.213-2.424-2.75-2.424
			c-1.525,0-3.115,0.548-4.223,0.938c-0.285,0.091-0.402,0.104-0.482,0.104c-0.455,0-0.664-0.391-0.664-0.756
			c0-0.508,0.301-0.639,0.822-0.795c1.549-0.469,3.152-0.795,4.768-0.795c2.555,0,3.963,1.434,3.963,3.676
			c0,1.367-0.521,2.684-1.93,3.531c-1.225,0.729-3.074,0.795-3.961,0.795c-1.668,0-2.045-0.17-2.045-0.756
			C280.635,122.093,280.686,121.662,281.338,121.662z"/>
		<path fill="#603813" d="M292.402,115.173c-0.586,0-1.029,0-1.029-0.677c0-0.548,0.301-0.691,0.73-0.691h1.824
			c0.182-1.107,0.209-1.225,0.248-1.368c0.117-0.403,0.455-0.442,0.639-0.442c0.533,0,0.781,0.234,0.781,0.638
			c0,0.169-0.014,0.353-0.156,1.134c1.59-0.039,2.24-0.052,3.766-0.117c0.156-0.014,0.859-0.053,1.004-0.053
			c0.209,0,0.729,0.027,0.729,0.691c0,0.651-0.494,0.664-0.742,0.678c-2.566,0.13-3.83,0.156-5.029,0.182
			c-0.352,1.59-0.521,2.346-1.225,4.588c-0.326,1.003-0.965,2.866-1.227,3.336c-0.117,0.221-0.299,0.377-0.611,0.377
			c-0.262,0-0.809-0.143-0.809-0.65c0-0.145,0.014-0.262,0.273-0.834c0.379-0.809,1.082-2.659,1.564-4.444
			c0.209-0.782,0.391-1.563,0.547-2.346H292.402z M302.125,123.266c-0.236,0.052-0.939,0.156-2.229,0.156
			c-3.09,0-4.404-0.547-4.404-2.098c0-0.6,0.285-1.434,1.029-1.434c0.26,0,0.678,0.143,0.678,0.495c0,0.169-0.066,0.286-0.105,0.364
			c-0.09,0.195-0.143,0.287-0.143,0.457c0,0.43,0.352,0.611,0.807,0.717c0.275,0.064,0.795,0.143,1.578,0.143
			c0.561,0,1.25-0.025,1.85-0.092c0.613-0.064,0.691-0.078,0.809-0.078c0.482,0,0.678,0.274,0.678,0.665
			C302.672,122.966,302.463,123.188,302.125,123.266z M302.047,117.923c-0.158,0.091-0.326,0.104-0.443,0.104
			s-0.666-0.053-0.99-0.078c-0.195-0.014-0.354-0.014-0.666-0.014c-0.639,0-1.289,0.026-1.914,0.092
			c-0.145,0.013-1.135,0.117-1.188,0.117c-0.598,0-0.598-0.6-0.598-0.665c0-0.509,0.338-0.665,1.197-0.782
			c0.834-0.117,2.111-0.156,2.711-0.156c0.025,0,1.486,0.014,1.852,0.195c0.285,0.156,0.285,0.404,0.285,0.652
			C302.293,117.545,302.215,117.805,302.047,117.923z"/>
		<path fill="#603813" d="M306.504,113.609c-0.168,0-0.717,0-0.717-0.678c0-0.625,0.432-0.69,0.717-0.69h2.686
			c1.551,0,1.59,0.599,1.721,2.149c0.234,2.815,1.367,5.564,4.131,7.52c0.129,0.092,0.742,0.456,0.846,0.547
			c0.145,0.131,0.184,0.301,0.184,0.443c0,0.404-0.314,0.873-0.809,0.873c-0.43,0-1.16-0.586-1.604-0.965
			c-0.99-0.82-2.893-2.605-3.543-5.889c-0.236,0.977-0.756,3.062-2.555,4.912c-0.951,0.977-2.385,1.941-2.842,1.941
			c-0.402,0-0.768-0.378-0.768-0.834c0-0.352,0.209-0.495,0.521-0.678c0.873-0.495,3.283-1.876,4.365-5.355
			c0.391-1.238,0.482-2.477,0.482-2.724c0-0.56-0.275-0.573-0.678-0.573H306.504z"/>
		<path fill="#603813" d="M318.951,115.98c0.613,0.443,0.744,0.574,0.744,0.887c0,0.287-0.275,0.717-0.652,0.717
			c-0.195,0-0.287-0.065-0.859-0.521c-0.156-0.117-0.926-0.651-1.043-0.742c-0.131-0.104-0.209-0.248-0.209-0.443
			c0-0.156,0.17-0.664,0.652-0.664C317.869,115.213,318.664,115.76,318.951,115.98z M320.176,119.33
			c0,0.234-0.064,0.391-0.352,0.977c-0.678,1.46-0.977,2.086-1.484,2.945c-0.105,0.17-0.301,0.457-0.639,0.457
			c-0.287,0-0.639-0.34-0.639-0.665c0-0.144,0.234-0.495,0.287-0.587c0-0.013,0.703-1.355,0.834-1.615
			c0.299-0.586,0.402-0.795,0.717-1.525c0.064-0.156,0.221-0.533,0.572-0.533C319.916,118.783,320.176,119.121,320.176,119.33z
			 M319.447,112.619c0.664,0.469,0.768,0.6,0.768,0.847c0,0.313-0.285,0.743-0.664,0.743c-0.209,0-0.26-0.039-0.859-0.508
			c-0.105-0.078-0.965-0.665-1.107-0.782c-0.105-0.091-0.17-0.196-0.17-0.378c0-0.287,0.234-0.691,0.625-0.691
			C318.326,111.85,319.121,112.385,319.447,112.619z M324.373,115.824c-1.174,1.538-3.246,3.023-3.727,3.023
			c-0.393,0-0.652-0.43-0.652-0.742c0-0.326,0.131-0.404,1.055-0.965c1.266-0.756,1.93-1.551,2.516-2.254
			c0.234-0.273,0.469-0.561,1.121-0.561c0.561,0,0.625,0.078,1.693,1.342c0.301,0.352,1.146,1.107,1.76,1.46
			c0.742,0.442,0.834,0.495,0.912,0.612s0.092,0.234,0.092,0.312c0,0.287-0.248,0.743-0.666,0.743c-0.469,0-2.488-1.434-3.543-2.972
			c-0.145-0.195-0.17-0.247-0.275-0.247C324.568,115.577,324.541,115.604,324.373,115.824z M320.332,114.443
			c0-0.234,0.014-0.248,0.756-0.859c0.6-0.496,1.004-0.991,1.461-1.564c0.117-0.131,0.26-0.3,0.533-0.3
			c0.379,0,0.664,0.353,0.664,0.612c0,0.365-0.924,1.369-1.42,1.851c-0.377,0.378-0.977,0.951-1.367,0.951
			C320.646,115.134,320.332,114.77,320.332,114.443z M327.93,122.223c0,1.134-0.469,1.447-1.445,1.447h-3.754
			c-0.965,0-1.447-0.313-1.447-1.447v-2.566c0-1.107,0.457-1.447,1.447-1.447h3.754c0.963,0,1.445,0.326,1.445,1.447V122.223z
			 M326.588,119.942c0-0.339-0.156-0.509-0.508-0.509h-2.959c-0.352,0-0.508,0.17-0.508,0.509v2.007
			c0,0.365,0.195,0.508,0.508,0.508h2.959c0.326,0,0.508-0.156,0.508-0.508V119.942z M326.248,111.746
			c0.223,0,0.365,0.131,0.627,0.495c0.338,0.442,1.186,1.237,1.668,1.616c0.338,0.247,0.43,0.352,0.43,0.572
			c0,0.457-0.443,0.691-0.664,0.691c-0.287,0-0.561-0.248-1.029-0.678c-0.691-0.651-0.756-0.729-1.422-1.563
			c-0.246-0.313-0.285-0.392-0.273-0.495C325.584,111.863,326.119,111.746,326.248,111.746z"/>
		<path fill="#603813" d="M332.285,121.545c-0.574,1.107-1.018,1.824-1.186,2.02c-0.105,0.131-0.236,0.235-0.443,0.235
			c-0.379,0-0.744-0.326-0.744-0.665c0-0.26,0.066-0.352,0.666-1.25c0.611-0.939,1.197-2.229,1.445-2.776
			c0.092-0.208,0.195-0.431,0.535-0.431c0.299,0,0.664,0.223,0.664,0.587C333.223,119.669,332.545,121.037,332.285,121.545z
			 M330.578,115.238c0.377,0,1.264,0.612,1.68,0.912c0.535,0.391,0.627,0.534,0.627,0.756c0,0.326-0.287,0.756-0.678,0.756
			c-0.184,0-0.273-0.065-1.004-0.6c-0.143-0.117-0.848-0.561-0.99-0.664c-0.223-0.144-0.262-0.234-0.262-0.521
			C329.951,115.643,330.199,115.238,330.578,115.238z M331.008,111.863c0.338,0,1.107,0.495,1.484,0.729
			c0.809,0.521,0.912,0.626,0.912,0.912c0,0.365-0.312,0.769-0.664,0.769c-0.182,0-0.26-0.052-1.029-0.572
			c-0.17-0.117-0.951-0.574-1.107-0.678c-0.143-0.092-0.248-0.195-0.248-0.482C330.355,112.28,330.617,111.863,331.008,111.863z
			 M333.965,118.353c-0.182,0-0.678,0-0.678-0.638c0-0.574,0.393-0.639,0.678-0.639h3.037v-2.216h-2.516
			c-0.221,0-0.678-0.013-0.678-0.639c0-0.508,0.301-0.651,0.678-0.651h2.516v-1.212c0-0.222,0.025-0.665,0.639-0.665
			c0.494,0,0.729,0.144,0.729,0.665v1.212h2.672c0.209,0,0.678,0.025,0.678,0.651c0,0.561-0.365,0.639-0.678,0.639h-2.672v2.216
			h3.09c0.221,0,0.678,0.025,0.678,0.639c0,0.547-0.34,0.638-0.678,0.638h-4.119c-0.572,1.524-1.264,3.023-1.654,3.767
			c1.172-0.065,2.697-0.145,4.092-0.313c-0.338-0.547-0.391-0.626-1.004-1.485c-0.143-0.222-0.182-0.339-0.182-0.456
			c0-0.364,0.377-0.6,0.689-0.6c0.262,0,0.418,0.065,1.018,0.886c0.586,0.821,1.732,2.58,1.732,3.062
			c0,0.365-0.391,0.665-0.768,0.665c-0.379,0-0.496-0.222-0.574-0.378s-0.195-0.417-0.287-0.573
			c-2.084,0.339-6.346,0.599-6.594,0.599c-0.156,0-0.689,0-0.689-0.689c0-0.652,0.561-0.652,0.768-0.652h0.301
			c0.912-1.863,1.289-2.672,1.668-3.831H333.965z"/>
	</g>
</g>
</svg>
