<?xml version="1.0" encoding="utf-8"?>
<!-- Generator: Adobe Illustrator 16.0.0, SVG Export Plug-In . SVG Version: 6.00 Build 0)  -->
<!DOCTYPE svg PUBLIC "-//W3C//DTD SVG 1.1//EN" "http://www.w3.org/Graphics/SVG/1.1/DTD/svg11.dtd">
<svg version="1.1" xmlns="http://www.w3.org/2000/svg" xmlns:xlink="http://www.w3.org/1999/xlink" x="0px" y="0px" width="460px"
	 height="140px" viewBox="0 0 460 140" enable-background="new 0 0 460 140" xml:space="preserve">
<g id="レイヤー_4" display="none">
	<g display="inline">
		<rect x="-41.22" y="-326.778" fill="#FFFFFF" width="1020" height="2303.299"/>
	</g>
	<g display="inline">
		<path fill="#FFE4B2" d="M958.78,1956.521c0,11-9,20-20,20h-940c-11,0-20-9-20-20V-286.779c0-11,9-20,20-20h940c11,0,20,9,20,20
			V1956.521z"/>
	</g>
</g>
<g id="レイヤー_2">
</g>
<g id="レイヤー_1">
	<g>
		<g>
			<g>
				<path fill="#FFFFFF" d="M195.791,15.105c1.553,0,3.792,0.868,3.792,4.112v6.441c0,2.33-0.64,4.477-3.609,4.477h-3.518
					c-1.233,0-1.371,0.32-1.416,1.097l-0.229,3.426c-0.046,0.914,0.137,1.051,0.959,1.051h3.563c3.837,0,4.294,2.649,4.294,4.888
					c0,6.807-1.69,12.426-3.152,13.797c-1.051,1.005-2.421,1.371-4.34,1.371c-0.776,0-4.477-0.229-5.71-1.234
					c-0.32-0.228-0.914-0.776-0.914-2.056c0-1.736,1.096-2.695,2.558-2.695c0.366,0,1.142,0.137,1.69,0.274
					c1.097,0.229,1.964,0.229,2.01,0.229c1.096,0,1.416-0.229,1.964-2.695c0.411-1.919,0.776-5.345,0.776-5.756
					c0-0.822-0.639-0.822-1.279-0.822h-3.198c-3.38,0-4.386-1.325-4.157-4.888l0.411-7.721c0.183-3.427,2.559-3.427,4.066-3.427
					h3.152c1.051,0,1.051-0.365,1.051-1.188v-2.741c0-0.914-0.776-0.914-1.416-0.914h-3.792c-1.873,0-3.655,0-3.655-2.421
					c0-2.604,1.553-2.604,3.655-2.604H195.791z M204.654,26.754c-1.142,0.046-1.918,0.092-2.695-0.228
					c-0.868-0.411-1.233-1.599-1.233-2.421c0-2.284,1.508-2.375,3.426-2.467c1.553-2.695,1.736-3.015,3.244-5.893
					c0.548-1.051,1.005-1.919,2.33-1.919c1.279,0,3.061,0.822,3.061,2.513c0,0.594-0.229,0.959-0.366,1.279
					c-1.096,1.964-1.233,2.193-2.193,3.701l8.178-0.457c-0.229-0.411-1.097-1.69-1.645-2.513c-0.274-0.411-0.457-0.777-0.457-1.325
					c0-1.736,1.964-2.559,2.741-2.559c1.416,0,2.056,0.822,4.66,4.888c2.833,4.432,2.833,5.071,2.833,5.802
					c0,1.873-1.462,2.649-2.65,2.649c-1.371,0-2.01-1.051-2.649-2.101l-4.98,0.274v3.106h4.98c1.37,0,2.33,0.229,3.015,0.594
					c0.868,0.503,1.507,1.599,1.507,2.65v7.858c0,1.462-1.005,2.33-1.507,2.604c-0.868,0.548-2.147,0.64-3.015,0.64h-4.98v5.253
					l3.563-0.365c-0.776-1.828-0.868-2.01-0.868-2.421c0-1.827,2.056-2.421,2.559-2.421c1.279,0,1.919,0.868,2.833,2.741
					c1.096,2.102,2.741,5.391,2.741,7.218c0,0.731-0.137,1.279-0.731,1.69c-0.594,0.457-1.325,0.731-1.828,0.731
					c-1.371,0-1.873-1.142-2.513-2.604l-17.863,2.421c-0.365,0.046-0.822,0.092-1.142,0.092c-1.918,0-2.924-1.097-2.924-2.97
					c0-2.421,1.645-2.604,3.29-2.787l7.538-0.777V43.43h-4.614c-1.417,0-2.33-0.229-3.016-0.64
					c-0.868-0.457-1.507-1.553-1.507-2.604v-7.858c0-1.462,1.005-2.33,1.507-2.65c0.868-0.502,2.147-0.594,3.016-0.594h4.614v-2.741
					L204.654,26.754z M207.806,34.064c-0.594,0-1.005,0.32-1.005,0.868v2.421c0,0.548,0.411,0.868,1.005,0.868h3.106v-4.158H207.806
					z M216.258,38.222h3.563c0.594,0,1.005-0.32,1.005-0.868v-2.421c0-0.548-0.411-0.868-1.005-0.868h-3.563V38.222z"/>
				<path fill="#FFFFFF" d="M251.519,23.374c2.375,0,3.746,2.056,3.746,4.066c0,1.096-0.685,7.812-6.441,12.609
					c-4.843,4.021-10.919,5.802-12.792,5.802c-0.64,0-1.279-0.092-1.827-0.64c-0.503-0.457-0.914-1.325-0.914-2.147
					c0-1.645,1.417-2.238,3.107-2.695c2.513-0.685,5.208-1.69,6.99-2.833c-1.553-1.371-1.736-1.553-2.924-2.375
					c-0.274-0.229-0.914-0.777-0.914-1.828c0-1.005,1.143-2.558,2.559-2.558c1.233,0,2.056,0.685,4.934,3.061
					c1.964-2.97,2.284-5.071,2.284-5.163c0-0.457-0.229-0.457-0.457-0.457h-7.355c-0.731,1.279-3.107,5.345-5.574,5.345
					c-1.553,0-2.787-1.371-2.787-2.604c0-0.822,0.091-0.959,2.375-3.929c1.553-1.964,2.695-4.203,3.563-6.579h-1.828
					c-1.827,0-3.655,0-3.655-2.375c0-2.513,1.645-2.513,3.655-2.513h14.985c1.827,0,3.655,0,3.655,2.375
					c0,2.513-1.69,2.513-3.655,2.513h-7.629c-0.046,0.229-0.229,1.142-0.868,2.924H251.519z M235.803,49.734
					c0.411-0.502,2.147-2.878,2.559-3.289c0.137-0.183,0.548-0.64,1.507-0.64c1.417,0,2.696,1.051,2.696,2.604
					c0,1.736-2.604,5.117-4.066,6.67c-0.092,0.091-1.188,1.233-2.559,1.233c-1.599,0-2.558-1.279-2.558-2.558
					C233.382,52.658,233.473,52.566,235.803,49.734z M248.229,53.8c-0.274-0.822-1.645-4.568-1.873-5.345
					c-0.045-0.183-0.137-0.594-0.137-0.914c0-1.279,1.325-2.33,2.604-2.33c0.365,0,1.507,0.137,2.102,1.233
					c1.462,2.65,2.467,6.716,2.467,7.218c0,0.594-0.32,2.284-3.061,2.284C248.915,55.947,248.366,54.211,248.229,53.8z
					 M257.549,53.161c-0.229-0.914-1.462-4.797-1.462-5.665c0-1.279,1.051-2.284,2.467-2.284c0.686,0,1.782,0.137,2.513,1.645
					c0.503,1.096,2.102,5.299,2.102,6.625c0,2.375-2.375,2.375-3.152,2.375C258.234,55.856,257.823,54.303,257.549,53.161z
					 M263.762,33.105c0,1.964,0,3.655-2.467,3.655c-2.878,0-2.878-1.371-2.878-3.655V19.217c0-1.965,0-3.655,2.467-3.655
					c2.878,0,2.878,1.371,2.878,3.655V33.105z M272.99,40.415c0,3.289-1.736,4.522-5.756,4.522c-2.284,0-4.842-0.594-5.756-1.233
					c-0.548-0.411-1.188-1.142-1.188-2.375c0-1.462,1.051-2.513,2.238-2.513c0.229,0,3.701,0.776,4.386,0.776
					c0.823,0,0.823-0.822,0.823-1.05V18.349c0-1.964,0-3.655,2.467-3.655c2.787,0,2.787,1.371,2.787,3.655V40.415z M268.011,52.201
					c-1.233-2.33-1.371-2.559-1.599-3.061s-0.229-0.822-0.229-1.051c0-1.051,0.777-2.375,2.559-2.375
					c1.051,0,1.599,0.548,2.604,2.147c0.914,1.417,2.878,4.706,2.878,5.985c0,1.462-1.416,2.33-2.558,2.33
					C270.112,56.176,270.021,55.947,268.011,52.201z"/>
				<path fill="#FFFFFF" d="M98.023,80.761c-0.95,0-1.023-0.11-5.007-3.362c-0.914-0.986-0.95-1.535-0.95-1.864
					c0-1.498,1.097-2.046,2.083-2.046c1.316,0,1.937,0.548,3.326,1.718c2.083,1.827,2.302,2.01,2.485,2.412
					c0.11,0.256,0.256,0.768,0.256,0.877C100.215,80.761,98.279,80.761,98.023,80.761z M100.654,85.219
					c0,2.485-3.143,9.282-4.167,10.854c-0.292,0.475-0.84,1.206-2.192,1.206c-1.828,0-2.156-1.827-2.156-2.339
					c0-0.731,0.109-0.877,0.877-2.448c2.266-4.678,2.521-5.189,3.362-7.967c0.146-0.548,0.438-1.499,1.827-1.718
					C99.813,82.588,100.654,84.159,100.654,85.219z M94.076,69.14c-0.622-0.475-0.987-1.353-0.987-1.9
					c0-1.279,1.096-1.974,1.973-1.974c0.914,0,1.389,0.146,3.253,1.535c2.667,2.01,3.033,2.375,3.143,3.398
					c0.183,1.425-0.877,2.375-2.01,2.375c-1.023,0-1.535-0.438-3.033-1.645L94.076,69.14z M101.604,85.256
					c0-1.827,1.316-3.436,3.289-3.436h15.239c2.96,0,3.874,2.047,3.874,3.07v7.821c0.95,0.073,1.827,0.548,1.827,1.9
					c0,2.083-1.243,2.083-2.924,2.083h-20.501c-1.499,0-2.924,0-2.924-1.9c0-2.046,1.353-2.046,2.12-2.083V85.256z M119.84,65.412
					c2.303,0,3.728,1.06,3.728,3.143v7.93c0,3.033-2.156,3.545-2.997,3.545h-14.325c-2.522,0-4.02-1.096-4.02-2.887v-8.551
					c0-0.877,0.365-1.864,1.06-2.449c0.694-0.584,1.681-0.73,2.595-0.73H119.84z M107.817,85.694h-1.243
					c-0.584,0-0.84,0.037-0.84,0.804v6.213h2.083V85.694z M119.219,69.797c0-0.548-0.109-0.804-0.768-0.804h-10.854
					c-0.622,0-1.023,0-1.023,0.877v0.767h12.645V69.797z M106.574,74.402v0.841c0,0.658,0.183,0.804,0.841,0.804h11
					c0.658,0,0.804-0.256,0.804-0.914v-0.731H106.574z M113.664,85.694h-1.937v7.017h1.937V85.694z M119.84,92.711v-6.213
					c0-0.548-0.036-0.804-0.84-0.804h-1.133v7.017H119.84z"/>
				<path fill="#FFFFFF" d="M131.824,87.192c-1.498,0-2.923,0-2.923-1.9c0-1.9,1.425-1.9,2.923-1.9h7.2
					c0.475,0,2.302,0.804,2.302,2.595c0,1.279-1.827,5.08-5.116,7.418c-1.645,1.133-4.861,2.997-6.213,2.997
					c-2.12,0-2.156-2.229-2.156-2.266c0-0.256,0.109-1.169,0.914-1.571c4.02-2.01,4.458-2.229,5.226-2.851
					c0.987-0.804,2.229-2.047,2.229-2.302c0-0.22-0.11-0.22-0.548-0.22H131.824z M133.578,81.93c-1.389,0-2.01-0.658-2.302-1.06
					c-0.292-0.329-0.512-0.731-0.512-1.828v-9.172c0-1.133,0.256-1.499,0.512-1.828c0.512-0.658,1.243-1.06,2.302-1.06h7.784
					c0.256-0.402,1.389-2.156,1.608-2.485c0.365-0.512,1.06-0.731,1.645-0.731c0.584,0,2.448,0.731,2.448,2.192
					c0,0.548-0.183,0.804-0.292,1.023h10.196c1.133,0,1.864,0.438,2.302,1.06c0.329,0.402,0.512,0.841,0.512,1.828v9.172
					c0,1.097-0.219,1.462-0.512,1.828c-0.584,0.804-1.425,1.06-2.302,1.06h-9.246v12.462c0,0.84-0.621,1.937-1.352,2.412
					c-0.658,0.439-1.352,0.585-3.398,0.585c-3.983,0-5.299-0.475-5.299-2.339c0-1.9,1.316-1.9,2.229-1.9
					c0.438,0,2.631,0.219,2.668,0.219c0.402,0,0.511-0.073,0.511-0.804V81.93H133.578z M155.359,72.611v-1.023
					c0-0.548-0.329-0.877-0.841-0.877H135.88c-0.658,0-0.768,0.658-0.768,1.06v0.841H155.359z M135.113,76.12v1.169
					c0,0.219,0,0.95,0.768,0.95h18.418c0.548,0,1.06-0.256,1.06-0.95V76.12H135.113z M161.243,92.967
					c0.95,0.512,0.95,1.279,0.95,1.571c0,1.279-0.914,2.412-2.01,2.412c-0.987,0-6.066-1.718-11-8.552
					c-0.512-0.694-0.877-1.352-0.877-2.229c0-1.791,1.681-2.229,2.193-2.229c0.84,0,1.023,0.219,2.083,1.645
					c0.987-0.511,6.395-2.85,7.236-2.85c1.389,0,1.864,1.389,1.864,2.192c0,1.097-0.768,1.645-3.289,2.631
					c-0.512,0.219-2.705,1.169-3.143,1.352c0.804,0.914,1.425,1.608,2.814,2.375L161.243,92.967z"/>
				<path fill="#FFFFFF" d="M200.871,80.096c4.263,1.006,7.088,3.879,7.088,7.903c0,6.61-8.573,11.783-20.212,11.783
					c-11.735,0-20.213-5.221-20.213-11.783c0-4.023,2.826-6.897,7.089-7.903l0.862,1.197c-2.922,0.958-4.886,2.874-4.886,5.652
					c0,5.125,7.424,8.957,17.147,8.957s17.147-3.832,17.147-8.957c0-2.778-1.963-4.694-4.885-5.652L200.871,80.096z M176.874,89.101
					c2.203-1.772,3.018-3.832,3.018-5.604c0-1.772-0.862-4.119-2.156-6.37c-1.293-2.251-1.964-4.598-1.964-6.274
					c0-2.874,0.767-5.7,4.455-8.047l1.293,0.814c-2.204,1.772-3.018,3.784-3.018,5.604c0,1.772,0.862,4.071,2.155,6.37
					c1.293,2.251,1.964,4.598,1.964,6.227c0,3.209-0.862,5.844-4.455,8.095L176.874,89.101z M184.873,91.064
					c2.251-2.06,3.305-4.502,3.305-6.658c0-2.107-0.814-4.598-2.107-7.185c-1.341-2.539-2.108-5.173-2.108-7.041
					c0-3.305,0.91-6.61,4.79-9.244l1.389,0.767c-2.251,2.012-3.305,4.455-3.305,6.61c0,2.107,0.814,4.598,2.107,7.185
					c1.341,2.586,2.107,5.173,2.107,7.089c0,3.64-1.149,6.706-4.79,9.196L184.873,91.064z M193.686,89.101
					c2.156-1.772,2.97-3.832,2.97-5.604c0-1.772-0.814-4.119-2.155-6.37c-1.293-2.251-1.964-4.598-1.964-6.274
					c0-2.874,0.767-5.7,4.502-8.047l1.246,0.766c-2.156,1.772-3.018,3.832-3.018,5.652c0,1.772,0.862,4.071,2.155,6.37
					c1.341,2.251,1.964,4.598,1.964,6.227c0,3.209-0.862,5.844-4.455,8.095L193.686,89.101z"/>
				<path fill="#FFFFFF" d="M237.907,76.083c0.822,0,1.61,0.183,2.329,0.658c1.233,0.804,1.473,2.12,1.473,3.472
					c0,2.741-1.028,10.891-10.174,14.508c-4.076,1.572-8.255,1.864-8.735,1.864c-1.713,0-2.535-1.315-2.535-2.558
					c0-0.986,0.548-2.229,2.09-2.375c8.701-0.84,13.497-3.435,14.49-9.94v-0.256c0-0.548-0.274-0.548-1.062-0.548h-17.197
					c-1.884,0-2.363,0-3.014-0.694c-0.445-0.475-0.617-1.06-0.617-1.717c0-1.169,0.617-1.791,0.993-2.047
					c0.514-0.365,1.131-0.365,2.638-0.365H237.907z M236.125,66.728c1.884,0,2.364,0,3.015,0.694
					c0.274,0.292,0.651,0.84,0.651,1.718c0,0.986-0.411,1.608-1.028,2.046c-0.514,0.365-1.13,0.365-2.638,0.365h-15.586
					c-1.884,0-2.363,0-2.98-0.694c-0.309-0.292-0.651-0.84-0.651-1.717c0-0.95,0.376-1.608,0.993-2.047
					c0.514-0.365,1.165-0.365,2.638-0.365H236.125z"/>
				<path fill="#FFFFFF" d="M246.302,92.82c0-2.119,1.61-2.302,2.192-2.339c4.556-0.511,8.941-1.023,14.148-5.08
					c4.453-3.472,5.857-7.565,6.954-10.781c0.411-1.206,1.199-1.571,1.953-1.571c1.268,0,2.604,0.804,2.604,2.375
					c0,0.658-1.233,6.688-6.44,11.95c-5.31,5.409-12.469,8.076-18.909,8.076C246.987,95.452,246.302,94.282,246.302,92.82z
					 M255.174,77.508c-0.959,0-1.233-0.256-3.905-2.521c-1.165-0.987-1.302-1.097-3.426-2.668c-0.719-0.512-1.438-1.096-1.438-2.339
					c0-1.535,0.993-2.814,2.329-2.814c0.754,0,1.096,0.037,4.59,2.851c4.248,3.398,4.248,4.129,4.248,5.007
					C257.572,75.827,256.956,77.508,255.174,77.508z"/>
				<path fill="#FFFFFF" d="M287.411,68.555c-0.103-1.133-0.103-1.279-0.103-1.535c0-1.937,1.199-2.558,2.432-2.558
					c0.274,0,1.13,0,1.815,0.914c0.377,0.512,0.445,1.206,0.548,2.777l0.206,2.558l7.913-0.438c0.994-0.073,1.131-0.073,1.302-0.073
					c2.158,0,2.467,1.608,2.467,2.375c0,0.84-0.343,1.462-0.925,1.937c-0.479,0.365-1.096,0.402-2.603,0.512l-7.811,0.438
					l0.479,6.395l8.256-0.511c1.027-0.073,1.165-0.073,1.37-0.073c2.09,0,2.432,1.608,2.432,2.412c0,0.767-0.24,1.352-0.925,1.937
					c-0.479,0.366-1.165,0.402-2.604,0.512l-8.187,0.512l0.479,6.322c0.034,0.438,0.034,1.023,0.034,1.352
					c0,1.681-0.719,2.741-2.364,2.741c-2.227,0-2.364-1.937-2.466-3.691l-0.445-6.396l-9.42,0.585
					c-1.028,0.073-1.165,0.073-1.37,0.073c-2.056,0-2.432-1.572-2.432-2.412c0-0.95,0.445-1.571,0.925-1.937
					c0.445-0.329,1.13-0.365,2.604-0.475l9.352-0.584l-0.445-6.432l-7.604,0.438c-1.028,0.073-1.165,0.073-1.336,0.073
					c-0.583,0-1.336,0-2.021-0.914c-0.411-0.548-0.445-1.315-0.445-1.571c0-0.768,0.24-1.499,0.959-1.974
					c0.479-0.292,1.062-0.292,2.604-0.402l7.502-0.438L287.411,68.555z"/>
				<path fill="#FFFFFF" d="M307.967,92.82c0-2.119,1.61-2.302,2.192-2.339c4.556-0.511,8.941-1.023,14.148-5.08
					c4.453-3.472,5.857-7.565,6.954-10.781c0.411-1.206,1.199-1.571,1.953-1.571c1.268,0,2.604,0.804,2.604,2.375
					c0,0.658-1.233,6.688-6.44,11.95c-5.31,5.409-12.469,8.076-18.909,8.076C308.652,95.452,307.967,94.282,307.967,92.82z
					 M316.839,77.508c-0.959,0-1.233-0.256-3.905-2.521c-1.165-0.987-1.302-1.097-3.426-2.668c-0.719-0.512-1.438-1.096-1.438-2.339
					c0-1.535,0.993-2.814,2.329-2.814c0.754,0,1.096,0.037,4.59,2.851c4.248,3.398,4.248,4.129,4.248,5.007
					C319.237,75.827,318.621,77.508,316.839,77.508z"/>
				<path fill="#FFFFFF" d="M360.449,70.492c-0.274-0.475-1.404-2.96-1.404-3.654c0-1.06,0.822-1.389,1.336-1.389
					c0.856,0,1.302,0.622,1.884,1.608c0.925,1.681,1.096,2.375,1.096,2.887c0,0.366-0.068,0.731-0.274,1.023
					c1.165,0.877,1.439,2.485,1.439,4.239c0,7.894-5.104,16.335-13.977,20.319c-3.049,1.352-6.509,1.827-6.783,1.827
					c-1.096,0-2.261-0.914-2.261-2.631c0-2.156,1.644-2.485,2.329-2.631c4.282-0.877,9.558-2.851,12.949-8.113
					c1.713-2.667,2.775-6.14,2.775-7.82c0-0.841-0.377-0.841-1.199-0.841h-10.071c-2.021,2.997-6.577,7.455-8.529,7.455
					c-1.473,0-2.295-1.608-2.295-2.777s0.754-1.717,1.405-2.192c3.014-2.12,5.686-5.189,7.468-9.429
					c0.959-2.229,1.37-3.216,2.809-3.216c0.891,0,2.638,0.548,2.638,2.339c0,1.06-0.616,2.485-0.822,2.997H360.449z M365.862,65.302
					c0.993,1.389,1.438,3.216,1.438,3.801c0,0.621-0.411,1.315-1.302,1.315c-0.651,0-1.027-0.365-1.302-0.877
					c-0.479-0.877-1.404-2.814-1.404-3.654c0-1.06,0.891-1.316,1.233-1.316C365.04,64.571,365.417,64.681,365.862,65.302z"/>
			</g>
		</g>
	</g>
	<g>
		<path fill="#F5A717" d="M73.156,112.801c-0.026-0.326,0.013-0.795,0.769-0.795c0.508,0,0.716,0.183,0.755,0.704l0.104,1.55
			l3.623-0.221c0.13-0.013,0.769-0.052,0.769,0.704c0,0.43-0.248,0.651-0.691,0.678l-3.609,0.221l0.182,2.567l4.261-0.261
			c0.208-0.013,0.769,0,0.769,0.69c0,0.469-0.274,0.665-0.691,0.691l-4.248,0.261l0.235,3.245c0.013,0.26,0.052,0.808-0.756,0.808
			c-0.704,0-0.743-0.417-0.756-0.716l-0.235-3.245l-4.43,0.261c-0.456,0.039-0.769-0.183-0.769-0.69
			c0-0.574,0.391-0.665,0.691-0.691l4.417-0.26l-0.183-2.567l-3.701,0.234c-0.352,0.026-0.769-0.091-0.769-0.69
			c0-0.469,0.274-0.665,0.678-0.69l3.701-0.222L73.156,112.801z"/>
		<path fill="#F5A717" d="M83.281,118.574c-0.188,0-0.657,0-0.657-0.743c0-0.73,0.417-0.756,0.657-0.756h8.004
			c0.188,0,0.646,0,0.646,0.743s-0.427,0.756-0.646,0.756H83.281z"/>
		<path fill="#F5A717" d="M103.444,112.828c0.652,0,1.681,0,1.681,1.655c0,0.639-0.156,1.746-0.248,2.307
			c-0.769,4.639-4.261,5.772-5.486,6.164c-0.352,0.117-1.447,0.443-1.968,0.443c-0.326,0-0.808-0.104-0.808-0.769
			c0-0.534,0.248-0.573,1.173-0.73c0.43-0.078,1.863-0.43,2.919-1.055c2.293-1.342,2.867-4.157,2.867-6.021
			c0-0.417-0.013-0.625-0.547-0.625h-5.89c-0.378,0-0.665,0.156-0.665,0.665v2.814c0,0.235-0.026,0.704-0.743,0.704
			c-0.652,0-0.756-0.365-0.756-0.704v-3.179c0-1.381,0.677-1.668,1.72-1.668H103.444z"/>
		<path fill="#F5A717" d="M107.783,118.574c-0.188,0-0.657,0-0.657-0.743c0-0.73,0.417-0.756,0.657-0.756h8.004
			c0.188,0,0.646,0,0.646,0.743s-0.427,0.756-0.646,0.756H107.783z"/>
		<path fill="#F5A717" d="M121.458,122.888c0,0.248-0.013,0.755-0.769,0.755c-0.769,0-0.782-0.482-0.782-0.755v-10.125
			c0-0.221,0-0.769,0.769-0.769c0.756,0,0.782,0.482,0.782,0.769v2.646c1.812,0.534,3.571,1.264,5.251,2.111
			c1.069,0.534,1.212,0.704,1.212,1.082c0,0.365-0.248,0.899-0.769,0.899c-0.261,0-0.482-0.13-1.186-0.547
			c-0.756-0.43-1.981-1.029-2.658-1.329c-0.899-0.391-1.42-0.547-1.851-0.691V122.888z M124.859,113.023
			c-0.026-0.078-0.052-0.183-0.052-0.273c0-0.274,0.312-0.352,0.443-0.352c0.235,0,0.326,0.169,0.521,0.612
			c0.13,0.3,0.352,0.899,0.352,1.069c0,0.404-0.417,0.404-0.456,0.404c-0.221,0-0.312-0.169-0.339-0.234
			c-0.091-0.183-0.182-0.495-0.248-0.678C125.054,113.479,124.885,113.101,124.859,113.023z M126.409,112.789
			c-0.026-0.065-0.039-0.13-0.039-0.208c0-0.274,0.3-0.365,0.456-0.365c0.248,0,0.313,0.157,0.521,0.586
			c0.183,0.417,0.365,0.886,0.365,1.069c0,0.339-0.339,0.404-0.443,0.404c-0.287,0-0.339-0.13-0.613-0.899
			C126.618,113.284,126.448,112.867,126.409,112.789z"/>
		<path fill="#F5A717" d="M132.041,112.854c0,0.13-0.013,0.208-0.013,0.274c-0.248,1.368-0.495,2.814-0.495,5.225
			c0,1.147,0.078,2.606,0.248,3.597c0.026,0.183,0.091,0.6,0.091,0.756c0,0.482-0.3,0.651-0.717,0.651
			c-0.391,0-0.612-0.169-0.717-0.599c-0.208-0.913-0.326-2.984-0.326-4.509c0-2.971,0.43-5.278,0.482-5.447
			c0.052-0.234,0.169-0.665,0.873-0.573C131.963,112.293,132.041,112.567,132.041,112.854z M137.032,112.919
			c-0.013-0.274,0.013-0.769,0.73-0.769s0.729,0.469,0.743,0.756l0.026,1.59c0.261-0.013,1.668-0.078,1.824-0.078
			c0.196,0,0.73,0,0.73,0.69c0,0.586-0.404,0.651-0.534,0.665c-0.169,0.026-1.681,0.078-2.007,0.091l0.052,3.102
			c0.808,0.43,1.524,0.938,2.202,1.577c0.391,0.352,0.495,0.599,0.495,0.821c0,0.456-0.378,0.808-0.729,0.808
			c-0.274,0-0.313-0.052-0.913-0.678c-0.404-0.43-0.834-0.743-1.121-0.938c0,0.691-0.013,1.225-0.208,1.668
			c-0.482,1.056-1.889,1.16-2.476,1.16c-2.215,0-3.049-1.225-3.049-2.502c0-1.59,1.29-2.528,3.075-2.528
			c0.625,0,1.042,0.104,1.29,0.169l-0.065-2.606c-0.521,0.026-2.45,0.065-3.558,0.065c-0.234,0-0.756,0-0.756-0.69
			c0-0.678,0.469-0.678,0.899-0.678c1.121-0.013,2.424-0.026,3.388-0.065L137.032,112.919z M135.885,119.564
			c-0.495,0-1.812,0.13-1.812,1.342c0,1.121,1.121,1.264,1.668,1.264c0.365,0,1.082-0.078,1.329-0.625
			c0.208-0.443,0.117-1.42,0.117-1.707C136.901,119.708,136.537,119.564,135.885,119.564z"/>
		<path fill="#F5A717" d="M145.074,112.111c1.082,0,1.342,0.261,1.342,1.342v1.577c0,1.095-0.274,1.342-1.355,1.342h-0.482
			c-0.222,0-0.365,0.026-0.404,0.169c-0.039,0.104-0.169,1.107-0.169,1.212c0,0.234,0.195,0.273,0.43,0.273h0.834
			c0.625,0,1.199,0.065,1.199,1.108c0,0.729-0.104,3.062-0.365,3.753c-0.352,0.951-1.016,0.951-1.968,0.951
			c-0.938,0-1.342,0-1.342-0.717c0-0.443,0.221-0.665,0.599-0.665c0.169,0,0.938,0.026,1.095,0.013
			c0.391-0.065,0.469-0.378,0.534-0.769c0.065-0.404,0.156-1.681,0.156-1.994c0-0.235-0.052-0.391-0.391-0.391h-0.86
			c-0.612,0-1.277,0-1.277-0.899c0-0.104,0.248-2.437,0.287-2.58c0.144-0.665,0.625-0.665,1.199-0.665h0.665
			c0.287,0,0.378-0.156,0.378-0.365v-1.068c0-0.183-0.078-0.365-0.378-0.365h-1.694c-0.156,0-0.678,0-0.678-0.6
			c0-0.469,0.208-0.665,0.678-0.665H145.074z M150.026,115.512c-1.642,0.078-2.358,0.104-2.71,0.104c-0.183,0-0.6-0.013-0.6-0.625
			c0-0.586,0.326-0.586,1.003-0.6c0.561-0.964,0.886-1.616,0.991-1.85c0.26-0.613,0.365-0.847,0.782-0.847
			c0.261,0,0.678,0.143,0.678,0.547c0,0.182-0.052,0.312-0.118,0.43c-0.078,0.157-0.625,1.16-0.964,1.694
			c1.121-0.013,2.176-0.065,3.31-0.156c-0.078-0.118-0.482-0.691-0.573-0.821s-0.195-0.287-0.195-0.443
			c0-0.365,0.391-0.561,0.651-0.561c0.144,0,0.248,0.052,0.326,0.118c0.183,0.143,0.665,0.782,1.056,1.355
			c0.261,0.404,0.873,1.329,0.873,1.668c0,0.365-0.378,0.612-0.717,0.612s-0.469-0.195-0.782-0.834
			c-0.365,0.026-1.524,0.118-1.798,0.144v1.238h1.59c1.095,0,1.342,0.287,1.342,1.355v1.146c0,1.095-0.261,1.355-1.342,1.355h-1.655
			v1.629c0.821-0.065,0.86-0.078,1.42-0.144c-0.026-0.039-0.04-0.078-0.091-0.143c-0.274-0.457-0.274-0.574-0.274-0.665
			c0-0.352,0.391-0.521,0.652-0.521c0.3,0,0.43,0.117,0.756,0.678c0.56,1.016,0.912,1.642,0.912,1.994c0,0.43-0.469,0.56-0.665,0.56
			c-0.391,0-0.43-0.091-0.756-0.86c-2.085,0.287-5.682,0.612-5.968,0.612c-0.547,0-0.586-0.469-0.586-0.638
			c0-0.091,0.013-0.417,0.273-0.534c0.196-0.091,1.29-0.13,1.59-0.144c0.534-0.013,1.303-0.078,1.59-0.091v-1.733h-1.563
			c-1.095,0-1.355-0.274-1.355-1.355v-1.146c0-1.082,0.261-1.355,1.355-1.355h1.563V115.512z M150.026,119.369v-1.59h-1.316
			c-0.326,0-0.365,0.208-0.365,0.365v0.847c0,0.234,0.104,0.378,0.365,0.378H150.026z M151.238,119.369h1.329
			c0.222,0,0.365-0.104,0.365-0.378v-0.847c0-0.234-0.117-0.365-0.365-0.365h-1.329V119.369z"/>
		<path fill="#F5A717" d="M166.526,118.014c0.365,0,1.133,0,1.133,0.899c0,0.678-0.378,1.29-0.638,1.655
			c-0.378,0.561-0.769,0.964-0.912,1.121c0.456,0.313,0.586,0.378,1.85,0.964c0.208,0.091,0.339,0.261,0.339,0.495
			c0,0.365-0.273,0.743-0.639,0.743c-0.352,0-1.433-0.469-2.502-1.368c-1.446,1.056-2.554,1.381-2.828,1.381
			c-0.417,0-0.586-0.443-0.586-0.704c0-0.365,0.235-0.443,0.443-0.521c1.055-0.338,1.681-0.704,2.124-1.016
			c-0.274-0.326-0.665-0.873-0.938-1.446c-0.234,0.273-0.704,0.847-1.107,0.847c-0.3,0-0.534-0.273-0.6-0.547v1.798
			c0,0.938-0.169,1.355-1.251,1.355h-2.697c-1.068,0-1.251-0.404-1.238-1.355v-6.281c0-0.756,0.078-1.342,1.16-1.342h0.3v-1.394
			h-1.251c-0.183,0-0.6,0-0.6-0.6c0-0.573,0.365-0.6,0.6-0.6h4.73c0.169,0,0.612,0,0.612,0.586c0,0.6-0.404,0.613-0.612,0.613
			h-1.186v1.394h0.326c1.068,0,1.107,0.691,1.107,1.342v4.313c0.026-0.13,0.078-0.208,0.169-0.299
			c0.99-0.964,1.29-1.264,2.059-2.698c0.078-0.143,0.208-0.391,0.521-0.391c0.287,0,0.6,0.248,0.6,0.521
			c0,0.144-0.052,0.261-0.183,0.534H166.526z M158.772,116.867c0,0.69-0.091,1.199-0.248,1.59c-0.273,0.717-0.443,0.834-0.638,0.834
			c-0.091,0-0.339-0.039-0.417-0.287v1.029h3.219v-0.978h-0.365c-0.834,0-0.938-0.273-0.938-1.016v-2.176h-0.612V116.867z
			 M158.095,115.864h-0.261c-0.234,0-0.365,0.104-0.365,0.365v2.463c0.026-0.117,0.3-0.56,0.352-0.651
			c0.118-0.274,0.274-0.678,0.274-1.342V115.864z M160.688,121.089h-3.219v1.016c0,0.248,0.117,0.365,0.365,0.365h2.489
			c0.3,0,0.365-0.183,0.365-0.365V121.089z M159.385,113.297h-0.612v1.394h0.612V113.297z M160.688,117.923v-1.694
			c0-0.222-0.104-0.365-0.365-0.365h-0.248v1.733c0,0.196,0.039,0.326,0.313,0.326H160.688z M165.092,114.808
			c-0.117,0.013-0.665,0.039-0.795,0.052c-0.13,2.124-1.616,3.102-1.994,3.102c-0.339,0-0.561-0.313-0.561-0.586
			c0-0.091,0.013-0.157,0.052-0.235c0.039-0.091,0.091-0.143,0.573-0.521c0.13-0.104,0.743-0.704,0.86-1.694
			c-0.169,0.013-0.769,0.04-0.899,0.04c-0.156,0-0.638,0-0.638-0.626c0-0.534,0.352-0.547,0.938-0.547
			c0.104-0.208,0.456-1.003,0.639-1.459c0.143-0.352,0.287-0.625,0.704-0.625c0.3,0,0.625,0.156,0.625,0.495
			c0,0.221,0,0.312-0.652,1.551c0.639-0.013,1.655-0.039,2.398-0.091c-0.065-0.091-0.391-0.534-0.456-0.639
			c-0.091-0.143-0.169-0.261-0.169-0.417c0-0.312,0.352-0.547,0.651-0.547c0.261,0,0.391,0.144,0.756,0.665
			c0.287,0.404,1.042,1.473,1.042,1.864c0,0.404-0.417,0.586-0.651,0.586c-0.274,0-0.365-0.169-0.573-0.534
			c-0.482,0.052-0.613,0.065-0.756,0.078v1.186c0,0.313,0.13,0.417,0.443,0.417c0.521,0,0.612,0,0.639-0.273
			c0.065-0.496,0.078-0.665,0.482-0.665c0.091,0,0.521,0.013,0.521,0.495c0,0.26-0.078,0.86-0.208,1.107
			c-0.169,0.339-0.508,0.417-0.99,0.417c-1.017,0-1.121,0-1.355-0.065c-0.612-0.169-0.625-0.808-0.625-1.29V114.808z
			 M164.219,119.122c-0.091,0.13-0.104,0.143-0.156,0.221c0.404,0.743,0.665,1.095,1.133,1.577c0.535-0.534,1.147-1.264,1.147-1.564
			c0-0.182-0.144-0.234-0.339-0.234H164.219z"/>
		<path fill="#F5A717" d="M170.984,114.769c0,1.017-0.234,2.411-0.326,2.88c-0.065,0.365-0.118,0.625-0.482,0.625
			c-0.182,0-0.508-0.104-0.508-0.43c0-0.195,0.196-1.029,0.222-1.211c0.091-0.508,0.144-1.277,0.183-1.916
			c0.026-0.404,0.287-0.404,0.482-0.404C170.984,114.313,170.984,114.626,170.984,114.769z M172.795,123.344
			c0,0.195,0,0.612-0.665,0.612s-0.677-0.391-0.677-0.612v-11.05c0-0.196,0-0.613,0.665-0.613c0.651,0,0.677,0.378,0.677,0.613
			V123.344z M174.086,114.86c0.091,0.234,0.273,0.704,0.273,0.886c0,0.391-0.417,0.521-0.547,0.521c-0.261,0-0.3-0.143-0.469-0.704
			c0-0.013-0.182-0.547-0.273-0.821c-0.052-0.13-0.052-0.183-0.052-0.248c0-0.313,0.274-0.495,0.521-0.495
			C173.76,114,173.812,114.144,174.086,114.86z M177.422,114.521v-2.176c0-0.169,0-0.625,0.651-0.625
			c0.625,0,0.729,0.274,0.729,0.625v2.176h2.359c0.13,0,0.638,0.013,0.638,0.639c0,0.639-0.495,0.639-0.638,0.639h-2.359v2.476
			h2.046c0.144,0,0.652,0,0.652,0.612c0,0.625-0.508,0.625-0.652,0.625h-2.046v2.724h2.567c0.143,0,0.639,0,0.639,0.625
			c0,0.651-0.482,0.651-0.639,0.651h-7.115c-0.143,0-0.638,0-0.638-0.638c0-0.639,0.495-0.639,0.638-0.639h3.167v-2.724h-2.372
			c-0.234,0-0.638-0.065-0.638-0.612c0-0.625,0.508-0.625,0.638-0.625h2.372v-2.476h-1.733c-0.378,1.121-0.678,1.707-0.834,1.902
			c-0.117,0.13-0.261,0.195-0.43,0.195c-0.312,0-0.677-0.248-0.677-0.599c0-0.104,0.065-0.235,0.117-0.339
			c0.769-1.59,0.886-2.02,1.251-4.131c0.078-0.417,0.312-0.482,0.547-0.482c0.156,0,0.665,0.013,0.665,0.547
			c0,0.378-0.196,1.264-0.287,1.629H177.422z"/>
		<path fill="#F5A717" d="M190.298,117.832c0,0.743-0.599,1.355-1.355,1.355s-1.355-0.612-1.355-1.355
			c0-0.756,0.613-1.355,1.355-1.355S190.298,117.076,190.298,117.832z"/>
		<path fill="#F5A717" d="M207.397,112.658c0.221,0,0.665,0.039,0.665,0.56c0,0.456-0.3,0.574-0.665,0.574h-10.842
			c-0.156,0-0.665,0-0.665-0.561c0-0.521,0.43-0.573,0.665-0.573h4.717v-0.43c0-0.234,0.065-0.586,0.665-0.586
			c0.612,0,0.769,0.222,0.769,0.573v0.443H207.397z M198.367,118.926c-0.352,0-0.521,0.169-0.521,0.521v3.857
			c0,0.287-0.052,0.677-0.665,0.677c-0.469,0-0.743-0.117-0.743-0.677v-3.988c0-1.107,0.443-1.459,1.446-1.459h8.184
			c1.003,0,1.459,0.352,1.459,1.459v3.075c0,1.459-0.586,1.459-2.281,1.447c-0.547,0-1.003,0-1.003-0.717
			c0-0.391,0.157-0.678,0.574-0.678c0.143,0,0.743,0.013,0.873,0.013c0.26-0.026,0.443-0.144,0.443-0.521v-2.489
			c0-0.326-0.143-0.521-0.521-0.521H198.367z M206.12,116.125c0,0.756-0.26,1.146-1.146,1.146h-6.033
			c-0.821,0-1.147-0.339-1.147-1.146v-0.6c0-0.821,0.352-1.134,1.147-1.134h6.033c0.847,0,1.146,0.339,1.146,1.134V116.125z
			 M204.882,121.271c0,1.017-0.248,1.277-1.277,1.277h-3.245c-1.029,0-1.277-0.248-1.277-1.277v-0.404
			c0-1.003,0.222-1.277,1.277-1.277h3.245c1.029,0,1.277,0.26,1.277,1.277V121.271z M204.752,115.629c0-0.183-0.078-0.3-0.287-0.3
			h-5.043c-0.208,0-0.287,0.117-0.287,0.3v0.391c0,0.183,0.091,0.287,0.287,0.287h5.043c0.183,0,0.287-0.091,0.287-0.287V115.629z
			 M203.579,120.815c0-0.195-0.091-0.3-0.287-0.3h-2.632c-0.248,0-0.287,0.157-0.287,0.3v0.456c0,0.183,0.078,0.3,0.287,0.3h2.632
			c0.169,0,0.287-0.078,0.287-0.3V120.815z"/>
		<path fill="#F5A717" d="M212.769,119.343c0,0.508-0.86,2.333-1.473,3.336c-0.677,1.121-0.782,1.147-1.042,1.147
			c-0.365,0-0.729-0.313-0.729-0.704c0-0.234,0.026-0.287,0.651-1.199c0.169-0.248,0.665-1.056,1.329-2.659
			c0.144-0.352,0.248-0.521,0.586-0.521C212.417,118.744,212.769,118.978,212.769,119.343z M210.202,115.238
			c0.299,0,1.082,0.534,1.407,0.769c0.573,0.391,0.808,0.561,0.808,0.886c0,0.3-0.3,0.756-0.691,0.756
			c-0.208,0-0.339-0.104-0.729-0.417c-0.287-0.222-0.743-0.521-1.095-0.756c-0.13-0.078-0.352-0.234-0.352-0.482
			C209.55,115.46,209.941,115.238,210.202,115.238z M210.697,111.85c0.312,0,1.068,0.495,1.433,0.717
			c0.717,0.469,0.86,0.573,0.86,0.886c0,0.43-0.352,0.782-0.665,0.782c-0.183,0-0.208-0.013-0.938-0.508
			c-0.182-0.13-1.003-0.625-1.16-0.743c-0.144-0.104-0.208-0.222-0.208-0.469C210.019,112.333,210.214,111.85,210.697,111.85z
			 M213.355,122.379v-2.932c0-0.938,0.352-1.316,1.316-1.316h5.187c0.925,0,1.303,0.338,1.303,1.316v2.932
			c0.182,0,0.599,0.013,0.599,0.599c0,0.613-0.443,0.613-0.612,0.613h-8.17c-0.169,0-0.625,0-0.625-0.613
			c0-0.599,0.482-0.599,0.625-0.599H213.355z M220.887,115.929c0,0.952-0.365,1.303-1.316,1.303h-4.613
			c-0.952,0-1.316-0.352-1.316-1.303v-2.502c0-0.964,0.378-1.316,1.316-1.316h4.613c0.938,0,1.316,0.352,1.316,1.316V115.929z
			 M215.635,122.379v-3.115h-0.755c-0.248,0-0.365,0.118-0.365,0.365v2.75H215.635z M214.932,114.209h4.665v-0.652
			c0-0.195-0.091-0.365-0.365-0.365h-3.935c-0.261,0-0.365,0.13-0.365,0.365V114.209z M214.932,115.173v0.652
			c0,0.248,0.104,0.365,0.365,0.365h3.935c0.208,0,0.365-0.117,0.365-0.378v-0.639H214.932z M217.772,122.379v-3.115h-1.068v3.115
			H217.772z M220.001,122.379v-2.75c0-0.196-0.065-0.365-0.365-0.365h-0.808v3.115H220.001z"/>
		<path fill="#F5A717" d="M230.05,117.832c0,0.743-0.599,1.355-1.355,1.355s-1.355-0.612-1.355-1.355
			c0-0.756,0.613-1.355,1.355-1.355S230.05,117.076,230.05,117.832z"/>
		<path fill="#F5A717" d="M240.959,118.366c0-0.169,0-0.6,0.547-0.6c0.443,0,0.625,0.169,0.625,0.6v1.199
			c0,1.459-0.352,2.658-1.134,3.701c-0.417,0.561-0.586,0.639-0.808,0.639c-0.365,0-0.639-0.312-0.6-0.704
			c-0.144,0.13-0.3,0.261-1.056,0.261h-0.586c-1.055,0-1.342-0.248-1.342-1.355v-3.284c-0.144,0.183-0.274,0.313-0.469,0.313
			c-0.261,0-0.625-0.3-0.625-0.717c0-0.248,0.026-0.3,0.665-1.342c0.248-0.43,0.639-1.42,0.834-2.411
			c0.078-0.43,0.143-0.912,0.183-1.225h-0.913c-0.404,0-0.625-0.261-0.625-0.625c0-0.625,0.521-0.625,0.691-0.625h3.192
			c0.13,0,0.756,0,0.678,0.73c0.117-0.157,0.287-0.183,0.482-0.183h2.385v-0.521c0-0.417,0.287-0.56,0.665-0.56
			c0.404,0,0.678,0.143,0.678,0.56v0.521h2.736c0.261,0,0.639,0.052,0.639,0.625c0,0.534-0.312,0.625-0.639,0.625h-3.57
			c-0.13,0.287-0.729,1.551-0.86,1.812c0.886-0.052,1.772-0.118,2.658-0.169c-0.417-0.521-0.456-0.574-0.456-0.743
			c0-0.287,0.287-0.573,0.678-0.573c0.234,0,0.339,0.013,1.082,0.951c0.326,0.417,1.042,1.355,1.042,1.72
			c0,0.404-0.43,0.639-0.717,0.639c-0.261,0-0.391-0.156-0.495-0.339c-0.065-0.091-0.313-0.495-0.365-0.586
			c-1.303,0.169-2.006,0.222-4.183,0.391c-0.208,0.013-1.108,0.091-1.264,0.091c-0.13,0-0.639,0-0.639-0.651
			c0-0.612,0.378-0.625,1.264-0.665c0.156-0.287,0.561-1.068,0.834-1.876h-1.473c-0.182,0-0.69,0-0.599-0.756
			c-0.117,0.13-0.235,0.208-0.561,0.208h-1.107c-0.104,0.912-0.235,1.668-0.561,2.724h0.665c1.069,0,1.342,0.26,1.342,1.342v4.6
			c0,0.156,0,0.378-0.052,0.652c0.521-0.652,0.665-0.821,0.86-1.355c0.117-0.365,0.273-0.899,0.273-1.955V118.366z M238.744,117.662
			c0-0.169-0.078-0.287-0.299-0.287h-0.378c-0.196,0-0.287,0.104-0.287,0.287v4.261c0,0.182,0.079,0.287,0.287,0.287h0.378
			c0.221,0,0.299-0.117,0.299-0.287V117.662z M244.165,123.122c0,0.156,0,0.6-0.573,0.6c-0.508,0-0.639-0.209-0.639-0.6v-4.782
			c0-0.169,0-0.6,0.574-0.6c0.482,0,0.638,0.195,0.638,0.6V123.122z M245.038,118.327c0-0.169,0-0.6,0.561-0.6
			c0.469,0,0.625,0.183,0.625,0.6v3.883c0,0.195,0,0.378,0.287,0.378s0.313-0.065,0.352-1.251c0.013-0.169,0.026-0.521,0.456-0.521
			c0.521,0,0.521,0.365,0.521,0.743c0,0.026-0.026,1.173-0.117,1.603c-0.117,0.469-0.352,0.729-1.147,0.729
			c-1.146,0-1.538-0.104-1.538-1.329V118.327z"/>
		<path fill="#F5A717" d="M254.787,116.75v-0.691h-4.926c-0.156,0-0.586,0-0.586-0.56c0-0.534,0.43-0.534,0.586-0.534h2.515v-1.069
			h-1.981c-0.365,0-0.6-0.117-0.6-0.56c0-0.521,0.352-0.561,0.6-0.561h1.981v-0.547c0-0.456,0.312-0.547,0.716-0.547
			c0.417,0,0.613,0.183,0.613,0.547v0.547h3.401v-0.547c0-0.456,0.313-0.547,0.717-0.547c0.352,0,0.639,0.13,0.639,0.534v0.561
			h1.967c0.222,0,0.6,0.026,0.6,0.573s-0.43,0.547-0.586,0.547h-1.98v1.069h2.489c0.183,0,0.6,0,0.6,0.547
			c0,0.547-0.43,0.547-0.6,0.547h-4.926v0.691h2.984c0.886,0,1.303,0.312,1.303,1.316v2.268c0,1.003-0.417,1.316-1.303,1.316h-7.193
			c-0.899,0-1.316-0.312-1.316-1.316v-2.268c0-1.016,0.43-1.316,1.316-1.316H254.787z M252.989,123.122
			c-1.668,0.625-2.685,0.782-2.919,0.782c-0.091,0-0.339-0.013-0.482-0.195c-0.091-0.13-0.143-0.313-0.143-0.482
			c0-0.378,0.312-0.469,0.547-0.521c0.782-0.169,1.616-0.339,2.411-0.651c0.651-0.248,0.743-0.274,0.899-0.274
			c0.378,0,0.561,0.352,0.586,0.561C253.94,122.666,253.706,122.861,252.989,123.122z M251.803,118.666h2.984v-0.899h-2.619
			c-0.248,0-0.365,0.13-0.365,0.378V118.666z M251.803,119.643v0.574c0,0.26,0.13,0.365,0.365,0.365h2.619v-0.938H251.803z
			 M257.106,113.896h-3.401v1.069h3.401V113.896z M259.009,118.666v-0.521c0-0.248-0.117-0.378-0.365-0.378h-2.619v0.899H259.009z
			 M259.009,119.643h-2.984v0.938h2.619c0.208,0,0.365-0.091,0.365-0.365V119.643z M257.51,121.78c0.183,0,0.313,0.052,0.925,0.287
			c0.704,0.274,1.251,0.391,2.254,0.612c0.339,0.065,0.665,0.144,0.665,0.547c0,0.104,0,0.665-0.638,0.665
			c-0.261,0-1.16-0.117-2.802-0.743c-0.834-0.312-0.964-0.43-1.003-0.665C256.872,122.236,257.067,121.78,257.51,121.78z"/>
		<path fill="#F5A717" d="M267.299,120.737c-0.521,0.899-1.173,1.564-2.176,1.564c-1.55,0-2.554-1.616-2.554-3.766
			c0-3.831,2.828-6.021,6.189-6.021c4.339,0,5.538,3.036,5.538,5.317c0,0.756,0,3.101-2.619,4.639
			c-1.251,0.729-2.736,0.86-2.906,0.86c-0.756,0-0.756-0.691-0.756-0.756c0-0.573,0.404-0.639,0.938-0.704
			c0.977-0.13,3.818-0.586,3.818-4.066c0-1.72-0.795-3.779-3.57-3.922C268.706,117.857,267.768,119.942,267.299,120.737z
			 M266.165,114.482c-1.629,0.925-2.189,2.685-2.189,4.079c0,1.395,0.612,2.202,1.199,2.202c0.573,0,0.978-0.665,1.368-1.72
			c0.73-1.916,0.978-3.375,1.212-5.122C267.416,113.987,266.817,114.118,266.165,114.482z"/>
		<path fill="#F5A717" d="M278.573,117.623c1.225-0.287,2.75-0.899,3.375-1.225c0.86-0.43,0.86-0.43,1.029-0.43
			c0.391,0,0.639,0.365,0.639,0.743s-0.079,0.495-1.33,1.055c-1.199,0.535-2.45,0.912-3.714,1.238v1.394
			c0,0.521,0.391,0.521,0.665,0.521c2.307,0,3.023,0,3.18-0.026c0.287-0.052,0.339-0.312,0.417-0.977
			c0.039-0.417,0.078-0.782,0.665-0.782c0.691,0,0.691,0.56,0.691,0.704c0,0.743-0.169,1.759-0.534,2.098
			c-0.274,0.261-0.586,0.3-1.03,0.3c-0.729,0.026-1.485,0.026-2.228,0.026c-2.137,0-2.215-0.026-2.476-0.104
			c-0.743-0.222-0.743-1.042-0.743-1.355v-4.327c-0.769,0.873-0.899,0.873-1.095,0.873c-0.417,0-0.782-0.378-0.782-0.782
			c0-0.273,0.182-0.443,0.391-0.651c1.511-1.459,2.111-2.828,2.489-3.688c0.13-0.312,0.248-0.534,0.665-0.534
			c0.365,0,0.808,0.208,0.808,0.6c0,0.234-0.208,0.677-0.326,0.951h6.125c1.095,0,1.72,0.182,1.72,1.681
			c0,1.486-0.104,3.623-0.234,5.134c-0.183,2.163-0.443,3.388-1.355,3.688c-0.339,0.104-1.277,0.104-1.759,0.104
			c-0.248,0-1.003,0-1.172-0.039c-0.339-0.091-0.456-0.443-0.456-0.717c0-0.665,0.456-0.665,0.743-0.665
			c0.195,0,1.095,0.026,1.277,0.026c0.586,0,0.951,0,1.121-1.173c0.248-1.655,0.417-4.235,0.417-5.916
			c0-0.73-0.156-0.769-0.821-0.769h-6.372c-0.078,0.117-0.378,0.6-0.678,0.99c0.287,0.013,0.69,0.052,0.69,0.613V117.623z"/>
		<path fill="#F5A717" d="M290.603,113.192c0,0.156-0.078,0.821-0.078,0.951c-0.065,0.625-0.143,1.655-0.143,2.671
			c0,0.43,0,3.062,0.69,4.235c0.157,0.248,0.495,0.521,0.886,0.521c0.782,0,1.277-0.886,1.59-1.89
			c0.195-0.586,0.261-0.795,0.704-0.795c0.391,0,0.782,0.222,0.782,0.665c0,0.377-0.169,0.86-0.625,1.746
			c-0.391,0.756-1.121,1.902-2.515,1.902c-2.958,0-2.958-5.121-2.958-6.45c0-1.355,0.144-3.479,0.209-3.74
			c0.143-0.482,0.495-0.495,0.808-0.495C290.042,112.515,290.603,112.515,290.603,113.192z M298.695,121.493
			c0-0.287,0.013-1.564,0-1.812c-0.052-1.746-0.299-3.844-1.277-4.613c-0.261-0.195-0.547-0.287-1.056-0.339
			c-0.365-0.039-0.743-0.091-0.743-0.729c0-0.183,0.065-0.717,0.795-0.717c0.183,0,1.89,0.052,2.828,1.629
			c0.6,0.99,0.808,2.632,0.886,3.349c0.104,0.899,0.13,1.968,0.13,2.815c0,0.625,0,1.199-0.769,1.199
			C298.695,122.275,298.695,121.702,298.695,121.493z"/>
		<path fill="#F5A717" d="M306.398,120.737c-0.521,0.899-1.173,1.564-2.176,1.564c-1.55,0-2.554-1.616-2.554-3.766
			c0-3.831,2.828-6.021,6.189-6.021c4.339,0,5.538,3.036,5.538,5.317c0,0.756,0,3.101-2.619,4.639
			c-1.251,0.729-2.736,0.86-2.906,0.86c-0.756,0-0.756-0.691-0.756-0.756c0-0.573,0.404-0.639,0.938-0.704
			c0.977-0.13,3.818-0.586,3.818-4.066c0-1.72-0.795-3.779-3.57-3.922C307.806,117.857,306.868,119.942,306.398,120.737z
			 M305.265,114.482c-1.629,0.925-2.189,2.685-2.189,4.079c0,1.395,0.612,2.202,1.199,2.202c0.573,0,0.978-0.665,1.368-1.72
			c0.73-1.916,0.978-3.375,1.212-5.122C306.516,113.987,305.917,114.118,305.265,114.482z"/>
		<path fill="#F5A717" d="M323.393,117.506c0.144,0.378,0.352,0.912,0.352,1.798c0,2.789-1.955,3.792-3.896,4.066
			c-0.899,0.117-1.694,0.156-1.889,0.156c-0.287,0-0.952,0-0.952-0.743c0-0.573,0.365-0.586,1.303-0.6
			c3.127-0.039,3.74-1.225,4.027-2.476c-0.235,0.352-0.756,1.121-2.385,1.121c-2.02,0-3.18-1.147-3.18-2.554
			c0-1.368,1.134-2.593,3.192-2.593c0.704,0,1.42,0.091,2.02,0.469l-0.026-1.355c-2.137,0.039-3.219,0.065-4.978,0.065
			c-0.248,0-1.459,0-1.642-0.013c-0.143-0.026-0.534-0.078-0.534-0.651c0-0.665,0.443-0.665,1.069-0.665
			c3.349,0,3.713,0,6.059-0.039l-0.013-0.808c0-0.156-0.013-0.756,0.729-0.756s0.743,0.574,0.743,0.743v0.795
			c1.942-0.052,2.163-0.065,2.202-0.065c0.261,0,0.73,0.026,0.73,0.665c0,0.651-0.404,0.651-1.121,0.665
			c-0.287,0.013-1.551,0.039-1.812,0.039V117.506z M321.478,119.278c0.326-0.248,0.521-0.651,0.521-1.095
			c0-1.133-1.16-1.381-1.812-1.381c-0.899,0-1.994,0.43-1.994,1.473c0,1.056,1.107,1.395,1.837,1.395
			C320.266,119.669,321.021,119.643,321.478,119.278z"/>
		<path fill="#F5A717" d="M334.967,115.994c2.724,0,3.909,1.694,3.909,3.558c0,1.068-0.404,2.736-2.437,3.531
			c-0.873,0.352-1.824,0.456-2.775,0.456c-2.554,0-3.636-0.925-3.636-2.176c0-1.524,1.42-2.15,2.697-2.15
			c0.352,0,1.277,0.052,1.902,0.586c0.456,0.404,0.639,1.016,0.639,1.616c0,0.352-0.052,0.508-0.144,0.729
			c1.499-0.273,2.229-1.251,2.229-2.476c0-1.876-1.473-2.437-2.971-2.437c-2.033,0-3.544,1.069-4.535,1.968
			c-0.821,0.743-0.86,0.782-1.134,0.782c-0.391,0-0.769-0.352-0.769-0.769c0-0.3,0.052-0.339,1.16-1.199
			c1.355-1.016,4.678-3.531,5.525-4.352c-0.795,0.039-4.026,0.221-4.691,0.221c-0.208,0-0.743-0.013-0.743-0.704
			c0-0.69,0.391-0.704,1.368-0.716c0.248,0,3.036-0.04,3.414-0.052c0.625-0.026,1.473-0.065,1.851-0.065
			c0.391,0,1.082,0.026,1.082,0.782c0,0.508-0.196,0.651-0.952,1.172c-1.876,1.316-2.085,1.459-2.801,2.059
			C333.585,116.189,334.042,115.994,334.967,115.994z M334.068,121.571c0-1.029-0.782-1.199-1.381-1.199
			c-0.69,0-1.355,0.352-1.355,0.977c0,0.704,1.03,1.003,1.942,1.003c0.208,0,0.456-0.013,0.612-0.052
			C333.99,122.08,334.068,121.91,334.068,121.571z"/>
		<path fill="#F5A717" d="M350.215,113.44c1.212,0,1.72,0.417,1.72,1.707v6.763c0,1.316-0.521,1.707-1.72,1.72h-7.154
			c-1.147,0-1.72-0.365-1.72-1.72v-6.763c0-1.303,0.534-1.707,1.72-1.707h2.189c0.078-0.222,0.365-1.199,0.456-1.394
			c0.117-0.235,0.248-0.365,0.6-0.365c0.312,0,0.821,0.117,0.821,0.521c0,0.221-0.312,0.964-0.43,1.238H350.215z M342.775,117.753
			h7.74v-2.385c0-0.417-0.208-0.652-0.665-0.652h-6.424c-0.508,0-0.651,0.287-0.651,0.652V117.753z M342.775,118.965v2.75
			c0,0.404,0.169,0.665,0.651,0.665h6.424c0.482,0,0.665-0.261,0.665-0.665v-2.75H342.775z"/>
		<path fill="#F5A717" d="M355.534,116.072c0.469,0.326,0.612,0.43,0.612,0.717s-0.26,0.743-0.665,0.743
			c-0.182,0-0.26-0.065-0.651-0.339c-0.169-0.117-0.912-0.625-1.056-0.729c-0.117-0.079-0.221-0.157-0.221-0.404
			c0-0.404,0.339-0.717,0.599-0.717C354.492,115.342,355.144,115.799,355.534,116.072z M356.499,119.604
			c0,0.573-0.886,2.411-1.212,3.102c-0.443,0.912-0.534,1.095-0.912,1.095c-0.391,0-0.743-0.3-0.743-0.652
			c0-0.156,0.052-0.3,0.169-0.508c0.443-0.847,1.082-2.059,1.446-3.088c0.078-0.248,0.183-0.521,0.547-0.521
			C356.173,119.03,356.499,119.252,356.499,119.604z M354.635,111.876c0.26,0,1.029,0.456,1.329,0.638
			c0.651,0.404,0.769,0.547,0.769,0.782c0,0.365-0.299,0.782-0.665,0.782c-0.169,0-0.287-0.065-0.69-0.339
			c-0.3-0.195-0.795-0.495-1.108-0.691c-0.287-0.182-0.287-0.391-0.287-0.508C353.983,112.254,354.231,111.876,354.635,111.876z
			 M359.561,120.581h-1.108c-0.99,0-1.238-0.235-1.238-1.16v-0.496c0-0.925,0.248-1.16,1.238-1.16h1.108v-0.677h-1.291
			c-0.404,0.469-1.251,1.394-1.668,1.394c-0.299,0-0.638-0.3-0.638-0.625c0-0.248,0.026-0.261,0.704-0.821
			c0.964-0.782,1.277-1.368,1.459-1.694c-0.86-0.039-1.095-0.299-1.095-1.264v-0.769c0-1.003,0.248-1.277,1.368-1.277h5.5
			c1.107,0,1.368,0.261,1.368,1.277v0.769c0,1.016-0.261,1.277-1.368,1.277h-4.457c-0.195,0.365-0.312,0.547-0.391,0.691h4.6
			c1.03,0,1.72,0.117,1.72,1.433c0,1.173-0.052,4.822-0.599,5.721c-0.417,0.704-1.108,0.704-2.189,0.704c-0.639,0-1.16,0-1.16-0.678
			c0-0.547,0.482-0.599,0.56-0.612h0.456c-0.13-0.065-0.156-0.117-0.273-0.378c-1.916,0.443-4.782,0.873-5.069,0.873
			c-0.574,0-0.574-0.521-0.574-0.573c0-0.222,0.118-0.456,0.365-0.521c0.052-0.013,2.358-0.299,2.671-0.338V120.581z
			 M359.443,113.023h-0.925c-0.196,0-0.3,0.091-0.3,0.3v0.782c0,0.208,0.104,0.3,0.3,0.3h0.925V113.023z M359.561,118.652h-0.978
			c-0.208,0-0.3,0.104-0.3,0.287v0.482c0,0.169,0.078,0.287,0.3,0.287h0.978V118.652z M361.698,113.023h-1.199v1.381h1.199V113.023z
			 M363.092,119.421c0,0.769-0.169,1.068-0.834,1.146c0.156,0.052,0.182,0.091,0.391,0.456c0.352,0.613,0.547,0.951,0.547,1.186
			c0,0.261-0.195,0.352-0.378,0.417c0.496-0.013,0.769-0.013,0.938-0.456c0.208-0.534,0.352-2.776,0.352-4.548
			c0-0.378-0.13-0.534-0.586-0.534h-2.841v0.677h1.173c1.003,0,1.238,0.235,1.238,1.16V119.421z M360.682,118.652v1.056h1.029
			c0.195,0,0.312-0.091,0.312-0.287v-0.482c0-0.182-0.104-0.287-0.312-0.287H360.682z M360.682,121.519
			c0.156-0.026,0.834-0.13,1.029-0.169c-0.052-0.104-0.117-0.248-0.117-0.404c0-0.248,0.195-0.326,0.3-0.365h-1.212V121.519z
			 M362.728,113.023v1.381h0.977c0.183,0,0.313-0.078,0.313-0.3v-0.782c0-0.208-0.117-0.3-0.313-0.3H362.728z"/>
		<path fill="#F5A717" d="M369.388,119.395c0,0.391-0.312,1.225-0.508,1.72c-0.417,1.068-0.704,1.655-1.03,2.28
			c-0.117,0.248-0.234,0.404-0.534,0.404c-0.339,0-0.743-0.222-0.743-0.613c0-0.156,0.052-0.326,0.183-0.573
			c0.586-1.16,0.964-1.876,1.394-3.284c0.091-0.261,0.195-0.495,0.573-0.508C368.906,118.822,369.388,118.939,369.388,119.395z
			 M367.199,115.342c0.222,0,0.391,0.079,1.134,0.561c0.808,0.534,0.951,0.651,0.951,0.938c0,0.274-0.273,0.756-0.665,0.756
			c-0.183,0-0.261-0.052-0.86-0.482c-0.274-0.195-0.717-0.482-0.991-0.691c-0.13-0.104-0.182-0.234-0.182-0.338
			C366.587,115.59,366.938,115.342,367.199,115.342z M367.629,111.889c0.234,0,1.055,0.482,1.355,0.665
			c0.352,0.208,0.73,0.43,0.73,0.743c0,0.417-0.339,0.794-0.652,0.794c-0.169,0-0.261-0.065-1.107-0.599
			c-0.13-0.065-0.665-0.378-0.769-0.469c-0.143-0.104-0.248-0.248-0.221-0.482C367.004,112.176,367.264,111.889,367.629,111.889z
			 M376.386,119.89c-0.339,1.095-0.964,2.02-1.525,2.685c-0.234,0.273-1.238,1.368-1.798,1.368c-0.365,0-0.638-0.312-0.638-0.612
			c0-0.208,0.117-0.326,0.312-0.482c0.912-0.677,1.694-1.251,2.398-2.958h-1.042c-0.495,1.003-1.251,1.837-2.111,2.515
			c-0.495,0.391-1.485,1.029-1.889,1.029c-0.313,0-0.586-0.299-0.586-0.625c0-0.299,0.208-0.404,0.404-0.495
			c1.89-0.873,2.45-1.746,2.854-2.424h-0.978c-0.43,0.456-1.42,1.381-1.941,1.381c-0.339,0-0.586-0.339-0.586-0.612
			c0-0.234,0.091-0.3,0.821-0.808c0.3-0.208,1.042-0.782,1.473-1.668h-1.459c-0.169,0-0.613,0-0.613-0.547
			c0-0.547,0.456-0.547,0.613-0.547h8.079c0.182,0,0.612,0.013,0.612,0.56c0,0.534-0.443,0.534-0.612,0.534h-5.291
			c-0.13,0.274-0.222,0.469-0.352,0.717h4.392c0.482,0,1.407,0,1.407,1.212c0,0.6-0.117,2.059-0.287,2.736
			c-0.248,0.899-0.625,0.991-1.694,0.991c-0.86,0-1.303,0-1.303-0.613c0-0.495,0.352-0.56,0.547-0.56
			c0.117,0,0.651,0.026,0.782,0.026c0.404,0,0.495-0.169,0.573-0.638c0.078-0.469,0.156-1.16,0.156-1.759
			c0-0.169-0.026-0.404-0.404-0.404H376.386z M377.937,115.095c0,1.069-0.248,1.355-1.368,1.355h-4.821
			c-1.095,0-1.355-0.274-1.355-1.355v-1.668c0-1.094,0.274-1.355,1.355-1.355h4.821c1.095,0,1.368,0.261,1.368,1.355V115.095z
			 M371.695,113.857h4.939v-0.456c0-0.195-0.104-0.3-0.287-0.3h-4.366c-0.195,0-0.287,0.104-0.287,0.3V113.857z M371.695,114.743
			v0.456c0,0.183,0.091,0.287,0.287,0.287h4.366c0.182,0,0.287-0.091,0.287-0.287v-0.456H371.695z"/>
		<path fill="#F5A717" d="M386.709,122.366c0,0.534-0.43,0.964-0.964,0.964s-0.964-0.43-0.964-0.964s0.43-0.964,0.964-0.964
			S386.709,121.832,386.709,122.366z M386.24,119.708c-0.026,0.326-0.156,0.547-0.495,0.547c-0.326,0-0.456-0.196-0.495-0.547
			l-0.3-3.675v-2.945c0-0.704,0.521-0.755,0.782-0.755c0.469,0,0.808,0.208,0.808,0.755v2.945L386.24,119.708z"/>
	</g>
</g>
<g id="レイヤー_5">
</g>
<g id="レイヤー_3" display="none">
</g>
</svg>
