<?xml version="1.0" encoding="utf-8"?>
<!-- Generator: Adobe Illustrator 21.0.2, SVG Export Plug-In . SVG Version: 6.00 Build 0)  -->
<svg version="1.1" id="レイヤー_1" xmlns="http://www.w3.org/2000/svg" xmlns:xlink="http://www.w3.org/1999/xlink" x="0px"
	 y="0px" viewBox="0 0 489.3 323.5" style="enable-background:new 0 0 489.3 323.5;" xml:space="preserve">
<style type="text/css">
	.st0{fill-rule:evenodd;clip-rule:evenodd;fill:#542C0B;stroke:#542C0B;stroke-miterlimit:10;}
	.st1{fill:#542C0B;}
</style>
<g>
	<g>
		<path class="st0" d="M444.2,230.1c-0.5-0.1-1-0.3-1.5-0.5c-0.3-0.1-0.5-0.4-0.7-0.7c1,0,1.8,0.6,2.8,0.2c0.4-1.3,0.2-2.1-1-2.9
			c-1.3-0.9-2.8-1.5-4.4-2c-1.1-0.4-2.2-0.8-3.4-1.2c-1-0.4-1.6-1.1-2.2-1.9c-0.8-1.2-1.6-2.4-2.5-3.5c-1.2-1.5-2.7-2.6-4.3-3.7
			c-1.9-1.4-4-1.9-6.2-2.1c-1-0.1-2-0.3-3.1-0.4c-1.6-0.2-3-0.8-4.5-1.5c-2-1-4-1.8-6.2-2.2c-3-0.6-5.8-1.7-8.3-3.3
			c-1.9-1.2-4.1-1.8-6.2-2.4c-2.8-0.8-5.5-1.8-8.1-3.2c-2.4-1.3-4.9-2.6-7.3-3.9c-2.4-1.3-4.7-2.9-7-4.5c-1.8-1.3-3.8-2.5-5.9-3.3
			c-1.8-0.6-3.7-1.1-5.6-1.6c-2.6-0.6-5.2-1.1-7.7-1.8c-2.8-0.8-5.4-1.9-8-3.1c-2.5-1.1-5-2.1-7.6-3c-3.7-1.3-7.1-3.1-10.3-5.2
			c-2.3-1.5-4.8-2.7-7.2-4c-4.3-2.3-8.5-4.6-12.3-7.6c-3.2-2.6-6.5-5.2-9.7-7.9c-2.1-1.8-4.1-3.7-6.2-5.5c-2.2-2-4.7-3.5-7.4-4.7
			c-1.5-0.7-2.9-1.4-4.4-1.9c-2.5-0.8-5.1-1.4-7.8-1.6c-1-0.1-1.9-0.2-2.9-0.2c-0.2,0-0.4,0-0.6,0.1c0,0.1,0,0.1,0,0.2
			c0.4,0.2,0.9,0.4,1.3,0.5c1,0.2,1.8,0.5,2.7,1.1c0.7,0.5,1.6,0.8,2.4,0.9c1.8,0.4,3.4,1.1,4.9,2.3c0.6,0.5,1.2,0.8,1.8,1.2
			c0.8,0.5,1.5,1.2,1.8,2.1c0.7,1.9,2.1,3.3,3.7,4.4c2.7,2,5.4,4,7.9,6.3c1.7,1.5,3.6,2.6,5.6,3.6c2.9,1.6,5.9,3.1,8.8,4.7
			c3.8,2.1,7.6,4.2,11.5,6.2c2.1,1.1,4.3,2.1,6.4,3.2c3.8,2,7.6,4.2,11.5,6.2c2,1.1,4.1,2,6.2,3c3,1.4,6.1,2.8,9.1,4.3
			c2.3,1.2,4.6,2.4,6.9,3.7c1.9,1,3.7,2.1,5.5,3.2c1.5,0.9,2.9,2,4.3,2.9c2.2,1.5,4.4,3,6.7,4.4c2.5,1.5,5,3,7.5,4.4
			c2.8,1.6,5.6,3.1,8.4,4.6c2.7,1.4,5.4,2.6,8.1,3.9c1.5,0.7,2.9,1.5,4.4,2.2c0.5,0.3,1,0.7,1.6,0.9c1.6,0.8,3.2,1.4,4.7,2.2
			c2.1,1.1,4.5,1.4,6.6,2.3c0.1,0.1,0.3,0,0.5,0.1c2.5,0.5,4.9,1.2,7.3,2.2c1.6,0.7,3.2,1.4,4.7,2.3c1.5,0.8,3.1,1,4.7,1.2
			c1.3,0.1,2.7,0,4.1,0c0.2,0,0.5-0.1,0.8-0.2c0.6,0.5,1.6,0.6,1.7,1.7c-0.3,0.1-0.5,0.2-0.7,0.3c-0.4,0.2-0.7,0.1-0.9-0.2
			c-0.4-0.5-0.9-0.7-1.5-0.7c-1.4,0-2.7-0.1-4.1,0c-1.5,0.1-2.9-0.4-4.2-1.1c-3.5-2-7.2-3.5-11.1-4.4c-5.2-1.2-10.1-3.3-14.8-5.9
			c-2.5-1.4-5.2-2.6-7.8-3.9c-3.7-1.9-7.4-3.9-11.1-5.9c-3.1-1.7-6.2-3.5-9.3-5.4c-2.2-1.3-4.3-2.8-6.5-4.2c-4.4-3-8.9-5.9-13.7-8.3
			c-3.5-1.7-7-3.4-10.5-5.1c-0.6-0.3-1.2-0.5-1.8-0.8c-0.1,0.6-0.5,0.7-1.1,0.6c-1.8-0.3-3.5-0.4-5.3-0.6c-5-0.5-10.1-1.1-15-2.2
			c-3.6-0.8-7.1-1.4-10.7-2c-1.2-0.2-2.4-0.2-3.7-0.3c-3.3-0.1-6.6-0.1-10-0.3c-2.2-0.1-4.3-0.3-6.4-0.6c-2.8-0.4-5.6-1-8.4-1.5
			c-4.1-0.7-8.3-0.8-12.4,0.1c-4.1,0.8-8,2-11.8,3.6c-1.1,0.5-2.2,1.1-3.1,1.9c-0.6,0.5-0.9,1.1-0.7,1.9c0,0.1,0,0.2,0,0.4
			c-1.1-0.7-1.1-2.3-0.1-3c2-1.3,4.1-2.3,6.4-3c2.4-0.8,4.9-1.5,7.3-2.1c3-0.8,6.1-1.3,9.3-1.1c2.1,0.1,4.2,0.3,6.2,0.7
			c3.6,0.7,7.3,1.4,11,1.7c2.2,0.2,4.3,0.2,6.5,0.3c2.4,0.1,4.8,0.2,7.2,0.3c4.5,0.1,8.8,1.2,13.2,2.1c3.4,0.7,6.8,1.4,10.2,1.7
			c3,0.3,6,0.6,8.9,1c0.6,0.1,1.2,0.2,1.9,0.2c-1.4-0.7-2.8-1.3-4.1-2.1c-3.6-1.9-7.1-3.9-10.7-5.8c-2.7-1.4-5.5-2.8-8.3-4.2
			c-3.2-1.7-6.4-3.4-9.6-5.1c-3.6-1.9-7.1-3.8-10.7-5.6c-2.9-1.5-5.5-3.3-7.9-5.4c-1.7-1.5-3.5-2.7-5.3-4.1
			c-0.9-0.7-1.8-1.4-2.7-2.1c-0.7-0.5-1.1-1.3-1.4-2.1c-0.5-1.6-1.8-2.5-3.1-3.3c-0.8-0.5-1.6-1.1-2.4-1.6c-0.8-0.4-1.6-0.6-2.4-0.9
			c-1.1-0.4-2.2-0.7-3.3-1.1c-0.6-0.2-1.2-0.5-1.8-0.7c-1.1-0.3-2.1-0.7-3-1.4c-0.5-0.4-1.1-0.5-1.7-0.3c-0.7,0.2-1.4,0.3-2,0.5
			c-0.1,0-0.2-0.1-0.4-0.1c0.2-0.3,0.4-0.6,0.6-1c-0.4,0-0.7-0.1-1-0.1c-2.4,0-4.8,0.3-7.2,0.7c-0.5,0.1-1.1,0-1.6,0
			c-2.5-0.3-5.1-0.5-7.6-0.1c-2.1,0.3-4.2,0.8-6.3,1.2c-1.9,0.4-3.7,0.8-5.5,1.3c-1.8,0.5-3.6,1.1-5.2,2c-1.6,0.9-2.8,2.2-4.1,3.6
			c-0.9,0.9-1.8,1.8-2.8,2.7c-1,0.9-2.1,1.7-3.1,2.6c-0.8,0.6-1.6,1.1-2.4,1.7c-2.1,1.6-4.1,3.2-6.2,4.7c-1.6,1.1-3,2.5-4.4,3.9
			c-2.3,2.2-4.8,4.2-7.6,5.8c-1.5,0.9-3.1,1.9-4.6,2.8c-0.1,0.1-0.3,0.1-0.3,0.2c-0.7,1.5-2.2,2-3.4,2.8c-3.9,2.6-8.1,4.7-12.3,6.6
			c-3.3,1.5-6.6,3.1-9.9,4.6c-3.2,1.4-6.4,2.8-9.6,4.2c-4.7,2-9.4,3.9-14,6c-3.6,1.6-7.1,3.5-10.7,5.2c-2.2,1.1-4.5,2.2-6.7,3.2
			c-1.6,0.8-3.2,1.6-4.8,2.3c-2.8,1.2-5.6,2.4-8.4,3.4c-2.8,1.1-5.7,2-8.6,3.1c-3.1,1.1-6.2,2.4-9.2,3.8c-2.8,1.3-5.7,2.5-8.5,3.7
			c-1.6,0.7-3.3,1.2-5,1.8c-0.1,0-0.2,0.1-0.4,0.1c-0.9,0.4-1,0.6-0.5,1.5c0.1,0.3,0.2,0.5,0,0.7c-0.3,0.2-0.5,0.3-0.8,0
			c-0.2-0.2-0.3-0.4-0.4-0.7c-0.1-0.2-0.1-0.5-0.1-0.8c-0.8,0.2-1.5,0.4-2.2,0.5c-2.1,0.5-4.1,1-6.2,1.4c-1.5,0.3-2.9,0.7-4.4,1
			c-0.8,0.2-1.7,0.3-2.6,0.4c-0.7,0.1-0.7,0.1-1,0.8c-0.7-0.2-1.4-0.4-2.1-0.6c0-0.3,0-0.5,0-0.8c2.2,0.1,4.4-0.1,6.6-0.6
			c3.8-0.9,7.5-1.8,11.3-2.6c0.8-0.2,1-0.8,1.2-1.4c0.6-1.9,1.1-3.8,2-5.5c1.4-2.8,3.1-5.5,5.4-7.7c1.9-1.8,3.8-3.5,6.2-4.8
			c3-1.6,6-3.2,9.1-4.8c2.1-1,4.2-2,6.4-2.8c3.3-1.3,6.6-2.6,9.9-3.9c3.7-1.4,7.4-2.7,11.2-4.1c3-1.1,6-2.1,9-3.1c3-1,6.1-2,9.1-2.9
			c3.8-1.2,7.6-2.3,11.4-3.5c2.1-0.7,4-1.5,6.1-2.2c2.5-0.9,4.9-1.8,7.4-2.6c1.8-0.6,3.6-1.3,5-2.6c0.1-0.1,0.2-0.1,0.2-0.2
			c2.6-1.5,4.8-3.5,7.1-5.4c2.2-1.8,4.5-3.4,6.8-5.1c2.5-1.8,5-3.5,7.5-5.3c1.9-1.4,3.6-3,5.5-4.3c2.4-1.7,5-3.1,7.4-4.7
			c1.7-1.1,3.4-2.3,5.2-3.3c2.6-1.6,5.4-2.9,8.5-3.4c2.2-0.3,4.3,0,5.8,1.8c0.1,0.1,0.2,0.1,0.3,0.2c1.2-0.4,2.5-0.8,3.8-1.2
			c0.9-0.2,1.8-0.3,2.7-0.5c1.8-0.3,3.7-0.7,5.5-1c2.3-0.3,4.6-0.7,7-0.3c1.2,0.2,2.6-0.1,3.8-0.1c2.3-0.1,4.7-0.3,7-0.4
			c1.1,0,2.2,0.3,3.2,0.4c0.4,0.1,0.9,0.2,1.3,0.1c2.2-0.2,4.4,0.2,6.6,0.5c0.5,0.1,1.1,0.2,1.6,0.3c2.8,0.3,5.3,1.3,7.8,2.6
			c1.9,0.9,3.7,1.9,5.5,3c1.4,0.9,2.7,2.1,4,3.2c2.1,1.9,4.2,3.9,6.3,5.7c1.6,1.4,3.3,2.7,5,4.1c2.2,1.7,4.4,3.4,6.6,5
			c1.3,0.9,2.7,1.7,4,2.5c1.8,1,3.6,2,5.4,3c1.1,0.6,2.3,1.1,3.4,1.8c2.1,1.2,4.1,2.4,6.1,3.7c2,1.2,4.1,2.2,6.3,2.9
			c0.6,0.2,1.1,0.4,1.7,0.7c3.2,1.3,6.4,2.6,9.6,3.9c1.4,0.6,2.7,1.2,4.1,1.7c1,0.4,2,0.6,3,0.9c0.6,0.2,1.2,0.3,1.8,0.4
			c1.5,0.3,3,0.6,4.4,0.9c1.1,0.3,2.2,0.6,3.4,0.9c0.9,0.3,1.9,0.4,2.8,0.8c1.9,0.9,3.8,1.8,5.5,3.1c0.9,0.7,1.8,1.3,2.7,1.9
			c0.5,0.3,1,0.7,1.6,0.8c0.1,0,0.3,0.1,0.4,0.2c1.9,1.1,3.9,2.3,5.8,3.4c1.1,0.7,2.2,1.4,3.4,2c0.5,0.3,1,0.3,1.5,0.5
			c0.6,0.2,1.3,0.4,1.9,0.7c2.4,1,4.8,1.8,7.3,2.5c1.7,0.4,3.3,1.2,4.8,2.2c2.2,1.5,4.7,2.2,7.2,2.9c2.5,0.6,5,1.4,7.2,2.7
			c1.3,0.8,2.8,1,4.3,1.2c1.8,0.2,3.6,0.4,5.4,0.8c0.7,0.1,1.4,0.4,2.1,0.8c3.4,2,6.2,4.6,8.2,8c0.6,1.1,1.5,1.9,2.7,2.3
			c0.7,0.2,1.4,0.5,2.1,0.7c1.9,0.6,3.6,1.5,5.3,2.5C446.9,227.8,445.6,229.9,444.2,230.1z M79.9,221.9c0.2,0.1,0.2,0.1,0.3,0.1
			c1.6-0.7,3.3-0.9,4.8-1.8c0.2-0.1,0.4-0.1,0.6-0.2c1.6-0.6,3.1-1.2,4.7-1.8c2.2-0.9,4.3-2,6.5-2.9c2.6-1.1,5.3-2.1,8-3.2
			c0.4-0.2,0.8-0.5,1.2-0.5c1.3-0.2,2.4-0.6,3.6-1.1c1.9-0.7,3.7-1.4,5.6-2.2c2.9-1.3,5.7-2.6,8.5-3.9c1.7-0.8,3.3-1.5,5-2.4
			c2.5-1.2,5-2.6,7.5-3.8c1.6-0.8,3.2-1.5,4.8-2.2c2.6-1.2,5.3-2.4,8-3.4c3.5-1.4,7-2.8,10.5-4.4c0.6-0.3,1.1-0.6,1.7-0.8
			c1-0.4,2-0.7,3-1.2c3.5-1.6,7.1-3.3,10.6-4.9c2.4-1.1,4.8-2.3,7.2-3.4c2.3-1.1,4.4-2.5,6.5-4c-0.1-0.3-0.1-0.6-0.2-0.9
			c0.2-0.1,0.3-0.3,0.5-0.3c3.3-1.8,6.5-3.7,9.5-5.9c1.1-0.8,2.1-1.6,3.1-2.5c2.1-1.8,4.1-3.8,6.3-5.5c3.8-3,7.7-5.9,11.5-8.8
			c1.4-1.1,2.6-2.2,3.8-3.6c0.7-0.8,1.5-1.6,2.3-2.2c1.2-1,2.7-1.7,4.2-2.3c0.3-0.1,0.6-0.3,0.9-0.4c-0.6-0.7-0.9-0.9-1.7-1.2
			c-1.4-0.6-2.9-0.4-4.3,0c-2.8,0.7-5.4,2-7.9,3.5c-2.2,1.4-4.3,2.8-6.5,4.2c-2.5,1.5-5,3.1-7.3,4.9c-2.5,1.9-5,3.7-7.6,5.6
			c-2.6,1.8-5.2,3.6-7.7,5.5c-2.1,1.6-4.2,3.3-6.3,4.8c-1.3,1-2.6,1.9-3.8,3.1c-0.9,0.9-1.9,1.7-3.1,2.1c-2.1,0.8-4.3,1.5-6.5,2.2
			c-0.5,0.2-1.1,0.2-1.6,0.4c-1.4,0.5-2.8,1.1-4.2,1.6c-2.3,0.8-4.5,1.5-6.8,2.2c-1.9,0.6-3.8,1.2-5.7,1.8c-1.8,0.5-3.5,1-5.3,1.5
			c-1.8,0.6-3.6,1.2-5.4,1.8c-3.4,1.2-6.8,2.3-10.2,3.5c-2.7,0.9-5.4,1.9-8.1,2.9c-2.6,1-5.2,2-7.8,3c-0.6,0.2-1.2,0.5-1.8,0.7
			c-0.6,0.2-1.2,0.3-1.4,1.1c-1.1,0.4-2,1.1-3.1,1.2c-1.1,0.1-2.1,0.4-3.1,1c-0.2,0.1-0.4,0.2-0.6,0.3c-1.3,0.6-2.6,1.2-3.8,1.8
			c-1.5,0.8-3,1.7-4.6,2.5c-2.6,1.3-4.9,3.1-6.9,5.2c-0.9,1-1.8,2-2.6,3.1c-1.2,1.8-2.5,3.5-3.1,5.6
			C81.1,218.9,80.4,220.4,79.9,221.9z"/>
		<path class="st0" d="M59.9,0c0.6,0.7,0.6,0.9,0,1.7C59.9,1.2,59.9,0.6,59.9,0z"/>
		<path class="st0" d="M247.3,134.2c0.2-0.4,0.3-0.6,0.4-1c0.3,0.5,0.4,1,0.2,1.4c-0.3,0.5-0.8,0.4-1.2,0.3
			c-1.2-0.2-2.2-0.9-3.1-1.7c-1-1-1.9-2.2-2.9-3.2c-1.7-2-3.6-3.9-5.2-5.9c-2.6-3.2-4.5-6.8-5.5-10.8c-0.3-1.1-0.5-2.1-0.5-3.2
			c0.1-1.5,1-2.2,2.4-1.6c0.7,0.3,1.3,0.7,1.9,1.1c2.4,2,4.7,4.1,6.8,6.5c0.5,0.5,0.9,1,1.5,1.7c-0.5-1.1-0.9-2.1-1.2-3.1
			c-0.4-1.1-0.8-2.2-1.1-3.4c-0.6-2.3-0.9-4.7-0.6-7.1c0.2-1.3,0.4-2.5,0.7-3.8c0.3-1.1,0.7-2.1,1.8-2.7c-0.5-1.2-1-2.4-1.5-3.7
			c0.1,0,0.1-0.1,0.2-0.1c1.3,2,2.1,4.3,3.9,6.1c-0.2,0.6-0.6,0.5-1.1,0.2c-0.2,0.8,0.1,1.5,0.2,2.1c0.7,3.4,1.4,6.7,2.1,10
			c0.5,2.5,1,5,1.7,7.5c0-0.2,0-0.3,0.1-0.5c0.2-3.1,0.3-6.1,0.5-9.2c0.1-2.4,0.3-4.9,0.5-7.3c0.2-2.2,0.4-4.4,0.9-6.6
			c0.4-1.8,1.2-3.3,2.6-4.5c0.6-0.6,1.3-1.1,2.1-1.4c1.2-0.4,2.1-0.2,2.8,0.8c0.4,0.6,0.8,1.4,1,2.1c0.6,2.6,0.9,5.2,1.1,7.8
			c0,0.7,0.1,1.3,0.3,2c0.3-1,0.7-2,1-3.1c0.7-2.3,1.5-4.5,2.7-6.6c0.9-1.5,1.8-3,2.8-4.4c0.6-0.8,1.3-1.4,2.1-2
			c0.5-0.5,1.2-0.7,2-0.7c0.6,0,1,0.2,1.2,0.8c0.1,0.4,0.2,0.7,0.3,1.1c0.1,2,0.1,3.9-0.3,5.9c-0.6,2.8-1.1,5.6-1.6,8.3
			c-0.3,1.6-0.8,3.1-1.2,4.7c0,0.1-0.1,0.3-0.2,0.7c0.3-0.3,0.5-0.4,0.7-0.6c1.4-1.4,2.9-2.5,4.6-3.6c0.4-0.3,0.9-0.5,1.4-0.6
			c0.8-0.2,1.4,0.1,1.6,0.9c0.2,0.5,0.3,1.1,0.3,1.6c0.1,3.5-0.3,7-0.9,10.5c-0.5,2.8-1.1,5.5-1.9,8.2c-0.7,2.2-1.4,4.3-2.2,6.4
			c-0.2,0.6-0.6,1.1-1.2,1.4c-0.7,0.4-1.3,0.2-1.5-0.5c-0.4-1.4-0.7-2.8-1-4.2c0-0.1,0-0.2,0-0.4c0.5,0,0.6,0.4,0.7,0.8
			c0.2,1,0.5,1.9,0.8,2.9c0.1,0.3,0.3,0.7,0.5,1c0.6-0.1,0.9-0.4,1.1-0.9c0.4-0.8,0.8-1.6,1-2.5c0.8-3,1.7-6,2.4-9
			c0.8-3.6,1.3-7.2,1.5-10.8c0.1-1.2,0-2.4-0.2-3.6c-0.1-1.1-0.6-1.3-1.6-0.8c-2.6,1.4-4.8,3.3-6.3,5.9c-0.1,0.2-0.2,0.4-0.2,0.6
			c-0.8,3.4-1.6,6.8-2.3,10.2c-0.2,0.7-0.4,1.3-0.6,1.9c-0.1,0.2-0.2,0.5-0.3,0.7c-0.2,0.2-0.4,0.3-0.7,0.3c-0.1,0-0.4-0.3-0.4-0.5
			c-0.1-0.8-0.2-1.5-0.2-2.3c-0.1-3.5,0.7-6.7,2.7-9.5c1.2-1.6,1.9-3.3,2.3-5.2c1-4.6,2.1-9.3,2.5-14c0.1-1.3,0-2.6-0.1-3.9
			c-0.1-1-0.7-1.3-1.6-0.8c-0.7,0.4-1.4,1-1.9,1.6c-1.4,1.5-2.4,3.2-3.2,5c-0.9,1.8-1.6,3.7-2.4,5.6c-0.8,1.9-1.3,3.8-1.8,5.8
			c-0.1,0.5-0.2,1-0.1,1.4c0.1,2.7,0.1,5.5,0.2,8.2c0.1,3.2,0.2,6.4,0.4,9.6c0.1,1.5,0.3,3.1,0.4,4.6c0.1,1,0,1.9,0,2.9
			c0,0.3-0.1,0.6-0.2,0.9c-0.2,0.5-0.8,0.5-1.1,0.1c-0.4-0.9-0.9-1.8-0.9-2.9c0.6,0.2,0.5,0.7,0.7,1c0.2,0.4,0.4,0.7,0.7,1.3
			c0.1-0.4,0.2-0.6,0.2-0.8c0-1.5-0.1-3.1-0.2-4.6c-0.1-2.5-0.2-5-0.3-7.4c-0.1-2.9-0.2-5.8-0.3-8.7c0-0.8,0-1.6-0.1-2.4
			c0-0.5-0.1-1.1-0.1-1.7c-0.3,0.2-0.6,0.4-0.9,0.5c-0.1,0-0.1-0.1-0.2-0.1c0.1-0.3,0.2-0.6,0.4-0.9c0.5-0.7,0.6-1.4,0.5-2.2
			c-0.3-2.4-0.5-4.9-0.8-7.3c-0.2-1.1-0.4-2.3-0.7-3.4c-0.1-0.6-0.4-1.1-0.7-1.6c-0.6-1-1.6-1.1-2.6-0.4c-2.4,1.5-3.4,3.9-4,6.5
			c-0.2,0.7-0.3,1.5-0.3,2.2c-0.1,1.6-0.2,3.3-0.3,4.9c-0.1,1.7-0.2,3.3-0.3,5c-0.1,2.3-0.3,4.5-0.4,6.8c0,1,0,1.9,0,2.9
			c0.1,2.2,0.3,4.3,0.4,6.5c0,0.3,0.1,0.5,0.1,0.8c0,0.6-0.1,0.6-0.9,0.8c0-0.1-0.2-0.2-0.1-0.3c0-2.7-0.7-5.2-1.2-7.8
			c-0.6-2.6-1.1-5.2-1.6-7.8c-0.8-3.7-1.6-7.4-2.4-11.2c-0.1-0.6-0.3-1.2-0.6-2c-0.3,0.5-0.6,0.7-0.7,1c-0.7,1.3-0.9,2.8-1.1,4.2
			c-0.3,1.7-0.1,3.5,0,5.2c0.5,4.3,2.3,8,4.5,11.6c0.7,1.1,1.4,2.1,2.1,3.1c-0.5,0.7-0.7,0.7-1.1,0c-1-1.4-2-2.8-3-4.1
			c-0.9-1.2-1.9-2.2-2.9-3.3c-1.4-1.6-3-3.1-4.6-4.5c-0.9-0.8-1.8-1.6-2.8-2.2c-1.3-0.8-1.9-0.3-1.8,1.1c0.2,2.2,0.8,4.4,1.9,6.3
			c0.5,1,1,2.1,1.5,3.1c1.2,2.2,2.8,4.2,4.5,6.1c1.6,1.8,3.2,3.6,4.9,5.4c0.9,1,1.8,2,3.2,2.4C246.5,134.1,246.9,134.1,247.3,134.2z
			 M263.4,122c0.1,0,0.2,0,0.2,0c0.9-3.6,1.7-7.2,2.6-10.8C263.7,114.4,262.9,118.1,263.4,122z"/>
		<path class="st0" d="M265.2,38c0.3,0.4,0.4,0.7,0.6,0.9c0.5,0.7,1,1.3,1.6,1.9c0.9,0.9,2,1.1,3.2,0.8c1-0.2,2-0.6,2.8-1.2
			c2.4-1.6,4.4-3.5,6.2-5.8c1.2-1.5,1.9-3.4,2.2-5.3c0.4-2.3-0.2-4.4-1.6-6.3c-0.8-1.1-1.9-2-3-2.9c-0.6-0.5-1.1-1.1-1.7-1.6
			c-0.2-0.2-0.3-0.4-0.4-0.7c-0.2-0.5-0.1-0.7,0.4-0.9c1.3-0.5,2.6-0.8,4.1-0.5c1,0.2,2.1,0.5,3.1,0.6c1.7,0.3,3.3,0.3,5-0.3
			c0.9-0.3,1.4-0.7,1.5-1.7c0.1-1,0.5-1.9,1.3-2.7c0.8-0.8,1.8-1.1,2.9-0.9c1.1,0.2,2,0.7,2.9,1.3c0.7,0.4,1.4,0.9,2.1,1.2
			c2.1,0.8,4.2,0.6,6.2-0.1c1.6-0.6,3.1-1.4,4.7-2.1c0.6-0.3,1.1-0.7,1.5-1.2c0.6-0.7,1.3-0.8,2.1-0.6c1.2,0.4,2.5,0.7,3.7,1
			c1.4,0.4,2.9,0.8,4.3,1c1.3,0.2,2.7,0,3.8-0.7c0.9-0.5,1.8-1.1,2.7-1.7c1.1-0.8,2.2-1.5,3.3-2.3c0.9-0.6,1.7-1.3,2.5-1.9
			c0.7-0.5,1.5-0.8,2.5-0.2c0.9,0.6,1.8,1,2.7,1.5c0.1,0.1,0.3,0.1,0.5,0.3c-0.3,0.2-0.5,0.4-0.6,0.3c-0.7-0.2-1.3-0.3-1.9-0.6
			c-0.4-0.1-0.7-0.4-1-0.6c-0.7-0.4-1.3-0.4-2,0c-2.5,1.6-4.9,3.1-7.3,4.9c-1.7,1.3-3.7,2-5.9,1.5c-1.4-0.3-2.8-0.6-4.3-0.9
			c-1.1-0.2-2.3-0.5-3.4-0.8c-0.6-0.1-1,0-1.5,0.3c-2.4,1.5-4.9,2.8-7.7,3.5c-1.9,0.5-3.9,0.6-5.8-0.3c-0.5-0.3-1-0.6-1.6-0.9
			c-0.7-0.4-1.3-0.7-2-1c-2.2-0.9-3.6,0.5-4,2.3c0,0.2,0,0.3,0,0.5c0,0.9-0.5,1.5-1.3,1.7c-1,0.3-2.1,0.5-3.1,0.7
			c-1.3,0.2-2.6,0-3.9-0.3c-1.2-0.2-2.4-0.3-3.6-0.4c-0.4,0-0.8,0.1-1.2,0.3c-0.6,0.3-0.7,0.6-0.2,1.1c0.5,0.6,1.1,1.1,1.7,1.5
			c2.3,1.8,3.8,4.1,4.3,7c0.1,0.9-0.1,1.9-0.2,2.8c-0.4,2.1-1.2,3.9-2.7,5.5c-1.3,1.3-2.5,2.7-3.8,4c-1,0.9-2.2,1.6-3.3,2.3
			c-0.8,0.5-1.7,0.7-2.7,0.7c-2.2,0.1-3.6-1.2-4.8-2.8C264.8,39.2,264.9,38.7,265.2,38z"/>
		<path class="st0" d="M270.2,80.1c-0.1,1.2-0.1,2.1-0.2,3.1c0.5-0.1,0.6-0.5,0.7-0.7c0.9-1.8,1.8-3.6,2.7-5.5
			c1.5-3.2,3-6.4,4.4-9.7c1.3-3,2.7-6,3.9-9c0.7-1.6,1.2-3.3,1.1-5.1c-0.1-1.9-0.8-3.5-2.5-4.5c-1.5-0.9-3-1-4.6-0.1
			c-1.5,0.9-2.6,2.1-3.7,3.4c-2.3,2.8-4,5.9-4.7,9.5c-0.4,1.8-0.5,3.6-0.7,5.4c-0.1,0.4-0.1,0.9-0.2,1.4c-0.6-0.2-0.5-0.6-0.5-0.9
			c0-1.9,0-3.9,0.4-5.8c1.1-4.9,3.5-9.1,7.4-12.4c1.3-1.1,2.9-1.8,4.7-1.8c1.5,0.1,2.8,0.7,3.7,1.8c1.2,1.5,1.7,3.3,1.5,5.3
			c-0.2,1.8-0.9,3.6-1.6,5.2c-1.1,2.5-2.2,5-3.4,7.5c-0.9,1.9-1.8,3.9-2.7,5.8c-0.9,2-1.8,4-2.7,6c-0.7,1.4-1.5,2.8-2.3,4.2
			c-0.2,0.3-0.4,0.6-0.7,0.8c-0.3,0.2-0.7,0.1-0.9-0.2C269,83.3,269.4,80.9,270.2,80.1z"/>
		<path class="st0" d="M238.9,82.2c-0.2-0.9-0.5-1.7-0.7-2.6c-0.4-1.7-1-3.3-1.1-5.1c-0.2-3.8,0.5-7.4,2.2-10.9
			c0.6-1.1,1.5-2,2.7-2.5c1.2-0.4,1.9-0.2,2.5,0.9c1,1.7,1.5,3.6,1.9,5.5c0.6,2.6,1,5.2,1.1,7.9c0.1,1.9,0.4,3.8,0.5,5.7
			c0.1,1.2,0,2.4,0.1,3.6c0,2.5,0.1,5,0.1,7.5c0,1.3-0.1,2.7-0.9,3.8c-0.2,0.3-0.4,0.5-0.7,0.7c-0.5,0.3-0.8,0.2-1.1-0.3
			c-0.2-0.4-0.4-0.9-0.5-1.4c-0.2-1.7-0.2-3.3,0.4-5c0.3-0.9,0.9-1.6,1.6-2.3c0.4-0.3,0.6-0.6,0.4-1.2c-0.1-0.2-0.1-0.4-0.1-0.7
			c0-3.2-0.3-6.4-0.5-9.5c-0.2-2.9-0.5-5.8-1.3-8.6c-0.4-1.5-0.9-3-1.4-4.4c-0.2-0.5-0.5-0.9-0.8-1.3c-0.4-0.5-0.9-0.5-1.4-0.2
			c-0.6,0.4-1.2,0.8-1.6,1.4c-0.5,0.7-1,1.5-1.3,2.4c-1.4,3.9-1.9,7.9-0.8,12.1c0.3,1.3,0.5,2.6,0.7,3.9c0,0.1,0,0.2,0,0.4
			C239.1,82.2,239,82.2,238.9,82.2z M247.4,88.1c-1.1,1.6-1.7,3.2-1.7,5c0,1.8,0.3,2.6,0.9,3.1C247.5,95.2,248,90.5,247.4,88.1z"/>
		<path class="st0" d="M224.9,35.6c0-0.3,0-0.6,0-0.9c-0.5-0.2-1-0.5-1.6-0.7c-2.9-1.1-5-3.2-6.8-5.7c-0.8-1.1-1.4-2.2-2.1-3.3
			c-0.7-1.2-1.2-2.5-1.5-3.8c-0.2-0.7-0.2-0.7,0.4-1.3c-0.5-0.8-1.3-1.1-2-1.6c-1.5-1-3-2-4.2-3.4c-1.4-1.6-2.3-3.5-2.3-5.7
			c0-2.3,0.9-4.1,2.7-5.5c0.5-0.4,1-0.7,1.5-1c1.5-0.7,3-0.3,4.4,0.3c0.2,0.1,0.3,0.2,0.5,0.3c-0.1,0.1-0.1,0.2-0.2,0.3
			c-0.2-0.1-0.5-0.1-0.7-0.2c-1.7-0.6-3.3-0.6-4.8,0.6c-1.6,1.2-2.6,2.7-2.7,4.8c-0.1,2.6,1.1,4.6,2.9,6.4c0.8,0.7,1.7,1.4,2.6,2
			c1.4,0.9,2.7,2,3.8,3.2c0.1,0.1,0.1,0.1,0.2,0.2c0.2,0.3,0.1,0.7-0.3,0.7c-0.3,0-0.6,0-0.9-0.1c0,0.8,0.2,1.5,0.5,2.1
			c1.3,2.6,2.8,5.1,4.9,7.1c1.6,1.6,3.5,2.7,5.7,3.4c0.1,0,0.3,0,0.6,0.1c0.2-0.4,0.4-0.8,0.6-1.2c0.5-1,1.1-1.8,2-2.5
			c0.9-0.8,1.8-0.5,2.3,0.6c0.4,0.9,0.5,1.8,0.4,2.7c-0.1,0.7-0.4,1.2-1,1.4c-0.6,0.3-1.3,0.4-2,0.3c-0.7-0.1-1.4-0.2-2-0.3
			C225.3,35.1,225.1,35.4,224.9,35.6L224.9,35.6z M225.8,34c1,0.3,2,0.5,2.9,0.4c0.5-0.1,1-0.2,1.1-0.8c0.2-1,0.1-2-0.5-2.9
			c-0.3-0.4-0.6-0.5-1-0.2C227.1,31.4,226.4,32.6,225.8,34z"/>
		<path class="st0" d="M219.7,114.3c0.8-0.1,1.3-0.2,1.9-0.3c1.1-0.3,1.5-0.2,2.1,0.9c0.4,0.8,0.8,1.6,1,2.4c0.4,1.6,0.7,3.1,1,4.7
			c0.1,0.4,0.1,0.8,0.1,1.2c0,1.2-0.6,2-1.8,2.4c-1.4,0.5-2.9,0.7-4.4,0.4c-1.2-0.2-2.3-0.1-3.4,0.2c-0.6,0.2-1.3,0.3-1.9,0.4
			c-1.4,0.2-2.4-0.8-1.7-2.2c0.4-0.9,0.8-1.8,1.2-2.7c0.6-1.3,1.2-2.7,1.9-4.1c-0.2-0.1-0.4-0.2-0.6-0.4c-0.5-0.4-0.5-1-0.1-1.4
			c0.1-0.1,0.1-0.2,0.2-0.2c1.1-0.6,1.3-1.6,1.5-2.6c0.1-0.7,0.4-1.4,0.7-2c0.5-0.8,0.8-0.8,1.4-0.1
			C219.4,111.8,219.9,112.8,219.7,114.3z M224.9,122.5c-0.1-0.6-0.2-1.2-0.3-1.8c-0.2-0.8-0.3-1.5-0.5-2.3c-0.2-0.7-0.3-1.4-0.6-2
			c-1-2.1-0.8-1.8-2.8-1.4c-0.6,0.1-1.3,0.2-1.9,0.1c-1.4-0.3-1.8-0.1-2.2,1.3c-0.4,1.3-0.9,2.7-1.5,4c-0.5,1.2-1.2,2.4-1.7,3.7
			c-0.1,0.3-0.2,0.6-0.3,0.9c-0.1,0.5,0.1,0.7,0.6,0.7c0.5,0,1.1,0,1.6-0.2c1.6-0.5,3.2-0.6,4.9-0.3c1,0.2,1.9,0.1,2.9-0.2
			C224.5,124.6,224.9,124,224.9,122.5z M217.1,114c0.6,0,1.2,0,1.8,0c0-0.9,0.1-1.8-0.8-2.3C217.3,112.5,217.2,112.7,217.1,114z
			 M215.5,116.9c0,0,0.1,0,0.1,0c0.1-0.2,0.1-0.4,0.2-0.6c0-0.1-0.1-0.1-0.2-0.3c-0.1,0.2-0.2,0.4-0.2,0.5
			C215.4,116.7,215.5,116.8,215.5,116.9z"/>
		<path class="st0" d="M236.2,87.1c-0.5-0.6-1-1.1-1.5-1.7c-1.5-1.8-3.1-3.6-5-5.1c-1.3-1.1-2.5-2.3-3.8-3.3
			c-1.9-1.5-3.9-2.9-6.2-3.7c-0.9-0.3-1.9-0.5-2.8-0.5c-1.6,0-2.3,1-1.9,2.5c0.2,0.9,0.5,1.7,0.9,2.5c0.9,1.9,2,3.8,3.6,5.2
			c1.2,1.1,2.4,2.1,3.9,2.8c1,0.5,2.1,1.1,3.1,1.6c1.1,0.6,2.3,0.8,3.5,1c0.5,0.1,1-0.2,1.5-0.3c0.6-0.2,1.2-0.4,2-0.7
			c0,0.9-0.6,1-1,1.3c-1.9,1.1-3.8,0.8-5.6-0.2c-1.8-0.9-3.6-2-5.3-3.1c-2.7-1.7-4.5-4.1-5.9-6.9c-0.5-1-0.9-2.1-1.2-3.1
			c-0.6-2.1,0.7-3.4,2.9-3.3c1.8,0.1,3.5,0.7,5.1,1.6c2.4,1.3,4.5,3,6.5,4.8c2.7,2.4,5.2,5,7.4,7.9c0.1,0.1,0.2,0.3,0.3,0.4
			c0,0,0,0.1,0,0.2C236.3,87,236.2,87.1,236.2,87.1z"/>
		<path class="st0" d="M342.9,66.3c-0.4,1-0.7,2-1.7,2.6c0.1-0.2,0.1-0.4,0.2-0.6c0.2-0.6,0.5-1.3,0.7-1.9c0.2-0.6,0.1-1.2-0.4-1.7
			c-0.2-0.3-0.5-0.5-0.6-0.8c-0.2-0.4-0.3-0.9-0.4-1.4c0-0.2,0.1-0.6,0.2-0.6c0.9-0.1,1.3-1.1,2.3-1.2c0.9-0.1,1.8-0.3,2.7-0.2
			c1.2,0.1,2.4,0.3,3.5,0.6c1.4,0.4,2.4,1.4,2.8,2.9c0.4,1.5-0.3,2.8-1.2,3.9c-0.4,0.4-0.8,0.3-1.3-0.1c-0.8-0.7-1.7-1.3-2.5-2
			c-0.8-0.6-0.9-0.6-1.4,0.3c-0.7,1.1-1.4,2.2-1.2,3.6c0,0.3,0.2,0.6,0.1,0.9c0,0.2-0.2,0.5-0.3,0.6c-0.3,0.1-0.6-0.1-0.6-0.4
			c-0.1-0.6-0.1-1.3-0.1-1.9C343.8,68,343.5,67.2,342.9,66.3z M350.5,67.2c1.5-1.4,1.6-2.9,0.3-4.2c-0.5-0.5-1.2-0.9-1.9-1.1
			c-1.3-0.5-2.8-0.6-4.2-0.4c-0.6,0.1-1.1,0.3-1.6,0.6c-0.5,0.3-0.4,0.9,0.2,1.1c0.6,0.3,1.2,0.5,1.9,0.7c0.5,0.2,1,0.3,1.7,0.5
			C347.7,65.6,349.2,66.2,350.5,67.2z M343,64c-0.1,0.2-0.1,0.3-0.1,0.3c0,0.1,0,0.2,0,0.3c0.4,0.9,0.9,1.7,1.4,2.7
			c0.5-0.7,1-1.4,1.6-2.2C344.9,64.6,344,64.2,343,64z"/>
		<path class="st0" d="M159.4,0.5c0.9,0.5,1.7,0.4,2.5,0.2c1-0.1,2,0.1,2.9,0.4c1.2,0.5,2.3,1.1,3.3,2c2,1.8,4,3.6,6,5.4
			c0.4,0.4,0.8,0.8,1.2,1.2c0.3,0.3,0.7,0.4,1,0.1c1.9-1.6,4.2-2.3,6.4-3c2.1-0.7,4.1-1.5,6.2-2.1c2.6-0.8,5.3-1.2,8-0.6
			c2.1,0.4,3.6,1.6,4.2,3.8c0.2,0.8,0.6,1.6,0.9,2.4c0.1,0.3,0.2,0.5,0.3,0.8c0,0.1-0.1,0.3-0.2,0.4c-0.1,0-0.3,0-0.3-0.1
			c-0.1-0.1-0.3-0.3-0.3-0.5c-0.3-0.8-0.6-1.7-0.9-2.5c-0.2-0.7-0.4-1.3-0.8-1.9c-0.7-1.1-1.8-1.6-3-1.8c-1.9-0.3-3.8-0.2-5.8,0.2
			c-2.6,0.5-5,1.5-7.4,2.4c-1.4,0.5-2.8,1-4.2,1.6c-0.9,0.4-1.8,1-2.6,1.6c-0.8,0.6-1.1,0.6-1.9-0.1c-1.1-1.1-2.2-2.2-3.4-3.3
			c-1.5-1.4-3-2.7-4.6-4c-1.6-1.2-3.4-1.8-5.4-1.5c-0.4,0-0.8,0.1-1.2,0.1C159.9,1.6,159.5,1.4,159.4,0.5z"/>
		<path class="st0" d="M312,102c-0.4-0.6-0.6-1.1-1-1.6c-0.7-1.1-1.4-2.2-2.1-3.4c-0.7-1.1-1.8-1.5-3.1-1.2
			c-2.4,0.4-4.5,1.6-6.5,2.8c-0.8,0.5-1.2,1.1-1,2c0,0.2,0,0.4-0.1,0.5c-0.4,0.2-0.6,0-0.7-0.3c-0.4-0.8-0.4-1.9,0.5-2.4
			c2-1.3,4-2.5,6.3-3.1c0.7-0.2,1.4-0.3,2.1-0.4c1.1-0.2,2,0.1,2.6,1c0.5,0.6,1,1.2,1.4,1.9c0.8,1.3,1.6,2.7,2.4,4.1
			c0.5,0.8,0.4,1-0.6,1.2c-1.2,0.3-2.4,0.6-3.6,1.1c-2.4,1-5,1.7-7.6,2.3c-1.7,0.4-3.2-0.3-4.1-1.8c-0.8-1.3-1.1-2.7-1.6-4.1
			c-0.2-0.4,0-0.8,0.4-0.8c0.4,0,0.5,0.3,0.6,0.6c0.1,1.3,0.6,2.5,1.2,3.7c0.7,1.4,1.6,2.1,3.6,1.8c2.4-0.4,4.7-1.2,6.9-2.2
			c1-0.5,2.1-0.8,3.1-1.3C311.3,102.2,311.6,102.1,312,102z"/>
		<path class="st0" d="M374.1,23.4c-0.7-1.1-0.4-2.1-0.4-3.3c-0.4,0.1-0.8,0.1-1.1,0.2c-0.9,0.2-1.9,0.1-2.8-0.2
			c-1.6-0.5-2.1-2-1.2-3.4c0.5-0.7,1.1-1.3,1.7-1.9c0.4-0.4,0.7-0.8,1.1-1.2c0.8-0.9,1.5-1.9,2.6-2.3c0.6-0.2,1.1-0.2,1.5,0.2
			c1,0.9,1.8,1.9,2.1,3.3c0.2,0.8,0,1.6-0.4,2.3c-0.2,0.4-0.4,0.8-0.6,1.2c-0.1,0.2-0.3,0.3-0.5,0.4c-1.2,0.6-1.9,1.6-1.8,3
			C374.4,22.2,374.5,22.7,374.1,23.4z M374.4,16.2C374.4,16.2,374.4,16.2,374.4,16.2c0-0.3,0-0.5,0-0.8c-0.1-0.9-0.6-1.2-1.4-0.9
			c-1.5,0.5-2.6,1.4-3.5,2.6c-0.7,0.9-0.3,1.8,0.7,2.2c0.8,0.3,1.7,0.3,2.5,0.2c1.1-0.2,1.3-0.4,1.4-1.5
			C374.2,17.4,374.3,16.8,374.4,16.2z M376,17.3c1.1-1.2,1.2-2.2,0.5-3.6c-0.9-1.8-2.8-1.9-4-0.2c0.1,0,0.1,0.1,0.2,0
			c1.7-0.6,2.2,0.2,2.5,1.7c0.1,0.3,0,0.6,0,0.9c0,0.3,0,0.7,0,1.1C375.5,17.2,375.7,17.2,376,17.3z"/>
		<path class="st0" d="M253,44.3c-0.9,0.2-1.7,0.1-2.5,0c-0.2,0-0.3-0.2-0.4-0.4c-0.9-1.7-1.6-3.4-1.5-5.4c0.2-2.3,1.4-3.7,3.6-4.3
			c1.4-0.4,2.9-0.7,4.3-1.1c1.3-0.4,2.3,0,3.3,0.9c1.1,1,1.8,2.2,2.3,3.5c0.4,1.2,0.8,2.5,1.1,3.8c0.2,0.7,0.1,0.9-0.6,1.2
			c-0.9,0.4-1.9,0.7-2.9,1c-1.7,0.5-3.5,1-5.2,1.5c-0.6,0.2-1.1,0.5-1.3,1.2c-0.2-0.1-0.4-0.2-0.5-0.3c-0.2-0.2-0.5-0.4-0.3-0.7
			c0.2-0.2,0.4-0.5,0.7-0.6c0.5-0.2,1-0.3,1.5-0.4c1.6-0.5,3.2-0.9,4.8-1.4c0.8-0.2,1.6-0.5,2.4-0.8c0.4-0.1,0.7-0.4,0.6-0.9
			c-0.2-2.3-1-4.5-2.6-6.2c-1.2-1.3-2.6-1.4-4.2-0.9c-1.2,0.4-2.3,0.7-3.5,1.1c-1.5,0.5-2.7,2-2.8,3.6c-0.1,1.6,0.4,2.9,1.1,4.2
			c0.2,0.4,0.6,0.7,1.1,0.7C252.2,43.7,252.2,43.8,253,44.3z"/>
		<path class="st0" d="M257.3,81.4c0.1,0.1,0.2,0.1,0.2,0.1c1.4,0.5,1.7,1.7,0.6,2.8c-0.5,0.5-0.9,0.4-1.2-0.2
			c-0.1-0.3-0.2-0.6-0.2-0.8c-0.5-2.8-0.6-5.5,0.2-8.2c0.2-0.7,0.5-1.4,0.8-2.1c0.2-0.4,0.5-0.7,0.8-1c0.8-0.7,1.5-0.5,1.9,0.5
			c0.6,1.3,0.9,2.8,0.9,4.2c0.1,2.9,0.4,5.9,0.2,8.8c-0.1,1.3-0.2,2.7-0.3,4.1c0,0.2,0,0.4-0.1,0.6c-0.1,0.2-0.3,0.4-0.5,0.4
			c-0.3,0-0.3-0.3-0.3-0.6c0.1-1.5,0.3-3,0.3-4.4c0-3.2-0.1-6.4-0.3-9.6c0-0.9-0.3-1.7-0.5-2.5c-0.1-0.3-0.3-0.7-0.5-1
			c-0.7,0.3-1,0.9-1.2,1.4c-0.3,1-0.6,2-0.8,3C257.1,77.8,257.1,80.3,257.3,81.4z M257.5,82.1c-0.2,0.6-0.1,1,0.4,1.4
			C258.3,82.6,258.3,82.6,257.5,82.1z"/>
		<path class="st0" d="M188.1,86.4c-1.6-0.1-2.6-1-3.4-2.3c-0.5-0.9-0.3-1.9,0.1-2.8c0.8-1.7,1.9-3.2,3.3-4.5c1.1-1,2-0.9,2.9,0.4
			c0.9,1.2,1.4,2.7,1.9,4.1c0,0,0,0.1,0,0.1c-0.2,1.1,0.1,2.2,0.2,3.3c0,0.3-0.1,0.5-0.4,0.6c-1.2,0.3-2.4,0.6-3.6,0.9
			C188.8,86.3,188.4,86.3,188.1,86.4z M186.9,79.4c-1,1-1.5,2-1.7,3c-0.4,2.1,1.6,3.2,2.9,3.2c1.4-0.1,2.7-0.8,4-1.3
			c0.1-1.1-0.1-2.2-0.5-3c-0.6-1.2-1.7-1.8-3-1.5c0.1,0.4,0.8,0.4,0.6,1C188.2,80.7,187.6,80,186.9,79.4z M191.3,79.6
			c-0.2-0.8-0.6-1.6-1.1-2.2c-0.2-0.3-0.5-0.4-0.9-0.3c-0.6,0.3-1.2,0.6-1.6,1.4C189,78.9,190.3,78.8,191.3,79.6z"/>
		<path class="st0" d="M115.3,36.4c0.3,1,0.6,2.1,0.9,3.1c0.2,0.5,0.2,1-0.2,1.5c-0.6,0.8-1.1,1.6-1.8,2.4c-0.5,0.7-1.5,0.9-2.3,0.4
			c-2.4-1.4-3.1-3.9-2.3-6.1c0.1-0.3,0.2-0.7,0.4-1.1c-1.1,0.3-1.4,1.2-1.7,2.1c-0.4-0.4-0.4-0.8-0.2-1.1c0.2-0.5,0.5-1.1,0.9-1.4
			c1.2-0.9,2.4-1.5,3.9-1.6c1.1-0.1,1.9,0.6,2.7,1.1C116,35.7,115.9,35.9,115.3,36.4z M114.5,40.3c0.1-0.3,0.1-0.5,0.2-0.8
			c0-0.2,0.2-0.5,0.1-0.7c-0.2-0.9-0.3-1.7-0.6-2.5c0-0.2-0.3-0.4-0.4-0.5c-0.9-0.5-2.1-0.2-2.7,0.6c-0.5,0.7-0.9,1.4-1,2.3
			c-0.1,1.5,0.3,2.9,1.5,3.9c0.7,0.5,1.1,0.5,1.7-0.1c0.6-0.6,1-1.2,1.5-1.9c0.1-0.1,0.1-0.4,0.2-0.6
			C114.9,40.2,114.7,40.2,114.5,40.3z"/>
		<path class="st0" d="M176,23.8c0.2,0.2,0.5,0.4,0.6,0.7c0.9,1.2,1.7,2.4,2.6,3.6c0.2,0.3,0.4,0.5,0.7,0.8c1.1-0.7,1.8-1.6,2.3-2.6
			c0.9-2.1,0.8-4.2,0.2-6.3c-0.2-0.9-0.8-1.1-1.6-0.7c-0.9,0.4-1.4,1.2-1.9,2c-0.1,0.2-0.3,0.5-0.4,0.7c-0.4-0.2-0.4-0.5-0.3-0.8
			c0.6-1.5,1.5-2.8,3.3-3c0,0,0.1,0,0.1,0c0.3-0.1,0.7-0.3,1-0.2c0.4,0.2,0.6,0.6,0.9,1c0.2,0.2,0.3,0.5,0.5,0.9
			c-0.7,0.2-0.7,0.7-0.6,1.3c0.1,0.8,0.2,1.7,0.2,2.5c0,2.3-1,4.1-2.6,5.6c-0.3,0.3-0.7,0.6-1.1,0.8c-1.8,1-3.4,0.3-4-1.6
			c-0.3-1.2-0.4-2.5-0.3-3.7c0-0.2,0.1-0.5,0.2-0.7C175.8,23.9,175.9,23.8,176,23.8z M179.4,29.2c-0.9-1.2-1.9-2.4-2.9-3.8
			c-0.2,1.4-0.2,2.5,0.4,3.5C177.5,29.8,178.4,30,179.4,29.2z"/>
		<path class="st0" d="M424.2,45.7c0.7,0.3,0.8,0.8,1,1.3c0.2,0.4,0.3,0.9,0.5,1.5c0.7-0.7,1.3-1.3,2-1.9c0.1-0.1,0.2-0.2,0.3-0.4
			c1.1-1,1.6-1.1,2.9-0.4c0.6,0.3,1.2,0.7,1.6,1.3c0.3,0.4,0.4,0.9,0.1,1.4c-0.4,0.6-0.8,1.2-1.6,1.4c-0.9,0.3-1.8,0.6-2.7-0.3
			c0.1,0.7,0.1,0.7,1.2,1.4c-1,0.4-1.3,0.2-3-1.9c-0.3,0.4-0.5,0.8-0.7,1.2c-0.2,0.3-0.3,0.6-0.5,0.8c-0.1,0.2-0.5,0.3-0.6,0.2
			c-0.3-0.1-0.3-0.4-0.2-0.7c0,0,0-0.1,0-0.1c0.9-1.4,0.7-2.8-0.1-4.2C424.4,46.1,424.4,46,424.2,45.7z M427.4,47.9
			c0.5,0.3,1,0.6,1.5,0.9c0.8,0.5,1.5,0.4,2.2-0.1c0.7-0.5,0.7-1.2,0-1.7c-0.4-0.3-0.8-0.5-1.3-0.7c-0.3-0.1-0.7-0.1-1,0
			C428.2,46.7,427.7,47.2,427.4,47.9z"/>
		<path class="st0" d="M296.5,79.1c0-0.6,0-1.2,0-1.8c0-0.7,0.1-0.9,0.8-1c0.9-0.1,1.9-0.2,2.9-0.2c0.6,0,1.1,0.4,1.4,0.8
			c0.8,1.1,1.2,2.3,1.5,3.5c0.1,0.5-0.1,1.1-0.3,1.6c-0.6,1.4-0.6,1.5-2.2,1.3c-0.8-0.1-1.6-0.2-2.4-0.3c-1-0.1-1.7-0.8-2.4-1.4
			c-0.2-0.2-0.4-0.4-0.2-0.8c0.4-0.2,0.6,0.2,0.8,0.4c1,1.1,2.4,1.2,3.7,1.3c1.2,0.1,1.9-0.4,1.9-2c0-1.2-0.6-2.2-1.3-3.1
			c-0.2-0.2-0.5-0.3-0.8-0.4c-0.8-0.1-1.6,0-2.4,0.4c-0.5,0.2-0.7,0.5-0.8,1c0,0.2-0.1,0.5-0.1,0.7
			C296.5,79.2,296.5,79.1,296.5,79.1z"/>
		<path class="st0" d="M224.9,35.6c-0.1,1.5-0.2,3-0.4,4.5c-0.1,1.8,0.3,3.6,1.2,5.2c1.2,2.1,3.1,3.6,5.3,4.5
			c0.5,0.2,1.1,0.1,1.7,0.2c0.2,0,0.4,0,0.6,0c0,0.1,0,0.1,0,0.2c-0.3,0-0.6,0.1-0.9,0.1c-0.6,0-1.2,0-1.8,0c-0.2,0-0.5,0-0.6-0.1
			c-2.7-1.4-4.9-3.4-5.7-6.5c-0.6-2.1-0.5-4.2,0-6.3C224.5,36.8,224.7,36.2,224.9,35.6C224.9,35.6,224.9,35.6,224.9,35.6z"/>
		<path class="st0" d="M295.2,79.5c-0.4,0.2-0.7,0.5-1.1,0.8c-0.5,0.4-0.6,0.6-0.3,1.2c0.3,0.7,0.5,1.4,0.8,2.2
			c0.1,0.2,0.1,0.4,0.1,0.6c0,0.3-0.4,0.5-0.6,0.2c-0.2-0.2-0.3-0.4-0.4-0.7c-0.2-0.7-0.5-1.4-0.7-2.1c-0.3-0.9-0.2-1.4,0.6-1.9
			c0.5-0.3,0.9-0.7,1.5-0.5C295.1,79.4,295.2,79.5,295.2,79.5z"/>
		<path class="st0" d="M244.9,42.5c-0.1-0.5,0-0.8,0.4-0.9c0.2,0,0.5,0.1,0.6,0.3c0.4,0.4,0.8,0.8,1,1.3c0.4,0.7,1,1.2,1.8,1.2
			c0.1,0,0.3,0.1,0.5,0.2c-0.2,0.2-0.3,0.4-0.3,0.4c-0.5,0-1.1,0-1.6-0.1c-0.2,0-0.4-0.4-0.6-0.6c-0.2-0.3-0.3-0.5-0.5-0.8
			C245.9,42.9,245.6,42.5,244.9,42.5z"/>
		<path class="st0" d="M334.8,44.9c-0.3-0.5-0.5-0.7-0.5-0.9c-0.1-0.7,0.3-1.1,0.9-0.8c0.9,0.3,1.8,0.7,2.8,1.2
			c-0.3,0.1-0.5,0.3-0.6,0.3c-0.4,0-0.9-0.1-1.3-0.2C335.6,44.2,335.1,44,334.8,44.9z"/>
		<path class="st0" d="M263,26.6c-0.3-0.8-0.5-1.5-0.7-2.2c0-0.2,0-0.4,0.1-0.5c0.4-0.4,0.9-0.7,1.4-1.2c0,0.3,0.1,0.5,0,0.5
			c-0.6,0.8-0.7,1.6-0.3,2.4C263.6,26,263.4,26.3,263,26.6z"/>
		<path class="st0" d="M393.6,54.2c-0.4-0.2-0.7-0.4-0.9-0.6c-0.5-0.4-1.1-0.7-1.6-1.1c-0.2-0.1-0.4-0.3-0.5-0.6
			c0-0.2,0.1-0.4,0.2-0.6c0.1-0.1,0.4,0,0.5,0.1c0.8,0.7,1.5,1.5,2.2,2.3C393.7,53.8,393.6,53.9,393.6,54.2z"/>
		<path class="st0" d="M107.4,91.8c0.2,0.3,0.2,0.5,0.4,0.8c-0.4,0-0.7,0.1-1.2,0.1c0.2-0.5,0.2-0.9,0.5-1.2c0.5-0.5,1-0.9,1.6-1.3
			c0.2-0.1,0.5-0.1,0.7-0.1c0.3,0,0.6,0.1,0.6,0.5c0,0.4-0.3,0.3-0.7,0.3C108.5,90.6,108,91.3,107.4,91.8z"/>
		<path class="st0" d="M190.5,50.7c0.1,0.1,0.3,0.2,0.4,0.4c0.2,0.6,0.4,1.2,0.6,1.8c0,0.2,0,0.5-0.2,0.6c-0.2,0.2-0.5,0-0.6-0.2
			c-0.3-0.7-0.5-1.3-0.7-2C189.9,50.9,190.1,50.6,190.5,50.7z"/>
		<path class="st0" d="M129.4,31.2c-0.9,0-1.3-0.6-1.5-1.2c-0.1-0.2,0-0.5,0.1-0.7c0.1-0.1,0.4,0,0.6,0.1c0.4,0.3,0.8,0.6,1.2,1
			c0.1,0.1,0.2,0.4,0.2,0.5C129.8,31,129.6,31.1,129.4,31.2z"/>
		<path class="st0" d="M274.2,11.9c-0.2-0.6-0.4-1.1-0.6-1.7c0-0.2,0.2-0.4,0.3-0.6c0.2,0.1,0.4,0.2,0.5,0.3
			c0.2,0.4,0.3,0.9,0.5,1.3C275,11.7,274.8,11.9,274.2,11.9z"/>
		<path class="st0" d="M198.9,31.5c-0.2-0.2-0.5-0.2-0.6-0.4c-0.3-0.7-1.1-1.3-0.9-2.2C198.3,29.2,199,30.4,198.9,31.5z"/>
		<path class="st0" d="M343.3,16.7c-0.7,0.6-1.1,1.1-1.6,1.5c-0.1,0-0.1-0.1-0.2-0.1c0-0.2-0.1-0.5,0-0.7c0.1-0.3,0.3-0.5,0.4-0.8
			c0.1-0.3,0.2-0.6,0.6-0.5C342.7,16.2,343,16.5,343.3,16.7z"/>
		<path class="st0" d="M156,20.4c-0.3,0.3-0.6,0.3-0.9,0c-0.4-0.5-0.8-1-1.2-1.5c0-0.1,0-0.2,0-0.4C155.2,18.6,155.5,19.7,156,20.4z
			"/>
		<path class="st0" d="M291.8,35.5c-0.5-0.3-1-0.5-1.4-0.9c-0.2-0.2-0.4-0.5-0.1-0.7c0.3-0.3,0.6-0.2,0.8,0.1
			c0.3,0.4,0.6,0.9,0.9,1.3C291.9,35.3,291.9,35.4,291.8,35.5z"/>
		<path class="st0" d="M163.9,59.3c-0.2-0.1-0.3-0.2-0.3-0.2c-0.2-0.4-0.5-0.8-0.6-1.2c-0.1-0.1,0.1-0.4,0.2-0.6
			c0.1-0.1,0.4,0,0.5,0.1c0.2,0.4,0.5,0.8,0.6,1.3C164.2,58.9,164,59.1,163.9,59.3z"/>
		<path class="st0" d="M207.9,61c-0.6-0.5-1.2-0.8-1.8-1.3c0.6-0.4,1-0.3,1.4-0.1C208,59.9,208.2,60.3,207.9,61z"/>
		<path class="st0" d="M318,20.6c-0.1-0.1-0.3-0.3-0.5-0.4c0.2-0.2,0.3-0.4,0.5-0.5c0.1-0.1,0.3-0.1,0.5-0.1c0.3,0,0.6-0.1,0.6,0.3
			c0,0.2-0.2,0.4-0.4,0.6C318.5,20.6,318.3,20.5,318,20.6z"/>
		<path class="st0" d="M417,66.6c-0.3-0.3-0.6-0.7-1-1.1c0.6-0.3,1-0.1,1.4,0.1C417.8,65.8,417.7,66.2,417,66.6z"/>
		<path class="st0" d="M214.3,40.4c-0.3,0.2-0.5,0.5-0.8,0.5c-0.4,0-0.6-0.3-0.5-0.6c0-0.4,0.3-0.5,0.6-0.4
			C213.8,39.8,213.9,40.1,214.3,40.4z"/>
		<path class="st0" d="M363.8,44.4c-0.4,0-0.8-0.4-0.7-0.7c0.1-0.2,0.3-0.4,0.5-0.5c0.2-0.1,0.6,0.5,0.5,0.8
			C364.1,44.2,363.9,44.3,363.8,44.4z"/>
		<path class="st0" d="M310.9,54.3c0,0.7-0.2,0.9-0.6,0.8c-0.2-0.1-0.4-0.3-0.4-0.5C309.9,54.3,310.2,54.2,310.9,54.3z"/>
		<path class="st0" d="M304.3,24.4c-0.1-0.5-0.1-0.9,0.4-1c0.3-0.1,0.6,0.2,0.5,0.5C305.2,24.5,304.8,24.4,304.3,24.4z"/>
		<path class="st0" d="M127,75.8c-0.4,0.6-0.4,0.6-1-0.1C126.4,75.5,126.7,75.6,127,75.8z"/>
		<path class="st0" d="M279,210.9c1.3,0.1,2.7-0.1,3.9,0.6c-0.5,0.4-1,0-1.5,0c-0.6,0-1.2,0-1.7,0c-0.5,0-1.1,0.1-1.7,0.2
			c0.1,0.2,0.2,0.3,0.2,0.5c-0.4,0.3-0.6,0-0.9-0.1c-0.5-0.3-1-0.4-1.6-0.4c-4.5-0.1-9.1-0.2-13.6-0.5c-3.1-0.2-6.2-0.7-9.3-1.1
			c-1.9-0.3-3.7-0.8-5.6-1.1c-3.7-0.6-7.3-1.1-11-1.7c-3.9-0.6-7.8-1.3-11.7-2c-1.5-0.3-3-0.6-4.4-1c-1.7-0.5-3.3-1-5-1.6
			c-3.4-1.3-6.9-2.2-10.4-3c-4.2-0.9-8.5-0.7-12.8,0c-4.1,0.7-8.2,1.5-12.3,2.2c-3.2,0.5-6.4,0.9-9.6,1.2c-3.6,0.4-7.1,1.1-10.5,2
			c-2.3,0.6-4.5,1.4-6.8,2c-2.7,0.7-5.5,1.3-8.2,1.9c-0.1,0-0.1,0-0.2,0c-0.6,0.1-0.9-0.1-0.9-0.5c0-0.5,0.4-0.5,0.7-0.6
			c3.5-0.3,6.9-1.3,10.3-2.3c2.5-0.7,5.1-1.4,7.7-2c3.6-0.8,7.2-1.3,10.9-1.7c2.7-0.3,5.4-0.7,8.1-1.2c2.9-0.5,5.8-1.1,8.6-1.6
			c2.6-0.5,5.2-0.8,7.9-0.8c3.5,0,7,0.4,10.4,1.4c2.9,0.8,5.7,1.8,8.5,2.8c2.1,0.7,4.2,1.3,6.4,1.7c1.9,0.4,3.8,0.8,5.8,1.1
			c2.8,0.4,5.6,0.8,8.4,1.2c3.6,0.5,7.1,1,10.7,1.7c5.1,0.9,10.2,1.7,15.4,2.2c2.6,0.2,5.2,0.2,7.7,0.3c1.5,0.1,3.1,0.1,4.6,0.1
			c0.3,0,0.7,0,1-0.2c0.8-0.5,1.6-0.8,2.5-0.9c2.6-0.2,5.1-0.9,7.6-1.4c1.9-0.3,3.8-0.6,5.6-0.9c2.3-0.3,4.6-0.6,6.8-1
			c2.3-0.5,4.6-1.2,6.8-2.1c1.9-0.8,4-1.4,6-1.8c0.9-0.2,1.7-0.2,2.6-0.3c0.5,0,1,0.2,1.5,0.3c0.1,0,0.2,0.3,0.3,0.4
			c-0.1,0.1-0.3,0.2-0.4,0.3c0,0-0.1,0-0.2,0c-3-0.4-5.8,0.4-8.5,1.4c-2.6,0.9-5.2,2-8,2.5c-2.5,0.4-5,0.7-7.6,1.1
			c-2.6,0.4-5.2,0.9-7.8,1.5c-1.5,0.3-3.1,0.7-4.7,0.6C279.3,210.9,279.1,210.9,279,210.9z"/>
		<path class="st0" d="M215.2,160.9c0.1-0.8,0.2-1.6,0.3-2.4c-0.6-0.1-1,0-1.4,0.4c-2.2,1.7-4.3,3.5-6.5,5.2c-1.1,0.9-2.1,1.9-3,3
			c0.4-0.2,0.9-0.3,1.3-0.5c0,0.1,0.1,0.1,0.1,0.2c-0.1,0.2-0.1,0.4-0.3,0.4c-0.7,0.5-1.4,0.9-2.1,1.3c-0.1,0.1-0.4,0.1-0.6,0.1
			c-0.5-0.1-0.6-0.5-0.3-0.9c0.2-0.2,0.4-0.3,0.6-0.5c2.1-1.9,4.1-3.8,6.3-5.6c1.7-1.5,3.6-3,5.3-4.4c0.3-0.3,0.7-0.6,1.1-0.3
			c0.5,0.3,0.7,0.7,0.5,1.3c-0.2,0.7-0.4,1.4-0.6,2.1c-0.1,0.2-0.3,0.4-0.5,0.7C215.4,160.9,215.3,160.9,215.2,160.9z"/>
		<path class="st0" d="M214.7,163.9c0.2,0.8-0.4,1.6-1.1,1.6c-0.2,0-0.5-0.1-0.6-0.3c-0.1-0.2,0-0.5,0.1-0.7
			c0.5-0.6,1.1-1.1,1.6-1.6c1-1,2.1-1.9,3.1-2.9c0.5-0.4,1-0.8,1.9-0.6c-0.2,0.3-0.4,0.6-0.6,0.8
			C217.5,161.2,216.1,162.6,214.7,163.9z"/>
		<path class="st0" d="M221.7,161.9c0.1,0.1,0.4,0.2,0.4,0.3c0,0.2-0.1,0.4-0.2,0.5c-0.3,0.1-0.7,0.2-0.9,0
			c-0.2-0.1-0.4-0.5-0.4-0.8c0-0.3,0.2-0.5,0.3-0.8c0.2-0.3,0.4-0.6,0.8-0.4c0.3,0.2,0.4,0.5,0.2,1
			C221.8,161.8,221.7,161.9,221.7,161.9z"/>
		<path class="st0" d="M228.4,161.5c-0.3,0.3-0.5,0.5-0.7,0.6c-0.2,0.1-0.6-0.4-0.5-0.8c0-0.2,0.4-0.5,0.4-0.4
			C227.9,161,228.1,161.2,228.4,161.5z"/>
		<path class="st0" d="M234.6,163.1c-0.4,0.2-0.5,0.3-0.7,0.3c-0.4,0-0.6-0.3-0.5-0.6c0-0.1,0.3-0.4,0.3-0.3
			C233.9,162.6,234.2,162.8,234.6,163.1z"/>
	</g>
</g>
<g>
	<path class="st1" d="M35.1,249.6v25.1c0,0.7-0.4,1.1-1.1,1.1H14.9c-0.7,0-1.1-0.4-1.1-1.1v-25.1c0-0.7,0.4-1.1,1.1-1.1H34
		C34.7,248.5,35.1,248.8,35.1,249.6z M16,259.8h16.8v-7H16V259.8z M16,271.7h16.8v-7.7H16V271.7z"/>
	<path class="st1" d="M58.9,257.4v-1H47.3c-0.3,0-0.5-0.2-0.7-0.6c-0.3-0.6-0.4-1.1-0.4-1.7c0-0.6,0.1-1.1,0.4-1.7
		c0.1-0.3,0.3-0.4,0.7-0.4h11.6v-4.4c0-0.7,0.4-1.1,1.1-1.1c0.7,0,1.1,0.4,1.1,1.1v4.4h11.3c0.4-0.1,0.6,0.1,0.8,0.6
		c0.2,0.5,0.3,1,0.3,1.5c0,0.6-0.1,1.1-0.3,1.5c-0.2,0.5-0.5,0.7-0.8,0.7H61.1v1c1.6,1.8,3.6,3.5,6.1,5c2.6,1.6,5.4,2.8,8.4,3.7
		c0.2,0.1,0.3,0.3,0.4,0.6c0.1,0.3,0.1,0.6,0.1,1.1c0,0.9-0.2,1.8-0.6,2.5c-0.4,0.8-0.8,1.2-1.2,1c-2.2-0.9-4.6-2.4-7-4.6
		c-2.3-1.9-4.4-4-6.2-6.2v6.2h5c0.4,0,0.6,0.2,0.8,0.7c0.2,0.4,0.3,0.8,0.3,1.4c0,0.6-0.1,1-0.3,1.4c-0.2,0.5-0.5,0.7-0.8,0.7h-5
		v5.1c0,0.7-0.4,1.1-1.1,1.1c-0.7,0-1.1-0.4-1.1-1.1v-5.1h-5.2c-0.4,0-0.6-0.2-0.8-0.7c-0.2-0.4-0.3-0.8-0.3-1.4
		c0-0.6,0.1-1,0.3-1.4c0.2-0.5,0.5-0.7,0.8-0.7h5.2v-6.1c-1.8,2.2-4,4.2-6.5,6.1c-2.6,2-5,3.5-7.2,4.4c-0.6,0.3-1,0-1.4-1
		c-0.4-0.8-0.6-1.7-0.6-2.6c0-0.5,0-0.8,0.1-1c0.1-0.2,0.2-0.3,0.4-0.4c2.9-0.9,5.6-2.1,8.3-3.6C55,260.9,57.3,259.2,58.9,257.4z"/>
	<path class="st1" d="M101.7,267c2.7,1.4,5.6,2.3,8.8,2.9c0.2,0,0.3,0.1,0.4,0.4c0.1,0.3,0.1,0.7,0.1,1.4c0,1-0.2,1.9-0.6,2.8
		c-0.4,0.9-0.7,1.3-1.1,1.2c-2.1-0.3-5-1.8-8.6-4.7c-2.5-2-4.7-4.4-6.6-7c-0.7,2.3-2,4.4-3.7,6.2c-2.5,2.6-5.8,4.5-10.1,5.7
		c-0.3,0.1-0.6-0.1-1-0.7c-0.3-0.7-0.4-1.6-0.4-2.6c-0.1-0.6,0-1,0.1-1.4c0.1-0.4,0.3-0.6,0.6-0.7c4.4-0.9,7.6-2.1,9.7-3.6
		c2.5-1.7,3.7-4.3,3.7-7.7h-11c-0.4,0-0.6-0.2-0.8-0.7c-0.2-0.5-0.3-1-0.3-1.5c0-0.6,0.1-1,0.3-1.4c0.2-0.5,0.5-0.7,0.8-0.7h11.2
		v-7.3c0-0.7,0.4-1.1,1.2-1c0.6,0.1,1,0.4,1,1v7.3h12.2c0.4-0.1,0.6,0.1,0.8,0.6c0.2,0.5,0.3,1,0.3,1.5c0,0.6-0.1,1.1-0.3,1.5
		c-0.2,0.5-0.5,0.7-0.8,0.7H95.3c0,0.7-0.1,1.6-0.3,2.6C96.7,263.7,98.9,265.5,101.7,267z"/>
	<path class="st1" d="M146.1,267c-0.2,0.4-0.5,0.6-0.8,0.6h-12.4c0.6,1.1,0.8,2.3,0.8,3.5c0,1.9-0.6,3.5-1.9,4.7
		c-1.3,1.2-3,1.8-5.2,1.8c-1.2,0-2.4-0.2-3.7-0.6c-0.5-0.1-0.7-0.6-0.7-1.7c0-0.6,0.1-1.3,0.4-1.9c0.3-0.5,0.6-0.6,1-0.6
		c1.3,0.4,2.5,0.6,3.6,0.6c2.7,0.1,4-0.8,4.1-2.6c0.1-1.1-0.1-2.2-0.7-3.2h-14.9c-0.4,0-0.6-0.2-0.8-0.7c-0.1-0.3-0.1-0.7-0.1-1.4
		c0.1-0.6,0.2-1,0.3-1.2c0.1-0.4,0.3-0.6,0.7-0.6H129c-0.2-0.4-0.5-0.7-1-1.1c-0.3-0.2-0.7-0.5-1.2-1c-0.3-0.2-0.4-0.5-0.4-0.8
		c-0.1-0.4,0-0.6,0.3-0.8c0.3-0.2,0.6-0.3,0.8-0.3c0.3-0.1,0.5,0,0.6,0.1c0.8,0.6,1.5,1.3,2.1,1.9c0.6-0.4,1.1-0.7,1.7-1
		c0.6-0.3,1-0.6,1.4-1.1c0.1-0.1,0.1-0.2,0.1-0.3c0-0.1-0.1-0.2-0.3-0.3h-9.8c-0.4,0.1-0.6,0-0.8-0.4c-0.2-0.3-0.3-0.6-0.3-1.1
		c0-0.4,0.1-0.7,0.3-1.1c0.1-0.3,0.3-0.4,0.7-0.4h12.6c1.1,0,1.7,0.5,1.7,1.4c0,0.4-0.1,0.8-0.3,1.2c-0.3,0.6-0.6,1.2-1,1.5
		c-0.5,0.5-1.1,1-1.9,1.5c-0.6,0.4-1.5,0.9-2.8,1.5l0.6,0.4h13.4c0.4,0,0.6,0.2,0.8,0.6c0.2,0.5,0.3,0.9,0.3,1.4
		C146.4,266.2,146.3,266.7,146.1,267z M131.5,250.9h5c0.1-0.3,0.2-0.5,0.3-0.6l2.6-3.5c0.2-0.3,0.5-0.4,0.8-0.4
		c0.3,0,0.6,0.1,0.8,0.3c0.3,0.2,0.4,0.4,0.3,0.7c0,0.3-0.1,0.5-0.3,0.7l-2.1,2.8h4.7c0.7,0,1.1,0.4,1.1,1.1v5.5
		c0,0.7-0.4,1.1-1.2,1c-0.6-0.1-1-0.4-1-1v-2.9h-23.9v2.9c0,0.6-0.4,1-1.1,1c-0.7,0.1-1.1-0.2-1.1-1V252c0-0.7,0.3-1.1,1-1.1h4.3
		l-1.9-2.8c-0.2-0.3-0.3-0.5-0.3-0.7c0-0.3,0.1-0.5,0.4-0.7c0.3-0.2,0.6-0.3,0.8-0.3c0.3,0,0.6,0.1,0.8,0.4l2.3,3.5
		c0.2,0.1,0.3,0.3,0.3,0.6h5.1v-4c0-0.7,0.4-1.1,1.1-1.1c0.7,0,1.1,0.4,1.1,1.1V250.9z"/>
	<path class="st1" d="M152.8,251.4h12v-3.9c0-0.7,0.3-1.1,1-1c0.6,0.1,1,0.4,1,1v3.9h12.6c0.3,0,0.5,0.2,0.7,0.6
		c0.2,0.5,0.3,1,0.3,1.5c0.1,0.6,0,1.2-0.1,1.5c-0.2,0.4-0.5,0.6-0.8,0.6h-5.9c-0.5,2.1-1.2,4.1-2.1,6.1c-1,2-2.3,3.9-3.7,5.7
		c1.4,1.2,3.2,2.1,5.4,2.8c2.1,0.6,4.7,1.1,7.7,1.4c0.2,0,0.4,0.2,0.6,0.6c0.2,0.5,0.3,1,0.3,1.5c0,1.1-0.1,1.9-0.4,2.5
		c-0.3,0.6-0.6,0.9-1,0.8c-2.9-0.7-5.5-1.8-7.7-3c-2.4-1.4-4.5-3-6.4-4.8c-1.8,1.8-4,3.3-6.5,4.7c-2.8,1.6-5.3,2.6-7.6,3
		c-0.6,0.2-1.2-0.2-1.5-1.2c-0.4-0.9-0.6-1.8-0.6-2.8c0-0.8,0.2-1.2,0.6-1.2c1.9,0,4.3-0.3,7-1c2.8-0.6,5.1-1.7,7-3.2
		c-1.7-2.1-2.9-4.1-3.9-5.8c-0.9-1.7-1.6-3.7-2.1-5.9h-5.8c-0.3,0.1-0.6-0.1-0.8-0.6c-0.2-0.5-0.3-1-0.3-1.5c0-0.6,0.1-1.2,0.3-1.5
		C152.2,251.4,152.5,251.3,152.8,251.4z M169.3,260.9c0.8-1.6,1.4-3.4,1.8-5.4h-10.5c0.4,1.8,1,3.5,1.8,5.1c0.8,1.7,2,3.4,3.6,5.1
		C167.5,264,168.6,262.4,169.3,260.9z"/>
	<path class="st1" d="M189.9,257.4v-4h-3.7c-0.4-0.1-0.6-0.3-0.8-0.7c-0.2-0.4-0.3-0.8-0.3-1.4c0-0.5,0.1-0.9,0.3-1.4
		c0.2-0.4,0.5-0.6,0.8-0.7h9.3c0.3,0,0.5,0.2,0.7,0.7c0.2,0.4,0.3,0.8,0.3,1.4c0.1,0.6,0,1-0.1,1.4c-0.2,0.5-0.5,0.7-0.8,0.7h-3.6v4
		h3.2c0.3,0.1,0.5,0.3,0.7,0.6c0.3,0.5,0.4,1,0.3,1.5c-0.1,0.6-0.1,1-0.1,1.1c-0.2,0.5-0.5,0.7-0.8,0.7h-3.2v4.4l3.5-0.4
		c0.4-0.1,0.6,0,0.8,0.4c0.3,0.5,0.4,1.1,0.4,1.9c0,0.6-0.1,0.9-0.3,1.1c-0.1,0.5-0.3,0.7-0.6,0.7l-9.8,1.2c-0.5,0.1-0.8-0.1-1-0.6
		c-0.3-0.6-0.4-1.2-0.4-1.8c0.1-0.4,0.2-0.7,0.3-1.1c0.2-0.4,0.4-0.6,0.7-0.6l4.4-0.7v-4.7h-3.3c-0.4,0-0.6-0.2-0.8-0.6
		c-0.2-0.4-0.3-0.8-0.3-1.4c0-0.6,0.1-1,0.3-1.4c0.2-0.4,0.5-0.6,0.8-0.6H189.9z M214.9,270.3h-7.3v1.9h9.4c0.3,0,0.5,0.2,0.7,0.6
		c0.3,0.6,0.4,1.1,0.4,1.7c0,0.6-0.1,1.1-0.3,1.5c-0.2,0.4-0.5,0.6-0.8,0.6h-21.4c-0.4,0-0.6-0.2-0.8-0.7c-0.2-0.4-0.3-0.8-0.3-1.4
		c0-0.6,0.1-1,0.3-1.4c0.3-0.6,0.6-0.8,0.8-0.8h9.8v-1.9h-7.3c-0.3,0-0.5-0.1-0.7-0.4c-0.2-0.3-0.3-0.8-0.3-1.7
		c0.1-0.6,0.2-1.1,0.3-1.5c0.1-0.3,0.3-0.4,0.7-0.4h7.3v-1.8h-6.5c-0.7,0-1.1-0.4-1.1-1.1v-14.1c0-0.7,0.4-1.1,1.1-1.1h15.2
		c0.7,0,1.1,0.4,1.1,1.1v14.1c0,0.7-0.4,1.1-1.1,1.1h-6.5v1.8h7.3c0.4,0,0.6,0.2,0.8,0.7c0.2,0.4,0.3,0.8,0.3,1.4
		c0,0.6-0.1,1-0.3,1.4C215.5,270.1,215.3,270.3,214.9,270.3z M200,254.4h5.4v-1.9H200V254.4z M200,260.2h5.4v-1.9H200V260.2z
		 M213,252.5h-5.4v1.9h5.4V252.5z M213,258.3h-5.4v1.9h5.4V258.3z"/>
	<path class="st1" d="M252.2,267c-0.2,0.4-0.5,0.6-0.8,0.6h-12.4c0.6,1.1,0.8,2.3,0.8,3.5c0,1.9-0.6,3.5-1.9,4.7
		c-1.3,1.2-3,1.8-5.2,1.8c-1.2,0-2.4-0.2-3.7-0.6c-0.5-0.1-0.7-0.6-0.7-1.7c0-0.6,0.1-1.3,0.4-1.9c0.3-0.5,0.6-0.6,1-0.6
		c1.3,0.4,2.5,0.6,3.6,0.6c2.7,0.1,4.1-0.8,4.1-2.6c0.1-1.1-0.1-2.2-0.7-3.2h-14.9c-0.4,0-0.6-0.2-0.8-0.7c-0.1-0.3-0.1-0.7-0.1-1.4
		c0.1-0.6,0.2-1,0.3-1.2c0.1-0.4,0.3-0.6,0.7-0.6h13.4c-0.2-0.4-0.5-0.7-1-1.1c-0.3-0.2-0.7-0.5-1.2-1c-0.3-0.2-0.4-0.5-0.4-0.8
		c-0.1-0.4,0-0.6,0.3-0.8c0.3-0.2,0.6-0.3,0.8-0.3c0.3-0.1,0.5,0,0.6,0.1c0.8,0.6,1.5,1.3,2.1,1.9c0.6-0.4,1.1-0.7,1.7-1
		c0.6-0.3,1-0.6,1.4-1.1c0.1-0.1,0.1-0.2,0.1-0.3c0-0.1-0.1-0.2-0.3-0.3h-9.8c-0.4,0.1-0.6,0-0.8-0.4c-0.2-0.3-0.3-0.6-0.3-1.1
		c0-0.4,0.1-0.7,0.3-1.1c0.1-0.3,0.3-0.4,0.7-0.4h12.6c1.1,0,1.7,0.5,1.7,1.4c0,0.4-0.1,0.8-0.3,1.2c-0.3,0.6-0.6,1.2-1,1.5
		c-0.5,0.5-1.1,1-1.9,1.5c-0.6,0.4-1.5,0.9-2.8,1.5l0.6,0.4h13.4c0.4,0,0.6,0.2,0.8,0.6c0.2,0.5,0.3,0.9,0.3,1.4
		C252.5,266.2,252.4,266.7,252.2,267z M237.5,250.9h5c0.1-0.3,0.2-0.5,0.3-0.6l2.6-3.5c0.2-0.3,0.5-0.4,0.8-0.4
		c0.3,0,0.6,0.1,0.8,0.3c0.3,0.2,0.4,0.4,0.3,0.7c0,0.3-0.1,0.5-0.3,0.7l-2.1,2.8h4.7c0.7,0,1.1,0.4,1.1,1.1v5.5
		c0,0.7-0.4,1.1-1.2,1c-0.6-0.1-1-0.4-1-1v-2.9h-23.9v2.9c0,0.6-0.4,1-1.1,1c-0.7,0.1-1.1-0.2-1.1-1V252c0-0.7,0.3-1.1,1-1.1h4.3
		l-1.9-2.8c-0.2-0.3-0.3-0.5-0.3-0.7c0-0.3,0.1-0.5,0.4-0.7c0.3-0.2,0.6-0.3,0.8-0.3c0.3,0,0.6,0.1,0.8,0.4l2.3,3.5
		c0.2,0.1,0.3,0.3,0.3,0.6h5.1v-4c0-0.7,0.4-1.1,1.1-1.1c0.7,0,1.1,0.4,1.1,1.1V250.9z"/>
	<path class="st1" d="M274.4,262.1c-0.1,0.4-0.3,0.6-0.7,0.6h-17c-0.4,0-0.6-0.2-0.8-0.6c-0.2-0.4-0.3-0.8-0.3-1.4
		c0-0.6,0.1-1.1,0.3-1.5c0.2-0.4,0.5-0.6,0.8-0.6h4.1l-1.4-4H258c-0.3-0.1-0.5-0.3-0.7-0.7c-0.2-0.4-0.3-0.8-0.3-1.4
		c0-0.6,0.1-1,0.3-1.4c0.2-0.4,0.4-0.6,0.7-0.6h6.2v-2.3c0-0.7,0.4-1.1,1.2-1c0.6,0.1,1,0.4,1,1v2.3h6.4c0.3,0,0.5,0.1,0.7,0.4
		c0.3,0.6,0.4,1.1,0.4,1.5c0,0.6-0.1,1.2-0.3,1.5c-0.2,0.4-0.5,0.6-0.8,0.6h-1.7l-1.4,4h4c0.3-0.1,0.5,0.1,0.7,0.6
		c0.2,0.5,0.3,1,0.3,1.5C274.7,261.4,274.6,261.8,274.4,262.1z M271.9,265.7v9.3c0,0.7-0.4,1.1-1.1,1.1h-11.2
		c-0.7,0-1.1-0.4-1.1-1.1v-9.4c0-0.7,0.4-1.1,1.1-1.1h11c0.3,0,0.6,0.1,0.8,0.4C271.7,265.1,271.8,265.3,271.9,265.7z M260.7,271.9
		h9v-3.5h-9V271.9z M267.4,258.7l1.5-4h-7l1.2,4H267.4z M275.5,276.1v-23.5H275c-0.3,0-0.5-0.2-0.7-0.7c-0.2-0.5-0.3-1-0.3-1.5
		c0-0.6,0.1-1,0.3-1.4c0.1-0.5,0.3-0.7,0.7-0.7h9c0.7,0,1.4,0.2,1.9,0.6c0.6,0.5,1,1.1,1,1.9c0,0.5-0.1,1.1-0.4,1.8
		c-0.6,1.4-1.2,2.7-2.1,3.9c0.9,1.1,1.6,2.2,2.1,3.3c0.5,1.3,0.7,2.5,0.7,3.6c0,1.8-0.5,3.4-1.5,4.7c-0.6,0.8-1.4,1.4-2.3,1.8
		c-0.9,0.5-2,0.7-3.2,0.7c-0.4,0-0.8,0-1.4-0.1c-0.5-0.1-0.9-0.2-1.2-0.3v5.9c0,0.7-0.4,1.1-1.1,1.1
		C275.7,277.2,275.4,276.8,275.5,276.1z M284.1,252.6h-6.6v13.1c0.9,0.3,1.7,0.4,2.3,0.4c1.5,0,2.6-0.4,3.5-1.2
		c0.8-0.8,1.2-1.8,1.2-2.9c0-0.7-0.1-1.4-0.3-2.1c-0.3-0.6-0.6-1.1-1.1-1.7l-1.1,1.5c-0.3,0.4-0.6,0.6-0.8,0.6
		c-0.4-0.1-0.6-0.2-0.8-0.4c-0.2-0.2-0.3-0.4-0.3-0.7c0-0.3,0.1-0.6,0.4-1c0.8-0.9,1.5-1.8,1.9-2.6
		C283.2,254.4,283.7,253.4,284.1,252.6z"/>
	<path class="st1" d="M320.3,256.3c0,0.6-0.1,1-0.3,1.2l1.7-0.4v-4.4c0-0.7,0.4-1.1,1.2-1c0.6,0,1,0.3,1,1v3.9l5.1-1.2v-7
		c-0.1-0.6,0.2-1,0.8-1c0.7,0,1.1,0.3,1.1,1v6.6l4.3-1c0.8-0.2,1.4-0.3,1.8-0.3c0.6,0,1.2,0.2,1.7,0.7c0.4,0.4,0.6,0.9,0.6,1.5
		c0,1.7-0.4,3.6-1.1,5.9c-0.6,1.8-1.2,3.2-1.8,4c-0.3,0.4-0.6,0.6-0.8,0.6c-0.4,0-0.8-0.3-1.2-1c-0.7-1-1.1-1.7-1.1-2.1
		c0.1-0.4,0.2-0.6,0.4-0.8c0.8-0.6,1.5-1.2,2.1-2.1c0.6-0.8,1-1.7,1.2-2.6c-0.4,0.1-1.4,0.3-3.2,0.7c-1.2,0.3-2.1,0.5-2.8,0.6v8.6
		c0,0.7-0.4,1.1-1.1,1.1c-0.6,0-0.8-0.4-0.8-1.1v-8c-1.8,0.5-3.5,0.9-5.1,1.2v7.7c0,0.5,0.1,0.9,0.4,1.2c0.4,0.4,0.8,0.6,1.2,0.8
		c0.6,0.3,1.5,0.5,2.8,0.7c1.2,0.2,2.6,0.3,4.1,0.3c1.6,0.1,3,0,4.3-0.1c1.3-0.2,2.3-0.5,3.2-0.8c0.3-0.1,0.6,0.1,0.8,0.7
		c0.2,0.5,0.3,1,0.3,1.5c-0.1,0.6-0.2,1-0.3,1.4c-0.1,0.4-0.3,0.6-0.6,0.7c-0.7,0.4-1.7,0.6-2.9,0.8c-1.2,0.2-2.5,0.3-3.9,0.3
		c-1.7,0-3.2-0.1-4.7-0.3c-1.5-0.3-2.8-0.6-4-1.1c-2-0.7-3-2.4-3-5.1v-8.3c-0.5,0.2-0.9,0.3-1.2,0.4c-0.5,0.1-0.8,0.1-1,0.1
		c-0.4,0.1-0.7-0.1-1-0.6c-0.3-0.5-0.4-1-0.4-1.7c0-0.5,0.1-0.9,0.3-1.2h-2.5v7.9l3.5-0.7c0.4,0,0.7,0.2,1,0.7
		c0.3,0.5,0.4,1.1,0.3,1.8c0,0.6,0,0.9-0.1,1.1c-0.2,0.4-0.4,0.5-0.7,0.4l-9.3,1.8c-0.3,0-0.6-0.2-1-0.7c-0.3-0.6-0.4-1.1-0.4-1.8
		c0.1-0.5,0.2-0.8,0.3-1.1c0.1-0.3,0.3-0.4,0.6-0.4l4-0.7v-8.3h-3.7c-0.3,0-0.5-0.2-0.7-0.6c-0.2-0.5-0.3-1-0.3-1.5
		c0-0.6,0-1,0.1-1.2c0.2-0.5,0.5-0.7,0.8-0.7h3.7v-5.5c0-0.7,0.3-1.1,0.8-1.1c0.7,0,1.1,0.4,1.1,1.1v5.5h3.3c0.4,0,0.6,0.2,0.8,0.6
		C320.2,255.3,320.3,255.8,320.3,256.3z"/>
	<path class="st1" d="M354.8,257.7c0.2,0.3,0.3,0.6,0.3,1.1c0.3-0.3,0.6-0.6,1.1-1c0.5-0.3,0.9-0.4,1.2-0.4c0.3,0,0.5,0.1,0.7,0.3
		l2.9,4.1c0.1,0.2,0.1,0.3,0.1,0.4c0,0.4-0.3,0.8-0.8,1.2c-0.6,0.5-1.1,0.7-1.7,0.7c-0.3-0.1-0.5-0.2-0.7-0.4l-2.9-4
		c0,0.5-0.1,0.8-0.3,1.1c-0.2,0.2-0.4,0.3-0.7,0.3h-3.2v4.4l3.5-0.8c0.4-0.1,0.7,0,1,0.4c0.2,0.5,0.3,1,0.3,1.7c0,0.5,0,0.9-0.1,1.2
		c-0.2,0.3-0.4,0.5-0.7,0.6l-9.9,2.8c-0.4,0.1-0.6-0.1-0.8-0.6c-0.2-0.5-0.3-1.1-0.4-1.9c0-0.5,0.1-0.8,0.3-1.1
		c0.2-0.4,0.4-0.6,0.7-0.6l4.4-1.2v-4.8h-3.3c-0.4,0-0.6-0.2-0.8-0.6c-0.2-0.4-0.3-0.9-0.3-1.5c0-0.4,0.1-0.7,0.3-1.1
		c0.2-0.5,0.5-0.7,0.8-0.7h3.3v-4h-3.7c-0.4,0-0.6-0.2-0.8-0.6c-0.2-0.4-0.3-0.8-0.3-1.4c0-0.6,0.1-1.1,0.3-1.5
		c0.2-0.4,0.5-0.6,0.8-0.6h9.3c0.4,0,0.6,0.2,0.8,0.6c0.2,0.4,0.3,0.8,0.3,1.4h6.6v-3.6c0-0.7,0.3-1.1,1-1.1c0.6,0,1,0.4,1,1.1v3.6
		h3.3c0-0.1,0-0.2,0.1-0.4l2.1-3.3c0.2-0.3,0.5-0.4,0.8-0.4c0.3,0.1,0.6,0.2,0.8,0.3c0.2,0.2,0.3,0.4,0.3,0.7c0,0.2,0,0.4-0.1,0.6
		l-1.7,2.6h3c0.3,0,0.5,0.2,0.7,0.6c0.3,0.6,0.4,1.1,0.4,1.5c0,0.6-0.1,1.2-0.3,1.5c-0.2,0.4-0.5,0.6-0.8,0.6h-8.7v3.9
		c0.4,0.4,0.7,0.7,1,1.1c0.4,0.6,0.7,1,1,1.4c1-0.7,1.8-1.4,2.5-1.9c0.9-0.9,1.7-1.7,2.2-2.2c0.3-0.3,0.5-0.4,0.7-0.4
		c0.5,0,0.9,0.2,1.2,0.6c0.6,0.6,1,1.1,1,1.5c0.1,0.3,0,0.5-0.3,0.7c-0.8,0.9-1.8,1.8-2.8,2.6c-0.7,0.6-1.5,1.3-2.2,2.1
		c0.8,0.9,2,1.8,3.5,2.8c1.3,0.7,2.6,1.4,3.9,1.9c0.5,0.2,0.7,0.6,0.7,1.2c0.1,0.8-0.1,1.7-0.7,2.6c-0.5,0.8-0.9,1.2-1.2,1.1
		c-0.9-0.3-2.6-1.7-5.1-4.3c-2.1-2.3-3.9-4.6-5.2-6.8v12.4c0,0.6-0.3,1-0.8,1c-0.7,0.1-1.1-0.2-1.1-1v-7.9c-1.5,1.5-3,2.8-4.6,4
		c-1.5,1.1-2.9,1.9-4.1,2.5c-0.5,0.2-0.9-0.1-1.2-0.8c-0.4-0.7-0.6-1.5-0.6-2.3c0-1,0.2-1.6,0.7-1.7c1.7-0.3,3.5-0.8,5.1-1.5
		c2.1-0.8,3.7-1.7,4.7-2.8v-9.8h-6.9c-0.3-0.1-0.5-0.3-0.7-0.7c-0.1-0.4-0.2-0.8-0.3-1.4h-3.5v4h3.2
		C354.4,257.3,354.6,257.4,354.8,257.7z"/>
	<path class="st1" d="M386.3,255.5V252c-1,0.5-2.1,0.8-3.3,1.1c-0.6,0.2-1.1,0-1.4-0.6c-0.3-0.6-0.4-1.3-0.3-2.1c0-0.5,0-0.8,0.1-1
		c0.1-0.3,0.3-0.4,0.6-0.4c0.7,0,2.3-0.1,4.8-0.4c1.7-0.2,3-0.5,4.1-1c0.2-0.1,0.4-0.1,0.6-0.1c0.6,0.1,0.8,0.4,0.8,1
		c0,0.4-0.1,0.6-0.4,0.8c-0.3,0.3-0.8,0.6-1.5,1c-0.4,0.2-1.1,0.5-2.2,1v4.1h3.5c0.3,0,0.5,0.2,0.7,0.6c0.3,0.6,0.4,1.1,0.4,1.5
		c0.1,0.6,0,1-0.3,1.4c-0.2,0.4-0.5,0.6-0.8,0.6h-3.5v0.8l4,2.8c0.3,0.3,0.4,0.6,0.4,1.1c0,0.5-0.1,1-0.4,1.5
		c-0.3,0.6-0.6,0.8-1,0.8c-0.1,0-0.2,0-0.4-0.1l-2.6-1.9v11.6c0,0.7-0.4,1.1-1.1,1.1c-0.6,0-0.8-0.4-0.8-1.1v-11.7
		c-0.6,1.1-1.3,2.1-2.1,2.9c-0.9,1.1-1.9,2-2.9,2.6c-0.4,0.2-0.7-0.1-1.1-1c-0.4-0.6-0.6-1.3-0.6-2.1c0-0.8,0.1-1.3,0.4-1.5
		c1.1-0.6,2.1-1.2,3-1.9c1.5-1.1,2.5-2.2,3.2-3.2v-0.7h-4.1c-0.4,0-0.6-0.2-0.8-0.6c-0.2-0.4-0.3-0.8-0.3-1.4c0-0.6,0.1-1.1,0.3-1.5
		c0.2-0.4,0.5-0.6,0.8-0.6H386.3z M392.6,265.7c0.2-0.4,0.5-0.6,0.8-0.6h11.6v-16.3c0-0.7,0.3-1.1,1-1c0.6,0.1,1,0.4,1,1v16.3h4.1
		c0.4-0.1,0.6,0.1,0.8,0.6c0.2,0.5,0.3,1,0.3,1.5c0,0.6-0.1,1.2-0.3,1.5c-0.2,0.4-0.5,0.6-0.8,0.6H407v6.8c0,0.7-0.4,1.1-1.1,1.1
		c-0.6,0-0.8-0.4-0.8-1.1v-6.8h-11.6c-0.4-0.1-0.6-0.3-0.8-0.7c-0.2-0.4-0.3-0.9-0.3-1.5C392.4,266.5,392.4,266.1,392.6,265.7z
		 M395.9,255.5l6.9,2.9c0.4,0.2,0.6,0.5,0.6,1c0,0.6-0.2,1.3-0.7,1.9c-0.5,0.7-0.9,1-1.4,0.8l-6.9-2.9c-0.4-0.2-0.6-0.5-0.6-1
		c0-0.6,0.3-1.3,0.8-2.1C395.2,255.6,395.6,255.4,395.9,255.5z M396.4,248.5l6.9,2.9c0.4,0.2,0.6,0.5,0.6,1c0,0.6-0.2,1.3-0.7,1.9
		c-0.5,0.6-1,0.9-1.5,0.7l-6.8-2.8c-0.4-0.2-0.6-0.5-0.6-1c0-0.7,0.2-1.4,0.7-2.1C395.4,248.5,395.9,248.3,396.4,248.5z"/>
	<path class="st1" d="M446.6,267c-0.2,0.4-0.5,0.6-0.8,0.6h-12.4c0.6,1.1,0.8,2.3,0.8,3.5c0,1.9-0.6,3.5-1.9,4.7
		c-1.3,1.2-3,1.8-5.2,1.8c-1.2,0-2.4-0.2-3.7-0.6c-0.5-0.1-0.7-0.6-0.7-1.7c0-0.6,0.1-1.3,0.4-1.9c0.3-0.5,0.6-0.6,1-0.6
		c1.3,0.4,2.5,0.6,3.6,0.6c2.7,0.1,4-0.8,4.1-2.6c0.1-1.1-0.1-2.2-0.7-3.2h-14.9c-0.4,0-0.6-0.2-0.8-0.7c-0.1-0.3-0.1-0.7-0.1-1.4
		c0.1-0.6,0.2-1,0.3-1.2c0.1-0.4,0.3-0.6,0.7-0.6h13.4c-0.2-0.4-0.5-0.7-1-1.1c-0.3-0.2-0.7-0.5-1.2-1c-0.3-0.2-0.4-0.5-0.4-0.8
		c-0.1-0.4,0-0.6,0.3-0.8c0.3-0.2,0.6-0.3,0.8-0.3c0.3-0.1,0.5,0,0.6,0.1c0.8,0.6,1.5,1.3,2.1,1.9c0.6-0.4,1.1-0.7,1.7-1
		c0.6-0.3,1-0.6,1.4-1.1c0.1-0.1,0.1-0.2,0.1-0.3c0-0.1-0.1-0.2-0.3-0.3h-9.8c-0.4,0.1-0.6,0-0.8-0.4c-0.2-0.3-0.3-0.6-0.3-1.1
		c0-0.4,0.1-0.7,0.3-1.1c0.1-0.3,0.3-0.4,0.7-0.4h12.6c1.1,0,1.7,0.5,1.7,1.4c0,0.4-0.1,0.8-0.3,1.2c-0.3,0.6-0.6,1.2-1,1.5
		c-0.5,0.5-1.1,1-1.9,1.5c-0.6,0.4-1.5,0.9-2.8,1.5l0.6,0.4h13.4c0.4,0,0.6,0.2,0.8,0.6c0.2,0.5,0.3,0.9,0.3,1.4
		C446.9,266.2,446.8,266.7,446.6,267z M432,250.9h5c0.1-0.3,0.2-0.5,0.3-0.6l2.6-3.5c0.2-0.3,0.5-0.4,0.8-0.4c0.3,0,0.6,0.1,0.8,0.3
		c0.3,0.2,0.4,0.4,0.3,0.7c0,0.3-0.1,0.5-0.3,0.7l-2.1,2.8h4.7c0.7,0,1.1,0.4,1.1,1.1v5.5c0,0.7-0.4,1.1-1.2,1c-0.6-0.1-1-0.4-1-1
		v-2.9h-23.9v2.9c0,0.6-0.4,1-1.1,1c-0.7,0.1-1.1-0.2-1.1-1V252c0-0.7,0.3-1.1,1-1.1h4.3l-1.9-2.8c-0.2-0.3-0.3-0.5-0.3-0.7
		c0-0.3,0.1-0.5,0.4-0.7c0.3-0.2,0.6-0.3,0.8-0.3c0.3,0,0.6,0.1,0.8,0.4l2.3,3.5c0.2,0.1,0.3,0.3,0.3,0.6h5.1v-4
		c0-0.7,0.4-1.1,1.1-1.1c0.7,0,1.1,0.4,1.1,1.1V250.9z"/>
	<path class="st1" d="M457,255.5V252c-1,0.5-2.1,0.8-3.3,1.1c-0.6,0.2-1.1,0-1.4-0.6c-0.3-0.6-0.4-1.3-0.3-2.1c0-0.5,0-0.8,0.1-1
		c0.1-0.3,0.3-0.4,0.6-0.4c0.7,0,2.3-0.1,4.8-0.4c1.7-0.2,3-0.5,4.1-1c0.2-0.1,0.4-0.1,0.6-0.1c0.6,0.1,0.8,0.4,0.8,1
		c0,0.4-0.1,0.6-0.4,0.8c-0.3,0.3-0.8,0.6-1.5,1c-0.4,0.2-1.1,0.5-2.2,1v4.1h3.5c0.3,0,0.5,0.2,0.7,0.6c0.3,0.6,0.4,1.1,0.4,1.5
		c0.1,0.6,0,1-0.3,1.4c-0.2,0.4-0.5,0.6-0.8,0.6h-3.5v0.8l4,2.8c0.3,0.3,0.4,0.6,0.4,1.1c0,0.5-0.1,1-0.4,1.5
		c-0.3,0.6-0.6,0.8-1,0.8c-0.1,0-0.2,0-0.4-0.1l-2.6-1.9v11.6c0,0.7-0.4,1.1-1.1,1.1c-0.6,0-0.8-0.4-0.8-1.1v-11.7
		c-0.6,1.1-1.3,2.1-2.1,2.9c-0.9,1.1-1.9,2-2.9,2.6c-0.4,0.2-0.7-0.1-1.1-1c-0.4-0.6-0.6-1.3-0.6-2.1c0-0.8,0.1-1.3,0.4-1.5
		c1.1-0.6,2.1-1.2,3-1.9c1.5-1.1,2.5-2.2,3.2-3.2v-0.7h-4.1c-0.4,0-0.6-0.2-0.8-0.6c-0.2-0.4-0.3-0.8-0.3-1.4c0-0.6,0.1-1.1,0.3-1.5
		c0.2-0.4,0.5-0.6,0.8-0.6H457z M463.3,265.7c0.2-0.4,0.5-0.6,0.8-0.6h11.6v-16.3c0-0.7,0.3-1.1,1-1c0.6,0.1,1,0.4,1,1v16.3h4.1
		c0.4-0.1,0.6,0.1,0.8,0.6c0.2,0.5,0.3,1,0.3,1.5c0,0.6-0.1,1.2-0.3,1.5c-0.2,0.4-0.5,0.6-0.8,0.6h-4.1v6.8c0,0.7-0.4,1.1-1.1,1.1
		c-0.6,0-0.8-0.4-0.8-1.1v-6.8h-11.6c-0.4-0.1-0.6-0.3-0.8-0.7c-0.2-0.4-0.3-0.9-0.3-1.5C463.1,266.5,463.1,266.1,463.3,265.7z
		 M466.6,255.5l6.9,2.9c0.4,0.2,0.6,0.5,0.6,1c0,0.6-0.2,1.3-0.7,1.9c-0.5,0.7-0.9,1-1.4,0.8l-6.9-2.9c-0.4-0.2-0.6-0.5-0.6-1
		c0-0.6,0.3-1.3,0.8-2.1C465.9,255.6,466.3,255.4,466.6,255.5z M467.1,248.5l6.9,2.9c0.4,0.2,0.6,0.5,0.6,1c0,0.6-0.2,1.3-0.7,1.9
		c-0.5,0.6-1,0.9-1.5,0.7l-6.8-2.8c-0.4-0.2-0.6-0.5-0.6-1c0-0.7,0.2-1.4,0.7-2.1C466.1,248.5,466.6,248.3,467.1,248.5z"/>
	<path class="st1" d="M22.1,314.2c2.3,1.2,5,2.3,8.1,3.2c0.5,0.1,0.7,0.5,0.7,1.2c0,0.9-0.2,1.8-0.7,2.8c-0.4,0.8-0.7,1.2-1.1,1.2
		c-1.6-0.2-4.1-1.6-7.7-4.3c-2.9-2.3-5.2-4.7-6.6-7.3c-1.2,2.8-2.9,5.1-5,6.9c-2.1,1.8-4.9,3.3-8.3,4.4c-0.4,0.1-0.7-0.1-1-0.7
		c-0.5-1.1-0.6-2.2-0.6-3.2c0.1-0.4,0.1-0.6,0.1-0.8c0.1-0.4,0.2-0.6,0.4-0.6c4.2-0.8,7.5-2.2,9.7-4.1c2.6-2.1,3.9-5,3.9-8.7v-10.4
		c0-0.7,0.4-1.1,1.1-1.1c0.7,0,1.1,0.4,1.1,1.1v10.5c0,1.5-0.2,2.9-0.6,4.3C17.1,310.8,19.3,312.6,22.1,314.2z M7.3,301.6
		c0.6,1.6,1.1,2.9,1.5,4c0.2,0.6,0,1-0.7,1.4c-0.6,0.4-1.3,0.6-1.9,0.6c-0.6,0-0.9-0.2-1-0.6c-0.2-0.6-0.6-1.7-1.2-3.3
		c-0.6-1.7-1.2-3-1.8-4.1c-0.1-0.2-0.1-0.3-0.1-0.4c0-0.5,0.3-0.9,0.8-1.2c0.6-0.4,1.3-0.6,1.9-0.6c0.3,0,0.5,0.1,0.7,0.4
		C6,298.5,6.6,299.8,7.3,301.6z M27.5,299.2c0.1,0.2,0.1,0.3,0,0.4c-0.5,1.1-1,2.4-1.7,3.9c-0.6,1.6-1.1,2.7-1.4,3.5
		c-0.2,0.5-0.5,0.7-1,0.7c-0.6,0-1.2-0.2-1.8-0.6c-0.6-0.5-0.9-0.9-0.8-1.4c0.3-0.9,0.7-2.2,1.4-3.7c0.9-2.3,1.5-3.7,1.8-4.1
		c0.2-0.3,0.5-0.4,1-0.4c0.6,0,1.2,0.2,1.8,0.7C27.3,298.4,27.5,298.8,27.5,299.2z"/>
	<path class="st1" d="M39.9,317.4H49v-21.7c0-0.7,0.4-1.1,1.2-1c0.6,0.1,1,0.4,1,1v21.7h9.8v-14.2c0-0.7,0.4-1.1,1.1-1.1
		c0.7,0,1.1,0.4,1.1,1.1v17.4c0,0.7-0.4,1.1-1.1,1.1H38.8c-0.7,0-1.1-0.4-1.1-1.1v-17.4c0-0.7,0.4-1.1,1.1-1.1
		c0.7,0,1.1,0.4,1.1,1.1V317.4z"/>
	<path class="st1" d="M88,305.1c0.8,0.7,1.2,1.6,1.2,2.6c0,0.8-0.3,1.6-1,2.3c-0.6,0.7-1.5,1.1-2.5,1.1c-1,0-1.8-0.3-2.5-1
		c-0.7-0.7-1.1-1.7-1-2.8c0.1-0.8,0.4-1.6,1-2.2c0.7-0.6,1.6-1,2.5-1C86.6,304.3,87.3,304.5,88,305.1z"/>
	<path class="st1" d="M116,321.5V312c-1.3,1.1-2.8,2.1-4.4,3c-1.7,0.9-3.2,1.6-4.7,1.9c-0.4,0.1-0.7-0.3-1.1-1.1
		c-0.4-0.8-0.6-1.7-0.6-2.5c0-0.9,0.2-1.4,0.7-1.4c2.2,0,4.3-0.4,6.4-1.2c2.3-0.9,4-2,5-3.3h-8.6c-0.4,0-0.6-0.2-0.8-0.7
		c-0.2-0.5-0.3-1-0.3-1.5c0-0.6,0.1-1,0.3-1.4c0.2-0.5,0.5-0.7,0.8-0.7h28.2c0.4,0,0.6,0.2,0.8,0.7c0.2,0.4,0.3,0.8,0.3,1.4
		c0,0.6-0.1,1.1-0.3,1.5c-0.2,0.5-0.5,0.7-0.8,0.7h-17.4c-0.3,0.6-0.6,1.1-0.8,1.5c-0.4,0.5-0.8,1-1.2,1.5h15.3
		c0.7,0,1.1,0.4,1.1,1.1v10.1c0,0.7-0.4,1.1-1.1,1.1H117C116.3,322.8,115.9,322.4,116,321.5z M113,297.4h9v-3.6
		c0-0.7,0.4-1.1,1.1-1.1c0.7,0,1,0.4,0.8,1.1v3.6h8.8v-2.5c0-0.7,0.4-1.1,1.2-1.1c0.7,0,1.1,0.4,1,1.1v5.5c0.1,0.7-0.2,1.1-1,1.1
		h-22c-0.8,0-1.2-0.4-1.2-1.1v-5.7c0.1-0.6,0.5-1,1.1-1c0.7-0.1,1.1,0.2,1.1,1V297.4z M118.2,318.6h13.4v-3.9h-13.4V318.6z"/>
	<path class="st1" d="M149.3,306.1c2.4-1.8,4-4.1,4.8-6.6h-9.8c-0.4,0-0.6-0.2-0.8-0.7c-0.2-0.4-0.3-0.9-0.3-1.7
		c0-0.4,0.1-0.8,0.3-1.2c0.2-0.5,0.5-0.7,0.8-0.7h27.8c0.3,0,0.5,0.2,0.7,0.6c0.3,0.6,0.4,1.1,0.4,1.5c0.1,0.6,0,1-0.3,1.4
		c-0.2,0.6-0.5,0.8-0.8,0.8h-15.7c-0.6,1.7-1.1,3.1-1.7,4.3c-0.7,1.3-1.6,2.5-2.5,3.6h16.6c0.7,0,1.1,0.4,1,1.1v12.4
		c0.1,0.7-0.2,1.1-1,1.1h-17.4c-0.7,0-1.1-0.4-1.1-1.1v-11c-0.8,1.1-1.8,2.1-3,3c-1,0.8-2.3,1.7-3.9,2.5c-0.5,0.2-0.9-0.2-1.4-1.2
		c-0.5-1-0.7-2-0.7-2.9c0-0.6,0.1-1,0.4-1.1C144.8,309,147.4,307.6,149.3,306.1z M152.2,317.7h15.6v-6.1h-15.6V317.7z"/>
	<path class="st1" d="M208,313c-0.2,0.4-0.5,0.6-0.8,0.6h-12.4c0.6,1.1,0.8,2.3,0.8,3.5c0,1.9-0.6,3.5-1.9,4.7
		c-1.3,1.2-3,1.8-5.2,1.8c-1.2,0-2.4-0.2-3.7-0.6c-0.5-0.1-0.7-0.6-0.7-1.7c0-0.6,0.1-1.3,0.4-1.9c0.3-0.5,0.6-0.6,1-0.6
		c1.3,0.4,2.5,0.6,3.6,0.6c2.7,0.1,4-0.8,4.1-2.6c0.1-1.1-0.1-2.2-0.7-3.2h-14.9c-0.4,0-0.6-0.2-0.8-0.7c-0.1-0.3-0.1-0.7-0.1-1.4
		c0.1-0.6,0.2-1,0.3-1.2c0.1-0.4,0.3-0.6,0.7-0.6h13.4c-0.2-0.4-0.5-0.7-1-1.1c-0.3-0.2-0.7-0.5-1.2-1c-0.3-0.2-0.4-0.5-0.4-0.8
		c-0.1-0.4,0-0.6,0.3-0.8c0.3-0.2,0.6-0.3,0.8-0.3c0.3-0.1,0.5,0,0.6,0.1c0.8,0.6,1.5,1.3,2.1,1.9c0.6-0.4,1.1-0.7,1.7-1
		c0.6-0.3,1-0.6,1.4-1.1c0.1-0.1,0.1-0.2,0.1-0.3c0-0.1-0.1-0.2-0.3-0.3h-9.8c-0.4,0.1-0.6,0-0.8-0.4c-0.2-0.3-0.3-0.6-0.3-1.1
		c0-0.4,0.1-0.7,0.3-1.1c0.1-0.3,0.3-0.4,0.7-0.4h12.6c1.1,0,1.7,0.5,1.7,1.4c0,0.4-0.1,0.8-0.3,1.2c-0.3,0.6-0.6,1.2-1,1.5
		c-0.5,0.5-1.1,1-1.9,1.5c-0.6,0.4-1.5,0.9-2.8,1.5l0.6,0.4h13.4c0.4,0,0.6,0.2,0.8,0.6c0.2,0.5,0.3,0.9,0.3,1.4
		C208.3,312.2,208.2,312.7,208,313z M193.4,297h5c0.1-0.3,0.2-0.5,0.3-0.6l2.6-3.5c0.2-0.3,0.5-0.4,0.8-0.4c0.3,0,0.6,0.1,0.8,0.3
		c0.3,0.2,0.4,0.4,0.3,0.7c0,0.3-0.1,0.5-0.3,0.7l-2.1,2.8h4.7c0.7,0,1.1,0.4,1.1,1.1v5.5c0,0.7-0.4,1.1-1.2,1c-0.6-0.1-1-0.4-1-1
		v-2.9h-23.9v2.9c0,0.6-0.4,1-1.1,1c-0.7,0.1-1.1-0.2-1.1-1v-5.5c0-0.7,0.3-1.1,1-1.1h4.3l-1.9-2.8c-0.2-0.3-0.3-0.5-0.3-0.7
		c0-0.3,0.1-0.5,0.4-0.7c0.3-0.2,0.6-0.3,0.8-0.3c0.3,0,0.6,0.1,0.8,0.4l2.3,3.5c0.2,0.1,0.3,0.3,0.3,0.6h5.1v-4
		c0-0.7,0.4-1.1,1.1-1.1c0.7,0,1.1,0.4,1.1,1.1V297z"/>
	<path class="st1" d="M223.9,305.7v11.6c1.7-0.5,2.9-1.2,3.7-2.3c0.9-1,1.4-2.3,1.4-3.7v-2.5h-3.2c-0.4,0-0.6-0.2-0.8-0.7
		c-0.2-0.4-0.3-0.9-0.3-1.5c0-0.6,0.1-1.1,0.3-1.5c0.2-0.5,0.5-0.6,0.8-0.6h3.2v-5.1h-2.3c-0.4,0-0.6-0.2-0.8-0.7
		c-0.2-0.4-0.3-0.9-0.3-1.7c0-0.4,0.1-0.7,0.3-1.1c0.3-0.6,0.6-0.8,0.8-0.8h15.2c0.4,0,0.6,0.2,0.8,0.7c0.2,0.4,0.3,0.8,0.3,1.4
		c0,0.8-0.1,1.4-0.3,1.7c-0.2,0.4-0.5,0.6-0.8,0.6h-2.5v5.1h3.7c0.4-0.1,0.6,0.1,0.8,0.7c0.2,0.5,0.3,0.9,0.3,1.4
		c0,0.6-0.1,1.2-0.3,1.5c-0.2,0.4-0.5,0.6-0.8,0.7h-3.7v12.8c0,0.7-0.4,1.1-1.1,1.1c-0.7,0-1.1-0.4-1.1-1.1v-12.8h-5.9v3
		c0,2.5-0.5,4.6-1.4,6.2c-1.1,1.8-2.8,3.2-5.1,4c-0.5,0.2-0.9,0-1.2-0.7c-0.4-0.7-0.6-1.5-0.6-2.3c0-0.2,0-0.3,0-0.4h-6.2
		c-0.7,0-1.1-0.4-1.1-1.1v-8.6c-0.4,1.2-0.7,2.1-1,2.6c-0.5,1-0.9,1.8-1.4,2.5c-0.1,0.3-0.3,0.4-0.6,0.3c-0.4,0-0.7-0.4-1.1-1.2
		c-0.4-0.8-0.6-1.6-0.6-2.2c-0.1-0.3-0.1-0.5,0-0.6c1.5-1.7,2.5-3,3-4.1c0.9-1.8,1.4-3.9,1.4-6.2h-2.3c-0.3,0-0.6-0.2-0.8-0.7
		c-0.2-0.5-0.3-1-0.3-1.5c0-0.6,0.1-1.2,0.3-1.5c0.2-0.4,0.5-0.6,0.8-0.6h10.8c0.4,0,0.6,0.2,0.8,0.7c0.3,0.5,0.4,0.9,0.3,1.4
		c0.1,0.6,0,1.1-0.3,1.5c-0.2,0.5-0.5,0.7-0.8,0.7h-6.2c0.1,1.6-0.1,3.1-0.7,4.6h5.9C223.6,304.5,224,304.9,223.9,305.7z
		 M217.8,314.2h3.9v-5.5h-3.9V314.2z M237.1,299.3h-5.9v5.1h5.9V299.3z"/>
	<path class="st1" d="M278.6,321.7c-0.2,0.4-0.5,0.6-1,0.7c-1.2,0.2-2.3,0.3-3.5,0.3c-2.3,0-4.2-0.4-5.7-1.1
		c-1.4-0.8-2.1-1.9-2.1-3.2v-5.8h-5c-0.6,3.1-2,5.6-4.1,7.3c-2.1,1.7-4.8,2.8-8.1,3.3c-0.4,0-0.7-0.4-1-1.1
		c-0.3-0.7-0.4-1.5-0.4-2.3c0-0.6,0-1,0.1-1.2c0.1-0.3,0.3-0.4,0.6-0.4c6.2,0,9.8-1.8,10.8-5.5h-6.1c-0.4,0.1-0.6-0.1-0.8-0.6
		c-0.2-0.5-0.3-1-0.3-1.5c0-0.6,0.1-1.1,0.3-1.5c0.2-0.4,0.5-0.6,0.8-0.6h6.6c0.1-0.6,0.1-1.1,0.1-1.8c0.1-0.6,0.1-1.1,0.1-1.8
		c0-0.6,0.3-1,1-1.1c0.7,0,1.1,0.4,1.1,1.1c0,0.2,0,0.3,0,0.4c0,1-0.1,2.1-0.3,3.2h5.5c0.7,0,1.1,0.3,1,1v6.2c0.1,1,0.6,1.7,1.7,2.2
		c1,0.5,2.3,0.7,4,0.7c0.8,0,1.9-0.1,3.3-0.3c0.6-0.1,0.9,0,1.1,0.3c0.2,0.4,0.3,0.9,0.3,1.7C278.7,320.7,278.7,321.2,278.6,321.7z
		 M265.6,300.3c0.1-0.1,0.1-0.2,0.1-0.3h-5.9c0.2,0.2,0.3,0.4,0.3,0.6c0,0.2-0.1,0.4-0.3,0.6c-0.6,1.1-1.5,2.2-2.6,3.3
		c-1.2,1.2-2.4,2.1-3.6,2.8c-0.5,0.2-0.9-0.1-1.4-1c-0.5-0.8-0.7-1.6-0.7-2.3c0-0.6,0.2-0.9,0.6-1c1.1-0.2,2.2-0.6,3.3-1.1
		c1.1-0.5,2-1.1,2.6-1.8h-7.2v2.2c0,0.7-0.4,1.1-1.2,1.1c-0.6,0-1-0.4-1-1.1v-5.1c0-0.7,0.4-1.1,1.1-1.1h11.9v-2.5
		c0-0.7,0.3-1.1,1-1.1c0.8,0,1.2,0.4,1.2,1.1v2.5h12.4c0.6,0,1,0.4,1.1,1.1v5.1c-0.1,0.7-0.5,1.1-1.1,1.1c-0.7,0-1.1-0.4-1.1-1.1
		V300h-7.6c0.6,0.6,1.5,1.2,2.6,1.8c1.2,0.6,2.3,0.9,3.3,1.1c0.4,0.1,0.6,0.4,0.6,1c0,0.7-0.2,1.5-0.7,2.3c-0.4,0.7-0.7,1.1-1.1,1
		c-0.8-0.2-2.1-1.1-3.7-2.6c-1.2-1.2-2.1-2.3-2.8-3.5c-0.1-0.2-0.1-0.4-0.1-0.6C265.6,300.5,265.6,300.4,265.6,300.3z"/>
	<path class="st1" d="M292.6,306.9l1.7-1.8h-5.8c-0.4,0-0.6-0.2-0.8-0.6c-0.2-0.4-0.3-0.8-0.3-1.4c0-0.6,0.1-1,0.3-1.4
		c0.2-0.4,0.5-0.6,0.8-0.6h19.7c0.4,0,0.6,0.2,0.8,0.6c0.2,0.5,0.3,0.9,0.3,1.4c0,0.6-0.1,1-0.3,1.4c-0.2,0.4-0.5,0.6-0.8,0.6h-5.7
		l1.7,1.5c0.6,0.9,1,1.7,1,2.3c0,0.8-0.5,1.5-1.4,1.9c-0.5,0.3-1.2,0.5-2.1,0.6c-0.6,0.1-1.5,0.1-2.6,0.1v1.1h8.3
		c0.3,0,0.5,0.2,0.7,0.6c0.2,0.4,0.3,0.8,0.3,1.2c0.1,1.2-0.2,1.8-1,1.8h-8.3v2.2h13.1c0.4-0.1,0.6,0.1,0.8,0.6
		c0.2,0.5,0.3,1,0.3,1.5c0,0.6-0.1,1.1-0.3,1.5c-0.2,0.5-0.5,0.7-0.8,0.7h-27.8c-0.4,0.1-0.6-0.1-0.8-0.7c-0.2-0.5-0.3-1-0.3-1.5
		c0-0.6,0.1-1.1,0.3-1.5c0.2-0.4,0.5-0.6,0.8-0.6h12.7v-2.2h-7.6c-0.4,0-0.6-0.1-0.8-0.4c-0.2-0.5-0.3-0.9-0.3-1.4
		c0-0.5,0.1-0.9,0.3-1.2c0.2-0.4,0.5-0.6,0.8-0.6h7.6v-1.1c-0.9,0-1.7,0-2.2-0.1c-0.7-0.1-1.3-0.2-1.7-0.4c-0.6-0.3-1-0.6-1.2-0.8
		c-0.3-0.3-0.4-0.6-0.4-1c0-0.4,0.1-0.7,0.3-1.1C292.1,307.8,292.4,307.4,292.6,306.9z M312.7,296.8v7c0.1,0.7-0.2,1.1-1,1.1
		c-0.6,0-1-0.4-1-1.1v-5.1h-24.9v5.1c0,0.7-0.3,1.1-1,1.1c-0.6,0-1-0.4-1-1.1v-7c0-0.7,0.4-1.1,1.1-1.1h12.2v-1.9
		c0-0.7,0.3-1.1,1-1.1c0.6,0,1,0.4,1,1.1v1.9h12.6C312.4,295.7,312.8,296.1,312.7,296.8z M299.6,305.1h-2.3l-1.5,1.5
		c-0.3,0.3-0.4,0.5-0.4,0.7c0,0.3,0.2,0.5,0.6,0.7c0.5,0.3,1.3,0.4,2.5,0.4c1.7,0,2.7-0.2,3.2-0.7c0.1-0.1,0.1-0.2,0.1-0.4
		c0-0.2-0.1-0.4-0.4-0.7C300.9,306.3,300.4,305.8,299.6,305.1z"/>
	<path class="st1" d="M342.1,309.4c2.3,1.8,4.3,3.3,5.9,4.4c0.3,0.2,0.4,0.6,0.4,1.1c0,0.9-0.3,1.9-0.8,3c-0.6,1.1-1.1,1.7-1.7,1.7
		c-0.2,0-0.3,0-0.4-0.1c-1.7-1.7-3.6-3.7-5.5-5.8c-1.4-1.7-3.1-3.8-5.1-6.4c-1.3-1.7-2.6-3.5-4-5.2c-0.2-0.2-0.4-0.3-0.7-0.3
		c-0.3,0-0.5,0.1-0.7,0.3c-1.3,1.5-2.8,3.4-4.6,5.8c-1.7,2.3-3,4.4-4.1,6.4c-0.1,0.2-0.2,0.3-0.3,0.3c-0.4,0-0.8-0.6-1.4-1.8
		c-0.6-1.2-0.9-2.2-1-2.9c0.1-0.4,0.2-0.6,0.3-0.8c1.5-1.6,3.1-3.2,5-4.8c1.7-1.5,3.4-2.8,4.8-3.9c0.7-0.6,1.4-0.8,2.1-0.8
		c0.7,0,1.4,0.3,1.9,0.8c1.9,2,3.4,3.5,4.3,4.3C338.3,306.2,340.2,307.8,342.1,309.4z"/>
	<path class="st1" d="M370.8,295.3v4.4h10.9c0.4,0,0.6,0.2,0.8,0.7c0.3,0.5,0.4,1,0.3,1.7c0,0.6-0.1,1.2-0.3,1.5
		c-0.2,0.5-0.5,0.7-0.8,0.7h-10.9v7.6c4.4,1.1,8.4,2.7,12,4.8c0.3,0.1,0.4,0.4,0.4,1c0,0.7-0.2,1.7-0.7,2.8c-0.5,1-0.9,1.5-1.4,1.5
		c-0.1,0-0.2,0-0.3-0.1c-1.6-1.1-3-2-4.3-2.8c-2.3-1.4-4.2-2.3-5.8-2.9v0.8c0.1,1.8-0.5,3.3-1.8,4.3c-1.2,0.9-2.8,1.4-4.8,1.5
		c-3.1,0.2-5.3-0.4-6.6-1.7c-0.9-0.9-1.4-2.2-1.5-3.7c0-0.5,0-0.8,0-1c0.2-1.4,1-2.6,2.3-3.6c1.4-1.1,3.5-1.7,6.4-1.7
		c1.5,0,2.8,0.1,3.9,0.3v-16.2c0.1-0.3,0.2-0.5,0.4-0.7c0.2-0.2,0.4-0.3,0.7-0.4C370.4,294.2,370.8,294.6,370.8,295.3z M367.1,317.9
		c0.9-0.5,1.4-1.1,1.5-1.9v-0.6c-0.7-0.2-1.4-0.4-2.1-0.6c-0.6-0.1-1.3-0.1-2.3-0.1c-2.2,0-3.8,0.2-4.7,0.6
		c-0.8,0.3-1.2,0.7-1.2,1.4c0,0.7,0.5,1.2,1.5,1.5c1.1,0.4,2.4,0.5,4,0.4C365.2,318.6,366.3,318.4,367.1,317.9z"/>
	<path class="st1" d="M415.8,306.9c0.1,0.8,0,1.8-0.1,2.8c-0.8,4.7-3.1,8.1-6.8,10.4c-3,1.8-7,2.8-11.7,2.9c-1.1,0-1.8-0.4-2.2-1.2
		c-0.4-0.8-0.6-1.7-0.6-2.6c0-0.9,0.2-1.4,0.7-1.4c4.8,0,8.8-0.7,12.2-2.1c3.6-1.5,5.7-3.5,6.4-6.1c0.1-0.3,0.1-0.5,0.1-0.7
		c0-0.3,0-0.6,0-1c-0.1-0.6-0.3-1.1-0.6-1.4c-0.4-0.4-1-0.6-1.8-0.7c-0.7-0.1-1.7-0.1-2.8-0.1c-2.3,0-5,0.1-8.1,0.4
		c-3.1,0.2-5.7,0.5-7.6,1c-0.4,0.1-0.7-0.1-1-0.7c-0.2-0.6-0.3-1.3-0.3-2.1c-0.1-1,0.1-1.6,0.7-1.8c1.7-0.4,4.1-0.7,7.2-1
		c3.1-0.3,5.8-0.4,8.1-0.4c1.7,0.1,3,0.2,3.9,0.3c1.5,0.2,2.6,0.8,3.3,1.8C415.5,304.1,415.8,305.3,415.8,306.9z M403.8,294.7
		c2.9,0.3,5.3,0.4,7.5,0.4c0.4,0,0.6,0.3,0.6,1c0,0.7-0.2,1.5-0.7,2.3c-0.4,0.7-1,1.1-1.8,1c-2.2-0.4-4.4-0.8-6.5-1.4
		c-3.2-0.9-5.5-1.8-6.9-2.8c-0.4-0.3-0.6-0.6-0.6-1c0-0.3,0.1-0.5,0.3-0.7c0.2-0.2,0.5-0.3,0.8-0.3c0.2,0,0.4,0,0.6,0.1
		C398.2,294,400.4,294.4,403.8,294.7z"/>
	<path class="st1" d="M452.4,320.4c-0.2,0.6-0.4,0.9-0.7,1c-1.2,0.4-2.7,0.6-4.4,0.8c-1.6,0.2-3.3,0.3-5.1,0.3
		c-1.8,0.1-3.3,0-4.6-0.3c-1-0.1-1.8-0.2-2.5-0.3c-1.7-0.3-3.1-0.6-4.1-1.1c-1.2-0.6-2.1-1.2-2.6-1.9c-0.6-0.7-0.8-1.6-0.8-2.6
		c0-1.2,0.4-2.4,1.1-3.7c0.7-1.2,1.7-2.3,2.9-3.3c0.1-0.2,0.3-0.3,0.6-0.3c0.4,0.1,0.6,0.2,0.8,0.4c0.2,0.3,0.3,0.5,0.3,0.7
		c0,0.3-0.1,0.6-0.4,0.8c-0.7,0.6-1.3,1.3-1.8,1.9c-0.5,0.7-0.7,1.3-0.7,1.8c0,0.3,0,0.5,0.1,0.7c0.3,0.4,0.7,0.6,1.4,0.8
		c0.4,0.2,1.5,0.5,3.3,0.8c0.3,0.1,1.2,0.2,2.6,0.3c1.1,0.1,2.3,0.1,3.5,0.1c2.1,0,4.1-0.1,5.8-0.3c1.7-0.2,3.3-0.5,4.6-0.8
		c0.4-0.1,0.6,0.1,0.7,0.7c0.2,0.6,0.3,1.2,0.3,1.9C452.6,319.6,452.5,320.1,452.4,320.4z M450.5,297.9c0.1,0.3,0,0.6-0.3,1
		c-0.6,0.8-1.4,1.8-2.5,2.8c-1.1,1-2.1,1.8-3,2.5c-0.2,0.2-0.4,0.3-0.7,0.3c-0.3-0.1-0.5-0.2-0.7-0.4c-0.2-0.2-0.3-0.4-0.3-0.7
		c0.1-0.3,0.2-0.6,0.4-0.8c0.4-0.4,0.8-0.7,1.4-1.1c0.6-0.5,0.9-0.8,1.1-1c-3.8-0.1-7.4-0.1-10.9-0.1c-1.7,0-3,0-4,0.1
		c-0.3,0-0.6-0.2-1-0.7c-0.2-0.5-0.3-1.1-0.4-1.9c0-0.3,0.1-0.7,0.3-1.2c0.2-0.5,0.4-0.7,0.7-0.7c1.7-0.2,4-0.3,7.2-0.3
		c5.2,0,8.8,0.1,10.8,0.4c0.6,0.2,1.2,0.4,1.5,0.7C450.4,297,450.6,297.5,450.5,297.9z"/>
	<path class="st1" d="M476.2,308.7l-13.7,0.6c-0.4,0-0.7-0.3-1-0.8c-0.3-0.6-0.4-1.1-0.4-1.8c0-0.5,0.1-0.9,0.3-1.2
		c0.2-0.5,0.5-0.7,0.8-0.7l6.5-0.3c2.1-0.8,4-1.7,5.8-2.6c1.8-0.9,3.5-1.9,5-3h-12.8c-0.5,0-0.8-0.2-1-0.6c-0.3-0.5-0.4-1-0.4-1.5
		c0-0.6,0.1-1.1,0.4-1.5c0.3-0.5,0.6-0.7,1-0.7h14.5c0.6,0,1.2,0.2,1.5,0.6c0.6,0.5,0.8,1,0.8,1.5c0,0.6-0.1,1-0.3,1.4
		c-0.2,0.5-0.6,0.9-1.1,1.2c-1.3,1-2.5,1.9-3.7,2.6c-1.6,1-3,1.8-4.4,2.5l14.1-0.6c0.4,0,0.7,0.2,1,0.7c0.2,0.5,0.3,1,0.3,1.5
		c0,0.6-0.1,1.1-0.3,1.5c-0.2,0.6-0.5,0.8-1,0.8l-8.3,0.3c-1.5,0.7-2.7,1.6-3.7,2.5c-1.1,1-1.7,2-1.8,3c-0.1,1.5,0.6,2.5,2.1,3.2
		c1.2,0.6,2.9,0.8,5,0.8c0.3,0.1,0.5,0.2,0.6,0.4c0.2,0.3,0.2,0.7,0.1,1.4c-0.1,0.8-0.2,1.5-0.4,2.1c-0.2,0.6-0.5,1-0.8,1.1
		c-2.5,0.6-4.7-0.1-6.8-2.1c-1.7-1.5-2.5-3.5-2.5-5.9c0.1-1.1,0.5-2.2,1.2-3.3C473.6,310.5,474.8,309.5,476.2,308.7z"/>
</g>
</svg>
